<?xml version="1.0" encoding="UTF-8"?>
<svg id="Layer_2" data-name="Layer 2" xmlns="http://www.w3.org/2000/svg" viewBox="0 0 121.91 45.45">
  <defs>
    <style>
      .cls-1 {
        fill: #e9e8ef;
      }

      .cls-1, .cls-2 {
        stroke-width: 0px;
      }

      .cls-2 {
        fill: #9390ad;
      }
    </style>
  </defs>
  <g id="arrows">
    <g>
      <polygon class="cls-2" points="121.91 22.72 112.14 11.36 102.36 0 102.36 0 19.55 0 19.55 0 9.77 11.36 0 22.72 9.77 34.08 19.55 45.45 19.55 45.45 19.55 45.45 19.55 45.45 19.55 45.45 102.36 45.45 102.36 45.45 102.36 45.45 102.36 45.45 102.36 45.45 112.14 34.08 121.91 22.72"/>
      <g>
        <path class="cls-1" d="m44.78,28.83c-.14,0-.26-.05-.35-.14-.09-.09-.14-.21-.14-.35v-6.31c0-1.13-.28-2-.84-2.63-.56-.63-1.47-.94-2.72-.94h-3.97c-.14,0-.26-.05-.35-.14-.09-.09-.14-.21-.14-.35v-.72c0-.14.05-.26.14-.35.09-.09.21-.14.35-.14h4.08c1.83,0,3.19.44,4.07,1.33.88.89,1.32,2.17,1.32,3.86v6.38c0,.14-.05.26-.14.35-.09.09-.21.14-.35.14h-.95Zm-8.02,0c-.14,0-.26-.05-.35-.14-.09-.09-.14-.21-.14-.35v-7.05c0-.14.05-.26.14-.35.09-.09.21-.14.35-.14h.97c.14,0,.25.05.34.14.08.09.13.21.13.35v7.05c0,.14-.04.26-.13.35-.08.09-.2.14-.34.14h-.97Z"/>
        <path class="cls-1" d="m53.88,29.02c-.13.04-.24.02-.35-.05-.11-.08-.16-.19-.16-.33v-.97c0-.13.04-.24.12-.34.08-.1.19-.18.35-.23l.8-.32c.56-.24,1.07-.53,1.53-.87.46-.34.82-.8,1.08-1.39s.39-1.37.39-2.32-.11-1.64-.34-2.19-.59-.93-1.11-1.16-1.21-.35-2.08-.35h-4.29c-.14,0-.26-.05-.35-.14-.09-.09-.14-.21-.14-.35v-.76c0-.14.04-.26.14-.35.09-.09.21-.14.35-.14h4.56c1.29,0,2.32.18,3.07.55.75.37,1.3.95,1.63,1.76.33.81.5,1.87.5,3.18,0,.99-.13,1.84-.4,2.56-.27.72-.63,1.33-1.09,1.84-.46.51-.97.93-1.54,1.26-.57.33-1.17.6-1.79.81l-.89.3Zm-4.05,3.84c-.14,0-.26-.05-.35-.14-.09-.09-.14-.21-.14-.35v-11.09c0-.14.04-.26.14-.35.09-.09.21-.14.35-.14h.93c.15,0,.27.05.36.14.08.09.13.21.13.35v11.09c0,.14-.04.26-.13.35-.08.09-.2.14-.36.14h-.93Z"/>
        <path class="cls-1" d="m62.9,23.93c-.14,0-.26-.05-.35-.14-.09-.09-.14-.21-.14-.35v-6.19c0-.14.05-.26.14-.35.09-.09.21-.14.35-.14h1.01c.14,0,.25.05.34.14.08.09.13.21.13.35v6.19c0,.14-.04.26-.13.35-.08.09-.2.14-.34.14h-1.01Z"/>
        <path class="cls-1" d="m67.14,18.46c-.14,0-.26-.05-.35-.14-.09-.09-.14-.21-.14-.35v-.72c0-.14.04-.26.14-.35.09-.09.21-.14.35-.14h9.06c.14,0,.26.05.35.14.09.09.14.21.14.35v.72c0,.14-.05.26-.14.35-.09.09-.21.14-.35.14h-9.06Zm5.7,10.37c-.31,0-.46-.15-.46-.46v-7.54c0-.83.1-1.48.3-1.94.2-.46.44-.7.74-.7h2.07c-.35,0-.64.27-.86.8-.22.54-.33,1.2-.33,1.98v7.39c0,.14-.05.25-.15.34-.1.08-.22.13-.36.13h-.95Z"/>
        <path class="cls-1" d="m79.24,28.83c-.14,0-.26-.05-.35-.14-.09-.09-.14-.21-.14-.35v-.72c0-.14.04-.26.14-.35.09-.09.21-.14.35-.14h6.06v-5.11c0-1.13-.28-2-.84-2.63-.56-.63-1.47-.94-2.72-.94h-2.28c-.14,0-.26-.05-.35-.14-.09-.09-.14-.21-.14-.35v-.72c0-.14.05-.26.14-.35.09-.09.21-.14.35-.14h2.39c1.21,0,2.22.2,3.02.59.8.39,1.4.98,1.81,1.74.4.77.6,1.72.6,2.86v5.17h.78c.14,0,.26.05.35.14.09.09.14.21.14.35v.72c0,.14-.05.26-.14.35-.09.09-.21.14-.35.14h-8.81Z"/>
      </g>
    </g>
  </g>
</svg>