<?xml version="1.0" encoding="UTF-8"?>
<svg id="Layer_2" data-name="Layer 2" xmlns="http://www.w3.org/2000/svg" viewBox="0 0 87.43 32.59">
  <defs>
    <style>
      .cls-1 {
        fill: #e9e8ef;
      }

      .cls-1, .cls-2 {
        stroke-width: 0px;
      }

      .cls-2 {
        fill: #9390ad;
      }
    </style>
  </defs>
  <g id="arrows">
    <g>
      <polygon class="cls-2" points="87.43 16.3 80.42 8.15 73.41 0 73.41 0 14.02 0 14.02 0 7.01 8.15 0 16.3 7.01 24.44 14.02 32.59 14.02 32.59 14.02 32.59 14.02 32.59 14.02 32.59 73.41 32.59 73.41 32.59 73.41 32.59 73.41 32.59 73.41 32.59 80.42 24.44 87.43 16.3"/>
      <g>
        <path class="cls-1" d="m32.11,21.64c-.1,0-.18-.03-.25-.1s-.1-.15-.1-.25v-4.53c0-.81-.2-1.44-.61-1.89-.4-.45-1.06-.67-1.95-.67h-2.85c-.1,0-.18-.03-.25-.1s-.1-.15-.1-.25v-.51c0-.1.03-.18.1-.25s.15-.1.25-.1h2.92c1.31,0,2.28.32,2.92.95.63.64.95,1.56.95,2.77v4.57c0,.1-.03.18-.1.25-.07.07-.15.1-.25.1h-.68Zm-5.75,0c-.1,0-.18-.03-.25-.1s-.1-.15-.1-.25v-5.06c0-.1.03-.18.1-.25s.15-.1.25-.1h.7c.1,0,.18.03.24.1s.09.15.09.25v5.06c0,.1-.03.18-.09.25s-.14.1-.24.1h-.7Z"/>
        <path class="cls-1" d="m35.34,21.64c-.09,0-.17-.04-.23-.11-.06-.07-.09-.16-.08-.26l1.29-7.42c.02-.1.07-.18.14-.23s.16-.07.26-.05l.61.03c.1.01.18.05.24.13.06.08.08.16.06.27l-1.21,7.28c-.01.1-.05.19-.13.26-.08.07-.16.11-.27.11h-.68Zm3.83-7.41h-3.68c-.11,0-.2-.03-.26-.1s-.09-.15-.09-.25v-.54c0-.1.03-.18.09-.25s.15-.1.26-.1h3.85c.63,0,1.18.15,1.67.44.49.29.87.71,1.15,1.26s.42,1.21.42,1.99v4.6c0,.1-.03.18-.09.25s-.15.1-.26.1h-3.91c-.1,0-.18-.03-.25-.1-.07-.07-.1-.15-.1-.25v-.52c0-.1.03-.18.1-.25.07-.07.15-.1.25-.1h2.88v-3.65c0-.51-.09-.96-.26-1.35s-.42-.68-.73-.89c-.31-.21-.65-.31-1.04-.31Z"/>
        <path class="cls-1" d="m46.83,20.87c-.37.25-.72.45-1.05.58s-.67.24-1.02.31c-.1.01-.19,0-.26-.03-.07-.03-.11-.1-.11-.2v-.76c0-.17.11-.3.32-.38.07-.03.2-.08.39-.14.19-.07.4-.14.62-.23.22-.09.41-.19.58-.29.25-.16.5-.37.74-.63.24-.26.45-.53.61-.8.17-.28.25-.52.25-.73l.88-.11c0,.43-.11.87-.29,1.32-.18.44-.42.85-.71,1.21-.29.36-.61.66-.95.88Zm1.95.77c-.1,0-.18-.03-.23-.1s-.09-.15-.11-.25l-.92-4.65c-.1-.53-.22-.98-.36-1.34-.14-.36-.32-.63-.54-.82-.23-.19-.54-.28-.93-.28h-.54c-.1,0-.18-.03-.25-.1s-.1-.15-.1-.25v-.54c0-.1.03-.18.1-.25s.15-.1.25-.1h.56c.68,0,1.22.13,1.63.4s.75.67.99,1.2.45,1.2.61,2l.92,4.73c.02.1,0,.18-.08.25-.08.07-.16.1-.26.1h-.73Z"/>
        <path class="cls-1" d="m51.92,21.64c-.1,0-.18-.03-.25-.1s-.1-.15-.1-.25v-7.95c0-.1.03-.18.1-.25s.15-.1.25-.1h.71c.11,0,.2.03.26.1s.09.15.09.25v7.95c0,.1-.03.18-.09.25s-.15.1-.26.1h-.71Z"/>
        <path class="cls-1" d="m55.06,14.21c-.1,0-.18-.03-.25-.1-.07-.07-.1-.15-.1-.25v-.51c0-.1.03-.18.1-.25.07-.07.15-.1.25-.1h6.5c.1,0,.18.03.25.1s.1.15.1.25v.51c0,.1-.03.18-.1.25s-.15.1-.25.1h-6.5Zm4.09,7.44c-.22,0-.33-.11-.33-.33v-5.41c0-.6.07-1.06.21-1.39.14-.33.32-.5.53-.5h1.48c-.25,0-.46.19-.61.58-.16.38-.23.86-.23,1.42v5.3c0,.1-.04.18-.11.24s-.16.09-.26.09h-.68Z"/>
      </g>
    </g>
  </g>
</svg>