<?xml version="1.0" encoding="UTF-8"?>
<svg id="Layer_2" data-name="Layer 2" xmlns="http://www.w3.org/2000/svg" viewBox="0 0 158.2 133">
  <defs>
    <style>
      .cls-1 {
        fill: #e9e8ef;
      }

      .cls-1, .cls-2 {
        stroke-width: 0px;
      }

      .cls-2 {
        fill: #bf936b;
      }
    </style>
  </defs>
  <g id="arrows">
    <g>
      <path class="cls-2" d="m158.2,37.66l-24.06-2.94V7.69c0-4.25-4.46-7.69-9.97-7.69h-5.34c-5.5,0-9.96,3.44-9.96,7.69v23.94L26.79,21.59l-13.4,8.93L0,39.46l10.85,11.9,10.85,11.9,87.16,10.66v59.09h25.28v-56l18.96,2.32,5.1-41.66Z"/>
      <g>
        <path class="cls-1" d="m52.3,54.35c-.01.64-1.52.92-3.51.67-8.39-1.06-7.13-10.53-8.55-13.39-1.06,3.39-1.27,9-.3,10.4.23.3.4.55.4.82.02.64-1.49.92-2.71.77-1.19-.15-2.58-.79-2.44-1.42.07-.26.33-.46.59-.7,1.73-1.49,3.24-10.83,1.62-12.85-.23-.3-.4-.59-.4-.86,0-.6,1.53-.92,2.71-.77l2.51.32c6.51.82,4.33,10.34,6.78,13.07,1.03-3.36,1.54-8.77.35-10.26-.23-.3-.4-.59-.43-.86,0-.6,1.52-.92,2.75-.76,1.19.15,2.58.83,2.44,1.42-.07.26-.3.5-.63.73-2.04,1.56-2.93,10.97-1.62,12.85.23.3.43.56.43.83Z"/>
        <path class="cls-1" d="m60.01,46.46l.93.12c2.25.28,2.46-1.43,3.27-1.43.64.01.92,1.53.77,2.71-.15,1.22-.8,2.62-1.41,2.44-.78-.2-.57-1.88-2.81-2.17l-.99-.12c-.42,3.34.08,6.82,1.93,7.06,1.16.14,2.4-.37,3.26-1.87.96-1.73,4.41-.65,4.2,1-.22,1.72-2.63,3.06-4.52,2.82l-8.42-1.06c-2.02-.25-3.84-.72-3.67-2.01.07-.59.6-1.27,1.02-1.68,1.37-1.27,1.9-8.72,1.15-10.16-.25-.43-.52-1.17-.46-1.7.16-1.25,2.04-1.29,4.06-1.03l8.42,1.06c1.88.24,3.89,2.13,3.67,3.89-.2,1.62-3.82,1.83-4.32-.07-.46-1.67-1.53-2.48-2.69-2.62-1.55-.2-2.75,2.1-3.36,4.85Z"/>
        <path class="cls-1" d="m84.57,59.52l-.3-.04c-2.02-.25-4.89-.85-5.62-2.25-.35-.65-.16-1.4-.2-1.84-.02-.61-.53-1.91-1.24-3.45-.82,2.21-1.96,3.28-2.42,4.02-.26.44.19.66-.25,1.18-.4.55-2.35.81-3.57.66-1.19-.15-2.29-.76-1.71-1.32.26-.24.66-.42,1.12-.63,1.39-.66,6.57-4.74,4.98-7.53-1.05-1.81-2.03-3.31-2.72-3.97-.51-.47-1.25-1.26-1.55-1.84-.73-1.37,1.51-1.35,3.53-1.1l.3.04c2.02.25,4.39.82,5.09,2.19.3.57.31,1.28.26,1.68-.06.5.41,1.8,1.12,3.36.79-2.25,2.46-3.52,2.31-4.21-.07-.28-.07-.54.1-.79.41-.55,2.25-.82,3.44-.67,1.22.15,2.42.81,1.84,1.34-.23.24-.63.46-1.12.66-1.49.65-6.57,3.67-4.72,7.36.89,1.76,1.85,3.15,2.52,3.94.56.61,1.5,1.4,1.82,2.04.73,1.4-.98,1.42-3,1.17Z"/>
        <path class="cls-1" d="m104.52,49.01c-.3-1.58-1.18-2.36-1.67-2.43-1.49-.19-2.93,9.43-2,11.63.24.53.64,1.29.57,1.88-.16,1.29-2.04,1.29-4.06,1.03l-.26-.03c-2.01-.25-3.84-.72-3.67-2.01.07-.59.69-1.19,1.02-1.68,1.36-2.04,2.36-11.58.98-11.76-.53-.07-1.54.48-2.26,1.93-.95,1.93-3.72.2-3.36-1.83.37-2.1,2.51-2.1,4.59-1.84l9.88,1.24c2.08.26,4.13.79,3.96,2.92-.16,2.06-3.27,3.04-3.71.94Z"/>
      </g>
    </g>
  </g>
</svg>