<?xml version="1.0" encoding="UTF-8"?>
<svg id="Layer_2" data-name="Layer 2" xmlns="http://www.w3.org/2000/svg" viewBox="0 0 741.08 620.12">
  <defs>
    <style>
      .cls-1 {
        fill: #592059;
        stroke-width: 0px;
      }
    </style>
  </defs>
  <g id="text">
    <g>
      <g>
        <g>
          <g>
            <path class="cls-1" d="m185.99,406.19h.45c.18,0,.32.04.41.13s.13.2.12.33c-.1.5-.18.96-.24,1.37-.07.41-.11.81-.13,1.21-.02.4-.04.85-.04,1.36l.05,4.9c0,.12-.04.22-.12.3s-.18.12-.3.12l-2.56-.04c-.12,0-.22-.04-.3-.11-.08-.07-.12-.17-.12-.31v-.58c0-.12.04-.22.12-.3.08-.08.18-.12.3-.12l1.39.02v-3.82c0-.49,0-.94.02-1.36.01-.41.05-.83.11-1.25.06-.42.16-.89.29-1.42.04-.13.09-.24.17-.32s.21-.13.39-.13Zm-1.62.88c-.12,0-.22-.04-.3-.12s-.12-.18-.12-.3v-.61c0-.12.04-.22.12-.3s.18-.12.3-.12h3.91c1.03,0,1.89.17,2.57.5.68.33,1.18.82,1.52,1.48s.5,1.46.5,2.42v5.47c0,.12-.04.22-.12.3-.08.08-.18.12-.3.12h-.81c-.13,0-.23-.04-.31-.12-.07-.08-.11-.18-.11-.3v-5.38c0-.96-.24-1.71-.72-2.24-.48-.53-1.25-.8-2.32-.8h-3.82Z"/>
            <path class="cls-1" d="m195.94,415.91c-.12,0-.22-.04-.3-.12s-.12-.18-.12-.3v-9.45c0-.12.04-.22.12-.3s.18-.12.3-.12h.85c.13,0,.23.04.31.12s.11.18.11.3v9.45c0,.12-.04.22-.11.3s-.17.12-.31.12h-.85Z"/>
            <path class="cls-1" d="m199.95,415.91c-.12,0-.22-.04-.3-.12-.08-.08-.12-.18-.12-.3v-2.7c0-.55.05-1.08.16-1.58.11-.5.32-.97.64-1.42.32-.45.79-.87,1.43-1.27l.83,1.21c-.43.28-.76.59-.97.95-.22.35-.36.72-.43,1.1-.07.38-.11.74-.11,1.09v2.63c0,.12-.04.22-.12.3s-.18.12-.3.12h-.72Zm7.02,0c-.13,0-.23-.04-.31-.11-.07-.07-.14-.14-.2-.2l-6.61-9.27c-.08-.13-.13-.25-.13-.34s.04-.18.12-.25.17-.11.26-.11h.85c.13,0,.24.04.32.11.08.07.14.14.19.2l6.62,9.27c.05.08.08.15.1.2.02.05.03.1.03.14,0,.1-.04.18-.11.25s-.16.11-.25.11h-.88Zm-1.44-3.29l-.74-1.24c.59-.28,1-.56,1.25-.86.25-.3.39-.61.44-.94.05-.33.07-.67.07-1.04v-2.48c0-.12.04-.22.12-.3s.18-.12.3-.12h.76c.12,0,.22.04.3.12.08.08.12.18.12.3v2.57c0,.5-.06.99-.18,1.46s-.36.91-.73,1.32c-.37.41-.93.82-1.7,1.21Z"/>
            <path class="cls-1" d="m215.67,414.56c.78.01,1.44-.13,1.97-.43.53-.3.94-.73,1.22-1.29.28-.56.42-1.2.42-1.92v-4.88c0-.12.04-.22.12-.3.08-.08.18-.12.3-.12h.76c.12,0,.22.04.29.12s.11.18.11.3v5c0,.77-.12,1.46-.36,2.08-.24.62-.58,1.15-1.03,1.58-.44.44-.97.77-1.58,1-.61.23-1.27.33-2.01.31h-1.35c-.78,0-1.48-.18-2.11-.54-.62-.36-1.12-.86-1.48-1.51-.36-.65-.54-1.4-.54-2.25v-5.67c0-.12.04-.22.12-.3.08-.08.18-.12.3-.12h.76c.12,0,.22.04.3.12s.12.18.12.3l.05,5.31c0,1.03.29,1.82.86,2.38s1.31.83,2.2.83h.56Zm-4-2.11l-.04-1.31c.89-.01,1.57-.15,2.03-.41s.79-.6.98-1.04c.19-.43.28-.91.28-1.42v-2.23c0-.12.04-.22.11-.3s.17-.12.31-.12h.74c.12,0,.22.04.3.12s.12.18.12.3v2.3c0,.78-.17,1.48-.52,2.11-.35.62-.88,1.12-1.59,1.48-.71.36-1.62.53-2.71.52Z"/>
            <path class="cls-1" d="m229.19,415.91c-.12,0-.22-.04-.3-.12-.08-.08-.12-.18-.12-.3v-5.38c0-.96-.24-1.71-.72-2.24-.48-.53-1.25-.8-2.32-.8h-2.36c-.12,0-.22-.04-.3-.12s-.12-.18-.12-.3v-.61c0-.12.04-.22.12-.3s.18-.12.3-.12h2.45c1.03,0,1.89.16,2.57.49.68.32,1.18.81,1.52,1.47.34.65.5,1.47.5,2.44v5.47c0,.12-.04.22-.12.3s-.18.12-.3.12h-.81Z"/>
            <path class="cls-1" d="m240.33,415.91c-.12,0-.22-.04-.3-.12s-.12-.18-.12-.3v-5.38c0-.96-.24-1.71-.72-2.24s-1.25-.8-2.32-.8h-3.38c-.12,0-.22-.04-.3-.12s-.12-.18-.12-.3v-.61c0-.12.04-.22.12-.3s.18-.12.3-.12h3.47c1.56,0,2.71.38,3.46,1.13.75.76,1.12,1.85,1.12,3.29v5.44c0,.12-.04.22-.12.3s-.18.12-.3.12h-.81Zm-6.84,0c-.12,0-.22-.04-.3-.12s-.12-.18-.12-.3v-6.01c0-.12.04-.22.12-.3s.18-.12.3-.12h.83c.12,0,.22.04.29.12s.11.18.11.3v6.01c0,.12-.04.22-.11.3s-.17.12-.29.12h-.83Z"/>
            <path class="cls-1" d="m251.47,415.91c-.12,0-.22-.04-.3-.12s-.12-.18-.12-.3v-5.38c0-.96-.24-1.71-.72-2.24s-1.25-.8-2.32-.8h-3.38c-.12,0-.22-.04-.3-.12s-.12-.18-.12-.3v-.61c0-.12.04-.22.12-.3s.18-.12.3-.12h3.47c1.56,0,2.71.38,3.46,1.13.75.76,1.12,1.85,1.12,3.29v5.44c0,.12-.04.22-.12.3s-.18.12-.3.12h-.81Zm-6.84,0c-.12,0-.22-.04-.3-.12s-.12-.18-.12-.3v-6.01c0-.12.04-.22.12-.3s.18-.12.3-.12h.83c.12,0,.22.04.29.12s.11.18.11.3v6.01c0,.12-.04.22-.11.3s-.17.12-.29.12h-.83Z"/>
            <path class="cls-1" d="m262.11,406.19h.45c.18,0,.32.04.41.13s.13.2.12.33c-.1.5-.18.96-.24,1.37-.07.41-.11.81-.13,1.21-.02.4-.04.85-.04,1.36l.05,4.9c0,.12-.04.22-.12.3s-.18.12-.3.12l-2.56-.04c-.12,0-.22-.04-.3-.11-.08-.07-.12-.17-.12-.31v-.58c0-.12.04-.22.12-.3.08-.08.18-.12.3-.12l1.39.02v-3.82c0-.49,0-.94.02-1.36.01-.41.05-.83.11-1.25.06-.42.16-.89.29-1.42.04-.13.09-.24.17-.32s.21-.13.39-.13Zm-1.62.88c-.12,0-.22-.04-.3-.12s-.12-.18-.12-.3v-.61c0-.12.04-.22.12-.3s.18-.12.3-.12h3.91c1.03,0,1.89.17,2.57.5.68.33,1.18.82,1.52,1.48s.5,1.46.5,2.42v5.47c0,.12-.04.22-.12.3-.08.08-.18.12-.3.12h-.81c-.13,0-.23-.04-.31-.12-.07-.08-.11-.18-.11-.3v-5.38c0-.96-.24-1.71-.72-2.24-.48-.53-1.25-.8-2.32-.8h-3.82Z"/>
            <path class="cls-1" d="m271.63,415.91c-.12,0-.22-.04-.3-.12-.08-.08-.12-.18-.12-.3v-2.7c0-.55.05-1.08.16-1.58.11-.5.32-.97.64-1.42.32-.45.79-.87,1.43-1.27l.83,1.21c-.43.28-.76.59-.97.95-.22.35-.36.72-.43,1.1-.07.38-.11.74-.11,1.09v2.63c0,.12-.04.22-.12.3s-.18.12-.3.12h-.72Zm7.02,0c-.13,0-.23-.04-.31-.11-.07-.07-.14-.14-.2-.2l-6.61-9.27c-.08-.13-.13-.25-.13-.34s.04-.18.12-.25.17-.11.26-.11h.85c.13,0,.24.04.32.11.08.07.14.14.19.2l6.62,9.27c.05.08.08.15.1.2.02.05.03.1.03.14,0,.1-.04.18-.11.25s-.16.11-.25.11h-.88Zm-1.44-3.29l-.74-1.24c.59-.28,1-.56,1.25-.86.25-.3.39-.61.44-.94.05-.33.07-.67.07-1.04v-2.48c0-.12.04-.22.12-.3s.18-.12.3-.12h.76c.12,0,.22.04.3.12.08.08.12.18.12.3v2.57c0,.5-.06.99-.18,1.46s-.36.91-.73,1.32c-.37.41-.93.82-1.7,1.21Z"/>
            <path class="cls-1" d="m291.75,414.56c.78.01,1.44-.13,1.97-.43.53-.3.94-.73,1.22-1.29.28-.56.42-1.2.42-1.92v-4.88c0-.12.04-.22.12-.3.08-.08.18-.12.3-.12h.76c.12,0,.22.04.29.12s.11.18.11.3v5c0,.77-.12,1.46-.36,2.08-.24.62-.58,1.15-1.03,1.58-.44.44-.97.77-1.58,1-.61.23-1.27.33-2.01.31h-1.35c-.78,0-1.48-.18-2.11-.54-.62-.36-1.12-.86-1.48-1.51-.36-.65-.54-1.4-.54-2.25v-5.67c0-.12.04-.22.12-.3.08-.08.18-.12.3-.12h.76c.12,0,.22.04.3.12s.12.18.12.3l.05,5.31c0,1.03.29,1.82.86,2.38s1.31.83,2.2.83h.56Zm-4-2.11l-.04-1.31c.89-.01,1.57-.15,2.03-.41s.79-.6.98-1.04c.19-.43.28-.91.28-1.42v-2.23c0-.12.04-.22.11-.3s.17-.12.31-.12h.74c.12,0,.22.04.3.12s.12.18.12.3v2.3c0,.78-.17,1.48-.52,2.11-.35.62-.88,1.12-1.59,1.48-.71.36-1.62.53-2.71.52Z"/>
            <path class="cls-1" d="m305.27,415.91c-.12,0-.22-.04-.3-.12-.08-.08-.12-.18-.12-.3v-5.38c0-.96-.24-1.71-.72-2.24-.48-.53-1.25-.8-2.32-.8h-2.36c-.12,0-.22-.04-.3-.12s-.12-.18-.12-.3v-.61c0-.12.04-.22.12-.3s.18-.12.3-.12h2.45c1.03,0,1.89.16,2.57.49.68.32,1.18.81,1.52,1.47.34.65.5,1.47.5,2.44v5.47c0,.12-.04.22-.12.3s-.18.12-.3.12h-.81Z"/>
            <path class="cls-1" d="m309.57,415.91c-.12,0-.22-.04-.3-.12s-.12-.18-.12-.3v-9.45c0-.12.04-.22.12-.3s.18-.12.3-.12h.85c.13,0,.23.04.31.12s.11.18.11.3v9.45c0,.12-.04.22-.11.3s-.17.12-.31.12h-.85Z"/>
            <path class="cls-1" d="m313.89,411.73c-.12,0-.22-.04-.3-.12s-.12-.18-.12-.3v-5.27c0-.12.04-.22.12-.3s.18-.12.3-.12h.86c.12,0,.22.04.29.12s.11.18.11.3v5.27c0,.12-.04.22-.11.3s-.17.12-.29.12h-.86Z"/>
            <path class="cls-1" d="m174.15,437.51c-.12,0-.22-.04-.3-.12s-.12-.18-.12-.3v-1.3c0-.12.04-.22.12-.3s.18-.12.3-.12h1.3c.12,0,.22.04.31.12s.13.18.13.3v1.3c0,.12-.04.22-.13.3s-.19.12-.31.12h-1.3Z"/>
            <path class="cls-1" d="m185.71,437.51c-.12,0-.22-.04-.3-.12s-.12-.18-.12-.3v-5.38c0-.96-.24-1.71-.72-2.24s-1.25-.8-2.32-.8h-3.38c-.12,0-.22-.04-.3-.12s-.12-.18-.12-.3v-.61c0-.12.04-.22.12-.3s.18-.12.3-.12h3.47c1.56,0,2.71.38,3.46,1.13.75.76,1.12,1.85,1.12,3.29v5.44c0,.12-.04.22-.12.3s-.18.12-.3.12h-.81Zm-6.84,0c-.12,0-.22-.04-.3-.12s-.12-.18-.12-.3v-6.01c0-.12.04-.22.12-.3s.18-.12.3-.12h.83c.12,0,.22.04.29.12s.11.18.11.3v6.01c0,.12-.04.22-.11.3s-.17.12-.29.12h-.83Z"/>
            <path class="cls-1" d="m194.71,436.16c.78.01,1.44-.13,1.97-.43.53-.3.94-.73,1.22-1.29.28-.56.42-1.2.42-1.92v-4.88c0-.12.04-.22.12-.3.08-.08.18-.12.3-.12h.76c.12,0,.22.04.29.12s.11.18.11.3v5c0,.77-.12,1.46-.36,2.08-.24.62-.58,1.15-1.03,1.58-.44.44-.97.77-1.58,1-.61.23-1.27.33-2.01.31h-1.35c-.78,0-1.48-.18-2.11-.54-.62-.36-1.12-.86-1.48-1.51-.36-.65-.54-1.4-.54-2.25v-5.67c0-.12.04-.22.12-.3.08-.08.18-.12.3-.12h.76c.12,0,.22.04.3.12s.12.18.12.3l.05,5.31c0,1.03.29,1.82.86,2.38s1.31.83,2.2.83h.56Zm-4-2.11l-.04-1.31c.89-.01,1.57-.15,2.03-.41s.79-.6.98-1.04c.19-.43.28-.91.28-1.42v-2.23c0-.12.04-.22.11-.3s.17-.12.31-.12h.74c.12,0,.22.04.3.12s.12.18.12.3v2.3c0,.78-.17,1.48-.52,2.11-.35.62-.88,1.12-1.59,1.48-.71.36-1.62.53-2.71.52Z"/>
            <path class="cls-1" d="m202.1,428.67c-.12,0-.22-.04-.3-.12s-.12-.18-.12-.3v-.61c0-.12.04-.22.12-.3s.18-.12.3-.12h7.72c.12,0,.22.04.3.12s.12.18.12.3v.61c0,.12-.04.22-.12.3s-.18.12-.3.12h-7.72Zm4.86,8.84c-.26,0-.4-.13-.4-.4v-6.43c0-.71.08-1.26.25-1.66.17-.4.38-.59.63-.59h1.76c-.3,0-.54.23-.73.68-.19.46-.28,1.02-.28,1.69v6.3c0,.12-.04.22-.13.29-.08.07-.19.11-.31.11h-.81Z"/>
            <path class="cls-1" d="m212.85,437.51c-.12,0-.22-.04-.3-.12s-.12-.18-.12-.3v-9.45c0-.12.04-.22.12-.3s.18-.12.3-.12h3.51c1.03,0,1.89.17,2.57.5s1.18.82,1.52,1.48c.33.65.5,1.47.5,2.46v5.44c0,.12-.04.22-.12.3s-.18.12-.3.12h-.81c-.13,0-.23-.04-.31-.12s-.11-.18-.11-.3v-5.38c0-.96-.24-1.71-.72-2.24-.48-.53-1.25-.8-2.32-.8h-2.2v8.42c0,.12-.04.22-.11.3s-.17.12-.29.12h-.83Z"/>
            <path class="cls-1" d="m230.87,437.51c-.12,0-.22-.04-.3-.12s-.12-.18-.12-.3v-5.38c0-.96-.24-1.71-.72-2.24s-1.25-.8-2.32-.8h-3.38c-.12,0-.22-.04-.3-.12s-.12-.18-.12-.3v-.61c0-.12.04-.22.12-.3s.18-.12.3-.12h3.47c1.56,0,2.71.38,3.46,1.13.75.76,1.12,1.85,1.12,3.29v5.44c0,.12-.04.22-.12.3s-.18.12-.3.12h-.81Zm-6.84,0c-.12,0-.22-.04-.3-.12s-.12-.18-.12-.3v-6.01c0-.12.04-.22.12-.3s.18-.12.3-.12h.83c.12,0,.22.04.29.12s.11.18.11.3v6.01c0,.12-.04.22-.11.3s-.17.12-.29.12h-.83Z"/>
            <path class="cls-1" d="m246.42,437.51c-.12,0-.22-.04-.3-.12s-.12-.18-.12-.3v-5.38c0-.96-.24-1.71-.72-2.24s-1.25-.8-2.32-.8h-3.38c-.12,0-.22-.04-.3-.12s-.12-.18-.12-.3v-.61c0-.12.04-.22.12-.3s.18-.12.3-.12h3.47c1.56,0,2.71.38,3.46,1.13.75.76,1.12,1.85,1.12,3.29v5.44c0,.12-.04.22-.12.3s-.18.12-.3.12h-.81Zm-6.84,0c-.12,0-.22-.04-.3-.12s-.12-.18-.12-.3v-6.01c0-.12.04-.22.12-.3s.18-.12.3-.12h.83c.12,0,.22.04.29.12s.11.18.11.3v6.01c0,.12-.04.22-.11.3s-.17.12-.29.12h-.83Z"/>
            <path class="cls-1" d="m250.6,433.33c-.12,0-.22-.04-.3-.12s-.12-.18-.12-.3v-5.27c0-.12.04-.22.12-.3s.18-.12.3-.12h.86c.12,0,.22.04.29.12s.11.18.11.3v5.27c0,.12-.04.22-.11.3s-.17.12-.29.12h-.86Z"/>
            <path class="cls-1" d="m254.81,433.33c-.12,0-.22-.04-.3-.12s-.12-.18-.12-.3v-5.27c0-.12.04-.22.12-.3s.18-.12.3-.12h.86c.12,0,.22.04.29.12s.11.18.11.3v5.27c0,.12-.04.22-.11.3s-.17.12-.29.12h-.86Z"/>
            <path class="cls-1" d="m264.55,437.51c-.12,0-.22-.04-.3-.12-.08-.08-.12-.18-.12-.3v-5.38c0-.96-.24-1.71-.72-2.24-.48-.53-1.25-.8-2.32-.8h-2.36c-.12,0-.22-.04-.3-.12s-.12-.18-.12-.3v-.61c0-.12.04-.22.12-.3s.18-.12.3-.12h2.45c1.03,0,1.89.16,2.57.49.68.32,1.18.81,1.52,1.47.34.65.5,1.47.5,2.44v5.47c0,.12-.04.22-.12.3s-.18.12-.3.12h-.81Z"/>
            <path class="cls-1" d="m269.89,428.71v1.4c.01.43.07.79.17,1.08.1.29.29.47.55.54l.67.18c.1.02.17.09.22.19.05.1.08.23.08.37v.45c0,.13-.07.23-.2.29-.13.06-.28.08-.43.05l-.7-.14c-.38-.1-.71-.27-.99-.51-.28-.25-.48-.58-.62-1.01s-.21-.94-.21-1.54v-2.41c0-.12.04-.22.11-.3s.17-.12.31-.12h3.33c.9,0,1.65.18,2.25.53.6.35,1.06.86,1.37,1.53.31.67.48,1.47.5,2.4.01.18.02.41.02.68s0,.5-.02.67c-.02.92-.19,1.72-.5,2.39-.31.67-.77,1.19-1.37,1.54-.6.35-1.35.53-2.25.53h-3.11c-.12,0-.22-.04-.3-.12s-.12-.18-.12-.3v-.65c0-.12.04-.22.12-.3.08-.08.18-.12.3-.12h3.02c.83,0,1.47-.27,1.92-.8.45-.53.7-1.28.75-2.24.01-.18.02-.39.02-.62s0-.44-.02-.62c-.02-.96-.27-1.71-.73-2.24s-1.11-.8-1.93-.8h-2.2Z"/>
            <path class="cls-1" d="m283.01,437.69c-1.5,0-2.62-.39-3.35-1.18-.73-.79-1.1-1.89-1.1-3.32v-5.54c0-.12.04-.22.12-.3s.18-.12.3-.12h4.34c1.07,0,1.92.16,2.56.49s1.1.8,1.4,1.43c.29.63.46,1.41.49,2.33.01.12.02.31.02.58v.79c0,.26,0,.46-.02.58-.02.91-.2,1.69-.52,2.33s-.83,1.12-1.52,1.45c-.69.32-1.59.49-2.71.49Zm0-1.48c1.14,0,1.94-.24,2.41-.71s.71-1.2.74-2.17c.01-.12.02-.3.02-.54v-.7c0-.23,0-.4-.02-.52-.02-.96-.3-1.68-.82-2.17-.52-.49-1.23-.73-2.11-.73h-3.08v4.52c0,.96.24,1.7.71,2.23.47.53,1.19.79,2.15.79Z"/>
            <path class="cls-1" d="m297.4,437.51c-.12,0-.22-.04-.3-.12s-.12-.18-.12-.3v-5.38c0-.96-.24-1.71-.72-2.24s-1.25-.8-2.32-.8h-3.38c-.12,0-.22-.04-.3-.12s-.12-.18-.12-.3v-.61c0-.12.04-.22.12-.3s.18-.12.3-.12h3.47c1.56,0,2.71.38,3.46,1.13.75.76,1.12,1.85,1.12,3.29v5.44c0,.12-.04.22-.12.3s-.18.12-.3.12h-.81Zm-6.84,0c-.12,0-.22-.04-.3-.12s-.12-.18-.12-.3v-6.01c0-.12.04-.22.12-.3s.18-.12.3-.12h.83c.12,0,.22.04.29.12s.11.18.11.3v6.01c0,.12-.04.22-.11.3s-.17.12-.29.12h-.83Z"/>
            <path class="cls-1" d="m307.55,428.71l-2.14-.02c-.12,0-.22-.04-.3-.11-.08-.07-.12-.17-.12-.29v-3.15c0-.12.04-.22.12-.3s.18-.12.3-.12h.76c.13,0,.23.04.31.12.07.08.11.18.11.3v2.09h1.01l-.04,1.48Zm-.04,8.96c-.11.04-.21.02-.31-.04-.1-.07-.14-.16-.14-.28v-.83c0-.11.03-.2.1-.29.07-.08.17-.15.3-.2l.7-.27c.47-.2.9-.45,1.29-.74.39-.29.7-.68.92-1.19.22-.5.33-1.16.33-1.98s-.09-1.4-.28-1.86c-.19-.46-.5-.79-.94-.99-.44-.2-1.04-.3-1.79-.3h-.54c-.12,0-.22-.04-.3-.12-.08-.08-.12-.18-.12-.3v-.65c0-.12.04-.22.12-.3.08-.08.18-.12.3-.12h.79c1.09,0,1.96.16,2.61.47.65.31,1.11.81,1.4,1.5.28.69.42,1.59.42,2.71,0,.84-.11,1.57-.34,2.18-.23.61-.54,1.13-.93,1.57-.39.43-.83.79-1.32,1.07-.49.28-1,.51-1.53.69l-.74.25Z"/>
            <path class="cls-1" d="m319.84,436.16c.78.01,1.44-.13,1.97-.43.53-.3.94-.73,1.22-1.29.28-.56.42-1.2.42-1.92v-4.88c0-.12.04-.22.12-.3.08-.08.18-.12.3-.12h.76c.12,0,.22.04.29.12s.11.18.11.3v5c0,.77-.12,1.46-.36,2.08-.24.62-.58,1.15-1.03,1.58-.44.44-.97.77-1.58,1-.61.23-1.27.33-2.01.31h-1.35c-.78,0-1.48-.18-2.11-.54-.62-.36-1.12-.86-1.48-1.51-.36-.65-.54-1.4-.54-2.25v-5.67c0-.12.04-.22.12-.3.08-.08.18-.12.3-.12h.76c.12,0,.22.04.3.12s.12.18.12.3l.05,5.31c0,1.03.29,1.82.86,2.38s1.31.83,2.2.83h.56Zm-4-2.11l-.04-1.31c.89-.01,1.57-.15,2.03-.41s.79-.6.98-1.04c.19-.43.28-.91.28-1.42v-2.23c0-.12.04-.22.11-.3s.17-.12.31-.12h.74c.12,0,.22.04.3.12s.12.18.12.3v2.3c0,.78-.17,1.48-.52,2.11-.35.62-.88,1.12-1.59,1.48-.71.36-1.62.53-2.71.52Z"/>
          </g>
          <g>
            <path class="cls-1" d="m473.24,406.19h.45c.18,0,.32.04.41.13s.13.2.12.33c-.1.5-.18.96-.24,1.37-.07.41-.11.81-.13,1.21-.02.4-.04.85-.04,1.36l.05,4.9c0,.12-.04.22-.12.3s-.18.12-.3.12l-2.56-.04c-.12,0-.22-.04-.3-.11-.08-.07-.12-.17-.12-.31v-.58c0-.12.04-.22.12-.3.08-.08.18-.12.3-.12l1.39.02v-3.82c0-.49,0-.94.02-1.36.01-.41.05-.83.11-1.25.06-.42.16-.89.29-1.42.04-.13.09-.24.17-.32s.21-.13.39-.13Zm-1.62.88c-.12,0-.22-.04-.3-.12s-.12-.18-.12-.3v-.61c0-.12.04-.22.12-.3s.18-.12.3-.12h3.91c1.03,0,1.89.17,2.57.5.68.33,1.18.82,1.52,1.48s.5,1.46.5,2.42v5.47c0,.12-.04.22-.12.3-.08.08-.18.12-.3.12h-.81c-.13,0-.23-.04-.31-.12-.07-.08-.11-.18-.11-.3v-5.38c0-.96-.24-1.71-.72-2.24-.48-.53-1.25-.8-2.32-.8h-3.82Z"/>
            <path class="cls-1" d="m483.2,415.91c-.12,0-.22-.04-.3-.12s-.12-.18-.12-.3v-9.45c0-.12.04-.22.12-.3s.18-.12.3-.12h.85c.13,0,.23.04.31.12s.11.18.11.3v9.45c0,.12-.04.22-.11.3s-.17.12-.31.12h-.85Z"/>
            <path class="cls-1" d="m487.21,415.91c-.12,0-.22-.04-.3-.12-.08-.08-.12-.18-.12-.3v-2.7c0-.55.05-1.08.16-1.58.11-.5.32-.97.64-1.42.32-.45.79-.87,1.43-1.27l.83,1.21c-.43.28-.76.59-.97.95-.22.35-.36.72-.43,1.1-.07.38-.11.74-.11,1.09v2.63c0,.12-.04.22-.12.3s-.18.12-.3.12h-.72Zm7.02,0c-.13,0-.23-.04-.31-.11-.07-.07-.14-.14-.2-.2l-6.61-9.27c-.08-.13-.13-.25-.13-.34s.04-.18.12-.25.17-.11.26-.11h.85c.13,0,.24.04.32.11.08.07.14.14.19.2l6.62,9.27c.05.08.08.15.1.2.02.05.03.1.03.14,0,.1-.04.18-.11.25s-.16.11-.25.11h-.88Zm-1.44-3.29l-.74-1.24c.59-.28,1-.56,1.25-.86.25-.3.39-.61.44-.94.05-.33.07-.67.07-1.04v-2.48c0-.12.04-.22.12-.3s.18-.12.3-.12h.76c.12,0,.22.04.3.12.08.08.12.18.12.3v2.57c0,.5-.06.99-.18,1.46s-.36.91-.73,1.32c-.37.41-.93.82-1.7,1.21Z"/>
            <path class="cls-1" d="m502.92,414.56c.78.01,1.44-.13,1.97-.43.53-.3.94-.73,1.22-1.29.28-.56.42-1.2.42-1.92v-4.88c0-.12.04-.22.12-.3.08-.08.18-.12.3-.12h.76c.12,0,.22.04.29.12s.11.18.11.3v5c0,.77-.12,1.46-.36,2.08-.24.62-.58,1.15-1.03,1.58-.44.44-.97.77-1.58,1-.61.23-1.27.33-2.01.31h-1.35c-.78,0-1.48-.18-2.11-.54-.62-.36-1.12-.86-1.48-1.51-.36-.65-.54-1.4-.54-2.25v-5.67c0-.12.04-.22.12-.3.08-.08.18-.12.3-.12h.76c.12,0,.22.04.3.12s.12.18.12.3l.05,5.31c0,1.03.29,1.82.86,2.38s1.31.83,2.2.83h.56Zm-4-2.11l-.04-1.31c.89-.01,1.57-.15,2.03-.41s.79-.6.98-1.04c.19-.43.28-.91.28-1.42v-2.23c0-.12.04-.22.11-.3s.17-.12.31-.12h.74c.12,0,.22.04.3.12s.12.18.12.3v2.3c0,.78-.17,1.48-.52,2.11-.35.62-.88,1.12-1.59,1.48-.71.36-1.62.53-2.71.52Z"/>
            <path class="cls-1" d="m516.44,415.91c-.12,0-.22-.04-.3-.12-.08-.08-.12-.18-.12-.3v-5.38c0-.96-.24-1.71-.72-2.24-.48-.53-1.25-.8-2.32-.8h-2.36c-.12,0-.22-.04-.3-.12s-.12-.18-.12-.3v-.61c0-.12.04-.22.12-.3s.18-.12.3-.12h2.45c1.03,0,1.89.16,2.57.49.68.32,1.18.81,1.52,1.47.34.65.5,1.47.5,2.44v5.47c0,.12-.04.22-.12.3s-.18.12-.3.12h-.81Z"/>
            <path class="cls-1" d="m527.58,415.91c-.12,0-.22-.04-.3-.12s-.12-.18-.12-.3v-5.38c0-.96-.24-1.71-.72-2.24s-1.25-.8-2.32-.8h-3.38c-.12,0-.22-.04-.3-.12s-.12-.18-.12-.3v-.61c0-.12.04-.22.12-.3s.18-.12.3-.12h3.47c1.56,0,2.71.38,3.46,1.13.75.76,1.12,1.85,1.12,3.29v5.44c0,.12-.04.22-.12.3s-.18.12-.3.12h-.81Zm-6.84,0c-.12,0-.22-.04-.3-.12s-.12-.18-.12-.3v-6.01c0-.12.04-.22.12-.3s.18-.12.3-.12h.83c.12,0,.22.04.29.12s.11.18.11.3v6.01c0,.12-.04.22-.11.3s-.17.12-.29.12h-.83Z"/>
            <path class="cls-1" d="m538.73,415.91c-.12,0-.22-.04-.3-.12s-.12-.18-.12-.3v-5.38c0-.96-.24-1.71-.72-2.24s-1.25-.8-2.32-.8h-3.38c-.12,0-.22-.04-.3-.12s-.12-.18-.12-.3v-.61c0-.12.04-.22.12-.3s.18-.12.3-.12h3.47c1.56,0,2.71.38,3.46,1.13.75.76,1.12,1.85,1.12,3.29v5.44c0,.12-.04.22-.12.3s-.18.12-.3.12h-.81Zm-6.84,0c-.12,0-.22-.04-.3-.12s-.12-.18-.12-.3v-6.01c0-.12.04-.22.12-.3s.18-.12.3-.12h.83c.12,0,.22.04.29.12s.11.18.11.3v6.01c0,.12-.04.22-.11.3s-.17.12-.29.12h-.83Z"/>
            <path class="cls-1" d="m549.36,406.19h.45c.18,0,.32.04.41.13s.13.2.12.33c-.1.5-.18.96-.24,1.37-.07.41-.11.81-.13,1.21-.02.4-.04.85-.04,1.36l.05,4.9c0,.12-.04.22-.12.3s-.18.12-.3.12l-2.56-.04c-.12,0-.22-.04-.3-.11-.08-.07-.12-.17-.12-.31v-.58c0-.12.04-.22.12-.3.08-.08.18-.12.3-.12l1.39.02v-3.82c0-.49,0-.94.02-1.36.01-.41.05-.83.11-1.25.06-.42.16-.89.29-1.42.04-.13.09-.24.17-.32s.21-.13.39-.13Zm-1.62.88c-.12,0-.22-.04-.3-.12s-.12-.18-.12-.3v-.61c0-.12.04-.22.12-.3s.18-.12.3-.12h3.91c1.03,0,1.89.17,2.57.5.68.33,1.18.82,1.52,1.48s.5,1.46.5,2.42v5.47c0,.12-.04.22-.12.3-.08.08-.18.12-.3.12h-.81c-.13,0-.23-.04-.31-.12-.07-.08-.11-.18-.11-.3v-5.38c0-.96-.24-1.71-.72-2.24-.48-.53-1.25-.8-2.32-.8h-3.82Z"/>
            <path class="cls-1" d="m558.89,415.91c-.12,0-.22-.04-.3-.12-.08-.08-.12-.18-.12-.3v-2.7c0-.55.05-1.08.16-1.58.11-.5.32-.97.64-1.42.32-.45.79-.87,1.43-1.27l.83,1.21c-.43.28-.76.59-.97.95-.22.35-.36.72-.43,1.1-.07.38-.11.74-.11,1.09v2.63c0,.12-.04.22-.12.3s-.18.12-.3.12h-.72Zm7.02,0c-.13,0-.23-.04-.31-.11-.07-.07-.14-.14-.2-.2l-6.61-9.27c-.08-.13-.13-.25-.13-.34s.04-.18.12-.25.17-.11.26-.11h.85c.13,0,.24.04.32.11.08.07.14.14.19.2l6.62,9.27c.05.08.08.15.1.2.02.05.03.1.03.14,0,.1-.04.18-.11.25s-.16.11-.25.11h-.88Zm-1.44-3.29l-.74-1.24c.59-.28,1-.56,1.25-.86.25-.3.39-.61.44-.94.05-.33.07-.67.07-1.04v-2.48c0-.12.04-.22.12-.3s.18-.12.3-.12h.76c.12,0,.22.04.3.12.08.08.12.18.12.3v2.57c0,.5-.06.99-.18,1.46s-.36.91-.73,1.32c-.37.41-.93.82-1.7,1.21Z"/>
            <path class="cls-1" d="m579.01,414.56c.78.01,1.44-.13,1.97-.43.53-.3.94-.73,1.22-1.29.28-.56.42-1.2.42-1.92v-4.88c0-.12.04-.22.12-.3.08-.08.18-.12.3-.12h.76c.12,0,.22.04.29.12s.11.18.11.3v5c0,.77-.12,1.46-.36,2.08-.24.62-.58,1.15-1.03,1.58-.44.44-.97.77-1.58,1-.61.23-1.27.33-2.01.31h-1.35c-.78,0-1.48-.18-2.11-.54-.62-.36-1.12-.86-1.48-1.51-.36-.65-.54-1.4-.54-2.25v-5.67c0-.12.04-.22.12-.3.08-.08.18-.12.3-.12h.76c.12,0,.22.04.3.12s.12.18.12.3l.05,5.31c0,1.03.29,1.82.86,2.38s1.31.83,2.2.83h.56Zm-4-2.11l-.04-1.31c.89-.01,1.57-.15,2.03-.41s.79-.6.98-1.04c.19-.43.28-.91.28-1.42v-2.23c0-.12.04-.22.11-.3s.17-.12.31-.12h.74c.12,0,.22.04.3.12s.12.18.12.3v2.3c0,.78-.17,1.48-.52,2.11-.35.62-.88,1.12-1.59,1.48-.71.36-1.62.53-2.71.52Z"/>
            <path class="cls-1" d="m592.53,415.91c-.12,0-.22-.04-.3-.12-.08-.08-.12-.18-.12-.3v-5.38c0-.96-.24-1.71-.72-2.24-.48-.53-1.25-.8-2.32-.8h-2.36c-.12,0-.22-.04-.3-.12s-.12-.18-.12-.3v-.61c0-.12.04-.22.12-.3s.18-.12.3-.12h2.45c1.03,0,1.89.16,2.57.49.68.32,1.18.81,1.52,1.47.34.65.5,1.47.5,2.44v5.47c0,.12-.04.22-.12.3s-.18.12-.3.12h-.81Z"/>
            <path class="cls-1" d="m596.83,415.91c-.12,0-.22-.04-.3-.12s-.12-.18-.12-.3v-9.45c0-.12.04-.22.12-.3s.18-.12.3-.12h.85c.13,0,.23.04.31.12s.11.18.11.3v9.45c0,.12-.04.22-.11.3s-.17.12-.31.12h-.85Z"/>
            <path class="cls-1" d="m601.15,411.73c-.12,0-.22-.04-.3-.12s-.12-.18-.12-.3v-5.27c0-.12.04-.22.12-.3s.18-.12.3-.12h.86c.12,0,.22.04.29.12s.11.18.11.3v5.27c0,.12-.04.22-.11.3s-.17.12-.29.12h-.86Z"/>
            <path class="cls-1" d="m461.41,437.51c-.12,0-.22-.04-.3-.12s-.12-.18-.12-.3v-1.3c0-.12.04-.22.12-.3s.18-.12.3-.12h1.3c.12,0,.22.04.31.12s.13.18.13.3v1.3c0,.12-.04.22-.13.3s-.19.12-.31.12h-1.3Z"/>
            <path class="cls-1" d="m472.96,437.51c-.12,0-.22-.04-.3-.12s-.12-.18-.12-.3v-5.38c0-.96-.24-1.71-.72-2.24s-1.25-.8-2.32-.8h-3.38c-.12,0-.22-.04-.3-.12s-.12-.18-.12-.3v-.61c0-.12.04-.22.12-.3s.18-.12.3-.12h3.47c1.56,0,2.71.38,3.46,1.13.75.76,1.12,1.85,1.12,3.29v5.44c0,.12-.04.22-.12.3s-.18.12-.3.12h-.81Zm-6.84,0c-.12,0-.22-.04-.3-.12s-.12-.18-.12-.3v-6.01c0-.12.04-.22.12-.3s.18-.12.3-.12h.83c.12,0,.22.04.29.12s.11.18.11.3v6.01c0,.12-.04.22-.11.3s-.17.12-.29.12h-.83Z"/>
            <path class="cls-1" d="m481.96,436.16c.78.01,1.44-.13,1.97-.43.53-.3.94-.73,1.22-1.29.28-.56.42-1.2.42-1.92v-4.88c0-.12.04-.22.12-.3.08-.08.18-.12.3-.12h.76c.12,0,.22.04.29.12s.11.18.11.3v5c0,.77-.12,1.46-.36,2.08-.24.62-.58,1.15-1.03,1.58-.44.44-.97.77-1.58,1-.61.23-1.27.33-2.01.31h-1.35c-.78,0-1.48-.18-2.11-.54-.62-.36-1.12-.86-1.48-1.51-.36-.65-.54-1.4-.54-2.25v-5.67c0-.12.04-.22.12-.3.08-.08.18-.12.3-.12h.76c.12,0,.22.04.3.12s.12.18.12.3l.05,5.31c0,1.03.29,1.82.86,2.38s1.31.83,2.2.83h.56Zm-4-2.11l-.04-1.31c.89-.01,1.57-.15,2.03-.41s.79-.6.98-1.04c.19-.43.28-.91.28-1.42v-2.23c0-.12.04-.22.11-.3s.17-.12.31-.12h.74c.12,0,.22.04.3.12s.12.18.12.3v2.3c0,.78-.17,1.48-.52,2.11-.35.62-.88,1.12-1.59,1.48-.71.36-1.62.53-2.71.52Z"/>
            <path class="cls-1" d="m489.36,428.67c-.12,0-.22-.04-.3-.12s-.12-.18-.12-.3v-.61c0-.12.04-.22.12-.3s.18-.12.3-.12h7.72c.12,0,.22.04.3.12s.12.18.12.3v.61c0,.12-.04.22-.12.3s-.18.12-.3.12h-7.72Zm4.86,8.84c-.26,0-.4-.13-.4-.4v-6.43c0-.71.08-1.26.25-1.66.17-.4.38-.59.63-.59h1.76c-.3,0-.54.23-.73.68-.19.46-.28,1.02-.28,1.69v6.3c0,.12-.04.22-.13.29-.08.07-.19.11-.31.11h-.81Z"/>
            <path class="cls-1" d="m500.11,437.51c-.12,0-.22-.04-.3-.12s-.12-.18-.12-.3v-9.45c0-.12.04-.22.12-.3s.18-.12.3-.12h3.51c1.03,0,1.89.17,2.57.5s1.18.82,1.52,1.48c.33.65.5,1.47.5,2.46v5.44c0,.12-.04.22-.12.3s-.18.12-.3.12h-.81c-.13,0-.23-.04-.31-.12s-.11-.18-.11-.3v-5.38c0-.96-.24-1.71-.72-2.24-.48-.53-1.25-.8-2.32-.8h-2.2v8.42c0,.12-.04.22-.11.3s-.17.12-.29.12h-.83Z"/>
            <path class="cls-1" d="m518.12,437.51c-.12,0-.22-.04-.3-.12s-.12-.18-.12-.3v-5.38c0-.96-.24-1.71-.72-2.24s-1.25-.8-2.32-.8h-3.38c-.12,0-.22-.04-.3-.12s-.12-.18-.12-.3v-.61c0-.12.04-.22.12-.3s.18-.12.3-.12h3.47c1.56,0,2.71.38,3.46,1.13.75.76,1.12,1.85,1.12,3.29v5.44c0,.12-.04.22-.12.3s-.18.12-.3.12h-.81Zm-6.84,0c-.12,0-.22-.04-.3-.12s-.12-.18-.12-.3v-6.01c0-.12.04-.22.12-.3s.18-.12.3-.12h.83c.12,0,.22.04.29.12s.11.18.11.3v6.01c0,.12-.04.22-.11.3s-.17.12-.29.12h-.83Z"/>
            <path class="cls-1" d="m533.68,437.51c-.12,0-.22-.04-.3-.12s-.12-.18-.12-.3v-5.38c0-.96-.24-1.71-.72-2.24s-1.25-.8-2.32-.8h-3.38c-.12,0-.22-.04-.3-.12s-.12-.18-.12-.3v-.61c0-.12.04-.22.12-.3s.18-.12.3-.12h3.47c1.56,0,2.71.38,3.46,1.13.75.76,1.12,1.85,1.12,3.29v5.44c0,.12-.04.22-.12.3s-.18.12-.3.12h-.81Zm-6.84,0c-.12,0-.22-.04-.3-.12s-.12-.18-.12-.3v-6.01c0-.12.04-.22.12-.3s.18-.12.3-.12h.83c.12,0,.22.04.29.12s.11.18.11.3v6.01c0,.12-.04.22-.11.3s-.17.12-.29.12h-.83Z"/>
            <path class="cls-1" d="m537.85,433.33c-.12,0-.22-.04-.3-.12s-.12-.18-.12-.3v-5.27c0-.12.04-.22.12-.3s.18-.12.3-.12h.86c.12,0,.22.04.29.12s.11.18.11.3v5.27c0,.12-.04.22-.11.3s-.17.12-.29.12h-.86Z"/>
            <path class="cls-1" d="m542.06,433.33c-.12,0-.22-.04-.3-.12s-.12-.18-.12-.3v-5.27c0-.12.04-.22.12-.3s.18-.12.3-.12h.86c.12,0,.22.04.29.12s.11.18.11.3v5.27c0,.12-.04.22-.11.3s-.17.12-.29.12h-.86Z"/>
            <path class="cls-1" d="m551.8,437.51c-.12,0-.22-.04-.3-.12-.08-.08-.12-.18-.12-.3v-5.38c0-.96-.24-1.71-.72-2.24-.48-.53-1.25-.8-2.32-.8h-2.36c-.12,0-.22-.04-.3-.12s-.12-.18-.12-.3v-.61c0-.12.04-.22.12-.3s.18-.12.3-.12h2.45c1.03,0,1.89.16,2.57.49.68.32,1.18.81,1.52,1.47.34.65.5,1.47.5,2.44v5.47c0,.12-.04.22-.12.3s-.18.12-.3.12h-.81Z"/>
            <path class="cls-1" d="m557.15,428.71v1.4c.01.43.07.79.17,1.08.1.29.29.47.55.54l.67.18c.1.02.17.09.22.19.05.1.08.23.08.37v.45c0,.13-.07.23-.2.29-.13.06-.28.08-.43.05l-.7-.14c-.38-.1-.71-.27-.99-.51-.28-.25-.48-.58-.62-1.01s-.21-.94-.21-1.54v-2.41c0-.12.04-.22.11-.3s.17-.12.31-.12h3.33c.9,0,1.65.18,2.25.53.6.35,1.06.86,1.37,1.53.31.67.48,1.47.5,2.4.01.18.02.41.02.68s0,.5-.02.67c-.02.92-.19,1.72-.5,2.39-.31.67-.77,1.19-1.37,1.54-.6.35-1.35.53-2.25.53h-3.11c-.12,0-.22-.04-.3-.12s-.12-.18-.12-.3v-.65c0-.12.04-.22.12-.3.08-.08.18-.12.3-.12h3.02c.83,0,1.47-.27,1.92-.8.45-.53.7-1.28.75-2.24.01-.18.02-.39.02-.62s0-.44-.02-.62c-.02-.96-.27-1.71-.73-2.24s-1.11-.8-1.93-.8h-2.2Z"/>
            <path class="cls-1" d="m570.27,437.69c-1.5,0-2.62-.39-3.35-1.18-.73-.79-1.1-1.89-1.1-3.32v-5.54c0-.12.04-.22.12-.3s.18-.12.3-.12h4.34c1.07,0,1.92.16,2.56.49s1.1.8,1.4,1.43c.29.63.46,1.41.49,2.33.01.12.02.31.02.58v.79c0,.26,0,.46-.02.58-.02.91-.2,1.69-.52,2.33s-.83,1.12-1.52,1.45c-.69.32-1.59.49-2.71.49Zm0-1.48c1.14,0,1.94-.24,2.41-.71s.71-1.2.74-2.17c.01-.12.02-.3.02-.54v-.7c0-.23,0-.4-.02-.52-.02-.96-.3-1.68-.82-2.17-.52-.49-1.23-.73-2.11-.73h-3.08v4.52c0,.96.24,1.7.71,2.23.47.53,1.19.79,2.15.79Z"/>
            <path class="cls-1" d="m584.65,437.51c-.12,0-.22-.04-.3-.12s-.12-.18-.12-.3v-5.38c0-.96-.24-1.71-.72-2.24s-1.25-.8-2.32-.8h-3.38c-.12,0-.22-.04-.3-.12s-.12-.18-.12-.3v-.61c0-.12.04-.22.12-.3s.18-.12.3-.12h3.47c1.56,0,2.71.38,3.46,1.13.75.76,1.12,1.85,1.12,3.29v5.44c0,.12-.04.22-.12.3s-.18.12-.3.12h-.81Zm-6.84,0c-.12,0-.22-.04-.3-.12s-.12-.18-.12-.3v-6.01c0-.12.04-.22.12-.3s.18-.12.3-.12h.83c.12,0,.22.04.29.12s.11.18.11.3v6.01c0,.12-.04.22-.11.3s-.17.12-.29.12h-.83Z"/>
            <path class="cls-1" d="m594.8,428.71l-2.14-.02c-.12,0-.22-.04-.3-.11-.08-.07-.12-.17-.12-.29v-3.15c0-.12.04-.22.12-.3s.18-.12.3-.12h.76c.13,0,.23.04.31.12.07.08.11.18.11.3v2.09h1.01l-.04,1.48Zm-.04,8.96c-.11.04-.21.02-.31-.04-.1-.07-.14-.16-.14-.28v-.83c0-.11.03-.2.1-.29.07-.08.17-.15.3-.2l.7-.27c.47-.2.9-.45,1.29-.74.39-.29.7-.68.92-1.19.22-.5.33-1.16.33-1.98s-.09-1.4-.28-1.86c-.19-.46-.5-.79-.94-.99-.44-.2-1.04-.3-1.79-.3h-.54c-.12,0-.22-.04-.3-.12-.08-.08-.12-.18-.12-.3v-.65c0-.12.04-.22.12-.3.08-.08.18-.12.3-.12h.79c1.09,0,1.96.16,2.61.47.65.31,1.11.81,1.4,1.5.28.69.42,1.59.42,2.71,0,.84-.11,1.57-.34,2.18-.23.61-.54,1.13-.93,1.57-.39.43-.83.79-1.32,1.07-.49.28-1,.51-1.53.69l-.74.25Z"/>
            <path class="cls-1" d="m607.1,436.16c.78.01,1.44-.13,1.97-.43.53-.3.94-.73,1.22-1.29.28-.56.42-1.2.42-1.92v-4.88c0-.12.04-.22.12-.3.08-.08.18-.12.3-.12h.76c.12,0,.22.04.29.12s.11.18.11.3v5c0,.77-.12,1.46-.36,2.08-.24.62-.58,1.15-1.03,1.58-.44.44-.97.77-1.58,1-.61.23-1.27.33-2.01.31h-1.35c-.78,0-1.48-.18-2.11-.54-.62-.36-1.12-.86-1.48-1.51-.36-.65-.54-1.4-.54-2.25v-5.67c0-.12.04-.22.12-.3.08-.08.18-.12.3-.12h.76c.12,0,.22.04.3.12s.12.18.12.3l.05,5.31c0,1.03.29,1.82.86,2.38s1.31.83,2.2.83h.56Zm-4-2.11l-.04-1.31c.89-.01,1.57-.15,2.03-.41s.79-.6.98-1.04c.19-.43.28-.91.28-1.42v-2.23c0-.12.04-.22.11-.3s.17-.12.31-.12h.74c.12,0,.22.04.3.12s.12.18.12.3v2.3c0,.78-.17,1.48-.52,2.11-.35.62-.88,1.12-1.59,1.48-.71.36-1.62.53-2.71.52Z"/>
          </g>
        </g>
        <g>
          <g>
            <path class="cls-1" d="m329.61,278.91h.45c.18,0,.31.04.4.13s.13.2.12.33c-.1.5-.18.96-.24,1.37-.07.41-.11.81-.13,1.21-.03.4-.04.85-.04,1.36l.05,4.9c0,.12-.04.22-.12.3s-.18.12-.3.12l-2.56-.04c-.12,0-.22-.04-.3-.11-.08-.07-.12-.17-.12-.31v-.58c0-.12.04-.22.12-.3s.18-.12.3-.12l1.39.02v-3.82c0-.49,0-.94.02-1.36s.05-.83.11-1.25.16-.89.29-1.42c.04-.13.09-.24.17-.32s.21-.13.39-.13Zm-1.62.88c-.12,0-.22-.04-.3-.12s-.12-.18-.12-.3v-.61c0-.12.04-.22.12-.3s.18-.12.3-.12h3.91c1.03,0,1.89.17,2.56.5s1.19.82,1.52,1.48.5,1.46.5,2.42v5.47c0,.12-.04.22-.12.3s-.18.12-.3.12h-.81c-.13,0-.23-.04-.3-.12-.07-.08-.11-.18-.11-.3v-5.38c0-.96-.24-1.71-.72-2.24-.48-.53-1.25-.8-2.32-.8h-3.82Z"/>
            <path class="cls-1" d="m339.57,288.63c-.12,0-.22-.04-.3-.12s-.12-.18-.12-.3v-9.45c0-.12.04-.22.12-.3s.18-.12.3-.12h.85c.13,0,.23.04.31.12s.11.18.11.3v9.45c0,.12-.04.22-.11.3s-.17.12-.31.12h-.85Z"/>
            <path class="cls-1" d="m343.58,288.63c-.12,0-.22-.04-.3-.12s-.12-.18-.12-.3v-2.7c0-.55.05-1.08.16-1.58.11-.5.32-.97.64-1.42.32-.45.79-.87,1.43-1.27l.83,1.21c-.43.28-.76.59-.97.95-.21.35-.36.72-.43,1.1s-.11.74-.11,1.09v2.63c0,.12-.04.22-.12.3s-.18.12-.3.12h-.72Zm7.02,0c-.13,0-.23-.04-.3-.11-.07-.07-.14-.14-.2-.2l-6.61-9.27c-.08-.13-.12-.25-.12-.34s.04-.18.12-.25.17-.11.26-.11h.85c.13,0,.24.04.32.11.08.07.14.14.19.2l6.62,9.27c.05.08.08.15.1.2.02.05.03.1.03.14,0,.1-.04.18-.11.25-.07.07-.16.11-.25.11h-.88Zm-1.44-3.29l-.74-1.24c.59-.28,1.01-.56,1.25-.86.25-.3.39-.61.44-.94.05-.33.07-.67.07-1.04v-2.48c0-.12.04-.22.12-.3s.18-.12.3-.12h.76c.12,0,.22.04.3.12.08.08.12.18.12.3v2.57c0,.5-.06.99-.18,1.46-.12.47-.36.91-.73,1.32s-.93.82-1.7,1.21Z"/>
            <path class="cls-1" d="m359.3,287.28c.78.01,1.44-.13,1.97-.43.53-.3.94-.73,1.22-1.29.28-.56.42-1.2.42-1.92v-4.88c0-.12.04-.22.12-.3s.18-.12.3-.12h.76c.12,0,.22.04.29.12s.11.18.11.3v5c0,.77-.12,1.46-.36,2.08-.24.62-.58,1.15-1.03,1.58-.44.44-.97.77-1.57,1-.61.23-1.28.33-2.01.31h-1.35c-.78,0-1.48-.18-2.11-.54-.62-.36-1.12-.86-1.48-1.51-.36-.65-.54-1.4-.54-2.25v-5.67c0-.12.04-.22.12-.3.08-.08.18-.12.3-.12h.76c.12,0,.22.04.3.12s.12.18.12.3l.05,5.31c0,1.03.29,1.82.87,2.38s1.31.83,2.2.83h.56Zm-4-2.11l-.04-1.31c.89-.01,1.57-.15,2.04-.41.47-.26.79-.6.98-1.04s.28-.91.28-1.42v-2.23c0-.12.04-.22.11-.3s.17-.12.31-.12h.74c.12,0,.22.04.3.12s.12.18.12.3v2.3c0,.78-.17,1.48-.52,2.11-.35.62-.88,1.12-1.59,1.48-.71.36-1.62.53-2.71.52Z"/>
            <path class="cls-1" d="m372.81,288.63c-.12,0-.22-.04-.3-.12-.08-.08-.12-.18-.12-.3v-5.38c0-.96-.24-1.71-.72-2.24s-1.25-.8-2.32-.8h-2.36c-.12,0-.22-.04-.3-.12s-.12-.18-.12-.3v-.61c0-.12.04-.22.12-.3s.18-.12.3-.12h2.45c1.03,0,1.89.16,2.57.49.68.32,1.18.81,1.52,1.47.34.65.5,1.47.5,2.44v5.47c0,.12-.04.22-.12.3s-.18.12-.3.12h-.81Z"/>
            <path class="cls-1" d="m383.95,288.63c-.12,0-.22-.04-.3-.12s-.12-.18-.12-.3v-5.38c0-.96-.24-1.71-.72-2.24-.48-.53-1.25-.8-2.32-.8h-3.38c-.12,0-.22-.04-.3-.12s-.12-.18-.12-.3v-.61c0-.12.04-.22.12-.3s.18-.12.3-.12h3.47c1.56,0,2.71.38,3.46,1.13.75.76,1.12,1.85,1.12,3.29v5.44c0,.12-.04.22-.12.3s-.18.12-.3.12h-.81Zm-6.84,0c-.12,0-.22-.04-.3-.12s-.12-.18-.12-.3v-6.01c0-.12.04-.22.12-.3s.18-.12.3-.12h.83c.12,0,.22.04.29.12s.11.18.11.3v6.01c0,.12-.04.22-.11.3s-.17.12-.29.12h-.83Z"/>
            <path class="cls-1" d="m395.1,288.63c-.12,0-.22-.04-.3-.12s-.12-.18-.12-.3v-5.38c0-.96-.24-1.71-.72-2.24-.48-.53-1.25-.8-2.32-.8h-3.38c-.12,0-.22-.04-.3-.12s-.12-.18-.12-.3v-.61c0-.12.04-.22.12-.3s.18-.12.3-.12h3.47c1.56,0,2.71.38,3.46,1.13.75.76,1.12,1.85,1.12,3.29v5.44c0,.12-.04.22-.12.3s-.18.12-.3.12h-.81Zm-6.84,0c-.12,0-.22-.04-.3-.12s-.12-.18-.12-.3v-6.01c0-.12.04-.22.12-.3s.18-.12.3-.12h.83c.12,0,.22.04.29.12s.11.18.11.3v6.01c0,.12-.04.22-.11.3s-.17.12-.29.12h-.83Z"/>
            <path class="cls-1" d="m405.74,278.91h.45c.18,0,.32.04.41.13s.13.2.12.33c-.1.5-.18.96-.24,1.37s-.11.81-.13,1.21-.04.85-.04,1.36l.05,4.9c0,.12-.04.22-.12.3s-.18.12-.3.12l-2.55-.04c-.12,0-.22-.04-.3-.11-.08-.07-.12-.17-.12-.31v-.58c0-.12.04-.22.12-.3.08-.08.18-.12.3-.12l1.38.02v-3.82c0-.49,0-.94.02-1.36.01-.41.05-.83.11-1.25.06-.42.16-.89.29-1.42.04-.13.09-.24.17-.32s.21-.13.39-.13Zm-1.62.88c-.12,0-.22-.04-.3-.12s-.12-.18-.12-.3v-.61c0-.12.04-.22.12-.3s.18-.12.3-.12h3.9c1.03,0,1.89.17,2.57.5.68.33,1.18.82,1.52,1.48s.5,1.46.5,2.42v5.47c0,.12-.04.22-.12.3-.08.08-.18.12-.3.12h-.81c-.13,0-.23-.04-.31-.12s-.11-.18-.11-.3v-5.38c0-.96-.24-1.71-.72-2.24s-1.25-.8-2.32-.8h-3.81Z"/>
            <path class="cls-1" d="m415.26,288.63c-.12,0-.22-.04-.3-.12s-.12-.18-.12-.3v-2.7c0-.55.05-1.08.16-1.58.11-.5.32-.97.64-1.42.32-.45.79-.87,1.43-1.27l.83,1.21c-.43.28-.76.59-.97.95-.21.35-.36.72-.43,1.1s-.11.74-.11,1.09v2.63c0,.12-.04.22-.12.3s-.18.12-.3.12h-.72Zm7.02,0c-.13,0-.23-.04-.3-.11-.07-.07-.14-.14-.2-.2l-6.61-9.27c-.08-.13-.12-.25-.12-.34s.04-.18.12-.25.17-.11.26-.11h.85c.13,0,.24.04.32.11.08.07.14.14.19.2l6.62,9.27c.05.08.08.15.1.2.02.05.03.1.03.14,0,.1-.04.18-.11.25-.07.07-.16.11-.25.11h-.88Zm-1.44-3.29l-.74-1.24c.59-.28,1.01-.56,1.25-.86.25-.3.39-.61.44-.94.05-.33.07-.67.07-1.04v-2.48c0-.12.04-.22.12-.3s.18-.12.3-.12h.76c.12,0,.22.04.3.12.08.08.12.18.12.3v2.57c0,.5-.06.99-.18,1.46-.12.47-.36.91-.73,1.32s-.93.82-1.7,1.21Z"/>
            <path class="cls-1" d="m435.38,287.28c.78.01,1.44-.13,1.97-.43.53-.3.94-.73,1.22-1.29.28-.56.42-1.2.42-1.92v-4.88c0-.12.04-.22.12-.3s.18-.12.3-.12h.76c.12,0,.22.04.29.12s.11.18.11.3v5c0,.77-.12,1.46-.36,2.08-.24.62-.58,1.15-1.03,1.58-.44.44-.97.77-1.57,1-.61.23-1.28.33-2.01.31h-1.35c-.78,0-1.48-.18-2.11-.54-.62-.36-1.12-.86-1.48-1.51-.36-.65-.54-1.4-.54-2.25v-5.67c0-.12.04-.22.12-.3.08-.08.18-.12.3-.12h.76c.12,0,.22.04.3.12s.12.18.12.3l.05,5.31c0,1.03.29,1.82.87,2.38s1.31.83,2.2.83h.56Zm-4-2.11l-.04-1.31c.89-.01,1.57-.15,2.04-.41.47-.26.79-.6.98-1.04s.28-.91.28-1.42v-2.23c0-.12.04-.22.11-.3s.17-.12.31-.12h.74c.12,0,.22.04.3.12s.12.18.12.3v2.3c0,.78-.17,1.48-.52,2.11-.35.62-.88,1.12-1.59,1.48-.71.36-1.62.53-2.71.52Z"/>
            <path class="cls-1" d="m448.9,288.63c-.12,0-.22-.04-.3-.12-.08-.08-.12-.18-.12-.3v-5.38c0-.96-.24-1.71-.72-2.24s-1.25-.8-2.32-.8h-2.36c-.12,0-.22-.04-.3-.12s-.12-.18-.12-.3v-.61c0-.12.04-.22.12-.3s.18-.12.3-.12h2.45c1.03,0,1.89.16,2.57.49.68.32,1.18.81,1.52,1.47.34.65.5,1.47.5,2.44v5.47c0,.12-.04.22-.12.3s-.18.12-.3.12h-.81Z"/>
            <path class="cls-1" d="m453.2,288.63c-.12,0-.22-.04-.3-.12s-.12-.18-.12-.3v-9.45c0-.12.04-.22.12-.3s.18-.12.3-.12h.85c.13,0,.23.04.3.12s.11.18.11.3v9.45c0,.12-.04.22-.11.3s-.17.12-.3.12h-.85Z"/>
            <path class="cls-1" d="m457.52,284.45c-.12,0-.22-.04-.3-.12s-.12-.18-.12-.3v-5.27c0-.12.04-.22.12-.3s.18-.12.3-.12h.87c.12,0,.21.04.29.12s.11.18.11.3v5.27c0,.12-.04.22-.11.3s-.17.12-.29.12h-.87Z"/>
            <path class="cls-1" d="m317.78,310.23c-.12,0-.22-.04-.3-.12s-.12-.18-.12-.3v-1.3c0-.12.04-.22.12-.3s.18-.12.3-.12h1.29c.12,0,.22.04.31.12s.12.18.12.3v1.3c0,.12-.04.22-.12.3s-.19.12-.31.12h-1.29Z"/>
            <path class="cls-1" d="m329.33,310.23c-.12,0-.22-.04-.3-.12s-.12-.18-.12-.3v-5.38c0-.96-.24-1.71-.72-2.24-.48-.53-1.25-.8-2.32-.8h-3.38c-.12,0-.22-.04-.3-.12s-.12-.18-.12-.3v-.61c0-.12.04-.22.12-.3s.18-.12.3-.12h3.47c1.56,0,2.71.38,3.46,1.13.75.76,1.12,1.85,1.12,3.29v5.44c0,.12-.04.22-.12.3s-.18.12-.3.12h-.81Zm-6.84,0c-.12,0-.22-.04-.3-.12s-.12-.18-.12-.3v-6.01c0-.12.04-.22.12-.3s.18-.12.3-.12h.83c.12,0,.22.04.29.12s.11.18.11.3v6.01c0,.12-.04.22-.11.3s-.17.12-.29.12h-.83Z"/>
            <path class="cls-1" d="m338.33,308.88c.78.01,1.44-.13,1.97-.43.53-.3.94-.73,1.22-1.29.28-.56.42-1.2.42-1.92v-4.88c0-.12.04-.22.12-.3s.18-.12.3-.12h.76c.12,0,.22.04.29.12s.11.18.11.3v5c0,.77-.12,1.46-.36,2.08-.24.62-.58,1.15-1.03,1.58-.44.44-.97.77-1.57,1-.61.23-1.28.33-2.01.31h-1.35c-.78,0-1.48-.18-2.11-.54-.62-.36-1.12-.86-1.48-1.51-.36-.65-.54-1.4-.54-2.25v-5.67c0-.12.04-.22.12-.3.08-.08.18-.12.3-.12h.76c.12,0,.22.04.3.12s.12.18.12.3l.05,5.31c0,1.03.29,1.82.87,2.38s1.31.83,2.2.83h.56Zm-4-2.11l-.04-1.31c.89-.01,1.57-.15,2.04-.41.47-.26.79-.6.98-1.04s.28-.91.28-1.42v-2.23c0-.12.04-.22.11-.3s.17-.12.31-.12h.74c.12,0,.22.04.3.12s.12.18.12.3v2.3c0,.78-.17,1.48-.52,2.11-.35.62-.88,1.12-1.59,1.48-.71.36-1.62.53-2.71.52Z"/>
            <path class="cls-1" d="m345.73,301.39c-.12,0-.22-.04-.3-.12s-.12-.18-.12-.3v-.61c0-.12.04-.22.12-.3s.18-.12.3-.12h7.72c.12,0,.22.04.3.12s.12.18.12.3v.61c0,.12-.04.22-.12.3s-.18.12-.3.12h-7.72Zm4.86,8.84c-.27,0-.4-.13-.4-.4v-6.43c0-.71.08-1.26.25-1.66.17-.4.38-.59.63-.59h1.77c-.3,0-.54.23-.73.68s-.28,1.02-.28,1.69v6.3c0,.12-.04.22-.12.29-.08.07-.19.11-.31.11h-.81Z"/>
            <path class="cls-1" d="m356.48,310.23c-.12,0-.22-.04-.3-.12s-.12-.18-.12-.3v-9.45c0-.12.04-.22.12-.3s.18-.12.3-.12h3.51c1.03,0,1.89.17,2.57.5s1.18.82,1.52,1.48c.33.65.5,1.47.5,2.46v5.44c0,.12-.04.22-.12.3s-.18.12-.3.12h-.81c-.13,0-.23-.04-.31-.12s-.11-.18-.11-.3v-5.38c0-.96-.24-1.71-.72-2.24s-1.25-.8-2.32-.8h-2.2v8.42c0,.12-.04.22-.11.3s-.17.12-.29.12h-.83Z"/>
            <path class="cls-1" d="m374.5,310.23c-.12,0-.22-.04-.3-.12s-.12-.18-.12-.3v-5.38c0-.96-.24-1.71-.72-2.24-.48-.53-1.25-.8-2.32-.8h-3.38c-.12,0-.22-.04-.3-.12s-.12-.18-.12-.3v-.61c0-.12.04-.22.12-.3s.18-.12.3-.12h3.47c1.56,0,2.71.38,3.46,1.13.75.76,1.12,1.85,1.12,3.29v5.44c0,.12-.04.22-.12.3s-.18.12-.3.12h-.81Zm-6.84,0c-.12,0-.22-.04-.3-.12s-.12-.18-.12-.3v-6.01c0-.12.04-.22.12-.3s.18-.12.3-.12h.83c.12,0,.22.04.29.12s.11.18.11.3v6.01c0,.12-.04.22-.11.3s-.17.12-.29.12h-.83Z"/>
            <path class="cls-1" d="m390.05,310.23c-.12,0-.22-.04-.3-.12s-.12-.18-.12-.3v-5.38c0-.96-.24-1.71-.72-2.24-.48-.53-1.25-.8-2.32-.8h-3.38c-.12,0-.22-.04-.3-.12s-.12-.18-.12-.3v-.61c0-.12.04-.22.12-.3s.18-.12.3-.12h3.47c1.56,0,2.71.38,3.46,1.13.75.76,1.12,1.85,1.12,3.29v5.44c0,.12-.04.22-.12.3s-.18.12-.3.12h-.81Zm-6.84,0c-.12,0-.22-.04-.3-.12s-.12-.18-.12-.3v-6.01c0-.12.04-.22.12-.3s.18-.12.3-.12h.83c.12,0,.21.04.29.12s.11.18.11.3v6.01c0,.12-.04.22-.11.3s-.17.12-.29.12h-.83Z"/>
            <path class="cls-1" d="m394.22,306.05c-.12,0-.22-.04-.3-.12s-.12-.18-.12-.3v-5.27c0-.12.04-.22.12-.3s.18-.12.3-.12h.87c.12,0,.21.04.29.12s.11.18.11.3v5.27c0,.12-.04.22-.11.3s-.17.12-.29.12h-.87Z"/>
            <path class="cls-1" d="m398.44,306.05c-.12,0-.22-.04-.3-.12s-.12-.18-.12-.3v-5.27c0-.12.04-.22.12-.3s.18-.12.3-.12h.86c.12,0,.22.04.29.12s.11.18.11.3v5.27c0,.12-.04.22-.11.3s-.17.12-.29.12h-.86Z"/>
            <path class="cls-1" d="m408.17,310.23c-.12,0-.22-.04-.3-.12-.08-.08-.12-.18-.12-.3v-5.38c0-.96-.24-1.71-.72-2.24s-1.25-.8-2.32-.8h-2.36c-.12,0-.22-.04-.3-.12s-.12-.18-.12-.3v-.61c0-.12.04-.22.12-.3s.18-.12.3-.12h2.45c1.03,0,1.89.16,2.57.49.68.32,1.18.81,1.52,1.47.34.65.5,1.47.5,2.44v5.47c0,.12-.04.22-.12.3s-.18.12-.3.12h-.81Z"/>
            <path class="cls-1" d="m413.52,301.43v1.4c.01.43.07.79.17,1.08.1.29.29.47.55.54l.67.18c.1.02.17.09.22.19.05.1.08.23.08.37v.45c0,.13-.07.23-.2.29-.13.06-.28.08-.43.05l-.7-.14c-.38-.1-.71-.27-.99-.51-.28-.25-.48-.58-.62-1.01-.14-.43-.21-.94-.21-1.54v-2.41c0-.12.04-.22.11-.3s.17-.12.3-.12h3.33c.9,0,1.65.18,2.25.53.6.35,1.06.86,1.37,1.53.31.67.48,1.47.5,2.4.01.18.02.41.02.68s0,.5-.02.67c-.03.92-.19,1.72-.5,2.39-.31.67-.77,1.19-1.37,1.54-.6.35-1.35.53-2.25.53h-3.11c-.12,0-.22-.04-.3-.12s-.12-.18-.12-.3v-.65c0-.12.04-.22.12-.3.08-.08.18-.12.3-.12h3.02c.83,0,1.47-.27,1.92-.8.45-.53.7-1.28.75-2.24.01-.18.02-.39.02-.62s0-.44-.02-.62c-.02-.96-.27-1.71-.73-2.24-.46-.53-1.11-.8-1.94-.8h-2.2Z"/>
            <path class="cls-1" d="m426.64,310.41c-1.5,0-2.62-.39-3.35-1.18s-1.1-1.89-1.1-3.32v-5.54c0-.12.04-.22.12-.3s.18-.12.3-.12h4.34c1.07,0,1.92.16,2.56.49.63.32,1.1.8,1.39,1.43s.46,1.41.49,2.33c.01.12.02.31.02.58v.79c0,.26,0,.46-.02.58-.02.91-.2,1.69-.52,2.33s-.83,1.12-1.52,1.45c-.69.32-1.59.49-2.71.49Zm0-1.48c1.14,0,1.95-.24,2.41-.71.47-.47.71-1.2.74-2.17.01-.12.02-.3.02-.54v-.7c0-.23,0-.4-.02-.52-.02-.96-.3-1.68-.82-2.17-.52-.49-1.23-.73-2.12-.73h-3.08v4.52c0,.96.24,1.7.71,2.23s1.19.79,2.15.79Z"/>
            <path class="cls-1" d="m441.02,310.23c-.12,0-.22-.04-.3-.12s-.12-.18-.12-.3v-5.38c0-.96-.24-1.71-.72-2.24-.48-.53-1.25-.8-2.32-.8h-3.38c-.12,0-.22-.04-.3-.12s-.12-.18-.12-.3v-.61c0-.12.04-.22.12-.3s.18-.12.3-.12h3.47c1.56,0,2.71.38,3.46,1.13.75.76,1.12,1.85,1.12,3.29v5.44c0,.12-.04.22-.12.3s-.18.12-.3.12h-.81Zm-6.84,0c-.12,0-.22-.04-.3-.12s-.12-.18-.12-.3v-6.01c0-.12.04-.22.12-.3s.18-.12.3-.12h.83c.12,0,.21.04.29.12s.11.18.11.3v6.01c0,.12-.04.22-.11.3s-.17.12-.29.12h-.83Z"/>
            <path class="cls-1" d="m451.17,301.43l-2.14-.02c-.12,0-.22-.04-.3-.11-.08-.07-.12-.17-.12-.29v-3.15c0-.12.04-.22.12-.3s.18-.12.3-.12h.76c.13,0,.23.04.3.12.07.08.11.18.11.3v2.09h1.01l-.04,1.48Zm-.04,8.96c-.11.04-.21.02-.31-.04-.1-.07-.14-.16-.14-.28v-.83c0-.11.03-.2.1-.29.07-.08.17-.15.3-.2l.7-.27c.47-.2.9-.45,1.29-.74.39-.29.7-.68.92-1.19.22-.5.33-1.16.33-1.98s-.09-1.4-.28-1.86c-.19-.46-.5-.79-.94-.99s-1.04-.3-1.79-.3h-.54c-.12,0-.22-.04-.3-.12-.08-.08-.12-.18-.12-.3v-.65c0-.12.04-.22.12-.3.08-.08.18-.12.3-.12h.79c1.09,0,1.96.16,2.61.47.65.31,1.11.81,1.4,1.5.28.69.42,1.59.42,2.71,0,.84-.11,1.57-.34,2.18s-.54,1.13-.93,1.57c-.39.43-.83.79-1.32,1.07-.49.28-1,.51-1.53.69l-.74.25Z"/>
            <path class="cls-1" d="m463.47,308.88c.78.01,1.44-.13,1.97-.43.54-.3.94-.73,1.22-1.29.28-.56.42-1.2.42-1.92v-4.88c0-.12.04-.22.12-.3.08-.08.18-.12.3-.12h.76c.12,0,.21.04.29.12s.11.18.11.3v5c0,.77-.12,1.46-.36,2.08-.24.62-.58,1.15-1.03,1.58-.45.44-.97.77-1.58,1-.61.23-1.27.33-2.01.31h-1.35c-.78,0-1.48-.18-2.11-.54-.62-.36-1.12-.86-1.47-1.51-.36-.65-.54-1.4-.54-2.25v-5.67c0-.12.04-.22.12-.3s.18-.12.3-.12h.76c.12,0,.22.04.3.12s.12.18.12.3l.05,5.31c0,1.03.29,1.82.86,2.38s1.31.83,2.2.83h.56Zm-4-2.11l-.04-1.31c.89-.01,1.57-.15,2.03-.41.47-.26.79-.6.98-1.04.19-.43.28-.91.28-1.42v-2.23c0-.12.04-.22.11-.3s.17-.12.3-.12h.74c.12,0,.22.04.3.12s.12.18.12.3v2.3c0,.78-.17,1.48-.52,2.11s-.88,1.12-1.59,1.48c-.71.36-1.62.53-2.71.52Z"/>
          </g>
          <g>
            <path class="cls-1" d="m360.84,514.27h.45c.18,0,.31.04.4.13s.13.2.12.33c-.1.5-.18.96-.24,1.37-.07.41-.11.81-.13,1.21-.03.4-.04.85-.04,1.36l.05,4.9c0,.12-.04.22-.12.3s-.18.12-.3.12l-2.56-.04c-.12,0-.22-.04-.3-.11-.08-.07-.12-.17-.12-.31v-.58c0-.12.04-.22.12-.3s.18-.12.3-.12l1.39.02v-3.82c0-.49,0-.94.02-1.36s.05-.83.11-1.25.16-.89.29-1.42c.04-.13.09-.24.17-.32s.21-.13.39-.13Zm-1.62.88c-.12,0-.22-.04-.3-.12s-.12-.18-.12-.3v-.61c0-.12.04-.22.12-.3s.18-.12.3-.12h3.91c1.03,0,1.89.17,2.56.5s1.19.82,1.52,1.48.5,1.46.5,2.42v5.47c0,.12-.04.22-.12.3s-.18.12-.3.12h-.81c-.13,0-.23-.04-.3-.12-.07-.08-.11-.18-.11-.3v-5.38c0-.96-.24-1.71-.72-2.24-.48-.53-1.25-.8-2.32-.8h-3.82Z"/>
            <path class="cls-1" d="m370.8,523.99c-.12,0-.22-.04-.3-.12s-.12-.18-.12-.3v-9.45c0-.12.04-.22.12-.3s.18-.12.3-.12h.85c.13,0,.23.04.31.12s.11.18.11.3v9.45c0,.12-.04.22-.11.3s-.17.12-.31.12h-.85Z"/>
            <path class="cls-1" d="m374.81,523.99c-.12,0-.22-.04-.3-.12s-.12-.18-.12-.3v-2.7c0-.55.05-1.08.16-1.58.11-.5.32-.97.64-1.42.32-.45.79-.87,1.43-1.27l.83,1.21c-.43.28-.76.59-.97.95-.21.35-.36.72-.43,1.1s-.11.74-.11,1.09v2.63c0,.12-.04.22-.12.3s-.18.12-.3.12h-.72Zm7.02,0c-.13,0-.23-.04-.3-.11-.07-.07-.14-.14-.2-.2l-6.61-9.27c-.08-.13-.12-.25-.12-.34s.04-.18.12-.25.17-.11.26-.11h.85c.13,0,.24.04.32.11.08.07.14.14.19.2l6.62,9.27c.05.08.08.15.1.2.02.05.03.1.03.14,0,.1-.04.18-.11.25-.07.07-.16.11-.25.11h-.88Zm-1.44-3.29l-.74-1.24c.59-.28,1.01-.56,1.25-.86.25-.3.39-.61.44-.94.05-.33.07-.67.07-1.04v-2.48c0-.12.04-.22.12-.3s.18-.12.3-.12h.76c.12,0,.22.04.3.12.08.08.12.18.12.3v2.57c0,.5-.06.99-.18,1.46-.12.47-.36.91-.73,1.32s-.93.82-1.7,1.21Z"/>
            <path class="cls-1" d="m390.53,522.64c.78.01,1.44-.13,1.97-.43.53-.3.94-.73,1.22-1.29.28-.56.42-1.2.42-1.92v-4.88c0-.12.04-.22.12-.3s.18-.12.3-.12h.76c.12,0,.22.04.29.12s.11.18.11.3v5c0,.77-.12,1.46-.36,2.08-.24.62-.58,1.15-1.03,1.58-.44.44-.97.77-1.57,1-.61.23-1.28.33-2.01.31h-1.35c-.78,0-1.48-.18-2.11-.54-.62-.36-1.12-.86-1.48-1.51-.36-.65-.54-1.4-.54-2.25v-5.67c0-.12.04-.22.12-.3.08-.08.18-.12.3-.12h.76c.12,0,.22.04.3.12s.12.18.12.3l.05,5.31c0,1.03.29,1.82.87,2.38s1.31.83,2.2.83h.56Zm-4-2.11l-.04-1.31c.89-.01,1.57-.15,2.04-.41.47-.26.79-.6.98-1.04s.28-.91.28-1.42v-2.23c0-.12.04-.22.11-.3s.17-.12.31-.12h.74c.12,0,.22.04.3.12s.12.18.12.3v2.3c0,.78-.17,1.48-.52,2.11-.35.62-.88,1.12-1.59,1.48-.71.36-1.62.53-2.71.52Z"/>
            <path class="cls-1" d="m404.04,523.99c-.12,0-.22-.04-.3-.12-.08-.08-.12-.18-.12-.3v-5.38c0-.96-.24-1.71-.72-2.24s-1.25-.8-2.32-.8h-2.36c-.12,0-.22-.04-.3-.12s-.12-.18-.12-.3v-.61c0-.12.04-.22.12-.3s.18-.12.3-.12h2.45c1.03,0,1.89.16,2.57.49.68.32,1.18.81,1.52,1.47.34.65.5,1.47.5,2.44v5.47c0,.12-.04.22-.12.3s-.18.12-.3.12h-.81Z"/>
            <path class="cls-1" d="m415.18,523.99c-.12,0-.22-.04-.3-.12s-.12-.18-.12-.3v-5.38c0-.96-.24-1.71-.72-2.24-.48-.53-1.25-.8-2.32-.8h-3.38c-.12,0-.22-.04-.3-.12s-.12-.18-.12-.3v-.61c0-.12.04-.22.12-.3s.18-.12.3-.12h3.47c1.56,0,2.71.38,3.46,1.13.75.76,1.12,1.85,1.12,3.29v5.44c0,.12-.04.22-.12.3s-.18.12-.3.12h-.81Zm-6.84,0c-.12,0-.22-.04-.3-.12s-.12-.18-.12-.3v-6.01c0-.12.04-.22.12-.3s.18-.12.3-.12h.83c.12,0,.22.04.29.12s.11.18.11.3v6.01c0,.12-.04.22-.11.3s-.17.12-.29.12h-.83Z"/>
            <path class="cls-1" d="m426.33,523.99c-.12,0-.22-.04-.3-.12s-.12-.18-.12-.3v-5.38c0-.96-.24-1.71-.72-2.24-.48-.53-1.25-.8-2.32-.8h-3.38c-.12,0-.22-.04-.3-.12s-.12-.18-.12-.3v-.61c0-.12.04-.22.12-.3s.18-.12.3-.12h3.47c1.56,0,2.71.38,3.46,1.13.75.76,1.12,1.85,1.12,3.29v5.44c0,.12-.04.22-.12.3s-.18.12-.3.12h-.81Zm-6.84,0c-.12,0-.22-.04-.3-.12s-.12-.18-.12-.3v-6.01c0-.12.04-.22.12-.3s.18-.12.3-.12h.83c.12,0,.21.04.29.12s.11.18.11.3v6.01c0,.12-.04.22-.11.3s-.17.12-.29.12h-.83Z"/>
            <path class="cls-1" d="m330.89,535.87h.45c.18,0,.32.04.41.13s.13.2.12.33c-.1.5-.18.96-.24,1.37s-.11.81-.13,1.21-.04.85-.04,1.36l.05,4.9c0,.12-.04.22-.12.3s-.18.12-.3.12l-2.55-.04c-.12,0-.22-.04-.3-.11-.08-.07-.12-.17-.12-.31v-.58c0-.12.04-.22.12-.3.08-.08.18-.12.3-.12l1.38.02v-3.82c0-.49,0-.94.02-1.36.01-.41.05-.83.11-1.25.06-.42.16-.89.29-1.42.04-.13.09-.24.17-.32s.21-.13.39-.13Zm-1.62.88c-.12,0-.22-.04-.3-.12s-.12-.18-.12-.3v-.61c0-.12.04-.22.12-.3s.18-.12.3-.12h3.9c1.03,0,1.89.17,2.57.5.68.33,1.18.82,1.52,1.48s.5,1.46.5,2.42v5.47c0,.12-.04.22-.12.3-.08.08-.18.12-.3.12h-.81c-.13,0-.23-.04-.31-.12s-.11-.18-.11-.3v-5.38c0-.96-.24-1.71-.72-2.24s-1.25-.8-2.32-.8h-3.81Z"/>
            <path class="cls-1" d="m340.84,545.59c-.12,0-.22-.04-.3-.12s-.12-.18-.12-.3v-9.45c0-.12.04-.22.12-.3s.18-.12.3-.12h.85c.13,0,.23.04.3.12s.11.18.11.3v9.45c0,.12-.04.22-.11.3s-.17.12-.3.12h-.85Z"/>
            <path class="cls-1" d="m350.69,545.59c-.12,0-.22-.04-.3-.12-.08-.08-.12-.18-.12-.3v-5.38c0-.96-.24-1.71-.72-2.24s-1.25-.8-2.32-.8h-2.36c-.12,0-.22-.04-.3-.12s-.12-.18-.12-.3v-.61c0-.12.04-.22.12-.3s.18-.12.3-.12h2.45c1.03,0,1.89.16,2.57.49.68.32,1.18.81,1.52,1.47.34.65.5,1.47.5,2.44v5.47c0,.12-.04.22-.12.3s-.18.12-.3.12h-.81Z"/>
            <path class="cls-1" d="m354.53,545.59c-.11,0-.2-.04-.27-.13-.07-.08-.1-.19-.09-.31l1.53-8.82c.02-.12.08-.21.16-.28.08-.07.19-.09.3-.06l.72.04c.12.01.22.06.29.15.07.09.1.2.07.32l-1.44,8.66c-.01.12-.06.22-.15.31s-.2.13-.32.13h-.81Zm4.55-8.8h-4.37c-.13,0-.23-.04-.31-.12s-.11-.18-.11-.3v-.65c0-.12.04-.22.11-.3s.17-.12.31-.12h4.57c.74,0,1.41.17,1.99.52s1.04.85,1.37,1.5c.33.65.49,1.44.49,2.37v5.47c0,.12-.04.22-.11.3s-.17.12-.31.12h-4.64c-.12,0-.22-.04-.3-.12s-.12-.18-.12-.3v-.61c0-.12.04-.22.12-.3s.18-.12.3-.12h3.42v-4.34c0-.61-.11-1.15-.31-1.6-.21-.46-.5-.81-.86-1.05-.37-.25-.78-.37-1.23-.37Z"/>
            <path class="cls-1" d="m370.91,544.24c.78.01,1.44-.13,1.97-.43.54-.3.94-.73,1.22-1.29.28-.56.42-1.2.42-1.92v-4.88c0-.12.04-.22.12-.3.08-.08.18-.12.3-.12h.76c.12,0,.21.04.29.12s.11.18.11.3v5c0,.77-.12,1.46-.36,2.08-.24.62-.58,1.15-1.03,1.58-.45.44-.97.77-1.58,1-.61.23-1.27.33-2.01.31h-1.35c-.78,0-1.48-.18-2.11-.54-.62-.36-1.12-.86-1.47-1.51-.36-.65-.54-1.4-.54-2.25v-5.67c0-.12.04-.22.12-.3s.18-.12.3-.12h.76c.12,0,.22.04.3.12s.12.18.12.3l.05,5.31c0,1.03.29,1.82.86,2.38s1.31.83,2.2.83h.56Zm-4-2.11l-.04-1.31c.89-.01,1.57-.15,2.03-.41.47-.26.79-.6.98-1.04.19-.43.28-.91.28-1.42v-2.23c0-.12.04-.22.11-.3s.17-.12.3-.12h.74c.12,0,.22.04.3.12s.12.18.12.3v2.3c0,.78-.17,1.48-.52,2.11s-.88,1.12-1.59,1.48c-.71.36-1.62.53-2.71.52Z"/>
            <path class="cls-1" d="m378.45,545.59c-.12,0-.22-.04-.3-.12s-.12-.18-.12-.3v-.61c0-.12.04-.22.12-.3s.18-.12.3-.12h5.08v1.1c0,.12-.04.21-.12.26s-.18.08-.3.08h-4.66Zm3.98,0c-.12,0-.21-.04-.28-.12s-.11-.18-.13-.3l-.34-5.56c-.02-.59-.07-1.1-.13-1.53-.07-.43-.21-.77-.43-1.01-.22-.24-.59-.36-1.11-.36h-.74c-.12,0-.22-.04-.3-.12s-.12-.18-.12-.3v-.61c0-.12.04-.22.12-.3s.18-.12.3-.12h.76c.68,0,1.24.1,1.66.3.42.2.75.49.98.86.23.38.4.83.5,1.36.1.53.17,1.12.21,1.76l.34,5.62c.01.12-.03.22-.11.3s-.19.12-.3.12h-.87Z"/>
            <path class="cls-1" d="m392.68,535.87h.45c.18,0,.31.04.4.13s.13.2.12.33c-.1.5-.18.96-.24,1.37-.07.41-.11.81-.13,1.21-.03.4-.04.85-.04,1.36l.05,4.9c0,.12-.04.22-.12.3s-.18.12-.3.12l-2.56-.04c-.12,0-.22-.04-.3-.11-.08-.07-.12-.17-.12-.31v-.58c0-.12.04-.22.12-.3s.18-.12.3-.12l1.39.02v-3.82c0-.49,0-.94.02-1.36s.05-.83.11-1.25.16-.89.29-1.42c.04-.13.09-.24.17-.32s.21-.13.39-.13Zm-1.62.88c-.12,0-.22-.04-.3-.12s-.12-.18-.12-.3v-.61c0-.12.04-.22.12-.3s.18-.12.3-.12h3.91c1.03,0,1.89.17,2.56.5s1.19.82,1.52,1.48.5,1.46.5,2.42v5.47c0,.12-.04.22-.12.3s-.18.12-.3.12h-.81c-.13,0-.23-.04-.3-.12-.07-.08-.11-.18-.11-.3v-5.38c0-.96-.24-1.71-.72-2.24-.48-.53-1.25-.8-2.32-.8h-3.82Z"/>
            <path class="cls-1" d="m402.64,545.59c-.12,0-.22-.04-.3-.12s-.12-.18-.12-.3v-9.45c0-.12.04-.22.12-.3s.18-.12.3-.12h.85c.13,0,.23.04.31.12s.11.18.11.3v9.45c0,.12-.04.22-.11.3s-.17.12-.31.12h-.85Z"/>
            <path class="cls-1" d="m406.96,541.41c-.12,0-.22-.04-.3-.12s-.12-.18-.12-.3v-5.27c0-.12.04-.22.12-.3s.18-.12.3-.12h.86c.12,0,.22.04.29.12s.11.18.11.3v5.27c0,.12-.04.22-.11.3s-.17.12-.29.12h-.86Z"/>
            <path class="cls-1" d="m410.83,545.59c-.11,0-.2-.04-.27-.13s-.1-.19-.09-.31l1.53-8.82c.03-.12.08-.21.16-.28.08-.07.19-.09.31-.06l.72.04c.12.01.21.06.29.15s.1.2.07.32l-1.44,8.66c-.01.12-.06.22-.15.31s-.2.13-.31.13h-.81Zm4.55-8.8h-4.38c-.13,0-.23-.04-.3-.12s-.11-.18-.11-.3v-.65c0-.12.04-.22.11-.3s.17-.12.3-.12h4.57c.74,0,1.41.17,1.99.52s1.04.85,1.37,1.5.49,1.44.49,2.37v5.47c0,.12-.04.22-.11.3s-.17.12-.3.12h-4.64c-.12,0-.22-.04-.3-.12s-.12-.18-.12-.3v-.61c0-.12.04-.22.12-.3s.18-.12.3-.12h3.42v-4.34c0-.61-.11-1.15-.31-1.6-.21-.46-.5-.81-.87-1.05-.37-.25-.78-.37-1.23-.37Z"/>
            <path class="cls-1" d="m422.51,545.59c-.12,0-.22-.04-.3-.12s-.12-.18-.12-.3v-9.45c0-.12.04-.22.12-.3s.18-.12.3-.12h.85c.13,0,.23.04.3.12s.11.18.11.3v9.45c0,.12-.04.22-.11.3s-.17.12-.3.12h-.85Z"/>
            <path class="cls-1" d="m430.41,545.75c-.11.04-.21.02-.3-.04-.09-.07-.13-.16-.13-.28v-.83c0-.11.03-.2.1-.29.07-.08.16-.15.3-.2l.68-.27c.48-.2.92-.45,1.3-.74.39-.29.7-.68.92-1.19.22-.5.33-1.16.33-1.98s-.1-1.4-.29-1.86c-.19-.46-.51-.79-.95-.99-.44-.2-1.03-.3-1.77-.3h-3.65c-.12,0-.22-.04-.3-.12s-.12-.18-.12-.3v-.65c0-.12.04-.22.12-.3s.18-.12.3-.12h3.89c1.1,0,1.98.16,2.62.47.64.31,1.11.81,1.39,1.5.28.69.42,1.59.42,2.71,0,.84-.12,1.57-.34,2.18-.23.61-.54,1.13-.93,1.57-.39.43-.83.79-1.31,1.07-.49.28-.99.51-1.52.69l-.76.25Zm-3.46,3.28c-.12,0-.22-.04-.3-.12-.08-.08-.12-.18-.12-.3v-9.45c0-.12.04-.22.12-.3s.18-.12.3-.12h.79c.13,0,.23.04.31.12s.11.18.11.3v9.45c0,.12-.04.22-.11.3-.07.08-.17.12-.31.12h-.79Z"/>
            <path class="cls-1" d="m437.76,545.59c-.11,0-.2-.04-.27-.13s-.1-.19-.09-.31l1.53-8.82c.03-.12.08-.21.16-.28.08-.07.19-.09.31-.06l.72.04c.12.01.21.06.29.15s.1.2.07.32l-1.44,8.66c-.01.12-.06.22-.15.31s-.2.13-.31.13h-.81Zm4.55-8.8h-4.38c-.13,0-.23-.04-.3-.12s-.11-.18-.11-.3v-.65c0-.12.04-.22.11-.3s.17-.12.3-.12h4.57c.74,0,1.41.17,1.99.52s1.04.85,1.37,1.5.49,1.44.49,2.37v5.47c0,.12-.04.22-.11.3s-.17.12-.3.12h-4.64c-.12,0-.22-.04-.3-.12s-.12-.18-.12-.3v-.61c0-.12.04-.22.12-.3s.18-.12.3-.12h3.42v-4.34c0-.61-.11-1.15-.31-1.6-.21-.46-.5-.81-.87-1.05-.37-.25-.78-.37-1.23-.37Z"/>
            <path class="cls-1" d="m456.28,545.59c-.12,0-.22-.04-.3-.12s-.12-.18-.12-.3v-5.38c0-.96-.24-1.71-.72-2.24-.48-.53-1.25-.8-2.32-.8h-3.38c-.12,0-.22-.04-.3-.12s-.12-.18-.12-.3v-.61c0-.12.04-.22.12-.3s.18-.12.3-.12h3.47c1.56,0,2.71.38,3.46,1.13.75.76,1.12,1.85,1.12,3.29v5.44c0,.12-.04.22-.12.3s-.18.12-.3.12h-.81Zm-6.84,0c-.12,0-.22-.04-.3-.12s-.12-.18-.12-.3v-6.01c0-.12.04-.22.12-.3s.18-.12.3-.12h.83c.12,0,.22.04.29.12s.11.18.11.3v6.01c0,.12-.04.22-.11.3s-.17.12-.29.12h-.83Z"/>
          </g>
        </g>
      </g>
      <g>
        <g>
          <path class="cls-1" d="m468.59,163.88c-.16,0-.3-.05-.41-.17-.11-.11-.16-.25-.16-.41v-11.42c0-.16.05-.3.16-.41.11-.11.25-.16.41-.16h5.24c1.3,0,2.41.17,3.31.51.9.34,1.58.9,2.05,1.68.46.79.69,1.85.69,3.2v6.58c0,.15-.06.28-.18.41-.12.12-.26.19-.42.19h-10.69Zm3.19-3.37h4.05v-3.7c0-.7-.17-1.24-.52-1.6-.35-.36-.88-.54-1.6-.54h-1.94v5.83Z"/>
          <path class="cls-1" d="m482.62,158.65c-.16,0-.3-.05-.41-.17-.11-.11-.17-.25-.17-.41v-6.18c0-.16.05-.3.17-.41.11-.11.25-.16.41-.16h3.28c.15,0,.28.05.4.16.12.11.18.25.18.41v6.18c0,.16-.06.3-.18.41-.12.11-.25.17-.4.17h-3.28Z"/>
          <path class="cls-1" d="m488.92,163.88c-.16,0-.3-.05-.41-.17-.11-.11-.17-.25-.17-.41v-2.22c0-.16.06-.3.17-.41.11-.11.25-.17.41-.17h7.44v2.82c0,.16-.06.29-.17.4-.11.1-.25.15-.41.15h-6.86Zm4.16,0c-.16,0-.3-.05-.41-.17-.11-.11-.17-.25-.17-.41l-.26-6.75c-.03-.48-.1-.88-.21-1.18s-.29-.53-.53-.68c-.24-.15-.58-.23-1-.23h-1.19c-.16,0-.3-.05-.41-.17s-.17-.25-.17-.41v-2.18c0-.16.05-.3.17-.41.11-.11.25-.17.41-.17h1.28c1.03,0,1.91.1,2.65.31.74.21,1.36.52,1.86.96.5.43.87,1,1.12,1.71.25.7.39,1.55.42,2.53l.29,6.67c0,.16-.06.3-.18.41s-.26.17-.42.17h-3.26Z"/>
          <path class="cls-1" d="m499.34,163.88c-.16,0-.3-.05-.41-.17-.11-.11-.16-.25-.16-.41v-11.42c0-.16.05-.3.16-.41.11-.11.25-.16.41-.16h3.28c.15,0,.28.05.4.16.12.11.18.25.18.41v11.42c0,.16-.06.3-.18.41s-.25.17-.4.17h-3.28Z"/>
          <path class="cls-1" d="m512.96,160.74c.7,0,1.34-.15,1.91-.44.57-.29,1.02-.69,1.35-1.19.33-.5.5-1.06.5-1.67v-5.57c0-.16.06-.29.17-.4.11-.1.25-.15.41-.15h2.75c.15,0,.28.05.4.16.12.11.18.25.18.41v5.65c0,1.01-.18,1.92-.54,2.73-.36.81-.85,1.49-1.49,2.06s-1.36,1-2.18,1.3-1.7.45-2.64.45h-2.24c-1.29,0-2.38-.23-3.28-.7s-1.57-1.09-2.04-1.86c-.46-.77-.69-1.6-.69-2.5v-7.13c0-.16.06-.3.17-.41.11-.11.25-.16.41-.16h2.73c.16,0,.3.05.41.15.11.1.17.24.17.4l.02,5.06c0,1.22.29,2.16.88,2.82s1.31.99,2.18.99h.48Zm-3.87-1.03v-2.79c.51-.01.92-.14,1.23-.37.31-.23.52-.58.65-1.04.12-.46.19-1.04.19-1.73v-1.83c0-.19.06-.34.18-.45.12-.11.25-.16.4-.16h2.73c.16,0,.3.06.41.19.11.12.17.27.17.43v1.85c0,1.31-.24,2.39-.72,3.27-.48.87-1.16,1.53-2.05,1.98s-1.95.67-3.18.67Z"/>
          <path class="cls-1" d="m527.79,163.88c-.16,0-.3-.05-.41-.17-.11-.11-.16-.25-.16-.41v-11.42c0-.16.05-.3.16-.41.11-.11.25-.16.41-.16h5.24c1.3,0,2.41.17,3.31.51.9.34,1.58.9,2.05,1.68.46.79.69,1.85.69,3.2v6.58c0,.15-.06.28-.18.41-.12.12-.26.19-.42.19h-10.69Zm3.19-3.37h4.05v-3.7c0-.7-.17-1.24-.52-1.6-.35-.36-.88-.54-1.6-.54h-1.94v5.83Z"/>
          <path class="cls-1" d="m541.83,158.65c-.16,0-.3-.05-.41-.17-.11-.11-.17-.25-.17-.41v-6.18c0-.16.05-.3.17-.41.11-.11.25-.16.41-.16h3.28c.15,0,.28.05.4.16.12.11.18.25.18.41v6.18c0,.16-.06.3-.18.41-.12.11-.25.17-.4.17h-3.28Z"/>
          <path class="cls-1" d="m548.12,163.88c-.16,0-.3-.05-.41-.17-.11-.11-.17-.25-.17-.41v-2.22c0-.16.06-.3.17-.41.11-.11.25-.17.41-.17h7.44v2.82c0,.16-.06.29-.17.4-.11.1-.25.15-.41.15h-6.86Zm4.16,0c-.16,0-.3-.05-.41-.17-.11-.11-.17-.25-.17-.41l-.26-6.75c-.03-.48-.1-.88-.21-1.18s-.29-.53-.53-.68c-.24-.15-.58-.23-1-.23h-1.19c-.16,0-.3-.05-.41-.17s-.17-.25-.17-.41v-2.18c0-.16.05-.3.17-.41.11-.11.25-.17.41-.17h1.28c1.03,0,1.91.1,2.65.31.74.21,1.36.52,1.86.96.5.43.87,1,1.12,1.71.25.7.39,1.55.42,2.53l.29,6.67c0,.16-.06.3-.18.41s-.26.17-.42.17h-3.26Z"/>
          <path class="cls-1" d="m558.13,163.88c-.16,0-.3-.05-.41-.17-.11-.11-.17-.25-.17-.41v-2.22c0-.16.06-.3.17-.41.11-.11.25-.17.41-.17h7.44v2.82c0,.16-.06.29-.17.4-.11.1-.25.15-.41.15h-6.86Zm4.16,0c-.16,0-.3-.05-.41-.17-.11-.11-.17-.25-.17-.41l-.26-6.75c-.03-.48-.1-.88-.21-1.18s-.29-.53-.53-.68c-.24-.15-.58-.23-1-.23h-1.19c-.16,0-.3-.05-.41-.17s-.17-.25-.17-.41v-2.18c0-.16.05-.3.17-.41.11-.11.25-.17.41-.17h1.28c1.03,0,1.91.1,2.65.31.74.21,1.36.52,1.86.96.5.43.87,1,1.12,1.71.25.7.39,1.55.42,2.53l.29,6.67c0,.16-.06.3-.18.41s-.26.17-.42.17h-3.26Z"/>
          <path class="cls-1" d="m568.56,163.88c-.16,0-.3-.05-.41-.17-.11-.11-.16-.25-.16-.41v-11.42c0-.16.05-.3.16-.41.11-.11.25-.16.41-.16h3.28c.15,0,.28.05.4.16.12.11.18.25.18.41v11.42c0,.16-.06.3-.18.41s-.25.17-.4.17h-3.28Z"/>
          <path class="cls-1" d="m575.18,163.88c-.16,0-.3-.05-.41-.17-.11-.11-.17-.25-.17-.41v-2.4c0-.16.06-.3.17-.41.11-.11.25-.17.41-.17h3.21c.72,0,1.27-.18,1.66-.55s.6-.89.63-1.58c.01-.23.02-.44.02-.61s0-.37-.02-.6c-.03-.7-.24-1.24-.63-1.6-.39-.36-.94-.54-1.66-.54h-3.21c-.16,0-.3-.06-.41-.17-.11-.11-.17-.25-.17-.41v-2.4c0-.16.06-.3.17-.41.11-.11.25-.16.41-.16h3.32c1.47,0,2.65.24,3.54.71.89.48,1.55,1.14,1.98,2,.43.86.67,1.85.73,2.98.01.25.02.44.02.58s0,.33-.02.58c-.06,1.13-.3,2.12-.73,2.98-.43.86-1.08,1.53-1.98,2-.9.48-2.08.71-3.54.71h-3.32Z"/>
          <path class="cls-1" d="m591.68,166.61c-.16,0-.3-.05-.41-.16-.11-.11-.16-.25-.16-.41v-14.15c0-.16.05-.3.16-.41.11-.11.25-.16.41-.16h3.1c.15,0,.28.05.4.16.12.11.18.25.18.41v14.15c0,.16-.06.3-.18.41-.12.11-.25.16-.4.16h-3.1Z"/>
          <path class="cls-1" d="m598.24,158.65c-.16,0-.3-.05-.41-.17-.11-.11-.17-.25-.17-.41v-6.18c0-.16.05-.3.17-.41.11-.11.25-.16.41-.16h3.28c.15,0,.28.05.4.16.12.11.18.25.18.41v6.18c0,.16-.06.3-.18.41-.12.11-.25.17-.4.17h-3.28Z"/>
          <path class="cls-1" d="m604.55,163.88c-.16,0-.3-.05-.41-.17s-.17-.25-.17-.41v-2.22c0-.16.05-.3.17-.41.11-.11.25-.17.41-.17h5.26v-3.67c0-.7-.17-1.24-.52-1.59-.35-.36-.88-.54-1.6-.54h-2.93c-.16,0-.3-.05-.41-.17-.11-.11-.17-.25-.17-.41v-2.24c0-.16.06-.3.17-.41.11-.11.25-.16.41-.16h3.04c1.35,0,2.5.18,3.45.53.95.35,1.69.93,2.2,1.74.51.81.77,1.89.77,3.26v3.67h.75c.16,0,.3.06.41.17.11.11.17.25.17.41v2.22c0,.16-.06.3-.17.41-.11.11-.25.17-.41.17h-10.43Z"/>
        </g>
        <g>
          <path class="cls-1" d="m169.07,162.4c-.16,0-.3-.05-.41-.17-.11-.11-.16-.25-.16-.41v-11.42c0-.16.05-.3.16-.41.11-.11.25-.16.41-.16h5.24c1.3,0,2.41.17,3.31.51.9.34,1.58.9,2.04,1.68.46.79.69,1.85.69,3.2v6.58c0,.15-.06.28-.18.41-.12.12-.26.19-.42.19h-10.69Zm3.19-3.37h4.05v-3.7c0-.7-.17-1.24-.52-1.6-.35-.36-.88-.54-1.6-.54h-1.94v5.83Z"/>
          <path class="cls-1" d="m183.1,157.17c-.16,0-.3-.05-.41-.17-.11-.11-.17-.25-.17-.41v-6.18c0-.16.05-.3.17-.41.11-.11.24-.16.41-.16h3.28c.15,0,.28.05.4.16.12.11.18.25.18.41v6.18c0,.16-.06.3-.18.41-.12.11-.25.17-.4.17h-3.28Z"/>
          <path class="cls-1" d="m189.94,162.4c-.16,0-.3-.05-.41-.17s-.16-.25-.16-.41v-2.31c0-.16.05-.3.16-.41s.25-.17.41-.17h4.91l-6.22-8.34s-.06-.1-.09-.15c-.03-.06-.04-.12-.04-.18,0-.13.05-.24.14-.32.1-.08.21-.12.34-.12h3.23c.23,0,.41.05.52.15.11.1.19.18.23.24l6.47,8.76c.07.09.14.19.21.3.07.11.1.26.1.45v2.09c0,.16-.05.3-.17.41-.11.11-.24.17-.41.17h-9.22Zm7.63-5.26l-2.11-2.84c.42-.32.71-.73.86-1.22.15-.49.22-1.02.22-1.59v-1.03c0-.19.05-.34.16-.45.11-.11.25-.16.41-.16h2.75c.14,0,.28.06.39.19.12.12.18.27.18.43v1.83c0,.97-.24,1.88-.72,2.73-.48.85-1.2,1.56-2.13,2.13Z"/>
          <path class="cls-1" d="m202.77,162.4c-.16,0-.3-.05-.41-.17-.11-.11-.17-.25-.17-.41v-2.22c0-.16.05-.3.17-.41.11-.11.24-.17.41-.17h5.26v-3.67c0-.7-.17-1.24-.52-1.59-.35-.36-.88-.54-1.6-.54h-2.93c-.16,0-.3-.05-.41-.17-.11-.11-.16-.25-.16-.41v-2.24c0-.16.05-.3.16-.41.11-.11.25-.16.41-.16h3.04c1.35,0,2.5.18,3.46.53.95.35,1.69.93,2.2,1.74s.77,1.89.77,3.26v3.67h.75c.16,0,.3.06.41.17.11.11.16.25.16.41v2.22c0,.16-.05.3-.16.41-.11.11-.25.17-.41.17h-10.43Z"/>
          <path class="cls-1" d="m221.71,162.71c-.15.03-.29-.03-.42-.18-.13-.15-.2-.3-.2-.46v-2.6c0-.15.06-.29.18-.44.12-.15.25-.25.4-.31l.66-.26c.34-.15.65-.34.95-.57.29-.23.53-.55.69-.94.17-.39.25-.88.25-1.48,0-.5-.05-.9-.15-1.21-.1-.31-.29-.53-.56-.67-.27-.14-.66-.21-1.16-.21h-6.29c-.15,0-.28-.06-.4-.17-.12-.11-.18-.25-.18-.41v-2.44c0-.15.06-.27.18-.37s.25-.15.4-.15h7.21c1.29,0,2.33.22,3.11.66.79.44,1.35,1.07,1.71,1.88.35.81.53,1.79.53,2.94,0,.97-.17,1.85-.5,2.65-.33.8-.78,1.5-1.35,2.09-.57.59-1.22,1.09-1.94,1.5s-1.47.71-2.24.91l-.88.24Zm-5.65,3.89c-.16,0-.3-.05-.41-.17-.11-.11-.16-.25-.16-.41v-10.34c0-.16.05-.3.16-.41.11-.11.25-.17.41-.17h2.99c.15,0,.28.06.4.17.12.11.18.25.18.41v10.34c0,.16-.06.3-.18.41-.12.11-.25.17-.4.17h-2.99Z"/>
          <path class="cls-1" d="m238.59,153.38h-4.18c-.16,0-.3-.06-.41-.17-.11-.11-.16-.25-.16-.41v-5.46c0-.16.05-.3.16-.41s.25-.17.41-.17h2.82c.16,0,.3.05.41.17.11.11.16.25.16.41v2.49h.81l-.02,3.54Zm-1.1,9.33c-.15.03-.28-.03-.41-.18s-.19-.3-.19-.46v-2.6c0-.15.06-.29.18-.44.12-.15.25-.25.4-.31l.66-.26c.34-.15.65-.34.94-.57.29-.23.52-.55.69-.94.18-.39.26-.88.26-1.48,0-.5-.05-.9-.17-1.21-.11-.31-.3-.53-.57-.67-.27-.14-.65-.21-1.13-.21h-.46c-.15,0-.28-.06-.4-.17-.12-.11-.18-.25-.18-.41v-2.44c0-.15.06-.27.18-.37s.25-.15.4-.15h1.36c1.3,0,2.35.22,3.12.66.78.44,1.34,1.07,1.69,1.88.35.81.53,1.79.53,2.94,0,.97-.16,1.85-.49,2.65-.33.8-.78,1.5-1.35,2.09s-1.21,1.09-1.92,1.5c-.71.4-1.46.71-2.23.91l-.9.24Z"/>
          <path class="cls-1" d="m253.72,159.26c.7,0,1.34-.15,1.91-.44.57-.29,1.02-.69,1.35-1.19.33-.5.5-1.06.5-1.67v-5.57c0-.16.05-.29.16-.4.11-.1.25-.15.41-.15h2.75c.15,0,.28.05.39.16.12.11.18.25.18.41v5.65c0,1.01-.18,1.92-.54,2.73-.36.81-.86,1.49-1.49,2.06s-1.36,1-2.18,1.3c-.82.3-1.7.45-2.64.45h-2.24c-1.29,0-2.38-.23-3.28-.7s-1.57-1.09-2.04-1.86c-.46-.77-.69-1.6-.69-2.5v-7.13c0-.16.06-.3.17-.41.11-.11.25-.16.41-.16h2.73c.16,0,.3.05.41.15.11.1.17.24.17.4l.02,5.06c0,1.22.29,2.16.88,2.82.59.66,1.31.99,2.18.99h.48Zm-3.87-1.03v-2.79c.51-.01.92-.14,1.23-.37s.52-.58.65-1.04c.12-.46.19-1.04.19-1.73v-1.83c0-.19.06-.34.18-.45.12-.11.25-.16.4-.16h2.73c.16,0,.3.06.41.19.11.12.17.27.17.43v1.85c0,1.31-.24,2.39-.72,3.27-.48.87-1.16,1.53-2.04,1.98-.89.45-1.95.67-3.18.67Z"/>
          <path class="cls-1" d="m276.51,162.4c-.16,0-.3-.05-.41-.15-.11-.1-.16-.23-.16-.4v-6.51c0-.7-.17-1.24-.52-1.6-.35-.36-.88-.54-1.6-.54h-5.28c-.16,0-.3-.05-.41-.17-.11-.11-.16-.25-.16-.41v-2.22c0-.16.05-.3.16-.41.11-.11.25-.16.41-.16h5.39c2.01,0,3.55.43,4.63,1.3s1.62,2.28,1.62,4.25v6.45c0,.16-.06.3-.17.41s-.25.17-.41.17h-3.1Zm-7.96,0c-.16,0-.3-.05-.41-.17-.11-.11-.16-.25-.16-.41v-6.14c0-.16.05-.3.16-.41.11-.11.25-.17.41-.17h3.1c.15,0,.28.06.4.17.12.11.18.25.18.41v6.14c0,.16-.06.3-.18.41s-.25.17-.4.17h-3.1Z"/>
          <path class="cls-1" d="m288.66,162.71c-.15.03-.29-.03-.42-.18-.13-.15-.2-.3-.2-.46v-2.6c0-.15.06-.29.18-.44.12-.15.25-.25.4-.31l.66-.26c.34-.15.65-.34.95-.57s.52-.55.69-.94c.17-.39.25-.88.25-1.48,0-.5-.05-.9-.15-1.21-.1-.31-.29-.53-.56-.67-.27-.14-.66-.21-1.15-.21h-6.29c-.15,0-.28-.06-.39-.17-.12-.11-.18-.25-.18-.41v-2.44c0-.15.06-.27.18-.37.12-.1.25-.15.39-.15h7.22c1.29,0,2.33.22,3.11.66.78.44,1.35,1.07,1.71,1.88.35.81.53,1.79.53,2.94,0,.97-.16,1.85-.49,2.65-.33.8-.78,1.5-1.35,2.09s-1.22,1.09-1.94,1.5-1.47.71-2.24.91l-.88.24Zm-5.65,3.89c-.16,0-.3-.05-.41-.17s-.16-.25-.16-.41v-10.34c0-.16.05-.3.16-.41.11-.11.25-.17.41-.17h2.99c.15,0,.28.06.4.17.12.11.18.25.18.41v10.34c0,.16-.06.3-.18.41s-.25.17-.4.17h-2.99Z"/>
          <path class="cls-1" d="m301.49,151.51h1.17c.48,0,.81.09.98.26.17.18.21.36.12.55-.15.4-.26.79-.35,1.18-.09.39-.15.79-.19,1.2-.04.41-.05.88-.05,1.41l.22,5.72c0,.16-.06.3-.18.41s-.26.17-.42.17h-5.15c-.16,0-.3-.06-.41-.18-.11-.12-.17-.25-.17-.4v-2.05c0-.16.05-.3.17-.41.11-.11.24-.17.41-.17h1.83v-3.1c0-.41.01-.82.04-1.23.03-.41.09-.83.18-1.25.09-.42.21-.86.38-1.3.09-.22.23-.41.43-.57.2-.16.53-.24,1-.24Zm-3.06,1.69c-.16,0-.3-.05-.41-.17-.11-.11-.16-.25-.16-.41v-2.22c0-.16.05-.3.16-.41.11-.11.25-.16.41-.16h6.56c1.35,0,2.49.18,3.41.55.92.37,1.62.94,2.1,1.73.48.79.71,1.82.71,3.11v6.6c0,.16-.05.3-.17.41-.11.11-.25.17-.41.17h-3.08c-.16,0-.3-.05-.42-.15-.12-.1-.18-.23-.18-.4v-6.51c0-.7-.17-1.24-.51-1.6-.34-.36-.87-.54-1.58-.54h-6.45Z"/>
          <path class="cls-1" d="m313.58,163.66c-.16.01-.3-.03-.42-.14-.12-.11-.18-.25-.18-.41v-2.27c0-.16.05-.29.15-.4.1-.1.23-.18.37-.22l4.91-1.06c.81-.18,1.42-.4,1.84-.68s.7-.64.85-1.08c.15-.44.22-.97.22-1.61v-5.41c0-.16.05-.29.16-.4.11-.1.25-.15.41-.15h3.1c.16,0,.3.05.41.16.11.11.17.25.17.41v6.64c0,1.01-.24,1.89-.71,2.64s-1.17,1.36-2.08,1.84c-.91.48-2.02.82-3.32,1.02l-5.88,1.1Zm2.82-1.78l-3.1-11.15c-.03-.12-.06-.21-.08-.26s-.03-.12-.03-.18c0-.12.04-.22.13-.31s.19-.13.31-.13h3.43c.28,0,.45.11.51.33l2.62,11.2-3.78.51Z"/>
          <path class="cls-1" d="m336.35,162.4c-.16,0-.3-.05-.41-.15-.11-.1-.16-.23-.16-.4v-6.51c0-.7-.17-1.24-.52-1.6-.35-.36-.88-.54-1.6-.54h-5.28c-.16,0-.3-.05-.41-.17-.11-.11-.16-.25-.16-.41v-2.22c0-.16.05-.3.16-.41.11-.11.25-.16.41-.16h5.39c2.01,0,3.55.43,4.63,1.3s1.62,2.28,1.62,4.25v6.45c0,.16-.06.3-.17.41s-.25.17-.41.17h-3.1Zm-7.96,0c-.16,0-.3-.05-.41-.17-.11-.11-.16-.25-.16-.41v-6.14c0-.16.05-.3.16-.41.11-.11.25-.17.41-.17h3.1c.15,0,.28.06.4.17.12.11.18.25.18.41v6.14c0,.16-.06.3-.18.41s-.25.17-.4.17h-3.1Z"/>
        </g>
      </g>
      <g>
        <g>
          <path class="cls-1" d="m646.68,305.3c-.16,0-.3-.05-.41-.16-.11-.11-.16-.25-.16-.41v-14.15c0-.16.05-.3.16-.41.11-.11.25-.16.41-.16h3.1c.15,0,.28.05.39.16.12.11.18.25.18.41v14.15c0,.16-.06.3-.18.41-.12.11-.25.16-.39.16h-3.1Z"/>
          <path class="cls-1" d="m652.89,302.57c-.16,0-.3-.05-.41-.17-.11-.11-.16-.25-.16-.41v-2.22c0-.16.05-.3.16-.41.11-.11.25-.17.41-.17h7.44v2.82c0,.16-.05.29-.16.4-.11.1-.25.15-.41.15h-6.86Zm4.16,0c-.16,0-.3-.05-.41-.17-.11-.11-.16-.25-.16-.41l-.26-6.75c-.03-.48-.1-.88-.21-1.18-.11-.3-.29-.53-.53-.68-.24-.15-.57-.23-1-.23h-1.19c-.16,0-.3-.05-.41-.17-.11-.11-.16-.25-.16-.41v-2.18c0-.16.05-.3.16-.41.11-.11.25-.17.41-.17h1.28c1.03,0,1.91.1,2.65.31s1.36.52,1.86.96.87,1,1.12,1.71c.25.7.39,1.55.42,2.53l.29,6.67c0,.16-.06.3-.18.41s-.26.17-.42.17h-3.26Z"/>
          <path class="cls-1" d="m663.31,302.57c-.16,0-.3-.05-.41-.17-.11-.11-.16-.25-.16-.41v-11.42c0-.16.05-.3.16-.41.11-.11.25-.16.41-.16h3.28c.15,0,.28.05.4.16.12.11.18.25.18.41v11.42c0,.16-.06.3-.18.41s-.25.17-.4.17h-3.28Z"/>
          <path class="cls-1" d="m669.93,302.57c-.16,0-.3-.05-.41-.17s-.17-.25-.17-.41v-2.4c0-.16.06-.3.17-.41s.25-.17.41-.17h3.21c.72,0,1.27-.18,1.66-.55s.6-.89.63-1.58c.02-.23.02-.44.02-.61s0-.37-.02-.6c-.03-.7-.24-1.24-.63-1.6-.39-.36-.94-.54-1.66-.54h-3.21c-.16,0-.3-.06-.41-.17-.11-.11-.17-.25-.17-.41v-2.4c0-.16.06-.3.17-.41.11-.11.25-.16.41-.16h3.32c1.47,0,2.65.24,3.54.71.89.48,1.55,1.14,1.98,2,.43.86.67,1.85.73,2.98.01.25.02.44.02.58s0,.33-.02.58c-.06,1.13-.3,2.12-.73,2.98-.43.86-1.08,1.53-1.98,2-.9.48-2.08.71-3.54.71h-3.32Z"/>
          <path class="cls-1" d="m686.43,302.57c-.16,0-.3-.05-.41-.17s-.16-.25-.16-.41v-11.42c0-.16.05-.3.16-.41.11-.11.25-.16.41-.16h3.28c.15,0,.28.05.39.16.12.11.18.25.18.41v11.42c0,.16-.06.3-.18.41s-.25.17-.39.17h-3.28Z"/>
          <path class="cls-1" d="m696.75,291.68h1.17c.48,0,.81.09.98.26.17.18.21.36.12.55-.15.4-.26.79-.35,1.18-.09.39-.15.79-.19,1.2-.04.41-.05.88-.05,1.41l.22,5.72c0,.16-.06.3-.18.41s-.26.17-.42.17h-5.15c-.16,0-.3-.06-.41-.18-.11-.12-.17-.25-.17-.4v-2.05c0-.16.05-.3.17-.41.11-.11.24-.17.41-.17h1.83v-3.1c0-.41.01-.82.04-1.23.03-.41.09-.83.18-1.25.09-.42.21-.86.38-1.3.09-.22.23-.41.43-.57.2-.16.53-.24,1-.24Zm-3.06,1.69c-.16,0-.3-.05-.41-.17-.11-.11-.16-.25-.16-.41v-2.22c0-.16.05-.3.16-.41.11-.11.25-.16.41-.16h6.56c1.35,0,2.49.18,3.41.55.92.37,1.62.94,2.1,1.73.48.79.71,1.82.71,3.11v6.6c0,.16-.05.3-.17.41-.11.11-.25.17-.41.17h-3.08c-.16,0-.3-.05-.42-.15-.12-.1-.18-.23-.18-.4v-6.51c0-.7-.17-1.24-.51-1.6-.34-.36-.87-.54-1.58-.54h-6.45Z"/>
          <path class="cls-1" d="m709.29,302.57c-.16,0-.3-.05-.41-.17-.11-.11-.16-.25-.16-.41v-11.42c0-.16.05-.3.16-.41.11-.11.25-.16.41-.16h3.28c.15,0,.28.05.4.16.12.11.18.25.18.41v11.42c0,.16-.06.3-.18.41s-.25.17-.4.17h-3.28Z"/>
          <path class="cls-1" d="m715.89,302.57c-.16,0-.3-.06-.41-.19-.11-.12-.17-.27-.17-.43v-2.55c0-.88.08-1.63.23-2.27.15-.63.42-1.2.79-1.71.37-.51.9-1,1.6-1.49l2,2.88c-.29.24-.51.51-.64.81-.13.31-.21.61-.24.9-.03.29-.04.56-.04.79v2.62c0,.19-.05.34-.16.45s-.25.17-.41.17h-2.55Zm8.21,0c-.26,0-.46-.06-.58-.19-.12-.12-.21-.22-.25-.3l-7.83-11.33c-.06-.07-.09-.16-.09-.26,0-.13.04-.25.13-.34s.2-.14.33-.14h3.08c.26,0,.46.07.57.2s.21.24.26.31l7.96,11.31c.06.06.09.11.09.15v.11c0,.13-.05.25-.14.34-.1.09-.2.14-.32.14h-3.21Zm.51-4.36l-2.07-2.84c.38-.19.65-.41.8-.67.15-.26.25-.52.29-.78.04-.26.05-.51.05-.73v-2.57c0-.19.06-.34.17-.45.11-.11.25-.16.41-.16h2.73c.16,0,.3.06.41.19.11.12.17.27.17.43v2.66c0,.59-.08,1.17-.24,1.74s-.46,1.13-.88,1.66c-.42.54-1.03,1.04-1.82,1.53Z"/>
          <path class="cls-1" d="m730.08,302.57c-.16,0-.3-.05-.41-.17-.11-.11-.17-.25-.17-.41v-2.22c0-.16.05-.3.17-.41.11-.11.24-.17.41-.17h5.26v-3.67c0-.7-.17-1.24-.52-1.59-.35-.36-.88-.54-1.6-.54h-2.93c-.16,0-.3-.05-.41-.17-.11-.11-.16-.25-.16-.41v-2.24c0-.16.05-.3.16-.41.11-.11.25-.16.41-.16h3.04c1.35,0,2.5.18,3.46.53.95.35,1.69.93,2.2,1.74s.77,1.89.77,3.26v3.67h.75c.16,0,.3.06.41.17.11.11.16.25.16.41v2.22c0,.16-.05.3-.16.41-.11.11-.25.17-.41.17h-10.43Z"/>
        </g>
        <g>
          <path class="cls-1" d="m.57,301.09c-.16,0-.3-.05-.41-.17-.11-.11-.16-.25-.16-.41v-11.42c0-.16.05-.3.16-.41.11-.11.25-.16.41-.16h5.24c1.3,0,2.41.17,3.31.51.9.34,1.58.9,2.05,1.68.46.79.69,1.85.69,3.2v6.58c0,.15-.06.28-.18.41-.12.12-.26.19-.42.19H.57Zm3.19-3.37h4.05v-3.7c0-.7-.17-1.24-.52-1.6-.35-.36-.88-.54-1.6-.54h-1.94v5.83Z"/>
          <path class="cls-1" d="m14.61,295.86c-.16,0-.3-.05-.41-.17-.11-.11-.17-.25-.17-.41v-6.18c0-.16.05-.3.17-.41.11-.11.25-.16.41-.16h3.28c.15,0,.28.05.4.16.12.11.18.25.18.41v6.18c0,.16-.06.3-.18.41-.12.11-.25.17-.4.17h-3.28Z"/>
          <path class="cls-1" d="m21.45,301.09c-.16,0-.3-.05-.41-.17-.11-.11-.17-.25-.17-.41v-2.31c0-.16.05-.3.17-.41.11-.11.25-.17.41-.17h4.91l-6.23-8.34s-.06-.1-.09-.15c-.03-.06-.04-.12-.04-.18,0-.13.05-.24.14-.32.09-.08.21-.12.34-.12h3.23c.23,0,.41.05.52.15.11.1.19.18.23.24l6.47,8.76c.07.09.14.19.21.3.07.11.1.26.1.45v2.09c0,.16-.05.3-.17.41-.11.11-.25.17-.41.17h-9.22Zm7.63-5.26l-2.11-2.84c.42-.32.71-.73.86-1.22.15-.49.22-1.02.22-1.59v-1.03c0-.19.05-.34.17-.45s.25-.16.41-.16h2.75c.15,0,.28.06.4.19.12.12.18.27.18.43v1.83c0,.97-.24,1.88-.73,2.73-.48.85-1.2,1.56-2.13,2.13Z"/>
          <path class="cls-1" d="m34.28,301.09c-.16,0-.3-.05-.41-.17s-.17-.25-.17-.41v-2.22c0-.16.05-.3.17-.41.11-.11.25-.17.41-.17h5.26v-3.67c0-.7-.17-1.24-.52-1.59-.35-.36-.88-.54-1.6-.54h-2.93c-.16,0-.3-.05-.41-.17-.11-.11-.17-.25-.17-.41v-2.24c0-.16.06-.3.17-.41.11-.11.25-.16.41-.16h3.04c1.35,0,2.5.18,3.45.53.95.35,1.69.93,2.2,1.74.51.81.77,1.89.77,3.26v3.67h.75c.16,0,.3.06.41.17.11.11.17.25.17.41v2.22c0,.16-.06.3-.17.41-.11.11-.25.17-.41.17h-10.43Z"/>
          <path class="cls-1" d="m53.22,301.4c-.15.03-.29-.03-.42-.18s-.2-.3-.2-.46v-2.6c0-.15.06-.29.18-.44.12-.15.25-.25.4-.31l.66-.26c.34-.15.65-.34.95-.57.29-.23.52-.55.69-.94.17-.39.25-.88.25-1.48,0-.5-.05-.9-.15-1.21-.1-.31-.29-.53-.56-.67-.27-.14-.66-.21-1.16-.21h-6.29c-.15,0-.28-.06-.4-.17-.12-.11-.18-.25-.18-.41v-2.44c0-.15.06-.27.18-.37.12-.1.25-.15.4-.15h7.22c1.29,0,2.33.22,3.11.66.78.44,1.35,1.07,1.71,1.88.35.81.53,1.79.53,2.94,0,.97-.17,1.85-.5,2.65-.33.8-.78,1.5-1.35,2.09-.57.59-1.22,1.09-1.94,1.5s-1.47.71-2.24.91l-.88.24Zm-5.65,3.89c-.16,0-.3-.05-.41-.17-.11-.11-.16-.25-.16-.41v-10.34c0-.16.05-.3.16-.41.11-.11.25-.17.41-.17h2.99c.15,0,.28.06.4.17.12.11.18.25.18.41v10.34c0,.16-.06.3-.18.41-.12.11-.25.17-.4.17h-2.99Z"/>
          <path class="cls-1" d="m70.09,292.07h-4.18c-.16,0-.3-.06-.41-.17s-.17-.25-.17-.41v-5.46c0-.16.05-.3.17-.41.11-.11.25-.17.41-.17h2.82c.16,0,.3.05.41.17.11.11.17.25.17.41v2.49h.81l-.02,3.54Zm-1.1,9.33c-.15.03-.28-.03-.41-.18-.12-.15-.19-.3-.19-.46v-2.6c0-.15.06-.29.18-.44.12-.15.25-.25.4-.31l.66-.26c.34-.15.65-.34.93-.57s.52-.55.69-.94c.18-.39.26-.88.26-1.48,0-.5-.05-.9-.17-1.21-.11-.31-.3-.53-.57-.67-.27-.14-.65-.21-1.13-.21h-.46c-.15,0-.28-.06-.4-.17-.12-.11-.18-.25-.18-.41v-2.44c0-.15.06-.27.18-.37.12-.1.25-.15.4-.15h1.36c1.3,0,2.35.22,3.12.66.78.44,1.34,1.07,1.69,1.88.35.81.53,1.79.53,2.94,0,.97-.17,1.85-.5,2.65-.33.8-.78,1.5-1.35,2.09s-1.21,1.09-1.92,1.5c-.71.4-1.46.71-2.23.91l-.9.24Z"/>
          <path class="cls-1" d="m85.23,297.95c.7,0,1.34-.15,1.91-.44.57-.29,1.02-.69,1.35-1.19.33-.5.5-1.06.5-1.67v-5.57c0-.16.06-.29.17-.4.11-.1.25-.15.41-.15h2.75c.15,0,.28.05.4.16.12.11.18.25.18.41v5.65c0,1.01-.18,1.92-.54,2.73-.36.81-.85,1.49-1.49,2.06s-1.36,1-2.18,1.3-1.7.45-2.64.45h-2.24c-1.29,0-2.38-.23-3.28-.7s-1.57-1.09-2.04-1.86c-.46-.77-.69-1.6-.69-2.5v-7.13c0-.16.06-.3.17-.41.11-.11.25-.16.41-.16h2.73c.16,0,.3.05.41.15.11.1.17.24.17.4l.02,5.06c0,1.22.29,2.16.88,2.82s1.31.99,2.18.99h.48Zm-3.87-1.03v-2.79c.51-.01.92-.14,1.23-.37.31-.23.52-.58.65-1.04.12-.46.19-1.04.19-1.73v-1.83c0-.19.06-.34.18-.45.12-.11.25-.16.4-.16h2.73c.16,0,.3.06.41.19.11.12.17.27.17.43v1.85c0,1.31-.24,2.39-.72,3.27-.48.87-1.16,1.53-2.05,1.98s-1.95.67-3.18.67Z"/>
          <path class="cls-1" d="m108.02,301.09c-.16,0-.3-.05-.41-.15-.11-.1-.17-.23-.17-.4v-6.51c0-.7-.17-1.24-.52-1.6s-.88-.54-1.59-.54h-5.28c-.16,0-.3-.05-.41-.17s-.16-.25-.16-.41v-2.22c0-.16.05-.3.16-.41.11-.11.25-.16.41-.16h5.39c2.01,0,3.55.43,4.63,1.3s1.62,2.28,1.62,4.25v6.45c0,.16-.06.3-.17.41-.11.11-.25.17-.41.17h-3.1Zm-7.96,0c-.16,0-.3-.05-.41-.17-.11-.11-.16-.25-.16-.41v-6.14c0-.16.05-.3.16-.41.11-.11.25-.17.41-.17h3.1c.15,0,.28.06.4.17.12.11.18.25.18.41v6.14c0,.16-.06.3-.18.41s-.25.17-.4.17h-3.1Z"/>
          <path class="cls-1" d="m120.01,301.09c-.16,0-.3-.05-.41-.15-.11-.1-.17-.23-.17-.4v-6.51c0-.7-.17-1.24-.52-1.6s-.88-.54-1.59-.54h-3.48c-.16,0-.3-.05-.41-.17-.11-.11-.17-.25-.17-.41v-2.22c0-.16.05-.3.17-.41.11-.11.25-.16.41-.16h3.61c1.35,0,2.49.17,3.41.51.92.34,1.62.89,2.1,1.67.48.78.71,1.84.71,3.19v6.62c0,.16-.06.3-.17.41-.11.11-.25.17-.41.17h-3.1Z"/>
          <path class="cls-1" d="m126.1,301.09c-.16,0-.3-.05-.41-.17s-.17-.25-.17-.41v-2.22c0-.16.05-.3.17-.41.11-.11.25-.17.41-.17h5.26v-3.67c0-.7-.17-1.24-.52-1.59-.35-.36-.88-.54-1.6-.54h-2.93c-.16,0-.3-.05-.41-.17-.11-.11-.17-.25-.17-.41v-2.24c0-.16.06-.3.17-.41.11-.11.25-.16.41-.16h3.04c1.35,0,2.5.18,3.45.53.95.35,1.69.93,2.2,1.74.51.81.77,1.89.77,3.26v3.67h.75c.16,0,.3.06.41.17.11.11.17.25.17.41v2.22c0,.16-.06.3-.17.41-.11.11-.25.17-.41.17h-10.43Z"/>
          <path class="cls-1" d="m138.95,302.35c-.16.01-.3-.03-.42-.14-.12-.11-.18-.25-.18-.41v-2.27c0-.16.05-.29.15-.4s.23-.18.37-.22l4.91-1.06c.81-.18,1.42-.4,1.84-.68s.7-.64.85-1.08c.15-.44.22-.97.22-1.61v-5.41c0-.16.05-.29.16-.4.11-.1.25-.15.41-.15h3.1c.16,0,.3.05.41.16s.17.25.17.41v6.64c0,1.01-.24,1.89-.71,2.64s-1.17,1.36-2.08,1.84-2.02.82-3.32,1.02l-5.87,1.1Zm2.82-1.78l-3.1-11.15c-.03-.12-.06-.21-.08-.26-.02-.06-.03-.12-.03-.18,0-.12.04-.22.13-.31s.19-.13.31-.13h3.43c.28,0,.45.11.51.33l2.62,11.2-3.78.51Z"/>
          <path class="cls-1" d="m161.72,301.09c-.16,0-.3-.05-.41-.15-.11-.1-.17-.23-.17-.4v-6.51c0-.7-.17-1.24-.52-1.6s-.88-.54-1.59-.54h-5.28c-.16,0-.3-.05-.41-.17s-.16-.25-.16-.41v-2.22c0-.16.05-.3.16-.41.11-.11.25-.16.41-.16h5.39c2.01,0,3.55.43,4.63,1.3s1.62,2.28,1.62,4.25v6.45c0,.16-.06.3-.17.41-.11.11-.25.17-.41.17h-3.1Zm-7.96,0c-.16,0-.3-.05-.41-.17-.11-.11-.16-.25-.16-.41v-6.14c0-.16.05-.3.16-.41.11-.11.25-.17.41-.17h3.1c.15,0,.28.06.4.17.12.11.18.25.18.41v6.14c0,.16-.06.3-.18.41s-.25.17-.4.17h-3.1Z"/>
        </g>
      </g>
    </g>
    <g>
      <g>
        <rect class="cls-1" x="105.41" y="375.81" width="683.77" height="3" transform="translate(-135.79 426.8) rotate(-45)"/>
        <rect class="cls-1" x="-29.09" y="241.31" width="683.77" height="3" transform="translate(-80.08 292.3) rotate(-45)"/>
      </g>
      <g>
        <rect class="cls-1" x="342.49" y="40.37" width="3" height="673.87" transform="translate(-166.05 353.75) rotate(-45)"/>
        <rect class="cls-1" x="476.99" y="-94.13" width="3" height="673.87" transform="translate(-31.55 409.46) rotate(-45)"/>
      </g>
    </g>
  </g>
</svg>