<?xml version="1.0" encoding="UTF-8"?>
<svg id="Layer_2" data-name="Layer 2" xmlns="http://www.w3.org/2000/svg" viewBox="0 0 536.31 540.37">
  <defs>
    <style>
      .cls-1 {
        fill: #e9e8ee;
      }

      .cls-1, .cls-2 {
        stroke-width: 0px;
      }

      .cls-2 {
        fill: #592059;
      }
    </style>
  </defs>
  <g id="arrows">
    <g>
      <path class="cls-2" d="m.69,21.3c-.2,0-.37-.06-.5-.2-.13-.13-.2-.29-.2-.5V4.86c0-.2.07-.36.2-.49s.29-.2.5-.2h5.73c1.72,0,3.14.28,4.26.83,1.12.55,1.95,1.36,2.5,2.44.55,1.08.83,2.43.83,4.05v9.12c0,.2-.06.37-.18.5-.12.13-.29.2-.51.2H.69Zm1.89-2.4h8.76v-7.26c0-1.6-.4-2.84-1.2-3.73-.8-.89-2.09-1.34-3.87-1.34h-3.69v12.33Z"/>
      <path class="cls-2" d="m18.96,14.34c-.2,0-.37-.06-.5-.2-.13-.13-.2-.29-.2-.5V4.86c0-.2.07-.36.2-.49s.29-.2.5-.2h1.44c.2,0,.36.07.48.2s.18.29.18.49v8.79c0,.2-.06.37-.18.5-.12.13-.28.2-.48.2h-1.44Z"/>
      <path class="cls-2" d="m25.56,21.3c-.2,0-.37-.06-.5-.2-.13-.13-.2-.29-.2-.5v-1.05c0-.2.07-.36.2-.5.13-.13.29-.19.5-.19h8.13l-9.39-13.53c-.06-.12-.11-.22-.15-.32-.04-.09-.06-.17-.06-.25,0-.16.06-.3.19-.42s.28-.18.44-.18h1.44c.22,0,.39.06.51.17.12.11.22.22.3.34l9.78,14.01c.1.14.19.29.26.44.07.15.1.31.1.5v.99c0,.2-.07.37-.2.5-.13.13-.29.2-.49.2h-10.86Zm7.59-6.84l-1.32-1.95c1.06-.38,1.82-1,2.28-1.88s.69-1.93.69-3.2v-2.58c0-.2.06-.36.19-.49s.29-.2.5-.2h1.26c.2,0,.36.07.48.2s.18.29.18.49v2.94c0,1.62-.36,3-1.08,4.14-.72,1.14-1.78,1.98-3.18,2.52Z"/>
      <path class="cls-2" d="m41.46,21.3c-.2,0-.37-.06-.5-.2-.13-.13-.2-.29-.2-.5v-1.02c0-.2.06-.36.2-.5s.29-.2.5-.2h8.61v-7.26c0-1.6-.4-2.84-1.2-3.73-.8-.89-2.09-1.34-3.87-1.34h-3.24c-.2,0-.37-.06-.5-.19s-.2-.29-.2-.5v-1.02c0-.2.07-.36.2-.49s.29-.2.5-.2h3.39c1.72,0,3.15.28,4.29.84,1.14.56,2,1.38,2.57,2.47.57,1.09.85,2.45.85,4.07v7.35h1.11c.2,0,.36.07.5.2.13.13.2.29.2.5v1.02c0,.2-.07.37-.2.5s-.3.2-.5.2h-12.51Z"/>
      <path class="cls-2" d="m64.29,21.57c-.18.06-.34.04-.5-.07-.15-.11-.22-.27-.22-.46v-1.38c0-.18.05-.34.17-.48.11-.14.27-.25.5-.33l1.14-.45c.8-.34,1.53-.75,2.17-1.23.65-.48,1.16-1.14,1.53-1.98s.55-1.94.55-3.3-.16-2.33-.48-3.11c-.32-.77-.85-1.32-1.58-1.65-.73-.33-1.71-.5-2.96-.5h-6.09c-.2,0-.37-.06-.5-.2-.13-.13-.2-.29-.2-.5v-1.08c0-.2.07-.36.2-.49s.29-.2.5-.2h6.48c1.84,0,3.29.26,4.36.78,1.07.52,1.84,1.35,2.31,2.5.47,1.15.71,2.65.71,4.51,0,1.4-.19,2.61-.57,3.63-.38,1.02-.9,1.89-1.54,2.61-.65.72-1.38,1.32-2.19,1.79-.81.47-1.66.85-2.54,1.15l-1.26.42Zm-5.76,5.46c-.2,0-.37-.07-.5-.2-.13-.13-.2-.3-.2-.5v-15.75c0-.2.07-.36.2-.5.13-.13.29-.2.5-.2h1.32c.22,0,.39.07.51.2.12.13.18.29.18.5v15.75c0,.2-.06.36-.18.5-.12.13-.29.2-.51.2h-1.32Z"/>
      <path class="cls-2" d="m88.71,21.3c-.2,0-.37-.06-.5-.2-.13-.13-.2-.29-.2-.5v-8.97c0-1.6-.4-2.84-1.2-3.73-.8-.89-2.09-1.34-3.87-1.34h-5.64c-.2,0-.37-.06-.5-.19s-.2-.29-.2-.5v-1.02c0-.2.07-.36.2-.49s.29-.2.5-.2h5.79c2.6,0,4.52.63,5.78,1.89,1.25,1.26,1.88,3.09,1.88,5.49v9.06c0,.2-.07.37-.2.5s-.3.2-.5.2h-1.35Zm-11.4,0c-.2,0-.37-.06-.5-.2-.13-.13-.2-.29-.2-.5v-10.02c0-.2.07-.36.2-.5.13-.13.29-.2.5-.2h1.38c.2,0,.36.07.48.2.12.13.18.29.18.5v10.02c0,.2-.06.37-.18.5-.12.13-.28.2-.48.2h-1.38Z"/>
      <path class="cls-2" d="m106.44,5.1h.75c.3,0,.53.08.67.23.15.15.21.33.2.55-.16.84-.29,1.6-.41,2.28s-.18,1.35-.22,2.02c-.04.67-.06,1.42-.06,2.27l.09,8.16c0,.2-.07.37-.2.5s-.3.2-.5.2l-4.26-.06c-.2,0-.37-.06-.5-.18-.13-.12-.2-.29-.2-.51v-.96c0-.2.06-.36.2-.5s.29-.2.5-.2l2.31.03v-6.36c0-.82,0-1.57.03-2.26.02-.69.08-1.38.18-2.08.1-.7.26-1.49.48-2.37.06-.22.15-.4.29-.54.13-.14.34-.21.64-.21Zm-2.7,1.47c-.2,0-.37-.06-.5-.19s-.19-.29-.19-.5v-1.02c0-.2.06-.36.19-.49s.29-.2.5-.2h6.51c1.72,0,3.15.28,4.28.83s1.97,1.37,2.54,2.46c.56,1.09.84,2.43.84,4.04v9.12c0,.2-.07.37-.2.5-.13.13-.29.2-.49.2h-1.35c-.22,0-.39-.06-.51-.2-.12-.13-.18-.29-.18-.5v-8.97c0-1.6-.4-2.84-1.2-3.73-.8-.89-2.09-1.34-3.87-1.34h-6.36Z"/>
      <path class="cls-2" d="m123.03,21.3c-.2,0-.37-.06-.5-.2-.13-.13-.2-.29-.2-.5v-1.08c0-.2.07-.37.2-.5s.29-.2.5-.2h4.29c1.78,0,3.06-.45,3.84-1.33s1.21-2.13,1.29-3.74c.02-.44.03-.79.03-1.05s-.01-.6-.03-1.02c-.06-1.6-.49-2.85-1.28-3.74s-2.07-1.33-3.85-1.33h-4.29c-.2,0-.37-.06-.5-.2-.13-.13-.2-.29-.2-.5v-1.08c0-.2.07-.36.2-.49s.29-.2.5-.2h4.44c1.76,0,3.19.29,4.29.88,1.1.59,1.92,1.44,2.47,2.55.55,1.11.84,2.45.88,4,.02.4.03.77.03,1.11s-.01.72-.03,1.14c-.04,1.54-.33,2.87-.88,3.99-.55,1.12-1.38,1.98-2.47,2.57-1.1.59-2.53.88-4.29.88h-4.44Z"/>
      <path class="cls-2" d="m148.32,21.3c-.2,0-.37-.06-.5-.2-.13-.13-.2-.29-.2-.5v-8.97c0-1.6-.4-2.84-1.2-3.73-.8-.89-2.09-1.34-3.87-1.34h-3.93c-.2,0-.36-.06-.49-.19-.13-.13-.2-.29-.2-.5v-1.02c0-.2.06-.36.2-.49.13-.13.29-.2.49-.2h4.08c1.72,0,3.15.27,4.28.81s1.97,1.36,2.54,2.45c.56,1.09.84,2.45.84,4.07v9.12c0,.2-.07.37-.2.5-.13.13-.29.2-.5.2h-1.35Z"/>
      <path class="cls-2" d="m154.65,22.95c-.2.08-.39.06-.57-.04-.18-.11-.27-.27-.27-.47v-1.02c0-.18.04-.35.12-.51.08-.16.21-.27.39-.33l6.33-2.07c1.14-.38,2.02-.87,2.64-1.47.62-.6,1.05-1.3,1.31-2.1.25-.8.38-1.67.38-2.61v-7.47c0-.2.06-.36.19-.49s.29-.2.5-.2h1.35c.22,0,.39.07.51.2s.18.29.18.49v8.31c0,1.16-.26,2.25-.78,3.29-.52,1.03-1.26,1.93-2.23,2.7-.97.77-2.12,1.35-3.44,1.75l-6.6,2.04Zm3.93-2.37l-4.23-15.21c-.04-.16-.08-.28-.11-.36s-.04-.16-.04-.24c0-.16.06-.3.18-.42s.26-.18.42-.18h1.47c.38,0,.61.15.69.45l4.17,15.27-2.55.69Z"/>
      <path class="cls-2" d="m172.05,21.3c-.18,0-.33-.07-.45-.21-.12-.14-.17-.31-.15-.51l2.55-14.7c.04-.2.13-.35.27-.46.14-.11.31-.15.51-.11l1.2.06c.2.02.36.1.48.25.12.15.16.33.12.52l-2.4,14.43c-.02.2-.1.37-.25.51-.15.14-.33.21-.52.21h-1.35Zm7.59-14.67h-7.29c-.22,0-.39-.06-.51-.2-.12-.13-.18-.29-.18-.5v-1.08c0-.2.06-.36.18-.49s.29-.2.51-.2h7.62c1.24,0,2.34.29,3.32.87.97.58,1.73,1.42,2.28,2.5.55,1.09.82,2.41.82,3.95v9.12c0,.2-.06.37-.18.5-.12.13-.29.2-.51.2h-7.74c-.2,0-.37-.06-.5-.2-.13-.13-.19-.29-.19-.5v-1.02c0-.2.06-.36.19-.5.13-.13.29-.2.5-.2h5.7v-7.23c0-1.02-.18-1.91-.53-2.67s-.83-1.34-1.44-1.75c-.61-.41-1.29-.62-2.06-.62Z"/>
      <path class="cls-2" d="m198.66,14.34c-.2,0-.37-.06-.5-.2-.13-.13-.2-.29-.2-.5V4.86c0-.2.07-.36.2-.49s.29-.2.5-.2h1.44c.2,0,.36.07.48.2s.18.29.18.49v8.79c0,.2-.06.37-.18.5-.12.13-.28.2-.48.2h-1.44Z"/>
      <path class="cls-2" d="m204.69,6.57c-.2,0-.37-.06-.5-.19s-.19-.29-.19-.5v-1.02c0-.2.06-.36.19-.49s.29-.2.5-.2h12.87c.2,0,.37.07.5.2s.2.29.2.49v1.02c0,.2-.07.37-.2.5s-.29.19-.5.19h-12.87Zm8.1,14.73c-.44,0-.66-.22-.66-.66v-10.71c0-1.18.14-2.1.42-2.76.28-.66.63-.99,1.05-.99h2.94c-.5,0-.91.38-1.22,1.14-.31.76-.46,1.7-.46,2.82v10.5c0,.2-.07.36-.21.48s-.31.18-.51.18h-1.35Z"/>
      <path class="cls-2" d="m222.39,14.34c-.2,0-.37-.06-.5-.2-.13-.13-.2-.29-.2-.5V4.86c0-.2.07-.36.2-.49s.29-.2.5-.2h1.44c.2,0,.36.07.48.2s.18.29.18.49v8.79c0,.2-.06.37-.18.5-.12.13-.28.2-.48.2h-1.44Z"/>
      <path class="cls-2" d="m239.37,6.63l-3.57-.03c-.2,0-.37-.06-.5-.18-.13-.12-.2-.28-.2-.48V.69c0-.2.06-.36.2-.5.13-.13.29-.19.5-.19h1.26c.22,0,.39.07.51.19.12.13.18.3.18.5v3.48h1.68l-.06,2.46Zm-.06,14.94c-.18.06-.35.04-.51-.07-.16-.11-.24-.27-.24-.46v-1.38c0-.18.05-.34.17-.48.11-.14.27-.25.5-.33l1.17-.45c.78-.34,1.5-.75,2.14-1.23.65-.48,1.16-1.14,1.53-1.98s.55-1.94.55-3.3-.15-2.33-.46-3.11c-.31-.77-.83-1.32-1.56-1.65-.73-.33-1.73-.5-2.99-.5h-.9c-.2,0-.37-.06-.5-.2-.13-.13-.2-.29-.2-.5v-1.08c0-.2.06-.36.2-.49.13-.13.29-.2.5-.2h1.32c1.82,0,3.27.26,4.35.78,1.08.52,1.85,1.35,2.32,2.5s.71,2.65.71,4.51c0,1.4-.19,2.61-.57,3.63-.38,1.02-.9,1.89-1.54,2.61-.65.72-1.39,1.32-2.21,1.79-.82.47-1.67.85-2.55,1.15l-1.23.42Z"/>
      <path class="cls-2" d="m251.16,22.95c-.2.08-.39.06-.57-.04-.18-.11-.27-.27-.27-.47v-1.02c0-.18.04-.35.12-.51.08-.16.21-.27.39-.33l6.33-2.07c1.14-.38,2.02-.87,2.64-1.47.62-.6,1.05-1.3,1.31-2.1.25-.8.38-1.67.38-2.61v-7.47c0-.2.06-.36.19-.49s.29-.2.5-.2h1.35c.22,0,.39.07.51.2s.18.29.18.49v8.31c0,1.16-.26,2.25-.78,3.29-.52,1.03-1.26,1.93-2.23,2.7-.97.77-2.12,1.35-3.44,1.75l-6.6,2.04Zm3.93-2.37l-4.23-15.21c-.04-.16-.08-.28-.11-.36s-.04-.16-.04-.24c0-.16.06-.3.18-.42s.26-.18.42-.18h1.47c.38,0,.61.15.69.45l4.17,15.27-2.55.69Z"/>
      <path class="cls-2" d="m279.9,5.1h.75c.3,0,.53.08.67.23.15.15.21.33.2.55-.16.84-.29,1.6-.41,2.28s-.18,1.35-.22,2.02c-.04.67-.06,1.42-.06,2.27l.09,8.16c0,.2-.07.37-.2.5s-.3.2-.5.2l-4.26-.06c-.2,0-.37-.06-.5-.18-.13-.12-.2-.29-.2-.51v-.96c0-.2.06-.36.2-.5s.29-.2.5-.2l2.31.03v-6.36c0-.82,0-1.57.03-2.26.02-.69.08-1.38.18-2.08.1-.7.26-1.49.48-2.37.06-.22.15-.4.29-.54.13-.14.34-.21.64-.21Zm-2.7,1.47c-.2,0-.37-.06-.5-.19s-.19-.29-.19-.5v-1.02c0-.2.06-.36.19-.49s.29-.2.5-.2h6.51c1.72,0,3.15.28,4.28.83s1.97,1.37,2.54,2.46c.56,1.09.84,2.43.84,4.04v9.12c0,.2-.07.37-.2.5-.13.13-.29.2-.49.2h-1.35c-.22,0-.39-.06-.51-.2-.12-.13-.18-.29-.18-.5v-8.97c0-1.6-.4-2.84-1.2-3.73-.8-.89-2.09-1.34-3.87-1.34h-6.36Z"/>
      <path class="cls-2" d="m296.49,21.3c-.2,0-.37-.06-.5-.2-.13-.13-.2-.29-.2-.5V4.86c0-.2.07-.36.2-.49s.29-.2.5-.2h1.41c.22,0,.39.07.51.2s.18.29.18.49v15.75c0,.2-.06.37-.18.5-.12.13-.29.2-.51.2h-1.41Z"/>
      <path class="cls-2" d="m303.18,21.3c-.2,0-.37-.06-.5-.2-.13-.13-.2-.29-.2-.5v-4.5c0-.92.09-1.79.27-2.62.18-.83.53-1.62,1.06-2.37s1.33-1.46,2.38-2.12l1.38,2.01c-.72.46-1.26.99-1.62,1.58-.36.59-.6,1.2-.72,1.83-.12.63-.18,1.24-.18,1.81v4.38c0,.2-.07.37-.2.5-.13.13-.29.2-.49.2h-1.2Zm11.7,0c-.22,0-.39-.06-.51-.18s-.23-.23-.33-.33l-11.01-15.45c-.14-.22-.21-.41-.21-.57s.06-.3.2-.42c.13-.12.27-.18.43-.18h1.41c.22,0,.39.06.53.18.13.12.23.23.31.33l11.04,15.45c.08.14.13.25.17.33s.04.16.04.24c0,.16-.06.3-.18.42s-.26.18-.42.18h-1.47Zm-2.4-5.49l-1.23-2.07c.98-.46,1.67-.94,2.08-1.44s.66-1.02.74-1.58c.08-.55.12-1.12.12-1.72v-4.14c0-.2.06-.36.2-.49.13-.13.29-.2.5-.2h1.26c.2,0,.36.07.5.2.13.13.19.29.19.49v4.29c0,.84-.1,1.65-.3,2.43-.2.78-.61,1.51-1.21,2.21-.61.69-1.56,1.36-2.83,2.02Z"/>
      <path class="cls-2" d="m329.37,19.05c1.3.02,2.39-.22,3.29-.72.89-.5,1.57-1.21,2.04-2.15.47-.93.71-2,.71-3.19V4.86c0-.2.06-.36.19-.49s.29-.2.5-.2h1.26c.2,0,.36.07.48.2s.18.29.18.49v8.34c0,1.28-.2,2.43-.6,3.46-.4,1.03-.97,1.91-1.71,2.64-.74.73-1.62,1.29-2.62,1.67-1.01.38-2.12.55-3.34.51h-2.25c-1.3,0-2.47-.3-3.51-.9-1.04-.6-1.86-1.44-2.46-2.52-.6-1.08-.9-2.33-.9-3.75V4.86c0-.2.06-.36.19-.49s.29-.2.5-.2h1.26c.2,0,.37.07.5.2s.2.29.2.49l.09,8.85c0,1.72.48,3.04,1.44,3.96s2.18,1.38,3.66,1.38h.93Zm-6.66-3.51l-.06-2.19c1.48-.02,2.61-.24,3.39-.67.78-.43,1.32-1,1.63-1.72.31-.72.46-1.51.46-2.37v-3.72c0-.2.06-.36.18-.49s.29-.2.51-.2h1.23c.2,0,.37.07.5.2s.2.29.2.49v3.84c0,1.3-.29,2.47-.87,3.51s-1.46,1.86-2.66,2.46c-1.19.6-2.7.89-4.51.87Z"/>
      <path class="cls-2" d="m351.9,21.3c-.2,0-.37-.06-.5-.2-.13-.13-.2-.29-.2-.5v-8.97c0-1.6-.4-2.84-1.2-3.73-.8-.89-2.09-1.34-3.87-1.34h-3.93c-.2,0-.36-.06-.49-.19-.13-.13-.2-.29-.2-.5v-1.02c0-.2.06-.36.2-.49.13-.13.29-.2.49-.2h4.08c1.72,0,3.15.27,4.28.81s1.97,1.36,2.54,2.45c.56,1.09.84,2.45.84,4.07v9.12c0,.2-.07.37-.2.5-.13.13-.29.2-.5.2h-1.35Z"/>
      <path class="cls-2" d="m370.47,21.3c-.2,0-.37-.06-.5-.2-.13-.13-.2-.29-.2-.5v-8.97c0-1.6-.4-2.84-1.2-3.73-.8-.89-2.09-1.34-3.87-1.34h-5.64c-.2,0-.37-.06-.5-.19s-.2-.29-.2-.5v-1.02c0-.2.07-.36.2-.49s.29-.2.5-.2h5.79c2.6,0,4.52.63,5.78,1.89,1.25,1.26,1.88,3.09,1.88,5.49v9.06c0,.2-.07.37-.2.5s-.3.2-.5.2h-1.35Zm-11.4,0c-.2,0-.37-.06-.5-.2-.13-.13-.2-.29-.2-.5v-10.02c0-.2.07-.36.2-.5.13-.13.29-.2.5-.2h1.38c.2,0,.36.07.48.2.12.13.18.29.18.5v10.02c0,.2-.06.37-.18.5-.12.13-.28.2-.48.2h-1.38Z"/>
      <path class="cls-2" d="m389.04,21.3c-.2,0-.37-.06-.5-.2-.13-.13-.2-.29-.2-.5v-8.97c0-1.6-.4-2.84-1.2-3.73-.8-.89-2.09-1.34-3.87-1.34h-5.64c-.2,0-.37-.06-.5-.19s-.2-.29-.2-.5v-1.02c0-.2.07-.36.2-.49s.29-.2.5-.2h5.79c2.6,0,4.52.63,5.78,1.89,1.25,1.26,1.88,3.09,1.88,5.49v9.06c0,.2-.07.37-.2.5s-.3.2-.5.2h-1.35Zm-11.4,0c-.2,0-.37-.06-.5-.2-.13-.13-.2-.29-.2-.5v-10.02c0-.2.07-.36.2-.5.13-.13.29-.2.5-.2h1.38c.2,0,.36.07.48.2.12.13.18.29.18.5v10.02c0,.2-.06.37-.18.5-.12.13-.28.2-.48.2h-1.38Z"/>
      <path class="cls-2" d="m406.77,5.1h.75c.3,0,.53.08.67.23.15.15.21.33.2.55-.16.84-.29,1.6-.41,2.28s-.18,1.35-.22,2.02c-.04.67-.06,1.42-.06,2.27l.09,8.16c0,.2-.07.37-.2.5s-.3.2-.5.2l-4.26-.06c-.2,0-.37-.06-.5-.18-.13-.12-.2-.29-.2-.51v-.96c0-.2.06-.36.2-.5s.29-.2.5-.2l2.31.03v-6.36c0-.82,0-1.57.03-2.26.02-.69.08-1.38.18-2.08.1-.7.26-1.49.48-2.37.06-.22.15-.4.29-.54.13-.14.34-.21.64-.21Zm-2.7,1.47c-.2,0-.37-.06-.5-.19s-.19-.29-.19-.5v-1.02c0-.2.06-.36.19-.49s.29-.2.5-.2h6.51c1.72,0,3.15.28,4.28.83s1.97,1.37,2.54,2.46c.56,1.09.84,2.43.84,4.04v9.12c0,.2-.07.37-.2.5-.13.13-.29.2-.49.2h-1.35c-.22,0-.39-.06-.51-.2-.12-.13-.18-.29-.18-.5v-8.97c0-1.6-.4-2.84-1.2-3.73-.8-.89-2.09-1.34-3.87-1.34h-6.36Z"/>
      <path class="cls-2" d="m422.64,21.3c-.2,0-.37-.06-.5-.2-.13-.13-.2-.29-.2-.5v-4.5c0-.92.09-1.79.27-2.62.18-.83.53-1.62,1.06-2.37s1.33-1.46,2.38-2.12l1.38,2.01c-.72.46-1.26.99-1.62,1.58-.36.59-.6,1.2-.72,1.83-.12.63-.18,1.24-.18,1.81v4.38c0,.2-.07.37-.2.5-.13.13-.29.2-.49.2h-1.2Zm11.7,0c-.22,0-.39-.06-.51-.18s-.23-.23-.33-.33l-11.01-15.45c-.14-.22-.21-.41-.21-.57s.06-.3.2-.42c.13-.12.27-.18.43-.18h1.41c.22,0,.39.06.53.18.13.12.23.23.31.33l11.04,15.45c.08.14.13.25.17.33s.04.16.04.24c0,.16-.06.3-.18.42s-.26.18-.42.18h-1.47Zm-2.4-5.49l-1.23-2.07c.98-.46,1.67-.94,2.08-1.44s.66-1.02.74-1.58c.08-.55.12-1.12.12-1.72v-4.14c0-.2.06-.36.2-.49.13-.13.29-.2.5-.2h1.26c.2,0,.36.07.5.2.13.13.19.29.19.49v4.29c0,.84-.1,1.65-.3,2.43-.2.78-.61,1.51-1.21,2.21-.61.69-1.56,1.36-2.83,2.02Z"/>
      <path class="cls-2" d="m440.79,14.34c-.2,0-.37-.06-.5-.2-.13-.13-.2-.29-.2-.5V4.86c0-.2.07-.36.2-.49s.29-.2.5-.2h1.44c.2,0,.36.07.48.2s.18.29.18.49v8.79c0,.2-.06.37-.18.5-.12.13-.28.2-.48.2h-1.44Z"/>
      <path class="cls-2" d="m457.02,21.3c-.2,0-.37-.06-.5-.2-.13-.13-.2-.29-.2-.5v-8.97c0-1.6-.4-2.84-1.2-3.73-.8-.89-2.09-1.34-3.87-1.34h-3.93c-.2,0-.36-.06-.49-.19-.13-.13-.2-.29-.2-.5v-1.02c0-.2.06-.36.2-.49.13-.13.29-.2.49-.2h4.08c1.72,0,3.15.27,4.28.81s1.97,1.36,2.54,2.45c.56,1.09.84,2.45.84,4.07v9.12c0,.2-.07.37-.2.5-.13.13-.29.2-.5.2h-1.35Z"/>
      <path class="cls-2" d="m469.95,21.57c-.18.06-.34.04-.5-.07-.15-.11-.22-.27-.22-.46v-1.38c0-.18.05-.34.17-.48.11-.14.27-.25.5-.33l1.14-.45c.8-.34,1.53-.75,2.17-1.23.65-.48,1.16-1.14,1.53-1.98s.55-1.94.55-3.3-.16-2.33-.48-3.11c-.32-.77-.85-1.32-1.58-1.65-.73-.33-1.71-.5-2.96-.5h-6.09c-.2,0-.37-.06-.5-.2-.13-.13-.2-.29-.2-.5v-1.08c0-.2.07-.36.2-.49s.29-.2.5-.2h6.48c1.84,0,3.29.26,4.36.78,1.07.52,1.84,1.35,2.31,2.5.47,1.15.71,2.65.71,4.51,0,1.4-.19,2.61-.57,3.63-.38,1.02-.9,1.89-1.54,2.61-.65.72-1.38,1.32-2.19,1.79-.81.47-1.66.85-2.54,1.15l-1.26.42Zm-5.76,5.46c-.2,0-.37-.07-.5-.2-.13-.13-.2-.3-.2-.5v-15.75c0-.2.07-.36.2-.5.13-.13.29-.2.5-.2h1.32c.22,0,.39.07.51.2.12.13.18.29.18.5v15.75c0,.2-.06.36-.18.5-.12.13-.29.2-.51.2h-1.32Z"/>
      <path class="cls-2" d="m498.6,21.3c-.2,0-.37-.06-.5-.2-.13-.13-.2-.29-.2-.5v-8.97c0-1.6-.4-2.84-1.2-3.73-.8-.89-2.09-1.34-3.87-1.34h-3.93c-.2,0-.36-.06-.49-.19-.13-.13-.2-.29-.2-.5v-1.02c0-.2.06-.36.2-.49.13-.13.29-.2.49-.2h4.08c1.72,0,3.15.27,4.28.81s1.97,1.36,2.54,2.45c.56,1.09.84,2.45.84,4.07v9.12c0,.2-.07.37-.2.5-.13.13-.29.2-.5.2h-1.35Z"/>
      <path class="cls-2" d="m503.91,6.57c-.2,0-.37-.06-.5-.19s-.19-.29-.19-.5v-1.02c0-.2.06-.36.19-.49s.29-.2.5-.2h12.87c.2,0,.37.07.5.2s.2.29.2.49v1.02c0,.2-.07.37-.2.5s-.29.19-.5.19h-12.87Zm8.1,14.73c-.44,0-.66-.22-.66-.66v-10.71c0-1.18.14-2.1.42-2.76.28-.66.63-.99,1.05-.99h2.94c-.5,0-.91.38-1.22,1.14-.31.76-.46,1.7-.46,2.82v10.5c0,.2-.07.36-.21.48s-.31.18-.51.18h-1.35Z"/>
      <path class="cls-2" d="m528.36,21.6c-2.5,0-4.36-.65-5.58-1.96-1.22-1.31-1.83-3.15-1.83-5.54V4.86c0-.2.06-.36.2-.49.13-.13.29-.2.5-.2h7.23c1.78,0,3.2.27,4.26.81,1.06.54,1.83,1.33,2.33,2.39.49,1.05.77,2.34.83,3.88.02.2.03.52.03.96v1.32c0,.44-.01.76-.03.96-.04,1.52-.33,2.81-.87,3.88s-1.38,1.88-2.54,2.42-2.65.81-4.51.81Zm0-2.46c1.9,0,3.24-.39,4.02-1.18.78-.79,1.19-2,1.23-3.62.02-.2.03-.5.03-.9v-1.17c0-.38-.01-.67-.03-.87-.04-1.6-.5-2.8-1.37-3.61-.87-.81-2.04-1.22-3.52-1.22h-5.13v7.53c0,1.6.4,2.84,1.19,3.72.79.88,1.98,1.32,3.58,1.32Z"/>
    </g>
    <rect class="cls-2" x="158.63" y="91.87" width="219.05" height="49.5" rx="24.75" ry="24.75"/>
    <g>
      <path class="cls-1" d="m203.39,123.79c-.16,0-.29-.05-.37-.14-.09-.1-.13-.22-.13-.36v-14.37c0-.16.04-.29.13-.38s.21-.14.37-.14h9.09c.16,0,.29.05.37.14s.13.22.13.38v.84c0,.16-.04.29-.13.37s-.21.13-.37.13h-7.48v4.82h7c.16,0,.29.05.37.14.09.1.13.22.13.39v.81c0,.15-.04.27-.13.36-.09.1-.21.14-.37.14h-7v4.99h7.66c.16,0,.29.04.37.13s.13.21.13.37v.86c0,.15-.04.27-.13.36-.09.09-.21.14-.37.14h-9.26Z"/>
      <path class="cls-1" d="m215.4,123.79c-.12,0-.22-.04-.32-.13-.1-.09-.14-.2-.14-.33,0-.04.01-.1.03-.17.02-.07.06-.14.12-.23l3.83-4.99-3.59-4.73c-.06-.09-.1-.16-.12-.22-.02-.06-.03-.12-.03-.18,0-.13.04-.24.13-.33.09-.09.2-.13.33-.13h1.12c.16,0,.29.04.37.12.09.08.15.16.2.23l2.93,3.81,2.93-3.78c.06-.07.13-.15.21-.24.08-.09.2-.13.36-.13h1.08c.13,0,.24.04.33.13.09.09.13.2.13.33,0,.06-.01.12-.03.18-.02.06-.06.13-.12.22l-3.63,4.77,3.83,4.95c.06.09.1.16.12.22.02.06.03.12.03.18,0,.13-.04.24-.13.33-.09.09-.2.13-.33.13h-1.17c-.15,0-.26-.04-.35-.11-.09-.07-.16-.15-.22-.22l-3.08-4.03-3.12,4.03-.21.21c-.08.08-.2.12-.36.12h-1.12Z"/>
      <path class="cls-1" d="m228.31,127.97c-.15,0-.27-.05-.36-.14-.1-.1-.14-.22-.14-.36v-14.61c0-.15.05-.27.14-.36s.22-.14.36-.14h1.01c.15,0,.27.05.36.14.09.1.14.22.14.36v.97c.35-.48.82-.89,1.41-1.21.59-.32,1.32-.48,2.2-.48.82,0,1.52.14,2.1.42.58.28,1.06.66,1.43,1.14.37.48.66,1.03.85,1.65.19.62.3,1.28.33,1.98.01.23.02.48.02.75s0,.51-.02.75c-.03.69-.14,1.35-.33,1.97-.19.62-.47,1.17-.85,1.65-.37.48-.85.86-1.43,1.14s-1.28.43-2.1.43-1.57-.16-2.15-.47-1.05-.71-1.42-1.18v5.1c0,.15-.04.27-.13.36-.09.09-.21.14-.35.14h-1.08Zm4.66-5.74c.76,0,1.36-.17,1.79-.5s.74-.76.93-1.3c.19-.54.3-1.11.33-1.73.01-.42.01-.85,0-1.28-.03-.62-.14-1.19-.33-1.73s-.5-.97-.93-1.3-1.03-.5-1.79-.5c-.72,0-1.3.17-1.75.51-.45.34-.78.77-.99,1.29-.21.52-.33,1.05-.36,1.59-.01.24-.02.51-.02.84s0,.61.02.86c.01.51.14,1.02.36,1.52.23.5.57.91,1.02,1.23.46.32,1.03.48,1.72.48Z"/>
      <path class="cls-1" d="m241.43,123.79c-.15,0-.27-.05-.36-.14-.1-.1-.14-.22-.14-.36v-14.61c0-.15.05-.27.14-.36.1-.1.22-.14.36-.14h1.03c.16,0,.29.05.37.14.09.09.13.22.13.36v14.61c0,.15-.04.27-.13.36-.09.09-.21.14-.37.14h-1.03Z"/>
      <path class="cls-1" d="m246.57,110.21c-.15,0-.27-.05-.36-.14s-.14-.22-.14-.36v-1.19c0-.15.05-.27.14-.37s.22-.15.36-.15h1.39c.15,0,.27.05.37.15s.15.23.15.37v1.19c0,.15-.05.27-.15.36s-.23.14-.37.14h-1.39Zm.18,13.57c-.15,0-.27-.05-.36-.14s-.14-.22-.14-.36v-10.43c0-.15.05-.27.14-.36.09-.1.22-.14.36-.14h1.06c.15,0,.27.05.36.14s.14.22.14.36v10.43c0,.15-.05.27-.14.36-.1.09-.22.14-.36.14h-1.06Z"/>
      <path class="cls-1" d="m256.19,124.01c-1.04,0-1.94-.2-2.7-.6-.75-.4-1.34-.98-1.75-1.74-.41-.75-.63-1.66-.66-2.72-.01-.22-.02-.51-.02-.88s0-.66.02-.88c.03-1.06.25-1.96.66-2.72.41-.75.99-1.33,1.75-1.74.76-.4,1.65-.61,2.7-.61.85,0,1.58.12,2.19.35.61.23,1.11.54,1.51.9.4.37.69.76.89,1.19s.3.83.32,1.21c.01.15-.03.26-.13.35-.1.09-.23.13-.37.13h-1.06c-.15,0-.26-.03-.33-.1s-.15-.18-.22-.34c-.26-.72-.62-1.22-1.08-1.52-.46-.29-1.02-.44-1.69-.44-.88,0-1.59.27-2.14.81-.55.54-.85,1.42-.89,2.62-.02.53-.02,1.04,0,1.54.04,1.22.34,2.09.89,2.63.55.54,1.26.8,2.14.8.67,0,1.24-.15,1.69-.44.45-.29.81-.8,1.08-1.52.07-.16.15-.28.22-.35s.18-.11.33-.11h1.06c.15,0,.27.05.37.14.1.1.15.22.13.36-.01.31-.08.62-.2.95-.12.32-.3.65-.56.98-.26.33-.58.62-.96.88-.38.26-.84.46-1.36.62-.53.15-1.14.23-1.83.23Z"/>
      <path class="cls-1" d="m264.04,110.21c-.15,0-.27-.05-.36-.14s-.14-.22-.14-.36v-1.19c0-.15.05-.27.14-.37s.22-.15.36-.15h1.39c.15,0,.27.05.37.15s.15.23.15.37v1.19c0,.15-.05.27-.15.36s-.23.14-.37.14h-1.39Zm.18,13.57c-.15,0-.27-.05-.36-.14s-.14-.22-.14-.36v-10.43c0-.15.05-.27.14-.36.09-.1.22-.14.36-.14h1.06c.15,0,.27.05.36.14s.14.22.14.36v10.43c0,.15-.05.27-.14.36-.1.09-.22.14-.36.14h-1.06Z"/>
      <path class="cls-1" d="m273.5,123.79c-.82,0-1.49-.16-2-.47s-.89-.76-1.12-1.34c-.23-.58-.35-1.26-.35-2.06v-5.81h-1.72c-.15,0-.27-.05-.36-.14-.1-.09-.14-.22-.14-.36v-.75c0-.15.05-.27.14-.36.09-.1.22-.14.36-.14h1.72v-3.67c0-.15.05-.27.14-.36.1-.1.22-.14.36-.14h1.03c.15,0,.27.05.36.14s.14.22.14.36v3.67h2.73c.16,0,.29.05.37.14s.13.22.13.36v.75c0,.15-.04.27-.13.36-.09.1-.21.14-.37.14h-2.73v5.65c0,.69.12,1.23.35,1.63.23.4.65.59,1.25.59h1.34c.15,0,.27.05.36.14s.14.22.14.36v.79c0,.15-.05.27-.14.36s-.22.14-.36.14h-1.52Z"/>
      <path class="cls-1" d="m283.82,123.79c-.16,0-.29-.05-.37-.14-.09-.1-.13-.22-.13-.36v-14.37c0-.16.04-.29.13-.38s.21-.14.37-.14h4.99c1.51,0,2.73.23,3.65.68.92.45,1.6,1.13,2.02,2.01.43.89.65,1.98.66,3.27.01.66.02,1.24.02,1.74s0,1.07-.02,1.72c-.03,1.35-.25,2.47-.67,3.36s-1.08,1.55-1.98,1.98c-.9.43-2.09.65-3.57.65h-5.1Zm1.65-1.87h3.34c1.01,0,1.82-.14,2.42-.42.6-.28,1.04-.73,1.31-1.34s.42-1.43.43-2.44c.03-.44.04-.83.04-1.15v-.99c0-.33-.01-.71-.04-1.13-.03-1.42-.37-2.48-1.01-3.16-.65-.68-1.73-1.02-3.26-1.02h-3.23v11.66Z"/>
      <path class="cls-1" d="m302.76,124.01c-1.53,0-2.74-.46-3.63-1.4s-1.39-2.2-1.47-3.82c-.01-.19-.02-.44-.02-.74s0-.55.02-.74c.06-1.04.3-1.95.73-2.74.42-.78,1.01-1.39,1.75-1.82.74-.42,1.61-.64,2.61-.64,1.12,0,2.05.24,2.81.7.75.47,1.33,1.14,1.73,2,.4.87.59,1.88.59,3.04v.37c0,.16-.05.29-.14.37-.1.09-.22.13-.36.13h-7.61v.2c.03.6.16,1.16.4,1.68.23.52.58.94,1.02,1.27.45.32.97.48,1.57.48.53,0,.97-.08,1.32-.24.35-.16.64-.34.86-.54.22-.2.37-.36.44-.47.13-.18.23-.28.31-.32.07-.04.19-.05.35-.05h1.08c.13,0,.25.04.34.12.1.08.14.19.12.34-.01.22-.13.49-.35.8-.22.32-.53.63-.94.94s-.9.56-1.5.76-1.26.3-2.01.3Zm-3.01-6.78h6.03v-.07c0-.66-.12-1.25-.36-1.76-.24-.51-.59-.92-1.05-1.22-.45-.3-1-.45-1.63-.45s-1.17.15-1.62.45c-.45.3-.79.71-1.02,1.22s-.35,1.1-.35,1.76v.07Z"/>
      <path class="cls-1" d="m311.01,123.79c-.15,0-.27-.05-.36-.14s-.14-.22-.14-.36v-10.43c0-.15.05-.27.14-.36.09-.1.22-.14.36-.14h1.03c.15,0,.27.05.36.14.09.1.14.22.14.36v.97c.38-.5.86-.91,1.44-1.22.58-.32,1.32-.47,2.23-.47s1.76.21,2.43.63c.67.42,1.17,1,1.52,1.74s.52,1.6.52,2.58v6.2c0,.15-.05.27-.14.36-.1.09-.22.14-.36.14h-1.1c-.15,0-.27-.05-.36-.14-.1-.1-.14-.22-.14-.36v-6.09c0-1.03-.25-1.83-.75-2.41-.5-.58-1.23-.87-2.2-.87-.91,0-1.64.29-2.19.87-.55.58-.83,1.38-.83,2.41v6.09c0,.15-.05.27-.14.36-.1.09-.22.14-.36.14h-1.1Z"/>
      <path class="cls-1" d="m325.49,127.97c-.12,0-.22-.04-.31-.13s-.13-.19-.13-.31c0-.06,0-.12.02-.18.01-.06.04-.13.09-.22l1.69-4.03-4.2-9.92c-.07-.18-.11-.3-.11-.37,0-.13.04-.24.13-.33.09-.09.2-.13.33-.13h1.08c.16,0,.28.04.36.11.08.07.14.16.17.26l3.34,8.01,3.43-8.01c.04-.1.11-.19.19-.26.08-.07.2-.11.36-.11h1.03c.13,0,.24.04.33.13s.13.19.13.31c0,.07-.04.21-.11.4l-6.25,14.41c-.04.1-.11.19-.19.26-.08.07-.2.11-.36.11h-1.03Z"/>
    </g>
    <rect class="cls-2" x="158.63" y="224.87" width="219.05" height="49.5" rx="24.75" ry="24.75"/>
    <g>
      <path class="cls-1" d="m202.4,256.79c-.16,0-.29-.05-.37-.14-.09-.1-.13-.22-.13-.36v-14.37c0-.16.04-.29.13-.38s.21-.14.37-.14h9.09c.16,0,.29.05.37.14s.13.22.13.38v.84c0,.16-.04.29-.13.37s-.21.13-.37.13h-7.48v4.82h7c.16,0,.29.05.37.14.09.1.13.22.13.39v.81c0,.15-.04.27-.13.36-.09.1-.21.14-.37.14h-7v4.99h7.66c.16,0,.29.04.37.13s.13.21.13.37v.86c0,.15-.04.27-.13.36-.09.09-.21.14-.37.14h-9.26Z"/>
      <path class="cls-1" d="m214.41,256.79c-.12,0-.22-.04-.32-.13-.1-.09-.14-.2-.14-.33,0-.04.01-.1.03-.17.02-.07.06-.14.12-.23l3.83-4.99-3.59-4.73c-.06-.09-.1-.16-.12-.22-.02-.06-.03-.12-.03-.18,0-.13.04-.24.13-.33.09-.09.2-.13.33-.13h1.12c.16,0,.29.04.37.12.09.08.15.16.2.23l2.93,3.81,2.93-3.78c.06-.07.13-.15.21-.24.08-.09.2-.13.36-.13h1.08c.13,0,.24.04.33.13.09.09.13.2.13.33,0,.06-.01.12-.03.18-.02.06-.06.13-.12.22l-3.63,4.77,3.83,4.95c.06.09.1.16.12.22.02.06.03.12.03.18,0,.13-.04.24-.13.33-.09.09-.2.13-.33.13h-1.17c-.15,0-.26-.04-.35-.11-.09-.07-.16-.15-.22-.22l-3.08-4.03-3.12,4.03-.21.21c-.08.08-.2.12-.36.12h-1.12Z"/>
      <path class="cls-1" d="m227.32,260.97c-.15,0-.27-.05-.36-.14-.1-.1-.14-.22-.14-.36v-14.61c0-.15.05-.27.14-.36s.22-.14.36-.14h1.01c.15,0,.27.05.36.14.09.1.14.22.14.36v.97c.35-.48.82-.89,1.41-1.21.59-.32,1.32-.48,2.2-.48.82,0,1.52.14,2.1.42.58.28,1.06.66,1.43,1.14.37.48.66,1.03.85,1.65.19.62.3,1.28.33,1.98.01.23.02.48.02.75s0,.51-.02.75c-.03.69-.14,1.35-.33,1.97-.19.62-.47,1.17-.85,1.65-.37.48-.85.86-1.43,1.14s-1.28.43-2.1.43-1.57-.16-2.15-.47-1.05-.71-1.42-1.18v5.1c0,.15-.04.27-.13.36-.09.09-.21.14-.35.14h-1.08Zm4.66-5.74c.76,0,1.36-.17,1.79-.5s.74-.76.93-1.3c.19-.54.3-1.11.33-1.73.01-.42.01-.85,0-1.28-.03-.62-.14-1.19-.33-1.73s-.5-.97-.93-1.3-1.03-.5-1.79-.5c-.72,0-1.3.17-1.75.51-.45.34-.78.77-.99,1.29-.21.52-.33,1.05-.36,1.59-.01.24-.02.51-.02.84s0,.61.02.86c.01.51.14,1.02.36,1.52.23.5.57.91,1.02,1.23.46.32,1.03.48,1.72.48Z"/>
      <path class="cls-1" d="m240.44,256.79c-.15,0-.27-.05-.36-.14-.1-.1-.14-.22-.14-.36v-14.61c0-.15.05-.27.14-.36.1-.1.22-.14.36-.14h1.03c.16,0,.29.05.37.14.09.09.13.22.13.36v14.61c0,.15-.04.27-.13.36-.09.09-.21.14-.37.14h-1.03Z"/>
      <path class="cls-1" d="m245.58,243.21c-.15,0-.27-.05-.36-.14s-.14-.22-.14-.36v-1.19c0-.15.05-.27.14-.37s.22-.15.36-.15h1.39c.15,0,.27.05.37.15s.15.23.15.37v1.19c0,.15-.05.27-.15.36s-.23.14-.37.14h-1.39Zm.18,13.57c-.15,0-.27-.05-.36-.14s-.14-.22-.14-.36v-10.43c0-.15.05-.27.14-.36.09-.1.22-.14.36-.14h1.06c.15,0,.27.05.36.14s.14.22.14.36v10.43c0,.15-.05.27-.14.36-.1.09-.22.14-.36.14h-1.06Z"/>
      <path class="cls-1" d="m255.2,257.01c-1.04,0-1.94-.2-2.7-.6-.75-.4-1.34-.98-1.75-1.74-.41-.75-.63-1.66-.66-2.72-.01-.22-.02-.51-.02-.88s0-.66.02-.88c.03-1.06.25-1.96.66-2.72.41-.75.99-1.33,1.75-1.74.76-.4,1.65-.61,2.7-.61.85,0,1.58.12,2.19.35.61.23,1.11.54,1.51.9.4.37.69.76.89,1.19s.3.83.32,1.21c.01.15-.03.26-.13.35-.1.09-.23.13-.37.13h-1.06c-.15,0-.26-.03-.33-.1s-.15-.18-.22-.34c-.26-.72-.62-1.22-1.08-1.52-.46-.29-1.02-.44-1.69-.44-.88,0-1.59.27-2.14.81-.55.54-.85,1.42-.89,2.62-.02.53-.02,1.04,0,1.54.04,1.22.34,2.09.89,2.63.55.54,1.26.8,2.14.8.67,0,1.24-.15,1.69-.44.45-.29.81-.8,1.08-1.52.07-.16.15-.28.22-.35s.18-.11.33-.11h1.06c.15,0,.27.05.37.14.1.1.15.22.13.36-.01.31-.08.62-.2.95-.12.32-.3.65-.56.98-.26.33-.58.62-.96.88-.38.26-.84.46-1.36.62-.53.15-1.14.23-1.83.23Z"/>
      <path class="cls-1" d="m263.05,243.21c-.15,0-.27-.05-.36-.14s-.14-.22-.14-.36v-1.19c0-.15.05-.27.14-.37s.22-.15.36-.15h1.39c.15,0,.27.05.37.15s.15.23.15.37v1.19c0,.15-.05.27-.15.36s-.23.14-.37.14h-1.39Zm.18,13.57c-.15,0-.27-.05-.36-.14s-.14-.22-.14-.36v-10.43c0-.15.05-.27.14-.36.09-.1.22-.14.36-.14h1.06c.15,0,.27.05.36.14s.14.22.14.36v10.43c0,.15-.05.27-.14.36-.1.09-.22.14-.36.14h-1.06Z"/>
      <path class="cls-1" d="m272.51,256.79c-.82,0-1.49-.16-2-.47s-.89-.76-1.12-1.34c-.23-.58-.35-1.26-.35-2.06v-5.81h-1.72c-.15,0-.27-.05-.36-.14-.1-.09-.14-.22-.14-.36v-.75c0-.15.05-.27.14-.36.09-.1.22-.14.36-.14h1.72v-3.67c0-.15.05-.27.14-.36.1-.1.22-.14.36-.14h1.03c.15,0,.27.05.36.14s.14.22.14.36v3.67h2.73c.16,0,.29.05.37.14s.13.22.13.36v.75c0,.15-.04.27-.13.36-.09.1-.21.14-.37.14h-2.73v5.65c0,.69.12,1.23.35,1.63.23.4.65.59,1.25.59h1.34c.15,0,.27.05.36.14s.14.22.14.36v.79c0,.15-.05.27-.14.36s-.22.14-.36.14h-1.52Z"/>
      <path class="cls-1" d="m280.72,256.79c-.12,0-.22-.04-.31-.13s-.13-.19-.13-.31c0-.07,0-.15.02-.24l5.46-14.23c.06-.15.14-.26.24-.35.1-.09.26-.13.46-.13h1.5c.21,0,.36.04.46.13.1.09.18.21.24.35l5.43,14.23c.03.09.04.17.04.24,0,.12-.04.22-.13.31s-.19.13-.31.13h-1.12c-.18,0-.3-.04-.39-.13-.08-.09-.14-.17-.16-.24l-1.21-3.12h-7.22l-1.21,3.12c-.01.07-.07.15-.15.24-.09.09-.22.13-.4.13h-1.12Zm3.52-5.39h5.94l-2.97-7.81-2.97,7.81Z"/>
      <path class="cls-1" d="m296.73,256.79c-.15,0-.27-.05-.36-.14-.1-.1-.14-.22-.14-.36v-14.61c0-.15.05-.27.14-.36.1-.1.22-.14.36-.14h1.03c.16,0,.29.05.37.14.09.09.13.22.13.36v14.61c0,.15-.04.27-.13.36-.09.09-.21.14-.37.14h-1.03Z"/>
      <path class="cls-1" d="m302.08,256.79c-.15,0-.27-.05-.36-.14-.1-.1-.14-.22-.14-.36v-14.61c0-.15.05-.27.14-.36.1-.1.22-.14.36-.14h1.03c.16,0,.29.05.37.14.09.09.13.22.13.36v14.61c0,.15-.04.27-.13.36-.09.09-.21.14-.37.14h-1.03Z"/>
      <path class="cls-1" d="m311.58,257.01c-1.12,0-2.05-.21-2.79-.64-.75-.42-1.32-1.02-1.72-1.77-.4-.75-.62-1.62-.66-2.58-.01-.25-.02-.57-.02-.96s0-.7.02-.93c.04-.98.27-1.85.67-2.6.4-.75.98-1.33,1.73-1.76.75-.42,1.67-.64,2.77-.64s2.02.21,2.77.64c.75.43,1.32,1.01,1.73,1.76.4.75.63,1.61.67,2.6.01.23.02.55.02.93s0,.71-.02.96c-.04.97-.26,1.83-.66,2.58-.4.76-.97,1.35-1.72,1.77s-1.68.64-2.79.64Zm0-1.69c.91,0,1.63-.29,2.18-.87.54-.58.84-1.43.88-2.54.01-.22.02-.5.02-.84s0-.62-.02-.84c-.04-1.12-.34-1.96-.88-2.54-.54-.58-1.27-.87-2.18-.87s-1.64.29-2.19.87-.84,1.43-.87,2.54c-.01.22-.02.5-.02.84s0,.62.02.84c.03,1.11.32,1.96.87,2.54s1.28.87,2.19.87Z"/>
      <path class="cls-1" d="m322.25,256.79c-.19,0-.34-.05-.44-.14-.1-.1-.19-.23-.26-.41l-3.12-10.21c-.03-.07-.04-.15-.04-.22,0-.13.05-.24.14-.33.1-.09.2-.13.32-.13h.97c.16,0,.29.04.37.13.09.09.15.17.18.24l2.44,8.29,2.62-8.21c.03-.1.09-.21.19-.31.1-.1.24-.15.43-.15h.75c.19,0,.34.05.44.15s.16.21.18.31l2.62,8.21,2.44-8.29c.01-.07.07-.15.15-.24.09-.09.21-.13.37-.13h.99c.12,0,.22.04.31.13.09.09.13.2.13.33,0,.07-.01.15-.04.22l-3.1,10.21c-.06.18-.14.31-.24.41-.1.09-.26.14-.48.14h-.86c-.19,0-.35-.05-.47-.14-.12-.1-.21-.23-.25-.41l-2.55-7.88-2.55,7.88c-.06.18-.15.31-.26.41-.12.09-.28.14-.48.14h-.86Z"/>
    </g>
    <rect class="cls-2" x="158.63" y="357.87" width="219.05" height="49.5" rx="24.75" ry="24.75"/>
    <g>
      <path class="cls-1" d="m194.53,389.79c-.16,0-.29-.05-.37-.14-.09-.1-.13-.22-.13-.36v-14.39c0-.15.04-.27.13-.36s.21-.14.37-.14h1.17c.16,0,.29.05.37.14s.13.22.13.36v14.39c0,.15-.04.27-.13.36-.09.09-.21.14-.37.14h-1.17Z"/>
      <path class="cls-1" d="m200.25,389.79c-.15,0-.27-.05-.36-.14s-.14-.22-.14-.36v-10.43c0-.15.05-.27.14-.36.09-.1.22-.14.36-.14h1.03c.15,0,.27.05.36.14.09.1.14.22.14.36v.97c.38-.5.86-.91,1.44-1.22.58-.32,1.32-.47,2.23-.47s1.76.21,2.43.63c.67.42,1.17,1,1.52,1.74s.52,1.6.52,2.58v6.2c0,.15-.05.27-.14.36-.1.09-.22.14-.36.14h-1.1c-.15,0-.27-.05-.36-.14-.1-.1-.14-.22-.14-.36v-6.09c0-1.03-.25-1.83-.75-2.41-.5-.58-1.23-.87-2.2-.87-.91,0-1.64.29-2.19.87-.55.58-.83,1.38-.83,2.41v6.09c0,.15-.05.27-.14.36-.1.09-.22.14-.36.14h-1.1Z"/>
      <path class="cls-1" d="m213.61,389.79c-.15,0-.27-.05-.36-.14-.1-.1-.14-.22-.14-.36v-14.61c0-.15.05-.27.14-.36.1-.1.22-.14.36-.14h1.1c.16,0,.29.05.37.14.09.09.13.22.13.36v5.13c.4-.5.88-.9,1.45-1.21.57-.31,1.3-.46,2.18-.46.95,0,1.76.21,2.43.63.67.42,1.17,1,1.52,1.74s.52,1.6.52,2.58v6.2c0,.15-.04.27-.13.36-.09.09-.21.14-.37.14h-1.1c-.15,0-.27-.05-.36-.14-.1-.1-.14-.22-.14-.36v-6.09c0-1.03-.25-1.83-.75-2.41-.5-.58-1.23-.87-2.2-.87-.91,0-1.64.29-2.2.87s-.84,1.38-.84,2.41v6.09c0,.15-.04.27-.13.36-.09.09-.21.14-.37.14h-1.1Z"/>
      <path class="cls-1" d="m231.05,390.01c-1.53,0-2.74-.46-3.63-1.4s-1.39-2.2-1.47-3.82c-.01-.19-.02-.44-.02-.74s0-.55.02-.74c.06-1.04.3-1.95.73-2.74.42-.78,1.01-1.39,1.75-1.82.74-.42,1.61-.64,2.61-.64,1.12,0,2.05.24,2.81.7.75.47,1.33,1.14,1.73,2,.4.87.59,1.88.59,3.04v.37c0,.16-.05.29-.14.37-.1.09-.22.13-.36.13h-7.61v.2c.03.6.16,1.16.4,1.68.23.52.58.94,1.02,1.27.45.32.97.48,1.57.48.53,0,.97-.08,1.32-.24.35-.16.64-.34.86-.54.22-.2.37-.36.44-.47.13-.18.23-.28.31-.32.07-.04.19-.05.35-.05h1.08c.13,0,.25.04.34.12.1.08.14.19.12.34-.01.22-.13.49-.35.8-.22.32-.53.63-.94.94s-.9.56-1.5.76-1.26.3-2.01.3Zm-3.01-6.78h6.03v-.07c0-.66-.12-1.25-.36-1.76-.24-.51-.59-.92-1.05-1.22-.45-.3-1-.45-1.63-.45s-1.17.15-1.62.45c-.45.3-.79.71-1.02,1.22s-.35,1.1-.35,1.76v.07Z"/>
      <path class="cls-1" d="m239.3,389.79c-.15,0-.27-.05-.36-.14s-.14-.22-.14-.36v-10.41c0-.15.05-.27.14-.37.09-.1.22-.15.36-.15h1.01c.15,0,.27.05.37.15s.15.23.15.37v.97c.29-.5.7-.87,1.21-1.12.51-.25,1.14-.37,1.87-.37h.86c.15,0,.27.05.36.14.1.1.14.22.14.36v.9c0,.15-.05.26-.14.35-.09.09-.22.13-.36.13h-1.32c-.79,0-1.42.23-1.87.69-.46.46-.68,1.09-.68,1.88v6.47c0,.15-.05.27-.15.36-.1.09-.23.14-.37.14h-1.08Z"/>
      <path class="cls-1" d="m247.49,376.21c-.15,0-.27-.05-.36-.14s-.14-.22-.14-.36v-1.19c0-.15.05-.27.14-.37s.22-.15.36-.15h1.39c.15,0,.27.05.37.15s.15.23.15.37v1.19c0,.15-.05.27-.15.36s-.23.14-.37.14h-1.39Zm.18,13.57c-.15,0-.27-.05-.36-.14s-.14-.22-.14-.36v-10.43c0-.15.05-.27.14-.36.09-.1.22-.14.36-.14h1.06c.15,0,.27.05.36.14s.14.22.14.36v10.43c0,.15-.05.27-.14.36-.1.09-.22.14-.36.14h-1.06Z"/>
      <path class="cls-1" d="m256.95,389.79c-.82,0-1.49-.16-2-.47s-.89-.76-1.12-1.34c-.23-.58-.35-1.26-.35-2.06v-5.81h-1.72c-.15,0-.27-.05-.36-.14-.1-.09-.14-.22-.14-.36v-.75c0-.15.05-.27.14-.36.09-.1.22-.14.36-.14h1.72v-3.67c0-.15.05-.27.14-.36.1-.1.22-.14.36-.14h1.03c.15,0,.27.05.36.14s.14.22.14.36v3.67h2.73c.16,0,.29.05.37.14s.13.22.13.36v.75c0,.15-.04.27-.13.36-.09.1-.21.14-.37.14h-2.73v5.65c0,.69.12,1.23.35,1.63.23.4.65.59,1.25.59h1.34c.15,0,.27.05.36.14s.14.22.14.36v.79c0,.15-.05.27-.14.36s-.22.14-.36.14h-1.52Z"/>
      <path class="cls-1" d="m265.66,390.01c-1.53,0-2.74-.46-3.63-1.4s-1.39-2.2-1.47-3.82c-.01-.19-.02-.44-.02-.74s0-.55.02-.74c.06-1.04.3-1.95.73-2.74.42-.78,1.01-1.39,1.75-1.82.74-.42,1.61-.64,2.61-.64,1.12,0,2.05.24,2.81.7.75.47,1.33,1.14,1.73,2,.4.87.59,1.88.59,3.04v.37c0,.16-.05.29-.14.37-.1.09-.22.13-.36.13h-7.61v.2c.03.6.16,1.16.4,1.68.23.52.58.94,1.02,1.27.45.32.97.48,1.57.48.53,0,.97-.08,1.32-.24.35-.16.64-.34.86-.54.22-.2.37-.36.44-.47.13-.18.23-.28.31-.32.07-.04.19-.05.35-.05h1.08c.13,0,.25.04.34.12.1.08.14.19.12.34-.01.22-.13.49-.35.8-.22.32-.53.63-.94.94s-.9.56-1.5.76-1.26.3-2.01.3Zm-3.01-6.78h6.03v-.07c0-.66-.12-1.25-.36-1.76-.24-.51-.59-.92-1.05-1.22-.45-.3-1-.45-1.63-.45s-1.17.15-1.62.45c-.45.3-.79.71-1.02,1.22s-.35,1.1-.35,1.76v.07Z"/>
      <path class="cls-1" d="m277.58,390.01c-.81,0-1.5-.14-2.09-.43s-1.07-.67-1.44-1.17-.65-1.05-.84-1.68c-.18-.63-.29-1.3-.32-2-.01-.24-.02-.46-.02-.66s0-.43.02-.66c.03-.69.14-1.35.32-1.98.18-.63.46-1.2.84-1.69.37-.5.85-.89,1.44-1.18.59-.29,1.28-.43,2.09-.43.87,0,1.58.15,2.16.46.57.31,1.04.69,1.41,1.14v-5.06c0-.15.05-.27.14-.36s.22-.14.36-.14h1.06c.15,0,.27.05.36.14.1.09.14.22.14.36v14.61c0,.15-.05.27-.14.36-.1.09-.22.14-.36.14h-.99c-.16,0-.29-.05-.37-.14-.09-.1-.13-.22-.13-.36v-.92c-.37.47-.84.86-1.43,1.18s-1.32.47-2.2.47Zm.46-1.78c.73,0,1.32-.17,1.76-.51.44-.34.77-.77.99-1.29.22-.52.34-1.05.35-1.59.01-.23.02-.52.02-.85s0-.61-.02-.85c-.01-.51-.14-1.02-.36-1.52-.23-.5-.56-.91-1.01-1.23-.45-.32-1.02-.48-1.73-.48-.75,0-1.34.17-1.78.5-.44.33-.76.76-.95,1.3s-.3,1.11-.33,1.73c-.01.43-.01.85,0,1.28.03.62.14,1.19.33,1.73.19.54.51.97.95,1.3.44.33,1.03.5,1.78.5Z"/>
      <path class="cls-1" d="m292.67,389.79c-.16,0-.29-.05-.37-.14-.09-.1-.13-.22-.13-.36v-14.37c0-.16.04-.29.13-.38s.21-.14.37-.14h4.99c1.51,0,2.73.23,3.65.68.92.45,1.6,1.13,2.02,2.01.43.89.65,1.98.66,3.27.01.66.02,1.24.02,1.74s0,1.07-.02,1.72c-.03,1.35-.25,2.47-.67,3.36s-1.08,1.55-1.98,1.98c-.9.43-2.09.65-3.57.65h-5.1Zm1.65-1.87h3.34c1.01,0,1.82-.14,2.42-.42.6-.28,1.04-.73,1.31-1.34s.42-1.43.43-2.44c.03-.44.04-.83.04-1.15v-.99c0-.33-.01-.71-.04-1.13-.03-1.42-.37-2.48-1.01-3.16-.65-.68-1.73-1.02-3.26-1.02h-3.23v11.66Z"/>
      <path class="cls-1" d="m311.62,390.01c-1.53,0-2.74-.46-3.63-1.4s-1.39-2.2-1.47-3.82c-.01-.19-.02-.44-.02-.74s0-.55.02-.74c.06-1.04.3-1.95.73-2.74.42-.78,1.01-1.39,1.75-1.82.74-.42,1.61-.64,2.61-.64,1.12,0,2.05.24,2.81.7.75.47,1.33,1.14,1.73,2,.4.87.59,1.88.59,3.04v.37c0,.16-.05.29-.14.37-.1.09-.22.13-.36.13h-7.61v.2c.03.6.16,1.16.4,1.68.23.52.58.94,1.02,1.27.45.32.97.48,1.57.48.53,0,.97-.08,1.32-.24.35-.16.64-.34.86-.54.22-.2.37-.36.44-.47.13-.18.23-.28.31-.32.07-.04.19-.05.35-.05h1.08c.13,0,.25.04.34.12.1.08.14.19.12.34-.01.22-.13.49-.35.8-.22.32-.53.63-.94.94s-.9.56-1.5.76-1.26.3-2.01.3Zm-3.01-6.78h6.03v-.07c0-.66-.12-1.25-.36-1.76-.24-.51-.59-.92-1.05-1.22-.45-.3-1-.45-1.63-.45s-1.17.15-1.62.45c-.45.3-.79.71-1.02,1.22s-.35,1.1-.35,1.76v.07Z"/>
      <path class="cls-1" d="m319.87,389.79c-.15,0-.27-.05-.36-.14s-.14-.22-.14-.36v-10.43c0-.15.05-.27.14-.36.09-.1.22-.14.36-.14h1.03c.15,0,.27.05.36.14.09.1.14.22.14.36v.97c.38-.5.86-.91,1.44-1.22.58-.32,1.32-.47,2.23-.47s1.76.21,2.43.63c.67.42,1.17,1,1.52,1.74s.52,1.6.52,2.58v6.2c0,.15-.05.27-.14.36-.1.09-.22.14-.36.14h-1.1c-.15,0-.27-.05-.36-.14-.1-.1-.14-.22-.14-.36v-6.09c0-1.03-.25-1.83-.75-2.41-.5-.58-1.23-.87-2.2-.87-.91,0-1.64.29-2.19.87-.55.58-.83,1.38-.83,2.41v6.09c0,.15-.05.27-.14.36-.1.09-.22.14-.36.14h-1.1Z"/>
      <path class="cls-1" d="m334.34,393.97c-.12,0-.22-.04-.31-.13s-.13-.19-.13-.31c0-.06,0-.12.02-.18.01-.06.04-.13.09-.22l1.69-4.03-4.2-9.92c-.07-.18-.11-.3-.11-.37,0-.13.04-.24.13-.33.09-.09.2-.13.33-.13h1.08c.16,0,.28.04.36.11.08.07.14.16.17.26l3.34,8.01,3.43-8.01c.04-.1.11-.19.19-.26.08-.07.2-.11.36-.11h1.03c.13,0,.24.04.33.13s.13.19.13.31c0,.07-.04.21-.11.4l-6.25,14.41c-.04.1-.11.19-.19.26-.08.07-.2.11-.36.11h-1.03Z"/>
    </g>
    <rect class="cls-2" x="158.63" y="490.87" width="219.05" height="49.5" rx="24.75" ry="24.75"/>
    <g>
      <path class="cls-1" d="m193.54,522.79c-.16,0-.29-.05-.37-.14-.09-.1-.13-.22-.13-.36v-14.39c0-.15.04-.27.13-.36s.21-.14.37-.14h1.17c.16,0,.29.05.37.14s.13.22.13.36v14.39c0,.15-.04.27-.13.36-.09.09-.21.14-.37.14h-1.17Z"/>
      <path class="cls-1" d="m199.26,522.79c-.15,0-.27-.05-.36-.14s-.14-.22-.14-.36v-10.43c0-.15.05-.27.14-.36.09-.1.22-.14.36-.14h1.03c.15,0,.27.05.36.14.09.1.14.22.14.36v.97c.38-.5.86-.91,1.44-1.22.58-.32,1.32-.47,2.23-.47s1.76.21,2.43.63c.67.42,1.17,1,1.52,1.74s.52,1.6.52,2.58v6.2c0,.15-.05.27-.14.36-.1.09-.22.14-.36.14h-1.1c-.15,0-.27-.05-.36-.14-.1-.1-.14-.22-.14-.36v-6.09c0-1.03-.25-1.83-.75-2.41-.5-.58-1.23-.87-2.2-.87-.91,0-1.64.29-2.19.87-.55.58-.83,1.38-.83,2.41v6.09c0,.15-.05.27-.14.36-.1.09-.22.14-.36.14h-1.1Z"/>
      <path class="cls-1" d="m212.62,522.79c-.15,0-.27-.05-.36-.14-.1-.1-.14-.22-.14-.36v-14.61c0-.15.05-.27.14-.36.1-.1.22-.14.36-.14h1.1c.16,0,.29.05.37.14.09.09.13.22.13.36v5.13c.4-.5.88-.9,1.45-1.21.57-.31,1.3-.46,2.18-.46.95,0,1.76.21,2.43.63.67.42,1.17,1,1.52,1.74s.52,1.6.52,2.58v6.2c0,.15-.04.27-.13.36-.09.09-.21.14-.37.14h-1.1c-.15,0-.27-.05-.36-.14-.1-.1-.14-.22-.14-.36v-6.09c0-1.03-.25-1.83-.75-2.41-.5-.58-1.23-.87-2.2-.87-.91,0-1.64.29-2.2.87s-.84,1.38-.84,2.41v6.09c0,.15-.04.27-.13.36-.09.09-.21.14-.37.14h-1.1Z"/>
      <path class="cls-1" d="m230.06,523.01c-1.53,0-2.74-.46-3.63-1.4s-1.39-2.2-1.47-3.82c-.01-.19-.02-.44-.02-.74s0-.55.02-.74c.06-1.04.3-1.95.73-2.74.42-.78,1.01-1.39,1.75-1.82.74-.42,1.61-.64,2.61-.64,1.12,0,2.05.24,2.81.7.75.47,1.33,1.14,1.73,2,.4.87.59,1.88.59,3.04v.37c0,.16-.05.29-.14.37-.1.09-.22.13-.36.13h-7.61v.2c.03.6.16,1.16.4,1.68.23.52.58.94,1.02,1.27.45.32.97.48,1.57.48.53,0,.97-.08,1.32-.24.35-.16.64-.34.86-.54.22-.2.37-.36.44-.47.13-.18.23-.28.31-.32.07-.04.19-.05.35-.05h1.08c.13,0,.25.04.34.12.1.08.14.19.12.34-.01.22-.13.49-.35.8-.22.32-.53.63-.94.94s-.9.56-1.5.76-1.26.3-2.01.3Zm-3.01-6.78h6.03v-.07c0-.66-.12-1.25-.36-1.76-.24-.51-.59-.92-1.05-1.22-.45-.3-1-.45-1.63-.45s-1.17.15-1.62.45c-.45.3-.79.71-1.02,1.22s-.35,1.1-.35,1.76v.07Z"/>
      <path class="cls-1" d="m238.31,522.79c-.15,0-.27-.05-.36-.14s-.14-.22-.14-.36v-10.41c0-.15.05-.27.14-.37.09-.1.22-.15.36-.15h1.01c.15,0,.27.05.37.15s.15.23.15.37v.97c.29-.5.7-.87,1.21-1.12.51-.25,1.14-.37,1.87-.37h.86c.15,0,.27.05.36.14.1.1.14.22.14.36v.9c0,.15-.05.26-.14.35-.09.09-.22.13-.36.13h-1.32c-.79,0-1.42.23-1.87.69-.46.46-.68,1.09-.68,1.88v6.47c0,.15-.05.27-.15.36-.1.09-.23.14-.37.14h-1.08Z"/>
      <path class="cls-1" d="m246.5,509.21c-.15,0-.27-.05-.36-.14s-.14-.22-.14-.36v-1.19c0-.15.05-.27.14-.37s.22-.15.36-.15h1.39c.15,0,.27.05.37.15s.15.23.15.37v1.19c0,.15-.05.27-.15.36s-.23.14-.37.14h-1.39Zm.18,13.57c-.15,0-.27-.05-.36-.14s-.14-.22-.14-.36v-10.43c0-.15.05-.27.14-.36.09-.1.22-.14.36-.14h1.06c.15,0,.27.05.36.14s.14.22.14.36v10.43c0,.15-.05.27-.14.36-.1.09-.22.14-.36.14h-1.06Z"/>
      <path class="cls-1" d="m255.96,522.79c-.82,0-1.49-.16-2-.47s-.89-.76-1.12-1.34c-.23-.58-.35-1.26-.35-2.06v-5.81h-1.72c-.15,0-.27-.05-.36-.14-.1-.09-.14-.22-.14-.36v-.75c0-.15.05-.27.14-.36.09-.1.22-.14.36-.14h1.72v-3.67c0-.15.05-.27.14-.36.1-.1.22-.14.36-.14h1.03c.15,0,.27.05.36.14s.14.22.14.36v3.67h2.73c.16,0,.29.05.37.14s.13.22.13.36v.75c0,.15-.04.27-.13.36-.09.1-.21.14-.37.14h-2.73v5.65c0,.69.12,1.23.35,1.63.23.4.65.59,1.25.59h1.34c.15,0,.27.05.36.14s.14.22.14.36v.79c0,.15-.05.27-.14.36s-.22.14-.36.14h-1.52Z"/>
      <path class="cls-1" d="m264.67,523.01c-1.53,0-2.74-.46-3.63-1.4s-1.39-2.2-1.47-3.82c-.01-.19-.02-.44-.02-.74s0-.55.02-.74c.06-1.04.3-1.95.73-2.74.42-.78,1.01-1.39,1.75-1.82.74-.42,1.61-.64,2.61-.64,1.12,0,2.05.24,2.81.7.75.47,1.33,1.14,1.73,2,.4.87.59,1.88.59,3.04v.37c0,.16-.05.29-.14.37-.1.09-.22.13-.36.13h-7.61v.2c.03.6.16,1.16.4,1.68.23.52.58.94,1.02,1.27.45.32.97.48,1.57.48.53,0,.97-.08,1.32-.24.35-.16.64-.34.86-.54.22-.2.37-.36.44-.47.13-.18.23-.28.31-.32.07-.04.19-.05.35-.05h1.08c.13,0,.25.04.34.12.1.08.14.19.12.34-.01.22-.13.49-.35.8-.22.32-.53.63-.94.94s-.9.56-1.5.76-1.26.3-2.01.3Zm-3.01-6.78h6.03v-.07c0-.66-.12-1.25-.36-1.76-.24-.51-.59-.92-1.05-1.22-.45-.3-1-.45-1.63-.45s-1.17.15-1.62.45c-.45.3-.79.71-1.02,1.22s-.35,1.1-.35,1.76v.07Z"/>
      <path class="cls-1" d="m276.59,523.01c-.81,0-1.5-.14-2.09-.43s-1.07-.67-1.44-1.17-.65-1.05-.84-1.68c-.18-.63-.29-1.3-.32-2-.01-.24-.02-.46-.02-.66s0-.43.02-.66c.03-.69.14-1.35.32-1.98.18-.63.46-1.2.84-1.69.37-.5.85-.89,1.44-1.18.59-.29,1.28-.43,2.09-.43.87,0,1.58.15,2.16.46.57.31,1.04.69,1.41,1.14v-5.06c0-.15.05-.27.14-.36s.22-.14.36-.14h1.06c.15,0,.27.05.36.14.1.09.14.22.14.36v14.61c0,.15-.05.27-.14.36-.1.09-.22.14-.36.14h-.99c-.16,0-.29-.05-.37-.14-.09-.1-.13-.22-.13-.36v-.92c-.37.47-.84.86-1.43,1.18s-1.32.47-2.2.47Zm.46-1.78c.73,0,1.32-.17,1.76-.51.44-.34.77-.77.99-1.29.22-.52.34-1.05.35-1.59.01-.23.02-.52.02-.85s0-.61-.02-.85c-.01-.51-.14-1.02-.36-1.52-.23-.5-.56-.91-1.01-1.23-.45-.32-1.02-.48-1.73-.48-.75,0-1.34.17-1.78.5-.44.33-.76.76-.95,1.3s-.3,1.11-.33,1.73c-.01.43-.01.85,0,1.28.03.62.14,1.19.33,1.73.19.54.51.97.95,1.3.44.33,1.03.5,1.78.5Z"/>
      <path class="cls-1" d="m289.57,522.79c-.12,0-.22-.04-.31-.13s-.13-.19-.13-.31c0-.07,0-.15.02-.24l5.46-14.23c.06-.15.14-.26.24-.35.1-.09.26-.13.46-.13h1.5c.21,0,.36.04.46.13.1.09.18.21.24.35l5.43,14.23c.03.09.04.17.04.24,0,.12-.04.22-.13.31s-.19.13-.31.13h-1.12c-.18,0-.3-.04-.39-.13-.08-.09-.14-.17-.16-.24l-1.21-3.12h-7.22l-1.21,3.12c-.01.07-.07.15-.15.24-.09.09-.22.13-.4.13h-1.12Zm3.52-5.39h5.94l-2.97-7.81-2.97,7.81Z"/>
      <path class="cls-1" d="m305.59,522.79c-.15,0-.27-.05-.36-.14-.1-.1-.14-.22-.14-.36v-14.61c0-.15.05-.27.14-.36.1-.1.22-.14.36-.14h1.03c.16,0,.29.05.37.14.09.09.13.22.13.36v14.61c0,.15-.04.27-.13.36-.09.09-.21.14-.37.14h-1.03Z"/>
      <path class="cls-1" d="m310.93,522.79c-.15,0-.27-.05-.36-.14-.1-.1-.14-.22-.14-.36v-14.61c0-.15.05-.27.14-.36.1-.1.22-.14.36-.14h1.03c.16,0,.29.05.37.14.09.09.13.22.13.36v14.61c0,.15-.04.27-.13.36-.09.09-.21.14-.37.14h-1.03Z"/>
      <path class="cls-1" d="m320.44,523.01c-1.12,0-2.05-.21-2.79-.64-.75-.42-1.32-1.02-1.72-1.77-.4-.75-.62-1.62-.66-2.58-.01-.25-.02-.57-.02-.96s0-.7.02-.93c.04-.98.27-1.85.67-2.6.4-.75.98-1.33,1.73-1.76.75-.42,1.67-.64,2.77-.64s2.02.21,2.77.64c.75.43,1.32,1.01,1.73,1.76.4.75.63,1.61.67,2.6.01.23.02.55.02.93s0,.71-.02.96c-.04.97-.26,1.83-.66,2.58-.4.76-.97,1.35-1.72,1.77s-1.68.64-2.79.64Zm0-1.69c.91,0,1.63-.29,2.18-.87.54-.58.84-1.43.88-2.54.01-.22.02-.5.02-.84s0-.62-.02-.84c-.04-1.12-.34-1.96-.88-2.54-.54-.58-1.27-.87-2.18-.87s-1.64.29-2.19.87-.84,1.43-.87,2.54c-.01.22-.02.5-.02.84s0,.62.02.84c.03,1.11.32,1.96.87,2.54s1.28.87,2.19.87Z"/>
      <path class="cls-1" d="m331.11,522.79c-.19,0-.34-.05-.44-.14-.1-.1-.19-.23-.26-.41l-3.12-10.21c-.03-.07-.04-.15-.04-.22,0-.13.05-.24.14-.33.1-.09.2-.13.32-.13h.97c.16,0,.29.04.37.13.09.09.15.17.18.24l2.44,8.29,2.62-8.21c.03-.1.09-.21.19-.31.1-.1.24-.15.43-.15h.75c.19,0,.34.05.44.15s.16.21.18.31l2.62,8.21,2.44-8.29c.01-.07.07-.15.15-.24.09-.09.21-.13.37-.13h.99c.12,0,.22.04.31.13.09.09.13.2.13.33,0,.07-.01.15-.04.22l-3.1,10.21c-.06.18-.14.31-.24.41-.1.09-.26.14-.48.14h-.86c-.19,0-.35-.05-.47-.14-.12-.1-.21-.23-.25-.41l-2.55-7.88-2.55,7.88c-.06.18-.15.31-.26.41-.12.09-.28.14-.48.14h-.86Z"/>
    </g>
    <g>
      <path class="cls-2" d="m268.84,192.84c-.37,0-.74-.14-1.01-.39l-16.45-15.08c-.61-.56-.65-1.51-.09-2.12.56-.61,1.51-.65,2.12-.09l15.34,14.07,14.07-15.34c.56-.61,1.51-.65,2.12-.09.61.56.65,1.51.09,2.12l-15.08,16.45c-.27.29-.64.47-1.04.48-.02,0-.04,0-.06,0Z"/>
      <path class="cls-2" d="m268.84,325.84c-.37,0-.74-.14-1.01-.39l-16.45-15.08c-.61-.56-.65-1.51-.09-2.12.56-.61,1.51-.65,2.12-.09l15.34,14.07,14.07-15.34c.56-.61,1.51-.65,2.12-.09.61.56.65,1.51.09,2.12l-15.08,16.45c-.27.29-.64.47-1.04.48-.02,0-.04,0-.06,0Z"/>
      <path class="cls-2" d="m268.84,458.84c-.37,0-.74-.14-1.01-.39l-16.45-15.08c-.61-.56-.65-1.51-.09-2.12.56-.61,1.51-.65,2.12-.09l15.34,14.07,14.07-15.34c.56-.61,1.51-.65,2.12-.09.61.56.65,1.51.09,2.12l-15.08,16.45c-.27.29-.64.47-1.04.48-.02,0-.04,0-.06,0Z"/>
    </g>
  </g>
</svg>