<?xml version="1.0" encoding="utf-8"?>
<!-- Generator: Adobe Illustrator 28.0.0, SVG Export Plug-In . SVG Version: 6.00 Build 0)  -->
<svg version="1.1" id="Layer_2_00000086654005643843777310000011264809468837787559_"
	 xmlns="http://www.w3.org/2000/svg" xmlns:xlink="http://www.w3.org/1999/xlink" x="0px" y="0px" viewBox="0 0 3084.7 816.2"
	 style="enable-background:new 0 0 3084.7 816.2;" xml:space="preserve">
<style type="text/css">
	.st0{fill:none;stroke:#E9E8EF;stroke-width:2;stroke-miterlimit:10;}
	.st1{fill:none;stroke:#E9E8EE;stroke-width:2;stroke-miterlimit:10;}
</style>
<g id="bg_elements">
	<g>
		<g>
			<polyline class="st0" points="1535.7,815.1 1535.6,815.1 1461.9,815.1 1388.2,815.1 1314.5,815.1 1240.8,815.1 1167.1,815.1 
				1093.3,815.1 1019.6,815.1 945.9,815.1 872.2,815.1 798.5,815.1 724.8,815.1 651.1,815.1 577.3,815.1 503.6,815.1 429.9,815.1 
				356.2,815.1 282.5,815.1 208.8,815.1 135.1,815.1 61.4,815.1 0.7,815.1 			"/>
			<polyline class="st0" points="1535.7,724.8 1535.6,724.8 1461.9,724.8 1388.2,724.8 1314.5,724.8 1240.8,724.8 1167.1,724.8 
				1093.3,724.8 1019.6,724.8 945.9,724.8 872.2,724.8 798.5,724.8 724.8,724.8 651.1,724.8 577.3,724.8 503.6,724.8 429.9,724.8 
				356.2,724.8 282.5,724.8 208.8,724.8 135.1,724.8 102.1,724.8 			"/>
			<polyline class="st0" points="822.1,453.7 798.5,453.7 755.6,453.7 			"/>
			<polyline class="st0" points="1535.7,770 1535.6,770 1461.9,770 1388.2,770 1314.5,770 1240.8,770 1167.1,770 1093.3,770 
				1019.6,770 945.9,770 872.2,770 798.5,770 724.8,770 651.1,770 577.3,770 503.6,770 429.9,770 356.2,770 282.5,770 208.8,770 
				135.1,770 61.4,770 48.8,770 			"/>
			<polyline class="st0" points="228.1,634.4 282.5,634.4 356.2,634.4 429.9,634.4 503.6,634.4 577.3,634.4 651.1,634.4 
				724.8,634.4 798.5,634.4 872.2,634.4 945.9,634.4 1019.6,634.4 1093.3,634.4 1167.1,634.4 1240.8,634.4 1314.5,634.4 
				1382.4,634.4 1388.2,634.4 			"/>
			<polyline class="st0" points="1168.5,544 1167.1,544 1093.3,544 1019.6,544 945.9,544 872.2,544 798.5,544 724.8,544 651.1,544 
				577.3,544 503.6,544 429.9,544 396.1,544 			"/>
			<polyline class="st0" points="1479.7,679.6 1461.9,679.6 1388.2,679.6 1314.5,679.6 1240.8,679.6 1167.1,679.6 1093.3,679.6 
				1019.6,679.6 945.9,679.6 872.2,679.6 798.5,679.6 724.8,679.6 651.1,679.6 577.3,679.6 503.6,679.6 429.9,679.6 356.2,679.6 
				282.5,679.6 208.8,679.6 161.3,679.6 			"/>
			<line class="st0" x1="1535.7" y1="679.6" x2="1535.6" y2="679.6"/>
			<polyline class="st0" points="1038.1,498.9 1019.6,498.9 945.9,498.9 872.2,498.9 798.5,498.9 724.8,498.9 651.1,498.9 
				577.3,498.9 514.2,498.9 			"/>
			<polyline class="st0" points="1280.8,589.2 1240.8,589.2 1167.1,589.2 1093.3,589.2 1019.6,589.2 945.9,589.2 872.2,589.2 
				798.5,589.2 724.8,589.2 651.1,589.2 577.3,589.2 503.6,589.2 429.9,589.2 356.2,589.2 304.8,589.2 			"/>
			<polyline class="st0" points="429.9,529.6 429.9,544 429.9,589.2 429.9,634.4 429.9,679.6 429.9,724.8 429.9,770 429.9,815.1 			
				"/>
			<polyline class="st0" points="135.1,699 135.1,724.8 135.1,770 135.1,815.1 			"/>
			<polyline class="st0" points="282.5,601.6 282.5,634.4 282.5,679.6 282.5,724.8 282.5,770 282.5,815.1 			"/>
			<polyline class="st0" points="61.4,815.1 61.4,770 61.4,758.9 			"/>
			<polyline class="st0" points="356.2,562.7 356.2,589.2 356.2,634.4 356.2,679.6 356.2,724.8 356.2,770 356.2,815.1 			"/>
			<polyline class="st0" points="577.3,480.8 577.3,498.9 577.3,544 577.3,589.2 577.3,634.4 577.3,679.6 577.3,724.8 577.3,770 
				577.3,815.1 			"/>
			<polyline class="st0" points="208.8,646.8 208.8,679.6 208.8,724.8 208.8,770 208.8,815.1 			"/>
			<polyline class="st0" points="503.6,502.3 503.6,544 503.6,589.2 503.6,634.4 503.6,679.6 503.6,724.8 503.6,770 503.6,815.1 			
				"/>
			<polyline class="st0" points="651.1,465.1 651.1,498.9 651.1,544 651.1,589.2 651.1,634.4 651.1,679.6 651.1,724.8 651.1,770 
				651.1,815.1 			"/>
			<polyline class="st0" points="724.8,815.1 724.8,770 724.8,724.8 724.8,679.6 724.8,634.4 724.8,589.2 724.8,544 724.8,498.9 
				724.8,455.7 724.8,453.7 			"/>
			<polyline class="st0" points="872.2,457.9 872.2,498.9 872.2,544 872.2,589.2 872.2,634.4 872.2,679.6 872.2,724.8 872.2,770 
				872.2,815.1 			"/>
			<polyline class="st0" points="1314.5,603.8 1314.5,634.4 1314.5,679.6 1314.5,724.8 1314.5,770 1314.5,815.1 			"/>
			<polyline class="st0" points="798.5,815.1 798.5,770 798.5,724.8 798.5,679.6 798.5,634.4 798.5,589.2 798.5,544 798.5,498.9 
				798.5,453.7 798.5,453 			"/>
			<polyline class="st0" points="1019.6,815.1 1019.6,770 1019.6,724.8 1019.6,679.6 1019.6,634.4 1019.6,589.2 1019.6,544 
				1019.6,498.9 1019.6,493.1 			"/>
			<polyline class="st0" points="1167.1,815.1 1167.1,770 1167.1,724.8 1167.1,679.6 1167.1,634.4 1167.1,589.2 1167.1,544 
				1167.1,543.5 			"/>
			<polyline class="st0" points="945.9,815.1 945.9,770 945.9,724.8 945.9,679.6 945.9,634.4 945.9,589.2 945.9,544 945.9,498.9 
				945.9,471.7 			"/>
			<polyline class="st0" points="1240.8,572.5 1240.8,589.2 1240.8,634.4 1240.8,679.6 1240.8,724.8 1240.8,770 1240.8,815.1 			"/>
			<polyline class="st0" points="1461.9,671.3 1461.9,679.6 1461.9,724.8 1461.9,770 1461.9,815.1 			"/>
			<polyline class="st0" points="1093.3,517 1093.3,544 1093.3,589.2 1093.3,634.4 1093.3,679.6 1093.3,724.8 1093.3,770 
				1093.3,815.1 			"/>
			<polyline class="st0" points="1388.2,815.1 1388.2,770 1388.2,724.8 1388.2,679.6 1388.2,637.1 1388.2,634.4 			"/>
			<polyline class="st0" points="1535.6,704.9 1535.6,724.8 1535.6,770 1535.6,815.1 			"/>
			<line class="st0" x1="1535.9" y1="815.2" x2="3083.8" y2="815.2"/>
			<polyline class="st0" points="3083.8,724.9 3083.7,724.9 3009.9,724.9 2936.2,724.9 2862.5,724.9 2788.8,724.9 2715.1,724.9 
				2641.4,724.9 2567.7,724.9 2494,724.9 2420.2,724.9 2346.5,724.9 2272.8,724.9 2199.1,724.9 2125.4,724.9 2051.7,724.9 
				1978,724.9 1950.4,724.9 			"/>
			<line class="st0" x1="1582.8" y1="724.9" x2="1535.9" y2="724.9"/>
			<polyline class="st0" points="3083.8,453.8 3083.7,453.8 3009.9,453.8 2936.2,453.8 2862.5,453.8 2788.8,453.8 2715.1,453.8 
				2641.4,453.8 2567.7,453.8 2494,453.8 2420.2,453.8 2346.5,453.8 2272.8,453.8 2201.8,453.8 2199.1,453.8 			"/>
			<polyline class="st0" points="1747.7,770 1683.1,770 1609.4,770 1535.9,770 			"/>
			<polyline class="st0" points="1825.8,770 1830.6,770 1904.3,770 1978,770 2051.7,770 2125.4,770 2199.1,770 2272.8,770 
				2346.5,770 2420.2,770 2494,770 2567.7,770 2641.4,770 2715.1,770 2788.8,770 2862.5,770 2936.2,770 3009.9,770 3083.7,770 
				3083.8,770 			"/>
			<polyline class="st0" points="2056.3,634.5 2125.4,634.5 2199.1,634.5 2272.8,634.5 2346.5,634.5 2420.2,634.5 2494,634.5 
				2567.7,634.5 2641.4,634.5 2715.1,634.5 2788.8,634.5 2862.5,634.5 2936.2,634.5 3009.9,634.5 3083.7,634.5 3083.8,634.5 			"/>
			<polyline class="st0" points="2133.5,544.1 2199.1,544.1 2272.8,544.1 2346.5,544.1 2420.2,544.1 2494,544.1 2567.7,544.1 
				2641.4,544.1 2715.1,544.1 2788.8,544.1 2862.5,544.1 2936.2,544.1 3009.9,544.1 3083.7,544.1 3083.8,544.1 			"/>
			<polyline class="st0" points="2009.8,679.7 2051.7,679.7 2125.4,679.7 2199.1,679.7 2272.8,679.7 2346.5,679.7 2420.2,679.7 
				2494,679.7 2567.7,679.7 2641.4,679.7 2715.1,679.7 2788.8,679.7 2862.5,679.7 2936.2,679.7 3009.9,679.7 3083.7,679.7 
				3083.8,679.7 			"/>
			<polyline class="st0" points="3083.8,499 3083.7,499 3009.9,499 2936.2,499 2862.5,499 2788.8,499 2715.1,499 2641.4,499 
				2567.7,499 2494,499 2420.2,499 2346.5,499 2272.8,499 2199.1,499 2168.2,499 			"/>
			<polyline class="st0" points="3083.8,363.4 3083.7,363.4 3009.9,363.4 2936.2,363.4 2862.5,363.4 2788.8,363.4 2715.1,363.4 
				2641.4,363.4 2567.7,363.4 2494,363.4 2420.2,363.4 2346.5,363.4 2272.8,363.4 2268.4,363.4 			"/>
			<polyline class="st0" points="3083.8,589.3 3083.7,589.3 3009.9,589.3 2936.2,589.3 2862.5,589.3 2788.8,589.3 2715.1,589.3 
				2641.4,589.3 2567.7,589.3 2494,589.3 2420.2,589.3 2346.5,589.3 2272.8,589.3 2199.1,589.3 2125.4,589.3 2096.7,589.3 			"/>
			<polyline class="st0" points="3083.8,408.6 3083.7,408.6 3009.9,408.6 2936.2,408.6 2862.5,408.6 2788.8,408.6 2715.1,408.6 
				2641.4,408.6 2567.7,408.6 2494,408.6 2420.2,408.6 2346.5,408.6 2272.8,408.6 2235,408.6 			"/>
			<polyline class="st0" points="2302.5,318.2 2346.5,318.2 2420.2,318.2 2494,318.2 2567.7,318.2 2641.4,318.2 2715.1,318.2 
				2788.8,318.2 2862.5,318.2 2936.2,318.2 3009.9,318.2 3083.7,318.2 3083.8,318.2 			"/>
			<polyline class="st0" points="1978,705.7 1978,724.9 1978,770 1978,815.2 			"/>
			<polyline class="st0" points="1683.1,758.5 1683.1,770 1683.1,815.2 			"/>
			<polyline class="st0" points="1830.6,769.5 1830.6,770 1830.6,815.2 			"/>
			<polyline class="st0" points="1609.4,815.2 1609.4,770 1609.4,735.2 			"/>
			<polyline class="st0" points="1904.3,749.5 1904.3,770 1904.3,815.2 			"/>
			<polyline class="st0" points="2125.4,554.3 2125.4,589.3 2125.4,634.5 2125.4,679.7 2125.4,724.9 2125.4,770 2125.4,815.2 			"/>
			<line class="st0" x1="1756.8" y1="815.2" x2="1756.8" y2="770.9"/>
			<polyline class="st0" points="2051.7,639.4 2051.7,679.7 2051.7,724.9 2051.7,770 2051.7,815.2 			"/>
			<polyline class="st0" points="2199.1,815.2 2199.1,770 2199.1,724.9 2199.1,679.7 2199.1,634.5 2199.1,589.3 2199.1,544.1 
				2199.1,499 2199.1,457.4 2199.1,453.8 			"/>
			<polyline class="st0" points="2272.8,357.4 2272.8,363.4 2272.8,408.6 2272.8,453.8 2272.8,499 2272.8,544.1 2272.8,589.3 
				2272.8,634.5 2272.8,679.7 2272.8,724.9 2272.8,770 2272.8,815.2 			"/>
			<line class="st0" x1="2420.3" y1="318.2" x2="2420.3" y2="815.2"/>
			<line class="st0" x1="2862.5" y1="318.2" x2="2862.5" y2="815.2"/>
			<line class="st0" x1="2346.5" y1="318.2" x2="2346.5" y2="815.2"/>
			<line class="st0" x1="2567.7" y1="318.2" x2="2567.7" y2="815.2"/>
			<line class="st0" x1="2715.1" y1="318.2" x2="2715.1" y2="815.2"/>
			<line class="st0" x1="2494" y1="318.2" x2="2494" y2="815.2"/>
			<line class="st0" x1="2788.8" y1="318.2" x2="2788.8" y2="815.2"/>
			<line class="st0" x1="3009.9" y1="318.2" x2="3009.9" y2="815.2"/>
			<line class="st0" x1="2641.4" y1="318.2" x2="2641.4" y2="815.2"/>
			<line class="st0" x1="2936.2" y1="318.2" x2="2936.2" y2="815.2"/>
			<line class="st0" x1="3083.7" y1="318.2" x2="3083.7" y2="815.2"/>
			<polyline class="st0" points="3083.8,227.9 3083.7,227.9 3009.9,227.9 2936.2,227.9 2862.5,227.9 2788.8,227.9 2715.1,227.9 
				2641.4,227.9 2567.7,227.9 2494,227.9 2420.2,227.9 2375.9,227.9 			"/>
			<polyline class="st0" points="3083.8,273 3083.7,273 3009.9,273 2936.2,273 2862.5,273 2788.8,273 2715.1,273 2641.4,273 
				2567.7,273 2494,273 2420.2,273 2346.5,273 2338.1,273 			"/>
			<polyline class="st0" points="2463.4,137.5 2494,137.5 2567.7,137.5 2641.4,137.5 2715.1,137.5 2788.8,137.5 2862.5,137.5 
				2936.2,137.5 3009.9,137.5 3083.7,137.5 3083.8,137.5 			"/>
			<polyline class="st0" points="2966.5,47.1 2936.2,47.1 2862.5,47.1 2788.8,47.1 2715.1,47.1 2641.4,47.1 2590.8,47.1 			"/>
			<polyline class="st0" points="2417.1,182.7 2420.2,182.7 2494,182.7 2567.7,182.7 2641.4,182.7 2715.1,182.7 2788.8,182.7 
				2862.5,182.7 2936.2,182.7 3009.9,182.7 3083.7,182.7 3083.8,182.7 			"/>
			<polyline class="st0" points="2749,2 2788.8,2 2801.7,2 			"/>
			<polyline class="st0" points="3048.7,92.3 3009.9,92.3 2936.2,92.3 2862.5,92.3 2788.8,92.3 2715.1,92.3 2641.4,92.3 
				2567.7,92.3 2518.4,92.3 			"/>
			<line class="st0" x1="3083.8" y1="92.3" x2="3083.7" y2="92.3"/>
			<polyline class="st0" points="2420.2,179.4 2420.2,182.7 2420.2,227.9 2420.2,273 2420.2,318.2 			"/>
			<polyline class="st0" points="2862.5,318.2 2862.5,273 2862.5,227.9 2862.5,182.7 2862.5,137.5 2862.5,92.3 2862.5,47.1 
				2862.5,11.1 			"/>
			<polyline class="st0" points="2346.5,318.2 2346.5,273 2346.5,262.6 			"/>
			<polyline class="st0" points="2567.7,318.2 2567.7,273 2567.7,227.9 2567.7,182.7 2567.7,137.5 2567.7,92.3 2567.7,59.8 			"/>
			<polyline class="st0" points="2715.1,5.8 2715.1,47.1 2715.1,92.3 2715.1,137.5 2715.1,182.7 2715.1,227.9 2715.1,273 
				2715.1,318.2 			"/>
			<polyline class="st0" points="2494,318.2 2494,273 2494,227.9 2494,182.7 2494,137.5 2494,111.3 			"/>
			<polyline class="st0" points="2788.8,1.2 2788.8,2 2788.8,47.1 2788.8,92.3 2788.8,137.5 2788.8,182.7 2788.8,227.9 2788.8,273 
				2788.8,318.2 			"/>
			<polyline class="st0" points="3009.9,69.2 3009.9,92.3 3009.9,137.5 3009.9,182.7 3009.9,227.9 3009.9,273 3009.9,318.2 			"/>
			<polyline class="st0" points="2641.4,25 2641.4,47.1 2641.4,92.3 2641.4,137.5 2641.4,182.7 2641.4,227.9 2641.4,273 
				2641.4,318.2 			"/>
			<polyline class="st0" points="2936.2,34.1 2936.2,47.1 2936.2,92.3 2936.2,137.5 2936.2,182.7 2936.2,227.9 2936.2,273 
				2936.2,318.2 			"/>
			<polyline class="st0" points="3083.7,115.8 3083.7,137.5 3083.7,182.7 3083.7,227.9 3083.7,273 3083.7,318.2 			"/>
		</g>
		<path class="st1" d="M3083.7,115.8c-11.5-8.2-23.2-16-34.9-23.5c-12.8-8.1-25.7-15.8-38.8-23.1c-14.4-8-28.9-15.4-43.4-22.1
			c-10.1-4.7-20.1-9-30.3-13c-24.5-9.7-49.1-17.5-73.7-23c-20.3-4.6-40.6-7.7-60.8-9.1l-12.9-0.7c-7.7-0.3-15.4-0.3-23.1-0.1
			c-5.6,0.2-11.2,0.4-16.7,0.8c-11.5,0.8-22.8,2.1-33.9,3.9c-25.5,4-50,10.5-73.7,19.1c-17.3,6.3-34.1,13.7-50.6,22.2
			c-7.8,4-15.5,8.2-23.1,12.7c-16.8,9.8-33.2,20.7-49.2,32.5c-8.3,6.1-16.4,12.4-24.5,19c-10.3,8.4-20.5,17.1-30.5,26.2
			c-14.7,13.3-29.1,27.3-43.2,41.9c-1.1,1.1-2.1,2.2-3.2,3.3c-14,14.6-27.7,29.7-41.2,45.2c-9.9,11.4-19.7,23-29.3,34.8
			c-2.8,3.5-5.6,6.9-8.5,10.4c-12,14.9-23.9,30-35.6,45.2c-10,13-19.9,26.1-29.7,39.2c-1.5,2-3,4-4.5,6
			c-11.2,15-22.3,30.1-33.4,45.2c-11.1,15.1-22.2,30.2-33.2,45.2c-0.9,1.2-1.8,2.5-2.7,3.7c-10.3,14-20.6,27.9-30.9,41.5
			c-11.6,15.4-23.1,30.5-34.7,45.2c-2.7,3.4-5.4,6.8-8.1,10.2c-9.6,12-19.1,23.7-28.8,35c-13.3,15.8-26.8,30.9-40.3,45.2
			c-1.5,1.6-3.1,3.2-4.6,4.9c-13.8,14.3-27.7,27.8-41.9,40.3c-10.5,9.3-21.1,18-31.8,26c-9.1,6.8-18.3,13.2-27.6,19.1
			c-15.1,9.6-30.4,17.8-46.1,24.6c-22.8,9.8-46.2,16.6-70.6,19.7c-1,0.1-2.1,0.3-3.1,0.4c-1.6,0.2-3.2,0.4-4.8,0.5
			c-23.3,2.5-46.2,2.6-68.9,0.8c-3-0.2-6.1-0.5-9.1-0.8c-21.5-2.2-42.9-6.2-64.6-11.6c-24.1-6-48.6-13.9-73.7-23.3
			c-8.8-3.3-17.7-6.7-26.6-10.3c-15.4-6.2-31.1-12.9-47.2-20c-18.1-8-36.7-16.4-55.9-25.3c-5.9-2.7-11.8-5.5-17.8-8.3
			c-23.5-10.9-48-22.4-73.7-34.2c-1.9-0.9-3.8-1.8-5.8-2.7c-21.7-10-44.3-20.2-67.9-30.6c-11-4.8-22.2-9.7-33.7-14.6
			c-13-5.6-26.4-11.2-40.1-16.8c-23.1-9.5-47.2-19-72.2-28.4c-0.5-0.2-1-0.4-1.5-0.5c-23.7-8.9-48.2-17.8-73.7-26.5
			c-17.9-6.1-36.3-12.2-55.2-18.2c-6.1-1.9-12.3-3.9-18.5-5.8c-19.8-6.1-40.1-12.1-61-18c-4.2-1.2-8.5-2.3-12.8-3.4
			c-23.9-6.1-48.5-10.7-73.7-13.8c-16.5-2-33.2-3.5-50.1-4.2c-7.8-0.4-15.7-0.6-23.7-0.7c-14.2-0.2-28.5,0.1-42.9,0.7
			c-10.2,0.5-20.5,1.1-30.8,2c-24.3,2-48.9,5.2-73.7,9.4c-24.4,4.2-49,9.4-73.7,15.7c-21,5.3-42,11.3-63.1,18.1
			c-3.5,1.1-7.1,2.3-10.6,3.5c-24.6,8.1-49.2,17.3-73.7,27.3c-11.3,4.6-22.5,9.4-33.8,14.4c-13.3,5.9-26.7,12.1-39.9,18.6
			c-17.2,8.4-34.4,17.3-51.5,26.6c-7.4,4-14.9,8.2-22.2,12.4c-18.3,10.4-36.5,21.4-54.4,32.8c-6.4,4.1-12.9,8.2-19.3,12.5
			c-16,10.5-31.8,21.5-47.5,32.7c-8.8,6.3-17.6,12.8-26.2,19.4c-11.1,8.4-22.1,17-33,25.8c-13.8,11.1-27.3,22.5-40.7,34.1
			c-4.2,3.7-8.4,7.3-12.5,11c-16.4,14.6-32.4,29.7-48.1,45.2"/>
	</g>
</g>
<path class="st1" d="M1878.2-595.3c-6.1-4.3-217.6-146.3-223.9-150.3c-6.8-4.3-13.7-8.4-20.6-12.3c-7.6-4.2-15.3-8.2-23.1-11.8
	c-5.3-2.5-10.7-4.8-16.1-6.9c-13-5.2-26.1-9.3-39.2-12.2c-10.8-2.4-21.6-4.1-32.3-4.9l-6.9-0.4c-4.1-0.2-8.2-0.2-12.3-0.1
	c-3,0.1-5.9,0.2-8.9,0.4c-6.1,0.4-12.1,1.1-18,2.1c-13.5,2.1-26.6,5.6-39.2,10.2c-9.2,3.3-18.1,7.3-26.9,11.8
	c-4.1,2.1-8.2,4.4-12.3,6.7c-8.9,5.2-17.7,11-26.2,17.3c-4.4,3.2-8.7,6.6-13,10.1c-5.5,4.5-10.9,9.1-16.2,13.9
	c-7.8,7.1-15.5,14.5-23,22.3c-0.6,0.6-1.1,1.2-1.7,1.8c-7.4,7.7-14.7,15.8-21.9,24c-5.3,6-10.4,12.2-15.6,18.5
	c-1.5,1.8-3,3.7-4.5,5.5c-6.4,7.9-12.7,15.9-18.9,24c-5.3,6.9-10.6,13.9-15.8,20.8c-0.8,1.1-1.6,2.1-2.4,3.2c-6,8-11.9,16-17.7,24
	c-5.9,8-11.8,16.1-17.6,24c-0.5,0.6-1,1.3-1.4,2c-5.5,7.4-11,14.8-16.4,22.1c-6.1,8.2-12.3,16.2-18.5,24c-1.4,1.8-2.9,3.6-4.3,5.4
	c-5.1,6.4-10.2,12.6-15.3,18.6c-7.1,8.4-14.2,16.4-21.4,24c-0.8,0.9-1.6,1.7-2.5,2.6c-7.3,7.6-14.7,14.8-22.3,21.4
	c-5.6,4.9-11.2,9.6-16.9,13.8c-4.8,3.6-9.7,7-14.7,10.2c-8,5.1-16.2,9.5-24.5,13.1c-12.1,5.2-24.6,8.8-37.5,10.5
	c-0.5,0.1-1.1,0.1-1.6,0.2c-0.9,0.1-1.7,0.2-2.5,0.3c-12.4,1.3-24.6,1.4-36.6,0.4c-1.6-0.1-3.2-0.3-4.8-0.4
	c-11.4-1.2-22.8-3.3-34.3-6.2c-12.8-3.2-25.8-7.4-39.2-12.4c-4.7-1.7-9.4-3.6-14.2-5.5c-8.2-3.3-16.5-6.8-25.1-10.6
	c-9.6-4.2-19.5-8.7-29.7-13.5c-3.1-1.4-6.3-2.9-9.5-4.4c-12.5-5.8-25.5-11.9-39.2-18.2c-1-0.5-2-0.9-3.1-1.4
	c-11.6-5.3-23.6-10.8-36.1-16.3c-5.8-2.6-11.8-5.2-17.9-7.7c-6.9-3-14-5.9-21.3-8.9c-12.3-5-25.1-10.1-38.4-15.1
	c-0.3-0.1-0.5-0.2-0.8-0.3c-12.6-4.7-25.6-9.4-39.2-14.1c-9.5-3.3-19.3-6.5-29.3-9.7c-3.3-1-6.5-2.1-9.8-3.1
	c-10.5-3.2-21.3-6.4-32.4-9.5c-2.2-0.6-4.5-1.2-6.8-1.8c-12.7-3.3-25.8-5.7-39.2-7.3c-8.7-1.1-17.6-1.8-26.6-2.3
	c-4.2-0.2-8.4-0.3-12.6-0.4c-7.5-0.1-15.1,0-22.8,0.4c-5.4,0.2-10.9,0.6-16.4,1.1c-12.9,1.1-26,2.8-39.2,5c-13,2.2-26.1,5-39.2,8.3
	c-11.2,2.8-22.3,6-33.5,9.6c-1.9,0.6-3.8,1.2-5.6,1.8c-13.1,4.3-26.1,9.2-39.2,14.5c-6,2.5-12,5-18,7.7c-7.1,3.2-14.2,6.5-21.2,9.9
	c-9.2,4.5-18.3,9.2-27.4,14.1c-4,2.2-7.9,4.3-11.8,6.6c-9.7,5.5-19.4,11.4-28.9,17.4c-3.4,2.2-6.8,4.4-10.2,6.6
	c-8.5,5.6-16.9,11.4-25.2,17.4c-4.7,3.4-9.3,6.8-13.9,10.3c-5.9,4.5-11.8,9-17.5,13.7c-7.3,5.9-14.5,11.9-21.6,18.1
	c-2.2,1.9-4.4,3.9-6.7,5.9c-8.7,7.8-17.2,15.8-25.6,24"/>
</svg>
