<?xml version="1.0" encoding="utf-8"?>
<!-- Generator: Adobe Illustrator 28.3.0, SVG Export Plug-In . SVG Version: 6.00 Build 0)  -->
<svg version="1.1" id="Layer_2_00000086687779879827515030000011460578816840258721_"
	 xmlns="http://www.w3.org/2000/svg" xmlns:xlink="http://www.w3.org/1999/xlink" x="0px" y="0px" viewBox="0 0 660.5 752.8"
	 style="enable-background:new 0 0 660.5 752.8;" xml:space="preserve">
<style type="text/css">
	.st0{fill:none;stroke:#3C153B;stroke-width:3;stroke-miterlimit:10;}
	.st1{fill:none;stroke:#3C153B;stroke-width:6;stroke-miterlimit:10;}
	.st2{fill:#3C153B;stroke:#3C153B;stroke-width:4;stroke-miterlimit:10;}
	.st3{fill:#3C153B;stroke:#3C153B;stroke-width:10;stroke-miterlimit:10;}
	.st4{fill:none;stroke:#3C153B;stroke-width:5;stroke-miterlimit:10;}
</style>
<path class="st0" d="M330.5,15.3c42.5,0,83.7,8.3,122.5,24.7c37.5,15.8,71.1,38.5,100,67.4s51.6,62.5,67.4,100
	c16.4,38.8,24.7,80,24.7,122.5s-8.3,83.7-24.7,122.5c-15.8,37.5-38.5,71.1-67.4,100s-62.5,51.6-100,67.4
	c-38.8,16.4-80,24.7-122.5,24.7s-83.7-8.3-122.5-24.7c-37.5-15.8-71.1-38.5-100-67.4s-51.6-62.5-67.4-100
	c-16.4-38.8-24.7-80-24.7-122.5s8.3-83.7,24.7-122.5c15.8-37.5,38.5-71.1,67.4-100S170.5,55.8,208,40
	C246.9,23.6,288.1,15.3,330.5,15.3 M330.5,14.3c-174.3,0-315.6,141.3-315.6,315.6s141.3,315.6,315.6,315.6s315.6-141.3,315.6-315.6
	S504.9,14.3,330.5,14.3L330.5,14.3L330.5,14.3z"/>
<line class="st1" x1="35.5" y1="219.6" x2="625.6" y2="440.3"/>
<line class="st1" x1="43.9" y1="460.5" x2="617.2" y2="199.4"/>
<line class="st1" x1="461.1" y1="616.6" x2="200" y2="43.3"/>
<line class="st1" x1="220.2" y1="625" x2="440.9" y2="34.9"/>
<g>
	
		<rect x="549.7" y="87.9" transform="matrix(0.7071 -0.7071 0.7071 0.7071 90.804 424.3671)" class="st2" width="15.9" height="29.3"/>
	
		<rect x="436.2" y="13.4" transform="matrix(0.3835 -0.9235 0.9235 0.3835 247.9106 427.4965)" class="st2" width="15.9" height="29.3"/>
	
		<rect x="209.1" y="617.8" transform="matrix(0.3835 -0.9235 0.9235 0.3835 -450.3276 590.3618)" class="st2" width="15.9" height="29.3"/>
	
		<rect x="449" y="615.9" transform="matrix(0.9242 -0.3819 0.3819 0.9242 -203.1028 224.3599)" class="st2" width="29.3" height="15.9"/>
	
		<rect x="182.8" y="28.6" transform="matrix(0.9242 -0.3819 0.3819 0.9242 1.0022 78.1734)" class="st2" width="29.3" height="15.9"/>
	
		<rect x="87.6" y="93.4" transform="matrix(0.7071 -0.7071 0.7071 0.7071 -41.7004 102.0006)" class="st2" width="29.3" height="15.9"/>
	
		<rect x="544.3" y="550" transform="matrix(0.7071 -0.7071 0.7071 0.7071 -230.8043 558.627)" class="st2" width="29.3" height="15.9"/>
	
		<rect x="94.3" y="543.3" transform="matrix(0.7071 -0.7071 0.7071 0.7071 -364.5837 235.708)" class="st2" width="15.9" height="29.3"/>
	
		<rect x="13.1" y="209.4" transform="matrix(0.3453 -0.9385 0.9385 0.3453 -185.782 168.3861)" class="st2" width="29.3" height="15.9"/>
	
		<rect x="618.8" y="435.2" transform="matrix(0.3453 -0.9385 0.9385 0.3453 -1.192 884.6458)" class="st2" width="29.3" height="15.9"/>
	
		<rect x="616.9" y="181.9" transform="matrix(0.9385 -0.3453 0.3453 0.9385 -29.4307 227.8475)" class="st2" width="15.9" height="29.3"/>
	
		<rect x="28.4" y="449.3" transform="matrix(0.9385 -0.3453 0.3453 0.9385 -157.9606 41.0894)" class="st2" width="15.9" height="29.3"/>
	<rect x="316.2" class="st2" width="29.3" height="15.9"/>
	<rect x="316.2" y="644.7" class="st2" width="29.3" height="15.9"/>
	<rect x="644.7" y="315" class="st2" width="15.9" height="29.3"/>
	<rect y="315" class="st2" width="15.9" height="29.3"/>
</g>
<g>
	<line class="st1" x1="284.6" y1="548.7" x2="203.4" y2="752.1"/>
	<line class="st1" x1="384.5" y1="547" x2="465.7" y2="750.5"/>
</g>
<rect x="186.8" y="724.4" class="st3" width="295.5" height="23.7"/>
<path class="st4" d="M330.5,107.7c30,0,59.1,5.8,86.5,17.4c26.4,11.1,50.2,27.2,70.7,47.6s36.4,44.1,47.6,70.7
	c11.6,27.4,17.4,56.5,17.4,86.5c0,29.9-5.8,59.1-17.4,86.5C524,442.8,508,466.6,487.6,487c-20.4,20.4-44.1,36.4-70.7,47.6
	c-27.4,11.6-56.5,17.4-86.5,17.4s-59.1-5.8-86.5-17.4c-26.4-11.2-50.2-27.2-70.7-47.6c-20.4-20.4-36.4-44.1-47.6-70.7
	c-11.6-27.4-17.4-56.5-17.4-86.5c0-29.9,5.8-59.1,17.4-86.5c11.1-26.4,27.2-50.2,47.6-70.7s44.1-36.4,70.7-47.6
	C271.4,113.6,300.6,107.7,330.5,107.7 M330.5,106.8c-123.2,0-223.1,99.9-223.1,223.1S207.3,553,330.5,553s223.1-99.9,223.1-223.1
	S453.7,106.8,330.5,106.8L330.5,106.8z"/>
</svg>
