<?xml version="1.0" encoding="UTF-8"?>
<svg id="Layer_2" data-name="Layer 2" xmlns="http://www.w3.org/2000/svg" viewBox="0 0 569.1 232.48">
  <defs>
    <style>
      .cls-1 {
        stroke-width: 2px;
      }

      .cls-1, .cls-2 {
        fill: none;
      }

      .cls-1, .cls-2, .cls-3, .cls-4, .cls-5 {
        stroke: #3b153a;
        stroke-miterlimit: 10;
      }

      .cls-2, .cls-3 {
        stroke-width: 4px;
      }

      .cls-6 {
        stroke-width: 0px;
      }

      .cls-6, .cls-3, .cls-4, .cls-5 {
        fill: #3b153a;
      }

      .cls-4 {
        stroke-width: .5px;
      }

      .cls-5 {
        stroke-width: .25px;
      }
    </style>
  </defs>
  <g id="logo">
    <g>
      <g>
        <path class="cls-6" d="m25.77,216.36c0,3.79,2.13,6.85,4.76,6.85h42.18c2.63,0,4.76-3.06,4.76-6.85v-57.58c0-3.02-2.04-5.47-4.56-5.47H30.33c-2.52,0-4.56,2.45-4.56,5.47v57.58Z"/>
        <circle class="cls-6" cx="51.62" cy="121.51" r="20.73"/>
        <path class="cls-6" d="m72.71,9.26H4.76c-2.63,0-4.76,3.07-4.76,6.86v49.27c0,3.74,2.08,6.78,4.67,6.85l16.42.37c2.6.06,4.68,3.11,4.68,6.85v4.77c0,3.02,2.04,5.47,4.55,5.47h42.6c2.51,0,4.55-2.45,4.55-5.47V16.12c0-3.79-2.13-6.86-4.76-6.86Z"/>
      </g>
      <path class="cls-2" d="m317.66,111.08c-.45-9.76-2.19-19.19-5.05-28.12-1.03-3.24-2.21-6.4-3.53-9.5-4.85-11.39-11.59-21.79-19.82-30.8-2.28-2.5-4.67-4.89-7.18-7.16-7.11-6.48-15.08-12.02-23.72-16.46-3-1.54-6.07-2.94-9.23-4.2-11.07-4.43-23.05-7.1-35.57-7.65-1.64-.08-3.29-.12-4.95-.12s-3.46.04-5.19.12c-9.87.46-19.39,2.23-28.4,5.14-3.24,1.04-6.4,2.23-9.5,3.57-11.23,4.83-21.49,11.48-30.4,19.6-2.5,2.27-4.9,4.66-7.18,7.16-7.17,7.85-13.21,16.75-17.85,26.46h0c-1.02,2.15-1.98,4.32-2.87,6.54-4.41,11.03-7.09,22.95-7.66,35.42-.08,1.71-.12,3.44-.12,5.16s.03,3.33.12,4.97c.44,9.9,2.2,19.45,5.12,28.5.95,2.97,2.03,5.89,3.23,8.75l.02.04c4.85,11.55,11.63,22.08,19.94,31.21,2.28,2.5,4.67,4.89,7.16,7.18,7.15,6.54,15.18,12.13,23.9,16.59,3,1.54,6.08,2.93,9.23,4.19,10.99,4.39,22.86,7.04,35.27,7.62,1.72.08,3.45.12,5.19.12s3.31-.03,4.95-.12c10.43-.46,20.47-2.38,29.93-5.57h.03c2.74-.94,5.43-1.97,8.06-3.11,11.31-4.84,21.63-11.55,30.59-19.73h0c2.49-2.28,4.88-4.67,7.16-7.17,7.27-7.98,13.38-17.06,18.04-26.94v-.02c.9-1.88,1.74-3.79,2.52-5.74,4.49-11.14,7.2-23.2,7.75-35.81.08-1.65.12-3.31.12-4.97s-.04-3.45-.12-5.16Z"/>
      <g>
        <g>
          <polyline class="cls-1" points="208.52 150.44 208.52 201.97 208.52 206.17 208.52 224.99 208.52 225.08"/>
          <polyline class="cls-1" points="208.52 79.96 208.52 30.27 208.52 26.07 208.52 7.49 208.52 7.16"/>
          <polyline class="cls-1" points="285.57 39.07 272.2 52.45 269.22 55.42 230.41 94.23"/>
          <polyline class="cls-1" points="184.52 140.12 147.82 176.83 144.84 179.79 131.53 193.1 131.48 193.17"/>
          <polyline class="cls-1" points="131.48 39.07 131.86 39.45 144.84 52.45 147.82 55.42 184.52 92.12"/>
          <polyline class="cls-1" points="285.57 193.17 285.5 193.1 272.2 179.79 269.22 176.83 229.3 136.9"/>
          <polyline class="cls-1" points="99.56 116.12 99.87 116.12 118.47 116.12 122.67 116.12 184.52 116.12"/>
          <polyline class="cls-1" points="254.64 116.12 294.37 116.12 298.57 116.12 317.37 116.12 317.48 116.12"/>
          <polyline class="cls-1" points="106.47 154.3 124.16 147.68 128.1 146.21 184.52 125.1"/>
          <polyline class="cls-1" points="243.77 102.94 288.95 86.03 292.89 84.56 310.58 77.94"/>
          <polyline class="cls-1" points="109.36 70.96 126.55 78.79 130.38 80.53 184.52 105.19"/>
          <polyline class="cls-1" points="307.68 161.28 290.5 153.45 286.67 151.71 239.52 130.24"/>
          <polyline class="cls-1" points="253.68 16.96 253.56 17.22 245.85 34.15 244.11 37.98 221.22 88.23"/>
          <polyline class="cls-1" points="163.36 215.28 163.4 215.21 171.19 198.09 172.93 194.27 189.86 157.09"/>
          <polyline class="cls-1" points="170.34 14.07 170.39 14.2 176.96 31.76 178.43 35.7 192.21 72.52"/>
          <polyline class="cls-1" points="246.71 218.17 240.09 200.48 238.61 196.54 218.84 143.72"/>
        </g>
        <g>
          <rect class="cls-3" x="124.89" y="34.72" width="10.14" height="5.49" transform="translate(11.57 102.87) rotate(-45)"/>
          <rect class="cls-3" x="164.17" y="8.96" width="10.14" height="5.49" transform="translate(8.45 65.78) rotate(-22.55)"/>
          <rect class="cls-3" x="242.72" y="218.01" width="10.14" height="5.49" transform="translate(-65.7 111.88) rotate(-22.55)"/>
          <rect class="cls-3" x="157.41" y="215.05" width="10.14" height="5.49" transform="translate(95.51 -45.55) rotate(22.45)"/>
          <rect class="cls-3" x="249.48" y="11.92" width="10.14" height="5.49" transform="translate(24.9 -96.11) rotate(22.45)"/>
          <rect class="cls-3" x="282.42" y="34.3" width="10.14" height="5.49" transform="translate(110.4 -192.43) rotate(45)"/>
          <rect class="cls-3" x="124.47" y="192.25" width="10.14" height="5.49" transform="translate(175.82 -34.48) rotate(45)"/>
          <rect class="cls-3" x="282.42" y="192.25" width="10.14" height="5.49" transform="translate(-53.68 260.4) rotate(-45)"/>
          <rect class="cls-3" x="308.18" y="74.42" width="10.14" height="5.49" transform="translate(277.49 -243.46) rotate(69.8)"/>
          <rect class="cls-3" x="98.71" y="152.55" width="10.14" height="5.49" transform="translate(213.68 4.27) rotate(69.8)"/>
          <rect class="cls-3" x="101.66" y="67.24" width="10.14" height="5.49" transform="translate(209.27 -6.01) rotate(110.2)"/>
          <rect class="cls-3" x="305.22" y="159.73" width="10.14" height="5.49" transform="translate(569.93 -72.62) rotate(110.2)"/>
          <rect class="cls-3" x="203.34" y="2" width="10.14" height="5.49"/>
          <rect class="cls-3" x="203.34" y="224.99" width="10.14" height="5.49"/>
          <rect class="cls-3" x="92.05" y="113.28" width="10.14" height="5.49" transform="translate(213.15 18.91) rotate(90)"/>
          <rect class="cls-3" x="315.04" y="113.28" width="10.14" height="5.49" transform="translate(436.14 -204.08) rotate(90)"/>
        </g>
        <path class="cls-5" d="m229.3,136.9l-10.45,6.82-10.32,6.73-9.3,6.07c-3.03,1.98-6.53,1.96-9.36.58-3.06-1.5-5.34-4.61-5.34-8.54v-66.7c0-4.88,3.51-8.5,7.69-9.33,2.29-.46,4.78-.08,7.01,1.37l9.3,6.07,12.7,8.28,9.19,5.99,13.35,8.71,6.6,4.3c3.17,2.07,4.59,5.55,4.27,8.88-.26,2.73-1.68,5.36-4.27,7.04l-10.85,7.08-10.22,6.66Z"/>
      </g>
      <path class="cls-2" d="m561.91,111.08c-.45-9.76-2.19-19.19-5.05-28.12-1.03-3.24-2.21-6.4-3.53-9.5-4.85-11.39-11.59-21.79-19.82-30.8-2.28-2.5-4.67-4.89-7.18-7.16-7.11-6.48-15.08-12.02-23.72-16.46-3-1.54-6.07-2.94-9.23-4.2-11.07-4.43-23.05-7.1-35.57-7.65-1.64-.08-3.29-.12-4.95-.12s-3.46.04-5.19.12c-9.87.46-19.39,2.23-28.4,5.14-3.24,1.04-6.4,2.23-9.5,3.57-11.23,4.83-21.49,11.48-30.4,19.6-2.5,2.27-4.9,4.66-7.18,7.16-7.17,7.85-13.21,16.75-17.85,26.46h0c-1.02,2.15-1.98,4.32-2.87,6.54-4.41,11.03-7.09,22.95-7.66,35.42-.08,1.71-.12,3.44-.12,5.16s.03,3.33.12,4.97c.44,9.9,2.2,19.45,5.12,28.5.95,2.97,2.03,5.89,3.23,8.75l.02.04c4.85,11.55,11.63,22.08,19.94,31.21,2.28,2.5,4.67,4.89,7.16,7.18,7.15,6.54,15.18,12.13,23.9,16.59,3,1.54,6.08,2.93,9.23,4.19,10.99,4.39,22.86,7.04,35.27,7.62,1.72.08,3.45.12,5.19.12s3.31-.03,4.95-.12c10.43-.46,20.47-2.38,29.93-5.57h.03c2.74-.94,5.43-1.97,8.06-3.11,11.31-4.84,21.63-11.55,30.59-19.73h0c2.49-2.28,4.88-4.67,7.16-7.17,7.27-7.98,13.38-17.06,18.04-26.94v-.02c.9-1.88,1.74-3.79,2.52-5.74,4.49-11.14,7.2-23.2,7.75-35.81.08-1.65.12-3.31.12-4.97s-.04-3.45-.12-5.16Z"/>
      <g>
        <g>
          <polyline class="cls-1" points="452.77 118.64 452.77 201.97 452.77 206.17 452.77 224.99 452.77 225.08"/>
          <polyline class="cls-1" points="452.77 82.7 452.77 30.27 452.77 26.07 452.77 7.49 452.77 7.16"/>
          <polyline class="cls-1" points="450.22 118.68 392.07 176.83 389.09 179.79 375.78 193.1 375.73 193.17"/>
          <polyline class="cls-1" points="486.18 82.7 513.47 55.42 516.45 52.45 529.82 39.07"/>
          <polyline class="cls-1" points="375.73 39.07 376.11 39.45 389.09 52.45 392.07 55.42 419.36 82.7"/>
          <polyline class="cls-1" points="529.82 193.17 529.75 193.1 516.45 179.79 513.47 176.83 455.49 118.84"/>
          <polyline class="cls-1" points="343.81 116.12 344.12 116.12 362.72 116.12 366.92 116.12 393.24 116.12"/>
          <polyline class="cls-1" points="561.73 116.12 561.62 116.12 542.82 116.12 538.62 116.12 510.72 116.12"/>
          <polyline class="cls-1" points="350.72 154.3 368.41 147.68 372.35 146.21 397.54 136.78"/>
          <polyline class="cls-1" points="554.83 77.94 537.14 84.56 533.2 86.03 508.23 95.37"/>
          <polyline class="cls-1" points="353.61 70.96 370.8 78.79 374.63 80.53 398.23 91.28"/>
          <polyline class="cls-1" points="551.93 161.28 534.75 153.45 530.92 151.71 504.21 139.54"/>
          <polyline class="cls-1" points="497.93 16.96 497.81 17.22 490.1 34.15 488.36 37.98 467.99 82.7"/>
          <polyline class="cls-1" points="407.61 215.28 407.65 215.21 415.44 198.09 417.18 194.27 451.63 118.62"/>
          <polyline class="cls-1" points="414.59 14.07 414.64 14.2 421.21 31.76 422.68 35.7 440.27 82.7"/>
          <polyline class="cls-1" points="490.96 218.17 484.34 200.48 482.86 196.54 453.73 118.68"/>
        </g>
        <g>
          <rect class="cls-3" x="369.14" y="34.72" width="10.14" height="5.49" transform="translate(83.11 275.58) rotate(-45)"/>
          <rect class="cls-3" x="408.42" y="8.96" width="10.14" height="5.49" transform="translate(27.11 159.43) rotate(-22.55)"/>
          <rect class="cls-3" x="486.97" y="218.01" width="10.14" height="5.49" transform="translate(-47.04 205.53) rotate(-22.55)"/>
          <rect class="cls-3" x="401.66" y="215.05" width="10.14" height="5.49" transform="translate(114.02 -138.84) rotate(22.45)"/>
          <rect class="cls-3" x="493.73" y="11.92" width="10.14" height="5.49" transform="translate(43.42 -189.4) rotate(22.45)"/>
          <rect class="cls-3" x="526.67" y="34.3" width="10.14" height="5.49" transform="translate(181.94 -365.15) rotate(45)"/>
          <rect class="cls-3" x="368.72" y="192.25" width="10.14" height="5.49" transform="translate(247.36 -207.2) rotate(45)"/>
          <rect class="cls-3" x="526.67" y="192.25" width="10.14" height="5.49" transform="translate(17.86 433.11) rotate(-45)"/>
          <rect class="cls-3" x="552.43" y="74.42" width="10.14" height="5.49" transform="translate(437.39 -472.68) rotate(69.8)"/>
          <rect class="cls-3" x="342.96" y="152.55" width="10.14" height="5.49" transform="translate(373.58 -224.95) rotate(69.8)"/>
          <rect class="cls-3" x="345.91" y="67.24" width="10.14" height="5.49" transform="translate(537.87 -235.24) rotate(110.2)"/>
          <rect class="cls-3" x="549.48" y="159.73" width="10.14" height="5.49" transform="translate(898.53 -301.84) rotate(110.2)"/>
          <rect class="cls-3" x="447.59" y="2" width="10.14" height="5.49"/>
          <rect class="cls-3" x="447.59" y="224.99" width="10.14" height="5.49"/>
          <rect class="cls-3" x="336.3" y="113.28" width="10.14" height="5.49" transform="translate(457.4 -225.35) rotate(90)"/>
          <rect class="cls-3" x="559.29" y="113.28" width="10.14" height="5.49" transform="translate(680.39 -448.33) rotate(90)"/>
        </g>
        <path class="cls-4" d="m508.21,95.83c-.09-.2-.18-.39-.28-.58-3.61-7.43-10.8-12.52-19.03-12.52h-73.77c-6.64,0-12.59,3.31-16.55,8.47-.13.17-.25.34-.38.51-2.87,3.97-4.58,8.96-4.58,14.37v16.18c0,5.21,1.59,10.03,4.27,13.92.63.91,1.31,1.76,2.04,2.56,3.9,4.24,9.28,6.86,15.2,6.86,3.59,0,6.82-2.38,8.12-6.02,4.27-11.94,14.67-20.55,27.01-21.29.46-.04.93-.06,1.4-.06.12,0,.23,0,.35,0,.27,0,.53,0,.79.02.32,0,.63.02.95.05.59.02,1.17.08,1.74.15,11.57,1.41,21.21,9.77,25.27,21.14,1.3,3.64,4.53,6.02,8.13,6.02h0c5.83,0,11.15-2.55,15.03-6.69,3.99-4.24,6.47-10.15,6.47-16.65v-16.18c0-3.67-.79-7.16-2.19-10.25Zm-84.88,13.59c0,.28-.22.51-.5.51h-6.88v6.88c0,.28-.23.5-.51.5h-3.61c-.27,0-.5-.22-.5-.5v-6.88h-6.88c-.28,0-.5-.23-.5-.51v-3.61c0-.27.22-.5.5-.5h6.88v-6.88c0-.28.23-.5.5-.5h3.61c.28,0,.51.22.51.5v6.88h6.88c.28,0,.5.23.5.5v3.61Zm62.25-.22c0,.27-.23.5-.51.5h-3.61c-.27,0-.5-.23-.5-.5v-3.61c0-.28.23-.5.5-.5h3.61c.28,0,.51.22.51.5v3.61Zm7.38,7.38c0,.28-.23.5-.5.5h-3.61c-.28,0-.51-.22-.51-.5v-3.61c0-.27.23-.5.51-.5h3.61c.27,0,.5.23.5.5v3.61Zm0-14.77c0,.28-.23.51-.5.51h-3.61c-.28,0-.51-.23-.51-.51v-3.61c0-.27.23-.5.51-.5h3.61c.27,0,.5.23.5.5v3.61Zm7.38,7.39c0,.27-.22.5-.5.5h-3.61c-.28,0-.5-.23-.5-.5v-3.61c0-.28.22-.5.5-.5h3.61c.28,0,.5.22.5.5v3.61Z"/>
      </g>
    </g>
  </g>
</svg>