<?xml version="1.0" encoding="UTF-8"?>
<svg id="Layer_2" data-name="Layer 2" xmlns="http://www.w3.org/2000/svg" viewBox="0 0 273.23 133.39">
  <defs>
    <style>
      .cls-1 {
        fill: #592059;
      }

      .cls-1, .cls-2 {
        stroke-width: 0px;
      }

      .cls-2 {
        fill: #fff;
      }

      .cls-3 {
        opacity: .75;
      }
    </style>
  </defs>
  <g id="text">
    <g>
      <g class="cls-3">
        <path class="cls-2" d="m224.93,31.28c-1.76,0-3.49.09-5.19.24-5.9-17.15-24.4-29.68-46.32-29.68-15.61,0-29.49,6.36-38.32,16.21C126.4,7.15,111.78,0,95.22,0c-21.04,0-38.93,11.54-45.55,27.63-.46-.01-.91-.03-1.37-.03C21.62,27.6,0,46.13,0,69s21.62,41.4,48.3,41.4c2.63,0,5.2-.19,7.71-.53,8.83,9.83,22.69,16.17,38.28,16.17,13.73,0,26.11-4.92,34.9-12.8,8.44,12.07,23.84,20.16,41.46,20.16s33.48-8.34,41.83-20.71c3.97.91,8.14,1.4,12.45,1.4,26.67,0,48.3-18.53,48.3-41.4s-21.62-41.4-48.3-41.4Z"/>
      </g>
      <g>
        <path class="cls-1" d="m30.72,62.73h1.28c.51,0,.87.11,1.07.32.2.21.27.45.21.71-.19.72-.35,1.41-.48,2.06-.13.65-.21,1.3-.26,1.95-.04.65-.06,1.39-.06,2.22l.19,8.48c0,.24-.08.43-.22.58-.15.15-.34.22-.58.22l-6.08-.03c-.21,0-.4-.07-.54-.22-.15-.15-.22-.34-.22-.58v-2.02c0-.23.08-.43.22-.58.15-.15.33-.22.54-.22l2.56.03v-5.6c0-.75.02-1.45.05-2.11.03-.66.11-1.33.22-2.02s.29-1.41.53-2.18c.11-.28.27-.52.48-.72.21-.2.58-.3,1.09-.3Zm-3.68,2.05c-.24,0-.43-.07-.58-.22s-.22-.34-.22-.58v-2.18c0-.24.07-.43.22-.58s.34-.22.58-.22h8.29c1.9,0,3.49.28,4.77.83,1.28.55,2.24,1.41,2.88,2.56.64,1.15.96,2.63.96,4.45v9.63c0,.24-.07.43-.22.58-.15.15-.33.22-.54.22h-3.04c-.24,0-.43-.07-.58-.22-.15-.15-.22-.33-.22-.54v-9.5c0-1.37-.33-2.41-.99-3.14-.66-.72-1.73-1.09-3.2-1.09h-8.1Z"/>
        <path class="cls-1" d="m48.7,79.27c-.24,0-.43-.07-.58-.22-.15-.15-.22-.34-.22-.58v-16.67c0-.24.07-.43.22-.58s.34-.22.58-.22h3.2c.21,0,.39.07.54.22.15.15.22.34.22.58v16.67c0,.24-.08.43-.22.58-.15.15-.33.22-.54.22h-3.2Z"/>
        <path class="cls-1" d="m57.47,71.75c-.23,0-.43-.08-.58-.22-.15-.15-.22-.34-.22-.58v-9.15c0-.24.07-.43.22-.58.15-.15.34-.22.58-.22h3.2c.21,0,.39.07.54.22s.22.34.22.58v9.15c0,.24-.07.43-.22.58-.15.15-.33.22-.54.22h-3.2Z"/>
        <path class="cls-1" d="m66.24,79.27c-.24,0-.43-.07-.58-.22-.15-.15-.22-.34-.22-.58v-16.67c0-.24.07-.43.22-.58.15-.15.34-.22.58-.22h3.2c.21,0,.39.07.54.22.15.15.22.34.22.58v16.67c0,.24-.08.43-.22.58-.15.15-.33.22-.54.22h-3.2Z"/>
        <path class="cls-1" d="m84.32,75.75c1.19,0,2.24-.24,3.14-.72.9-.48,1.58-1.15,2.06-2,.48-.85.72-1.81.72-2.88v-8.38c0-.21.08-.39.24-.54s.35-.22.56-.22h2.72c.21,0,.39.07.54.22.15.15.22.34.22.58v8.54c0,1.41-.24,2.68-.7,3.82-.47,1.14-1.14,2.11-2,2.91-.86.8-1.86,1.41-2.99,1.84-1.13.43-2.37.63-3.71.61h-2.85c-1.64,0-3.07-.34-4.27-1.01s-2.14-1.57-2.8-2.7c-.66-1.13-.99-2.4-.99-3.81v-10.21c0-.24.07-.43.22-.58s.34-.22.58-.22h2.69c.23,0,.43.07.58.22.15.15.22.33.22.54l.06,8.35c0,1.81.47,3.21,1.41,4.18.94.97,2.11,1.46,3.52,1.46h.83Zm-6.34-2.59l-.03-3.23c1.15-.02,2.04-.23,2.67-.62.63-.39,1.07-.96,1.33-1.68.26-.72.38-1.57.38-2.53v-3.26c0-.26.07-.46.22-.61.15-.15.33-.22.54-.22h2.69c.23,0,.43.08.58.24.15.16.22.36.22.59v3.36c0,1.64-.33,3.06-.99,4.26-.66,1.2-1.63,2.12-2.91,2.77-1.28.65-2.85.96-4.7.94Z"/>
        <path class="cls-1" d="m102.91,77.67c-.83.51-1.6.91-2.3,1.2-.7.29-1.43.51-2.18.66-.21.02-.39,0-.54-.06-.15-.06-.22-.2-.22-.42v-2.88c0-.36.22-.63.67-.8.15-.06.43-.16.85-.29.42-.13.87-.28,1.36-.45s.91-.34,1.25-.51c.49-.28.96-.63,1.42-1.07.46-.44.85-.91,1.18-1.42.33-.51.55-1,.66-1.47l1.86-.03c-.09,1.2-.3,2.28-.64,3.25-.34.97-.8,1.82-1.38,2.54-.58.73-1.24,1.31-1.98,1.76Zm3.46,1.6c-.24,0-.42-.07-.56-.22-.14-.15-.22-.34-.24-.58l-1.92-9.63c-.19-.92-.41-1.67-.64-2.27-.23-.6-.55-1.04-.96-1.34s-.97-.45-1.7-.45h-1.12c-.24,0-.43-.07-.58-.22-.15-.15-.22-.34-.22-.58v-2.37c0-.21.08-.39.22-.54.15-.15.34-.22.58-.22h1.22c1.68,0,3.04.27,4.08.82,1.03.54,1.85,1.39,2.45,2.54.6,1.15,1.08,2.63,1.44,4.45l1.92,9.82c.04.24-.02.43-.19.58-.17.15-.36.22-.58.22h-3.2Z"/>
        <path class="cls-1" d="m113.34,79.27c-.21,0-.39-.07-.54-.22-.15-.15-.22-.34-.22-.58v-2.18c0-.23.07-.43.22-.58s.33-.22.54-.22h9.95v3.07c0,.21-.08.38-.22.51-.15.13-.33.19-.54.19h-9.18Zm6.56,0c-.24,0-.42-.07-.56-.22-.14-.15-.22-.34-.24-.58l-.48-9.86c-.04-.85-.13-1.58-.27-2.18-.14-.6-.39-1.06-.77-1.38s-.94-.48-1.71-.48h-1.54c-.21,0-.39-.08-.54-.22-.15-.15-.22-.34-.22-.58v-2.18c0-.21.07-.39.22-.54s.33-.22.54-.22h1.63c1.34,0,2.48.16,3.41.48.93.32,1.67.81,2.24,1.47.56.66.99,1.48,1.26,2.45.28.97.45,2.11.51,3.41l.48,9.82c.02.24-.05.43-.21.58-.16.15-.35.22-.56.22h-3.2Z"/>
        <path class="cls-1" d="m132.29,62.73h1.28c.51,0,.87.11,1.07.32.2.21.27.45.21.71-.19.72-.35,1.41-.48,2.06-.13.65-.21,1.3-.26,1.95-.04.65-.06,1.39-.06,2.22l.19,8.48c0,.24-.08.43-.22.58-.15.15-.34.22-.58.22l-6.08-.03c-.21,0-.4-.07-.54-.22-.15-.15-.22-.34-.22-.58v-2.02c0-.23.07-.43.22-.58.15-.15.33-.22.54-.22l2.56.03v-5.6c0-.75.02-1.45.05-2.11.03-.66.11-1.33.22-2.02.12-.68.29-1.41.53-2.18.11-.28.27-.52.48-.72.21-.2.58-.3,1.09-.3Zm-3.68,2.05c-.24,0-.43-.07-.58-.22s-.22-.34-.22-.58v-2.18c0-.24.07-.43.22-.58s.34-.22.58-.22h8.29c1.9,0,3.49.28,4.77.83s2.24,1.41,2.88,2.56c.64,1.15.96,2.63.96,4.45v9.63c0,.24-.07.43-.22.58-.15.15-.33.22-.54.22h-3.04c-.24,0-.43-.07-.58-.22-.15-.15-.22-.33-.22-.54v-9.5c0-1.37-.33-2.41-.99-3.14-.66-.72-1.73-1.09-3.2-1.09h-8.1Z"/>
        <path class="cls-1" d="m162.11,79.27c-.21,0-.4-.07-.54-.22-.15-.15-.22-.33-.22-.54v-9.5c0-1.37-.34-2.41-1.01-3.14-.67-.72-1.73-1.09-3.18-1.09h-6.88c-.23,0-.43-.07-.58-.22-.15-.15-.22-.34-.22-.58v-2.18c0-.24.07-.43.22-.58.15-.15.34-.22.58-.22h7.04c2.84,0,4.99.65,6.45,1.95,1.46,1.3,2.19,3.31,2.19,6.02v9.5c0,.24-.08.43-.22.58s-.34.22-.58.22h-3.04Zm-11.84,0c-.23,0-.43-.07-.58-.22-.15-.15-.22-.34-.22-.58v-9.76c0-.21.07-.4.22-.56.15-.16.34-.24.58-.24h3.04c.21,0,.39.08.54.24.15.16.22.35.22.56v9.76c0,.24-.08.43-.22.58-.15.15-.33.22-.54.22h-3.04Z"/>
        <path class="cls-1" d="m181.41,64.94h-4.99c-.23,0-.43-.07-.58-.22-.15-.15-.22-.33-.22-.54v-6.82c0-.23.07-.43.22-.58.15-.15.34-.22.58-.22h2.78c.21,0,.39.08.54.22.15.15.22.34.22.58v3.65h1.47l-.03,3.94Zm-.86,14.72c-.21.04-.41-.02-.58-.19-.17-.17-.26-.36-.26-.58v-2.69c0-.19.07-.38.21-.56.14-.18.33-.31.56-.4l1.09-.45c.66-.28,1.26-.63,1.81-1.06s.98-1,1.31-1.73c.33-.73.5-1.66.5-2.82,0-1.02-.12-1.85-.37-2.48-.25-.63-.66-1.08-1.23-1.36s-1.38-.42-2.4-.42h-.8c-.21,0-.4-.07-.56-.22-.16-.15-.24-.33-.24-.54v-2.4c0-.21.08-.39.24-.54s.35-.22.56-.22h1.7c1.92,0,3.45.3,4.59.9,1.14.6,1.97,1.5,2.48,2.7s.77,2.71.77,4.53c0,1.45-.22,2.74-.67,3.87-.45,1.13-1.06,2.11-1.82,2.93-.77.82-1.63,1.5-2.58,2.05s-1.95.97-2.99,1.26l-1.31.42Z"/>
        <path class="cls-1" d="m194.18,79.27c-.23,0-.43-.07-.58-.22-.15-.15-.22-.34-.22-.58v-16.67c0-.24.07-.43.22-.58s.34-.22.58-.22h3.2c.21,0,.39.07.54.22.15.15.22.34.22.58v16.67c0,.24-.08.43-.22.58-.15.15-.33.22-.54.22h-3.2Z"/>
        <path class="cls-1" d="m206.98,77.67c-.83.51-1.6.91-2.3,1.2-.7.29-1.43.51-2.18.66-.21.02-.39,0-.54-.06-.15-.06-.22-.2-.22-.42v-2.88c0-.36.22-.63.67-.8.15-.06.43-.16.85-.29.42-.13.87-.28,1.36-.45.49-.17.91-.34,1.25-.51.49-.28.96-.63,1.42-1.07.46-.44.85-.91,1.18-1.42.33-.51.55-1,.66-1.47l1.86-.03c-.09,1.2-.3,2.28-.64,3.25-.34.97-.8,1.82-1.38,2.54-.58.73-1.24,1.31-1.98,1.76Zm3.46,1.6c-.23,0-.42-.07-.56-.22-.14-.15-.22-.34-.24-.58l-1.92-9.63c-.19-.92-.41-1.67-.64-2.27-.24-.6-.55-1.04-.96-1.34s-.97-.45-1.7-.45h-1.12c-.24,0-.43-.07-.58-.22-.15-.15-.22-.34-.22-.58v-2.37c0-.21.07-.39.22-.54.15-.15.34-.22.58-.22h1.22c1.69,0,3.04.27,4.08.82s1.85,1.39,2.45,2.54c.6,1.15,1.08,2.63,1.44,4.45l1.92,9.82c.04.24-.02.43-.19.58-.17.15-.36.22-.58.22h-3.2Z"/>
        <path class="cls-1" d="m225.41,79.27c-.24,0-.43-.07-.58-.22-.15-.15-.22-.33-.22-.54v-9.5c0-1.37-.34-2.41-1.01-3.14-.67-.72-1.73-1.09-3.18-1.09h-4.64c-.21,0-.4-.07-.54-.22-.15-.15-.22-.34-.22-.58v-2.18c0-.24.07-.43.22-.58.15-.15.33-.22.54-.22h4.83c1.9,0,3.49.27,4.77.8s2.24,1.37,2.88,2.51c.64,1.14.96,2.64.96,4.5v9.66c0,.24-.08.43-.22.58-.15.15-.33.22-.54.22h-3.04Z"/>
        <path class="cls-1" d="m238.27,62.73h1.28c.51,0,.87.11,1.07.32.2.21.27.45.21.71-.19.72-.35,1.41-.48,2.06-.13.65-.21,1.3-.26,1.95s-.06,1.39-.06,2.22l.19,8.48c0,.24-.08.43-.22.58-.15.15-.34.22-.58.22l-6.08-.03c-.21,0-.39-.07-.54-.22s-.22-.34-.22-.58v-2.02c0-.23.07-.43.22-.58s.33-.22.54-.22l2.56.03v-5.6c0-.75.02-1.45.05-2.11.03-.66.11-1.33.22-2.02s.29-1.41.53-2.18c.11-.28.27-.52.48-.72.21-.2.58-.3,1.09-.3Zm-3.68,2.05c-.23,0-.43-.07-.58-.22s-.22-.34-.22-.58v-2.18c0-.24.07-.43.22-.58s.34-.22.58-.22h8.29c1.9,0,3.49.28,4.77.83,1.28.55,2.24,1.41,2.88,2.56.64,1.15.96,2.63.96,4.45v9.63c0,.24-.08.43-.22.58-.15.15-.33.22-.54.22h-3.04c-.23,0-.43-.07-.58-.22-.15-.15-.22-.33-.22-.54v-9.5c0-1.37-.33-2.41-.99-3.14-.66-.72-1.73-1.09-3.2-1.09h-8.1Z"/>
      </g>
    </g>
  </g>
</svg>