<?xml version="1.0" encoding="UTF-8"?>
<svg id="Layer_2" data-name="Layer 2" xmlns="http://www.w3.org/2000/svg" viewBox="0 0 309.2 150.96">
  <defs>
    <style>
      .cls-1 {
        fill: #3c153b;
      }

      .cls-1, .cls-2 {
        stroke-width: 0px;
      }

      .cls-2 {
        fill: #fff;
      }

      .cls-3 {
        opacity: .75;
      }
    </style>
  </defs>
  <g id="arrows">
    <g>
      <g class="cls-3">
        <path class="cls-2" d="m254.55,35.4c-1.99,0-3.95.1-5.88.27-6.67-19.41-27.61-33.59-52.42-33.59-17.67,0-33.37,7.19-43.36,18.34C143.04,8.09,126.5,0,107.75,0c-23.81,0-44.05,13.05-51.55,31.27-.52-.01-1.03-.03-1.55-.03C24.47,31.23,0,52.21,0,78.08s24.47,46.85,54.66,46.85c2.97,0,5.89-.21,8.73-.6,9.99,11.13,25.68,18.3,43.32,18.3,15.53,0,29.54-5.56,39.49-14.48,9.55,13.66,26.98,22.81,46.92,22.81s37.89-9.43,47.34-23.44c4.5,1.02,9.21,1.58,14.09,1.58,30.19,0,54.66-20.97,54.66-46.85s-24.47-46.85-54.66-46.85Z"/>
      </g>
      <g>
        <path class="cls-1" d="m46.12,70.15h1.36c.54,0,.92.11,1.14.34.21.23.29.48.22.75-.2.77-.37,1.5-.51,2.19s-.23,1.38-.27,2.07c-.04.69-.07,1.48-.07,2.36l.2,9.01c0,.25-.08.45-.24.61s-.36.24-.61.24l-6.46-.03c-.23,0-.42-.08-.58-.24-.16-.16-.24-.36-.24-.61v-2.14c0-.25.08-.45.24-.61s.35-.24.58-.24l2.72.03v-5.95c0-.79.02-1.54.05-2.24.03-.7.11-1.42.24-2.14s.31-1.5.56-2.31c.11-.29.28-.55.51-.76.23-.21.61-.32,1.16-.32Zm-3.91,2.18c-.25,0-.45-.08-.61-.24s-.24-.36-.24-.61v-2.31c0-.25.08-.45.24-.61s.36-.24.61-.24h8.81c2.02,0,3.71.29,5.07.88,1.36.59,2.38,1.5,3.06,2.72.68,1.22,1.02,2.8,1.02,4.73v10.23c0,.25-.08.45-.24.61s-.35.24-.58.24h-3.23c-.25,0-.45-.08-.61-.24-.16-.16-.24-.35-.24-.58v-10.1c0-1.45-.35-2.56-1.05-3.33-.7-.77-1.84-1.16-3.4-1.16h-8.6Z"/>
        <path class="cls-1" d="m65.22,87.73c-.25,0-.45-.08-.61-.24-.16-.16-.24-.36-.24-.61v-17.71c0-.25.08-.45.24-.61.16-.16.36-.24.61-.24h3.4c.23,0,.42.08.58.24.16.16.24.36.24.61v17.71c0,.25-.08.45-.24.61s-.35.24-.58.24h-3.4Z"/>
        <path class="cls-1" d="m74.13,87.73c-.23,0-.42-.08-.58-.25-.16-.17-.24-.38-.24-.63v-4.49c0-1.2.11-2.28.32-3.25.21-.96.62-1.85,1.21-2.67.59-.82,1.45-1.6,2.58-2.35l2.38,3.43c-.63.43-1.11.93-1.41,1.5-.31.57-.5,1.14-.59,1.72-.09.58-.14,1.12-.14,1.62v4.49c0,.27-.08.49-.24.65s-.35.24-.58.24h-2.72Zm12.99,0c-.34,0-.59-.08-.76-.25s-.3-.3-.39-.39l-12.27-17.54c-.11-.16-.17-.33-.17-.51s.07-.34.2-.49c.14-.15.31-.22.51-.22h3.23c.34,0,.59.08.75.25.16.17.28.31.37.42l12.41,17.51c.09.11.15.21.17.29s.03.15.03.22c0,.18-.07.35-.22.49s-.31.22-.49.22h-3.37Zm-.92-6.49l-2.31-3.4c.84-.41,1.43-.85,1.77-1.33.34-.48.55-.97.63-1.48s.12-1.01.12-1.51v-4.32c0-.27.08-.49.24-.65.16-.16.35-.24.58-.24h2.89c.23,0,.42.08.58.25.16.17.24.38.24.63v4.45c0,.93-.12,1.84-.36,2.72-.24.88-.69,1.73-1.36,2.55-.67.82-1.67,1.59-3.01,2.31Z"/>
        <path class="cls-1" d="m105.58,83.99c1.27,0,2.38-.25,3.33-.76s1.68-1.22,2.19-2.12c.51-.91.77-1.93.77-3.06v-8.91c0-.23.08-.42.25-.58s.37-.24.59-.24h2.89c.23,0,.42.08.58.24.16.16.24.36.24.61v9.08c0,1.5-.25,2.85-.75,4.06-.5,1.21-1.21,2.24-2.12,3.09-.92.85-1.98,1.5-3.18,1.96-1.2.45-2.52.67-3.94.65h-3.03c-1.75,0-3.26-.36-4.54-1.07-1.28-.71-2.27-1.67-2.98-2.87s-1.05-2.55-1.05-4.05v-10.85c0-.25.08-.45.24-.61.16-.16.36-.24.61-.24h2.86c.25,0,.45.08.61.24.16.16.24.35.24.58l.07,8.87c0,1.93.5,3.41,1.5,4.44,1,1.03,2.24,1.55,3.74,1.55h.88Zm-6.73-2.75l-.03-3.43c1.22-.02,2.17-.24,2.84-.66.67-.42,1.14-1.01,1.41-1.79.27-.77.41-1.67.41-2.69v-3.47c0-.27.08-.49.24-.65.16-.16.35-.24.58-.24h2.86c.25,0,.45.08.61.25.16.17.24.38.24.63v3.57c0,1.75-.35,3.25-1.05,4.52-.7,1.27-1.73,2.25-3.09,2.94-1.36.69-3.03,1.03-5,1Z"/>
        <path class="cls-1" d="m130.84,87.73c-.25,0-.45-.08-.61-.24-.16-.16-.24-.35-.24-.58v-10.1c0-1.45-.36-2.56-1.07-3.33s-1.84-1.16-3.38-1.16h-4.93c-.23,0-.42-.08-.58-.24-.16-.16-.24-.36-.24-.61v-2.31c0-.25.08-.45.24-.61.16-.16.35-.24.58-.24h5.13c2.02,0,3.71.28,5.07.85,1.36.57,2.38,1.46,3.06,2.67.68,1.21,1.02,2.8,1.02,4.78v10.27c0,.25-.08.45-.24.61-.16.16-.35.24-.58.24h-3.23Z"/>
        <path class="cls-1" d="m152.54,87.73c-.23,0-.42-.08-.58-.24s-.24-.35-.24-.58v-10.1c0-1.45-.36-2.56-1.07-3.33s-1.84-1.16-3.38-1.16h-7.31c-.25,0-.45-.08-.61-.24-.16-.16-.24-.36-.24-.61v-2.31c0-.25.08-.45.24-.61.16-.16.36-.24.61-.24h7.48c3.01,0,5.3.69,6.85,2.07s2.33,3.51,2.33,6.39v10.1c0,.25-.08.45-.24.61s-.36.24-.61.24h-3.23Zm-12.58,0c-.25,0-.45-.08-.61-.24-.16-.16-.24-.36-.24-.61v-10.37c0-.23.08-.42.24-.6.16-.17.36-.25.61-.25h3.23c.23,0,.42.08.58.25.16.17.24.37.24.6v10.37c0,.25-.08.45-.24.61s-.35.24-.58.24h-3.23Z"/>
        <path class="cls-1" d="m173.75,70.15h1.36c.54,0,.92.11,1.14.34.21.23.29.48.22.75-.2.77-.37,1.5-.51,2.19s-.23,1.38-.27,2.07c-.04.69-.07,1.48-.07,2.36l.2,9.01c0,.25-.08.45-.24.61s-.36.24-.61.24l-6.46-.03c-.23,0-.42-.08-.58-.24-.16-.16-.24-.36-.24-.61v-2.14c0-.25.08-.45.24-.61s.35-.24.58-.24l2.72.03v-5.95c0-.79.02-1.54.05-2.24.03-.7.11-1.42.24-2.14s.31-1.5.56-2.31c.11-.29.28-.55.51-.76.23-.21.61-.32,1.16-.32Zm-3.91,2.18c-.25,0-.45-.08-.61-.24s-.24-.36-.24-.61v-2.31c0-.25.08-.45.24-.61s.36-.24.61-.24h8.81c2.02,0,3.71.29,5.07.88,1.36.59,2.38,1.5,3.06,2.72.68,1.22,1.02,2.8,1.02,4.73v10.23c0,.25-.08.45-.24.61s-.35.24-.58.24h-3.23c-.25,0-.45-.08-.61-.24-.16-.16-.24-.35-.24-.58v-10.1c0-1.45-.35-2.56-1.05-3.33-.7-.77-1.84-1.16-3.4-1.16h-8.6Z"/>
        <path class="cls-1" d="m192.28,87.73c-.23,0-.42-.08-.58-.25-.16-.17-.24-.38-.24-.63v-4.49c0-1.2.11-2.28.32-3.25.21-.96.62-1.85,1.21-2.67.59-.82,1.45-1.6,2.58-2.35l2.38,3.43c-.63.43-1.11.93-1.41,1.5-.31.57-.5,1.14-.59,1.72-.09.58-.14,1.12-.14,1.62v4.49c0,.27-.08.49-.24.65s-.35.24-.58.24h-2.72Zm12.99,0c-.34,0-.59-.08-.76-.25s-.3-.3-.39-.39l-12.27-17.54c-.11-.16-.17-.33-.17-.51s.07-.34.2-.49c.14-.15.31-.22.51-.22h3.23c.34,0,.59.08.75.25.16.17.28.31.37.42l12.41,17.51c.09.11.15.21.17.29s.03.15.03.22c0,.18-.07.35-.22.49s-.31.22-.49.22h-3.37Zm-.92-6.49l-2.31-3.4c.84-.41,1.43-.85,1.77-1.33.34-.48.55-.97.63-1.48s.12-1.01.12-1.51v-4.32c0-.27.08-.49.24-.65.16-.16.35-.24.58-.24h2.89c.23,0,.42.08.58.25.16.17.24.38.24.63v4.45c0,.93-.12,1.84-.36,2.72-.24.88-.69,1.73-1.36,2.55-.67.82-1.67,1.59-3.01,2.31Z"/>
        <path class="cls-1" d="m214.01,87.73c-.25,0-.45-.08-.61-.24-.16-.16-.24-.36-.24-.61v-17.71c0-.25.08-.45.24-.61.16-.16.36-.24.61-.24h3.4c.23,0,.42.08.58.24.16.16.24.36.24.61v17.71c0,.25-.08.45-.24.61s-.35.24-.58.24h-3.4Z"/>
        <path class="cls-1" d="m223.49,87.73c-.25,0-.45-.08-.61-.24-.16-.16-.24-.36-.24-.61v-17.71c0-.25.08-.45.24-.61.16-.16.36-.24.61-.24h3.4c.23,0,.42.08.58.24.16.16.24.36.24.61v17.71c0,.25-.08.45-.24.61s-.35.24-.58.24h-3.4Z"/>
        <path class="cls-1" d="m242.7,83.99c1.27,0,2.38-.25,3.33-.76s1.68-1.22,2.19-2.12c.51-.91.77-1.93.77-3.06v-8.91c0-.23.08-.42.25-.58s.37-.24.59-.24h2.89c.23,0,.42.08.58.24.16.16.24.36.24.61v9.08c0,1.5-.25,2.85-.75,4.06-.5,1.21-1.21,2.24-2.12,3.09-.92.85-1.98,1.5-3.18,1.96-1.2.45-2.52.67-3.94.65h-3.03c-1.75,0-3.26-.36-4.54-1.07-1.28-.71-2.27-1.67-2.98-2.87s-1.05-2.55-1.05-4.05v-10.85c0-.25.08-.45.24-.61.16-.16.36-.24.61-.24h2.86c.25,0,.45.08.61.24.16.16.24.35.24.58l.07,8.87c0,1.93.5,3.41,1.5,4.44,1,1.03,2.24,1.55,3.74,1.55h.88Zm-6.73-2.75l-.03-3.43c1.22-.02,2.17-.24,2.84-.66.67-.42,1.14-1.01,1.41-1.79.27-.77.41-1.67.41-2.69v-3.47c0-.27.08-.49.24-.65.16-.16.35-.24.58-.24h2.86c.25,0,.45.08.61.25.16.17.24.38.24.63v3.57c0,1.75-.35,3.25-1.05,4.52-.7,1.27-1.73,2.25-3.09,2.94-1.36.69-3.03,1.03-5,1Z"/>
        <path class="cls-1" d="m271.03,87.73c-.23,0-.42-.08-.58-.24s-.24-.35-.24-.58v-10.1c0-1.45-.36-2.56-1.07-3.33s-1.84-1.16-3.38-1.16h-7.31c-.25,0-.45-.08-.61-.24-.16-.16-.24-.36-.24-.61v-2.31c0-.25.08-.45.24-.61.16-.16.36-.24.61-.24h7.48c3.01,0,5.3.69,6.85,2.07s2.33,3.51,2.33,6.39v10.1c0,.25-.08.45-.24.61s-.36.24-.61.24h-3.23Zm-12.58,0c-.25,0-.45-.08-.61-.24-.16-.16-.24-.36-.24-.61v-10.37c0-.23.08-.42.24-.6.16-.17.36-.25.61-.25h3.23c.23,0,.42.08.58.25.16.17.24.37.24.6v10.37c0,.25-.08.45-.24.61s-.35.24-.58.24h-3.23Z"/>
      </g>
    </g>
  </g>
</svg>