<?xml version="1.0" encoding="UTF-8"?>
<svg id="Layer_2" data-name="Layer 2" xmlns="http://www.w3.org/2000/svg" viewBox="0 0 273.23 133.39">
  <defs>
    <style>
      .cls-1 {
        fill: #592059;
      }

      .cls-1, .cls-2 {
        stroke-width: 0px;
      }

      .cls-2 {
        fill: #fff;
      }

      .cls-3 {
        opacity: .75;
      }
    </style>
  </defs>
  <g id="arrows">
    <g>
      <g class="cls-3">
        <path class="cls-2" d="m224.93,31.28c-1.76,0-3.49.09-5.19.24-5.9-17.15-24.4-29.68-46.32-29.68-15.61,0-29.49,6.36-38.32,16.21C126.4,7.15,111.78,0,95.22,0c-21.04,0-38.93,11.54-45.55,27.63-.46-.01-.91-.03-1.37-.03C21.62,27.6,0,46.13,0,69s21.62,41.4,48.3,41.4c2.63,0,5.2-.19,7.71-.53,8.83,9.83,22.69,16.17,38.28,16.17,13.73,0,26.11-4.92,34.9-12.8,8.44,12.07,23.84,20.16,41.46,20.16s33.48-8.34,41.83-20.71c3.97.91,8.14,1.4,12.45,1.4,26.67,0,48.3-18.53,48.3-41.4s-21.62-41.4-48.3-41.4Z"/>
      </g>
      <g>
        <g>
          <path class="cls-1" d="m47.88,72.32c.61,4.13-5.02,7.69-11.26,7.69h-.14c-4.6,0-9.8-1.36-11.16-4.46-2.2-4.97,9.99-6,9.1-.42-.56,3.47,3.85,3.24,4.55,1.13,1.78-5.35-12.81-5.72-13.23-12.15-.33-4.74,4.93-7.65,11.3-7.65h.14c3.71,0,7.74,1.41,9.15,4.5,2.02,4.5-7.27,5.3-8.3.42-.89-3.99-3.94-3.1-3.56-.19.61,4.64,12.52,5.63,13.42,11.12Z"/>
          <path class="cls-1" d="m74.29,60.92c-1.36,1.88-1.92,12.38-.23,14.4.52.66,1.13,1.69,1.13,2.53,0,1.83-2.63,2.16-5.49,2.16h-.38c-2.91,0-5.53-.33-5.53-2.16,0-.84.61-1.88,1.17-2.53,1.08-1.31,1.22-6.29.8-10.08-.89,1.45-2.11,2.49-3.24,3.42-2.02,1.69-4.78,4.78-3.28,7.93.19.42.33.89.33,1.27,0,1.83-2.63,2.16-5.49,2.16h-.42c-2.86,0-5.49-.33-5.49-2.16,0-.84.61-1.88,1.13-2.53,1.69-2.02,1.13-12.52-.19-14.4-.42-.56-.94-1.55-.94-2.3,0-1.78,2.63-2.16,5.49-2.16h.42c2.86,0,5.49.38,5.49,2.16,0,.75-.52,1.74-.94,2.3-.89,1.27-1.41,6.38-1.17,10.23.94-1.88,2.35-3.1,3.66-4.17,1.83-1.5,4.36-4.55,3.28-6.57-.28-.56-.61-1.22-.61-1.78,0-1.78,2.63-2.16,5.53-2.16h.38c2.86,0,5.49.38,5.49,2.16,0,.75-.52,1.74-.89,2.3Z"/>
          <path class="cls-1" d="m105.34,78.37c.42,1.41-3.66,1.64-5.49,1.64s-6.47-.23-7.22-1.64c-.42-.7.47-.98.61-1.78.09-.61-.05-1.69-.42-3-.14-.61-1.08-2.02-2.77-2.02h-4.5c-2.58,0-2.39,1.97-2.2,2.67.52,2.35,2.96,2.96,2.35,4.22-.47,1.08-3.61,1.55-5.35,1.55-2.06,0-5.02-.47-4.64-1.78.38-1.45,2.86-1.22,4.93-5.96l4.97-12.34c.66-1.55,2.06-3.47,4.03-3.47h1.78c2.16,0,3.47,1.64,4.22,3.71,1.36,3.89,3.85,10.41,6.29,14.59,1.08,1.78,3.14,2.44,3.42,3.61Zm-14.87-11.49c-.7-1.92-1.59-3.61-2.16-4.64-.28-.52-.84-.52-1.13.14,0,0-1.5,3.52-1.88,4.69-.56,1.74-.38,2.3,1.27,2.3h2.2c1.83,0,2.35-.7,1.69-2.49Z"/>
          <path class="cls-1" d="m129.17,78.37c-.19,1.41-2.91,1.64-4.74,1.64s-5.86-.75-5.86-4.6v-1.41c0-1.64-.56-2.67-1.64-2.67h-1.97c.14,2.06.42,3.33.94,3.99.56.66,1.17,1.69,1.17,2.53,0,1.83-2.63,2.16-5.49,2.16h-.42c-2.86,0-5.49-.33-5.49-2.16,0-.84.61-1.88,1.13-2.53,1.69-2.02,1.13-12.52-.19-14.4-.42-.56-.94-1.55-.94-2.3,0-1.78,2.63-2.16,5.49-2.16h6.47c5.11,0,9.33,3.47,9.33,7.46,0,2.35-1.45,4.5-3.71,5.86,2.3.52,3.94,1.88,3.94,5.25v.38c0,1.97,2.16,1.78,1.97,2.96Zm-12.48-8.87c1.83,0,3.56-3.1,3.56-5.58s-1.64-5.63-3.56-5.63c-2.53,0-2.53,11.21,0,11.21Z"/>
          <path class="cls-1" d="m138.69,66.08h1.31c3.19,0,3.19-2.44,4.32-2.58.89-.09,1.55,1.97,1.55,3.66s-.66,3.8-1.55,3.66c-1.13-.14-1.13-2.53-4.32-2.53h-1.41c0,4.74,1.31,9.52,3.94,9.52,1.64,0,3.28-.94,4.22-3.19,1.03-2.58,6.05-1.69,6.05.66s-3.14,4.74-5.82,4.74h-11.96c-2.86,0-5.49-.33-5.49-2.16,0-.84.61-1.88,1.13-2.53,1.69-2.02,1.13-12.52-.19-14.4-.42-.56-.94-1.55-.94-2.3,0-1.78,2.63-2.16,5.49-2.16h11.96c2.67,0,5.82,2.3,5.82,4.78,0,2.3-5.02,3.24-6.05.66-.94-2.25-2.58-3.19-4.22-3.19-2.2,0-3.47,3.42-3.85,7.36Z"/>
        </g>
        <g>
          <path class="cls-1" d="m169.31,63.65h-5.42c-.25,0-.46-.08-.62-.24-.16-.16-.24-.36-.24-.59v-7.39c0-.25.08-.46.24-.62.16-.16.37-.24.62-.24h3.02c.23,0,.43.08.59.24.16.16.24.37.24.62v3.96h1.6l-.03,4.27Zm-.94,15.97c-.23.05-.44-.02-.62-.21-.19-.19-.28-.39-.28-.62v-2.92c0-.21.07-.41.23-.61.15-.2.35-.34.61-.43l1.18-.49c.72-.3,1.37-.68,1.96-1.15s1.06-1.09,1.42-1.87c.36-.79.54-1.81.54-3.05,0-1.11-.13-2.01-.4-2.69-.27-.68-.71-1.17-1.34-1.48-.62-.3-1.49-.45-2.6-.45h-.87c-.23,0-.43-.08-.61-.24-.17-.16-.26-.36-.26-.59v-2.6c0-.23.09-.43.26-.59.17-.16.38-.24.61-.24h1.84c2.08,0,3.74.32,4.98.97,1.24.65,2.13,1.63,2.69,2.93.56,1.31.83,2.95.83,4.91,0,1.57-.24,2.97-.73,4.2-.49,1.23-1.15,2.29-1.98,3.18s-1.76,1.63-2.79,2.22c-1.03.59-2.11,1.05-3.25,1.37l-1.42.45Z"/>
          <path class="cls-1" d="m183.16,79.2c-.25,0-.46-.08-.62-.24-.16-.16-.24-.37-.24-.62v-18.08c0-.25.08-.46.24-.62.16-.16.37-.24.62-.24h3.47c.23,0,.43.08.59.24.16.16.24.37.24.62v18.08c0,.25-.08.46-.24.62s-.36.24-.59.24h-3.47Z"/>
          <path class="cls-1" d="m197.04,77.46c-.9.56-1.74.99-2.5,1.3s-1.55.55-2.36.71c-.23.02-.43,0-.59-.07-.16-.07-.24-.22-.24-.45v-3.12c0-.39.24-.68.73-.87.16-.07.47-.17.92-.31s.94-.3,1.48-.49c.53-.18.98-.37,1.35-.56.53-.3,1.05-.69,1.54-1.16.5-.47.93-.99,1.28-1.54.36-.56.6-1.09.71-1.6l2.01-.03c-.09,1.3-.32,2.47-.69,3.52-.37,1.05-.87,1.97-1.49,2.76-.62.79-1.34,1.42-2.15,1.91Zm3.75,1.74c-.25,0-.46-.08-.61-.24-.15-.16-.24-.37-.26-.62l-2.08-10.45c-.21-1-.44-1.82-.69-2.46-.25-.65-.6-1.13-1.04-1.46-.44-.32-1.05-.49-1.84-.49h-1.21c-.25,0-.46-.08-.62-.24-.16-.16-.24-.37-.24-.62v-2.57c0-.23.08-.43.24-.59s.37-.24.62-.24h1.32c1.83,0,3.3.3,4.43.89,1.12.59,2.01,1.51,2.66,2.76.65,1.25,1.17,2.86,1.56,4.82l2.08,10.66c.05.25-.02.46-.21.62-.19.16-.39.24-.62.24h-3.47Z"/>
          <path class="cls-1" d="m217.04,79.2c-.25,0-.46-.08-.62-.24-.16-.16-.24-.36-.24-.59v-10.31c0-1.48-.36-2.61-1.09-3.4-.73-.79-1.88-1.18-3.45-1.18h-5.03c-.23,0-.43-.08-.59-.24-.16-.16-.24-.37-.24-.62v-2.36c0-.25.08-.46.24-.62.16-.16.36-.24.59-.24h5.24c2.06,0,3.78.29,5.17.87,1.39.58,2.43,1.49,3.12,2.72.69,1.24,1.04,2.86,1.04,4.88v10.48c0,.25-.08.46-.24.62s-.36.24-.59.24h-3.3Z"/>
          <path class="cls-1" d="m230.99,61.25h1.39c.56,0,.94.12,1.16.35.22.23.29.49.23.76-.21.79-.38,1.53-.52,2.24-.14.71-.23,1.41-.28,2.12-.05.71-.07,1.51-.07,2.41l.21,9.2c0,.25-.08.46-.24.62-.16.16-.37.24-.62.24l-6.6-.03c-.23,0-.43-.08-.59-.24-.16-.16-.24-.37-.24-.62v-2.19c0-.25.08-.46.24-.62s.36-.24.59-.24l2.78.04v-6.07c0-.81.02-1.57.05-2.29s.12-1.45.24-2.19c.13-.74.32-1.53.57-2.36.12-.3.29-.56.52-.78.23-.22.62-.33,1.18-.33Zm-3.99,2.22c-.25,0-.46-.08-.62-.24-.16-.16-.24-.37-.24-.62v-2.36c0-.25.08-.46.24-.62.16-.16.37-.24.62-.24h8.99c2.06,0,3.78.3,5.17.9,1.39.6,2.43,1.53,3.12,2.78.69,1.25,1.04,2.86,1.04,4.83v10.45c0,.25-.08.46-.24.62s-.36.24-.59.24h-3.3c-.25,0-.46-.08-.62-.24-.16-.16-.24-.36-.24-.59v-10.31c0-1.48-.36-2.61-1.08-3.4-.72-.79-1.87-1.18-3.47-1.18h-8.78Z"/>
        </g>
      </g>
    </g>
  </g>
</svg>