<?xml version="1.0" encoding="UTF-8"?>
<svg id="Layer_2" data-name="Layer 2" xmlns="http://www.w3.org/2000/svg" viewBox="0 0 273.23 133.39">
  <defs>
    <style>
      .cls-1 {
        fill: #592059;
      }

      .cls-1, .cls-2 {
        stroke-width: 0px;
      }

      .cls-2 {
        fill: #fff;
      }

      .cls-3 {
        opacity: .75;
      }
    </style>
  </defs>
  <g id="text">
    <g>
      <g class="cls-3">
        <path class="cls-2" d="m224.93,31.28c-1.76,0-3.49.09-5.19.24-5.9-17.15-24.4-29.68-46.32-29.68-15.61,0-29.49,6.36-38.32,16.21C126.4,7.15,111.78,0,95.22,0c-21.04,0-38.93,11.54-45.55,27.63-.46-.01-.91-.03-1.37-.03C21.62,27.6,0,46.13,0,69s21.62,41.4,48.3,41.4c2.63,0,5.2-.19,7.71-.53,8.83,9.83,22.69,16.17,38.28,16.17,13.73,0,26.11-4.92,34.9-12.8,8.44,12.07,23.84,20.16,41.46,20.16s33.48-8.34,41.83-20.71c3.97.91,8.14,1.4,12.45,1.4,26.67,0,48.3-18.53,48.3-41.4s-21.62-41.4-48.3-41.4Z"/>
      </g>
      <g>
        <g>
          <path class="cls-1" d="m62.33,78.47c.09.89-1.97,1.55-4.78,1.55-11.91,0-11.82-13.46-14.31-17.21-.89,4.92-.19,12.81,1.41,14.59.38.38.66.7.7,1.08.14.89-1.92,1.55-3.66,1.55s-3.75-.66-3.66-1.55c.05-.38.38-.7.7-1.08,2.16-2.39,2.63-15.71,0-18.25-.38-.38-.66-.75-.7-1.13-.09-.84,1.97-1.55,3.66-1.55h3.56c9.24,0,7.88,13.7,11.77,17.07.84-4.88.61-12.52-1.31-14.4-.38-.38-.66-.75-.75-1.13-.09-.84,1.97-1.55,3.71-1.55s3.75.7,3.66,1.55c-.05.38-.33.75-.75,1.13-2.58,2.53-2.16,15.85,0,18.25.38.38.7.7.75,1.08Z"/>
          <path class="cls-1" d="m83.72,61.82c-.7-2.16-2.06-3.1-2.77-3.1-2.11,0-2.44,13.7-.75,16.6.42.7,1.13,1.69,1.13,2.53,0,1.83-2.63,2.16-5.49,2.16h-.38c-2.86,0-5.49-.33-5.49-2.16,0-.84.75-1.78,1.13-2.53,1.55-3.1,1.27-16.6-.7-16.6-.75,0-2.06.94-2.81,3.1-.98,2.86-5.16.94-5.02-1.97.14-3,3.14-3.38,6.1-3.38h14.02c2.96,0,5.91.38,6.05,3.38.14,2.91-4.03,4.83-5.02,1.97Z"/>
          <path class="cls-1" d="m113.23,61.25c0,2.3-5.02,3.24-6.05.66-.89-2.25-2.16-3.19-3.85-3.19-3.05,0-4.41,4.97-4.69,9.52h1.83c3.14,0,3.14-2.39,4.32-2.53.84-.14,1.55,1.92,1.55,3.66s-.7,3.8-1.55,3.66c-1.17-.14-1.17-2.53-4.32-2.53h-1.88c0,2.3.33,4.17.84,4.83.56.66,1.17,1.69,1.17,2.53,0,1.83-2.63,2.16-5.49,2.16h-.42c-2.86,0-5.49-.33-5.49-2.16,0-.84.61-1.88,1.13-2.53,1.69-2.02,1.13-12.52-.19-14.4-.42-.56-.94-1.55-.94-2.3,0-1.78,2.63-2.16,5.49-2.16h12.76c2.67,0,5.77,2.34,5.77,4.78Z"/>
          <path class="cls-1" d="m136.49,72.32c.61,4.13-5.02,7.69-11.26,7.69h-.14c-4.6,0-9.8-1.36-11.16-4.46-2.21-4.97,9.99-6,9.1-.42-.56,3.47,3.85,3.24,4.55,1.13,1.78-5.35-12.81-5.72-13.23-12.15-.33-4.74,4.92-7.65,11.3-7.65h.14c3.71,0,7.74,1.41,9.15,4.5,2.02,4.5-7.27,5.3-8.3.42-.89-3.99-3.94-3.1-3.56-.19.61,4.64,12.52,5.63,13.42,11.12Z"/>
        </g>
        <g>
          <path class="cls-1" d="m156.16,64.13h-5.87c-.23,0-.43-.08-.61-.24-.17-.16-.26-.37-.26-.62v-7.84c0-.25.09-.46.26-.62s.38-.24.61-.24h3.54c.25,0,.47.08.64.24s.26.37.26.62v3.96h1.46l-.03,4.76Zm-1.21,15.48c-.23.07-.45,0-.64-.21-.2-.21-.29-.43-.29-.66v-3.37c0-.21.08-.42.24-.62.16-.21.37-.36.62-.45l1.11-.45c.65-.28,1.24-.63,1.79-1.06.54-.43.98-1.01,1.3-1.74.32-.73.49-1.66.49-2.79,0-.99-.12-1.79-.35-2.4-.23-.6-.62-1.04-1.16-1.32-.54-.28-1.31-.42-2.31-.42h-.8c-.23,0-.43-.08-.61-.24-.17-.16-.26-.37-.26-.62v-3.05c0-.23.09-.43.26-.59.17-.16.38-.24.61-.24h1.94c2.08,0,3.74.33,4.98.99,1.24.66,2.13,1.64,2.67,2.95.54,1.31.82,2.91.82,4.81,0,1.57-.25,2.97-.75,4.2-.5,1.23-1.17,2.3-2.03,3.21-.86.91-1.82,1.67-2.88,2.27-1.06.6-2.19,1.06-3.37,1.39l-1.39.42Z"/>
          <path class="cls-1" d="m169.74,79.2c-.25,0-.46-.09-.62-.26-.16-.17-.24-.38-.24-.61v-18.08c0-.25.08-.46.24-.62s.37-.24.62-.24h4.1c.25,0,.46.08.62.24.16.16.24.37.24.62v18.08c0,.23-.08.43-.24.61-.16.17-.37.26-.62.26h-4.1Z"/>
          <path class="cls-1" d="m184.14,77.46c-.9.56-1.74.99-2.5,1.3s-1.55.55-2.36.71c-.23.02-.43,0-.59-.07-.16-.07-.24-.22-.24-.45v-3.58c0-.39.24-.68.73-.87.16-.07.47-.17.92-.31s.94-.3,1.48-.49c.53-.19.98-.37,1.35-.56.53-.25,1.04-.6,1.51-1.04.47-.44.89-.92,1.23-1.44.35-.52.6-1.05.76-1.58l2.01.07c-.12,1.37-.35,2.59-.71,3.66-.36,1.08-.84,2-1.44,2.76-.6.76-1.32,1.39-2.15,1.87Zm3.51,1.74c-.25,0-.46-.09-.62-.26-.16-.17-.24-.38-.24-.61l-2.12-10.41c-.16-.93-.36-1.68-.61-2.26-.24-.58-.57-1.01-.99-1.3-.42-.29-1-.43-1.74-.43h-1.21c-.23,0-.43-.08-.61-.24-.17-.16-.26-.37-.26-.62v-3.02c0-.25.09-.46.26-.62.17-.16.38-.24.61-.24h1.35c1.92,0,3.47.3,4.65.89,1.18.59,2.11,1.52,2.79,2.78.68,1.26,1.22,2.89,1.61,4.88l2.08,10.62c.05.23-.02.43-.21.61-.19.17-.41.26-.66.26h-4.1Z"/>
          <path class="cls-1" d="m204.1,79.2c-.25,0-.47-.08-.64-.24s-.26-.37-.26-.62v-10.27c0-1.34-.32-2.37-.97-3.07-.65-.71-1.68-1.06-3.09-1.06h-5.24c-.23,0-.43-.08-.61-.24-.17-.16-.26-.37-.26-.62v-2.81c0-.25.09-.46.26-.62.17-.16.38-.24.61-.24h5.42c2.08,0,3.83.28,5.24.83,1.41.55,2.48,1.45,3.21,2.69.73,1.24,1.09,2.89,1.09,4.95v10.48c0,.23-.09.43-.26.61s-.38.26-.61.26h-3.89Z"/>
          <path class="cls-1" d="m218.75,61.53h1.56c.62,0,1.06.13,1.3.38.24.25.32.52.23.8-.23.74-.42,1.44-.56,2.1-.14.66-.23,1.34-.28,2.03-.05.69-.07,1.47-.07,2.33l.24,9.16c0,.23-.08.43-.24.61-.16.17-.37.26-.62.26l-7.19-.03c-.23,0-.43-.08-.61-.24-.17-.16-.26-.37-.26-.62v-2.6c0-.23.09-.43.26-.61s.38-.26.61-.26l2.81.03v-5.62c0-.76.02-1.49.07-2.17.05-.68.13-1.38.26-2.1.13-.72.32-1.47.57-2.26.12-.32.31-.6.57-.83s.71-.35,1.34-.35Zm-4.3,2.4c-.25,0-.46-.08-.62-.24-.16-.16-.24-.37-.24-.62v-2.81c0-.25.08-.46.24-.62.16-.16.37-.24.62-.24h9.51c2.08,0,3.83.3,5.24.89,1.41.59,2.48,1.51,3.19,2.76.72,1.25,1.08,2.87,1.08,4.86v10.45c0,.23-.08.43-.24.61-.16.17-.37.26-.62.26h-3.89c-.25,0-.46-.08-.62-.24s-.24-.37-.24-.62v-10.27c0-1.34-.33-2.37-.99-3.07-.66-.71-1.7-1.06-3.11-1.06h-9.3Z"/>
        </g>
      </g>
    </g>
  </g>
</svg>