<?xml version="1.0" encoding="UTF-8"?>
<svg id="Layer_2" data-name="Layer 2" xmlns="http://www.w3.org/2000/svg" viewBox="0 0 309.2 150.96">
  <defs>
    <style>
      .cls-1 {
        fill: #592059;
      }

      .cls-1, .cls-2 {
        stroke-width: 0px;
      }

      .cls-2 {
        fill: #fff;
      }

      .cls-3 {
        opacity: .75;
      }
    </style>
  </defs>
  <g id="text">
    <g>
      <g class="cls-3">
        <path class="cls-2" d="m254.55,35.4c-1.99,0-3.95.1-5.88.27-6.67-19.41-27.61-33.59-52.42-33.59-17.67,0-33.37,7.19-43.36,18.34C143.04,8.09,126.5,0,107.75,0c-23.81,0-44.05,13.05-51.55,31.27-.52-.01-1.03-.03-1.55-.03C24.47,31.23,0,52.21,0,78.08s24.47,46.85,54.66,46.85c2.97,0,5.89-.21,8.73-.6,9.99,11.13,25.68,18.3,43.32,18.3,15.53,0,29.54-5.56,39.49-14.48,9.55,13.66,26.98,22.81,46.92,22.81s37.89-9.43,47.34-23.44c4.5,1.02,9.21,1.58,14.09,1.58,30.19,0,54.66-20.97,54.66-46.85s-24.47-46.85-54.66-46.85Z"/>
      </g>
      <g>
        <path class="cls-1" d="m51.17,68.92c1.02-2.94-.78-5.04-2.88-4.2-2.76,1.02-2.34,8.76.42,10.14h4.08c.66,0,1.2.54,1.2,1.2v1.98h-5.58c-.18,3.42-.24,8.58,1.08,10.26.6.72,1.62.96,1.5,2.04-.3,1.8-4.86,2.1-7.2,2.1s-7.44-.3-7.68-2.1c-.12-.96,1.08-1.08,1.74-1.92,1.26-1.62,1.56-6.72,1.38-10.38h-1.26c-.66,0-1.14-.54-1.14-1.14v-.84c0-.66.48-1.2,1.14-1.2h.9c-1.62-7.26,4.32-12.54,10.5-12.54h.06c5.04,0,9.42,1.92,10.56,5.88,1.5,5.52-10.74,6.48-8.82.72Z"/>
        <path class="cls-1" d="m67.73,88.84c.54.6,1.26.78,1.14,1.5-.24,1.8-4.86,2.1-7.2,2.1s-6.72-.3-6.96-2.1c-.12-.78.54-1.08,1.08-1.62,1.26-1.14,1.5-7.14.24-8.76-.6-.78-1.44-1.26-1.32-2.16.24-1.8,3.36-3.06,5.46-4.14,2.1-1.02,7.8-3.96,6.9-.12-.36,1.74-2.1,12.42.66,15.3Zm-11.22-21.66c0-2.46,1.98-4.44,4.44-4.44s4.44,1.98,4.44,4.44-1.98,4.44-4.44,4.44-4.44-1.98-4.44-4.44Z"/>
        <path class="cls-1" d="m82.19,88.84c.54.6,1.26.78,1.14,1.5-.24,1.8-4.86,2.1-7.2,2.1s-6.72-.3-6.96-2.1c-.12-.78.54-1.08,1.08-1.62,1.26-1.14,1.32-6,1.32-9.42,0-3.9.18-6.96-1.08-8.58-.6-.84-1.44-1.26-1.32-2.22.24-1.8,3.36-3,5.46-4.08s7.8-4.02,6.9-.12c-.36,1.68-2.1,21.66.66,24.54Z"/>
        <path class="cls-1" d="m104.75,83.68l-.12.6c-1.08,4.68-5.58,8.16-10.92,8.16-6.12,0-11.16-4.68-11.16-10.38s5.04-10.44,11.16-10.44c4.02,0,7.62,1.56,9.06,4.38,1.8,3.6-3.36,8.34-7.86,8.34-1.02,0-2.1-.12-2.88-.48,1.8,4.02,7.2,3.48,11.04-.84.9-1.02,1.8-.36,1.68.66Zm-13.32-3.12c0,.66.06,1.2.18,1.74.06-.12.18-.18.36-.24,3.6-2.22,3.24-8.1,1.74-8.1s-2.28,4.02-2.28,6.6Z"/>
        <path class="cls-1" d="m127.61,75.64c.42-3.06-2.76-2.88-3.24-1.02-1.14,4.86,10.86,6.18,11.7,11.34.54,3.18-4.44,6.48-10.26,6.48h-.12c-4.26,0-9.18-1.2-10.56-3.96-2.22-4.38,9.06-4.98,8.46-.06-.42,3.12,2.64,2.88,3.24,1.02,1.44-4.74-11.1-5.4-11.7-11.1-.48-4.2,4.32-6.72,10.26-6.72h.12c4.2,0,9.18,1.2,10.56,3.96,2.22,4.38-9.06,4.98-8.46.06Z"/>
        <path class="cls-1" d="m169.12,73.6c-.96,1.44-3.96,1.62-4.68,3.06l-12,22.38c-2.1,3.36-4.8,5.58-9.06,5.58s-8.1-2.34-8.34-5.46c-.36-4.92,8.94-8.16,9.9-3.3.36,2.1,1.8,5.28,3.78,3.66,1.56-1.32,3.3-4.44,1.02-6.48-4.38-4.02-4.14-12.3-8.94-16.14-1.32-1.08-3.18-1.68-3.72-3.18-.6-1.8,5.28-2.1,7.86-2.1s8.76.24,9.48,2.1c.66,1.68-2.04.6-1.38,3.78,0,.12,1.26,4.38,2.76,7.44.3.54.78.54,1.08,0l4.5-8.34c.78-1.38-2.16-2.16-1.56-3.24.78-1.38,3.18-1.74,5.16-1.74,2.16,0,4.8.84,4.14,1.98Z"/>
        <path class="cls-1" d="m181.13,75.64c.42-3.06-2.76-2.88-3.24-1.02-1.14,4.86,10.86,6.18,11.7,11.34.54,3.18-4.44,6.48-10.26,6.48h-.12c-4.26,0-9.18-1.2-10.56-3.96-2.22-4.38,9.06-4.98,8.46-.06-.42,3.12,2.64,2.88,3.24,1.02,1.44-4.74-11.1-5.4-11.7-11.1-.48-4.2,4.32-6.72,10.26-6.72h.12c4.2,0,9.18,1.2,10.56,3.96,2.22,4.38-9.06,4.98-8.46.06Z"/>
        <path class="cls-1" d="m209.02,76.06v1.98h-5.64c-.18,4.62.06,9.24,1.74,10.32.78.48,1.74,0,2.04.54.78,1.74-3.06,3.54-7.44,3.54-3.78,0-6.6-1.68-6.6-5.4v-9h-1.38c-.6,0-1.14-.54-1.14-1.14v-.84c0-.66.54-.96,1.14-1.2,3.48-1.32,7.56-9.48,10.92-9.48.78,0,2.04,0,1.74,2.46,0,.06-.48,3.18-.78,7.02h4.2c.66,0,1.2.54,1.2,1.2Z"/>
        <path class="cls-1" d="m231.1,83.68l-.12.6c-1.08,4.68-5.58,8.16-10.92,8.16-6.12,0-11.16-4.68-11.16-10.38s5.04-10.44,11.16-10.44c4.02,0,7.62,1.56,9.06,4.38,1.8,3.6-3.36,8.34-7.86,8.34-1.02,0-2.1-.12-2.88-.48,1.8,4.02,7.2,3.48,11.04-.84.9-1.02,1.8-.36,1.68.66Zm-13.32-3.12c0,.66.06,1.2.18,1.74.06-.12.18-.18.36-.24,3.6-2.22,3.24-8.1,1.74-8.1s-2.28,4.02-2.28,6.6Z"/>
        <path class="cls-1" d="m271.42,88.84c.48.6,1.26.78,1.14,1.5-.24,1.8-3.72,2.1-6.06,2.1s-6.96-.96-6.96-5.88v-8.28c0-5.88-3.54-.48-3.54,4.8v3.48c0,2.52,2.7,2.28,2.52,3.78-.24,1.8-3.78,2.1-6.12,2.1s-5.76-.96-5.76-5.88v-8.28c0-6.48-4.14.72-3.84,5.52.18,2.1.54,4.08,1.5,5.04.54.6,1.26.78,1.14,1.5-.24,1.8-4.86,2.1-7.2,2.1s-6.72-.3-6.96-2.1c-.12-.78.54-1.08,1.08-1.62,1.26-1.14,1.5-7.14.24-8.76-.6-.78-1.44-1.26-1.32-2.16.24-1.8,3.36-3.06,5.46-4.14,2.1-1.02,7.8-3.96,6.9-.12l-.42,2.64c1.02-2.52,2.88-4.56,5.52-4.56,3.6,0,6,2.76,6.84,6.54v-.12c.72-3.36,2.82-6.42,6.06-6.42,8.52,0,5.7,12.72,9.78,17.22Z"/>
      </g>
    </g>
  </g>
</svg>