<?xml version="1.0" encoding="UTF-8"?>
<svg id="Layer_2" data-name="Layer 2" xmlns="http://www.w3.org/2000/svg" viewBox="0 0 837 322.27">
  <defs>
    <style>
      .cls-1 {
        fill: #e9e8ee;
      }

      .cls-1, .cls-2, .cls-3 {
        stroke-width: 0px;
      }

      .cls-2 {
        fill: #592059;
      }

      .cls-3 {
        fill: #9390ad;
      }
    </style>
  </defs>
  <g id="exercise">
    <g>
      <g>
        <rect class="cls-1" x="316" y="255.48" width="205.01" height="66.79" rx="24.75" ry="24.75"/>
        <g>
          <path class="cls-2" d="m388.4,283.16c-.15,0-.27-.05-.36-.14s-.14-.22-.14-.36v-6.58c0-1.17-.29-2.09-.88-2.74-.59-.65-1.53-.98-2.84-.98h-4.14c-.15,0-.27-.05-.36-.14-.1-.09-.14-.22-.14-.36v-.75c0-.15.05-.27.14-.36s.22-.14.36-.14h4.25c1.91,0,3.32.46,4.23,1.39.92.92,1.38,2.27,1.38,4.03v6.64c0,.15-.05.27-.14.36-.1.09-.22.14-.36.14h-.99Zm-8.36,0c-.15,0-.27-.05-.36-.14-.1-.1-.14-.22-.14-.36v-7.35c0-.15.05-.27.14-.36s.22-.14.36-.14h1.01c.15,0,.26.05.35.14.09.1.13.22.13.36v7.35c0,.15-.04.27-.13.36-.09.09-.21.14-.35.14h-1.01Z"/>
          <path class="cls-2" d="m393.13,283.16c-.15,0-.27-.05-.36-.14-.09-.1-.14-.22-.14-.36v-3.3c0-.67.07-1.32.2-1.93.13-.61.39-1.19.78-1.74s.97-1.07,1.75-1.55l1.01,1.47c-.53.34-.92.72-1.19,1.16-.26.43-.44.88-.53,1.34-.09.46-.13.91-.13,1.33v3.21c0,.15-.05.27-.14.36-.1.09-.22.14-.36.14h-.88Zm8.58,0c-.16,0-.29-.04-.37-.13l-.24-.24-8.07-11.33c-.1-.16-.15-.3-.15-.42s.05-.22.14-.31.2-.13.32-.13h1.03c.16,0,.29.04.38.13.09.09.17.17.23.24l8.1,11.33c.06.1.1.18.12.24.02.06.03.12.03.18,0,.12-.04.22-.13.31s-.19.13-.31.13h-1.08Zm-1.76-4.03l-.9-1.52c.72-.34,1.23-.69,1.53-1.06.3-.37.48-.75.54-1.16s.09-.83.09-1.26v-3.04c0-.15.05-.27.14-.36s.22-.14.36-.14h.92c.15,0,.27.05.36.14.09.1.14.22.14.36v3.15c0,.62-.07,1.21-.22,1.78s-.44,1.11-.89,1.62c-.45.51-1.14,1-2.08,1.48Z"/>
          <path class="cls-2" d="m412.34,281.51c.95.02,1.76-.16,2.41-.53.65-.37,1.15-.89,1.5-1.57s.52-1.46.52-2.34v-5.96c0-.15.05-.27.14-.36s.22-.14.36-.14h.92c.15,0,.26.05.35.14.09.1.13.22.13.36v6.12c0,.94-.15,1.79-.44,2.54-.29.76-.71,1.4-1.25,1.94-.54.54-1.18.94-1.92,1.22-.74.28-1.56.4-2.45.37h-1.65c-.95,0-1.81-.22-2.57-.66-.76-.44-1.36-1.06-1.8-1.85-.44-.79-.66-1.71-.66-2.75v-6.93c0-.15.05-.27.14-.36.09-.1.22-.14.36-.14h.92c.15,0,.27.05.36.14.1.1.14.22.14.36l.07,6.49c0,1.26.35,2.23,1.06,2.9s1.6,1.01,2.68,1.01h.68Zm-4.88-2.57l-.04-1.61c1.09-.01,1.91-.18,2.49-.5s.97-.74,1.2-1.26c.23-.53.34-1.11.34-1.74v-2.73c0-.15.04-.27.13-.36s.21-.14.37-.14h.9c.15,0,.27.05.36.14.1.1.14.22.14.36v2.82c0,.95-.21,1.81-.64,2.57-.43.76-1.08,1.36-1.95,1.8-.87.44-1.98.65-3.31.64Z"/>
          <path class="cls-2" d="m428.86,283.16c-.15,0-.27-.05-.36-.14-.09-.1-.14-.22-.14-.36v-6.58c0-1.17-.29-2.09-.88-2.74-.59-.65-1.53-.98-2.84-.98h-2.88c-.15,0-.27-.05-.36-.14-.1-.09-.14-.22-.14-.36v-.75c0-.15.05-.27.14-.36.09-.1.22-.14.36-.14h2.99c1.26,0,2.31.2,3.14.59.83.4,1.45.99,1.86,1.79.41.8.62,1.79.62,2.98v6.69c0,.15-.05.27-.14.36-.1.09-.22.14-.36.14h-.99Z"/>
          <path class="cls-2" d="m442.48,283.16c-.15,0-.27-.05-.36-.14s-.14-.22-.14-.36v-6.58c0-1.17-.29-2.09-.88-2.74-.59-.65-1.53-.98-2.84-.98h-4.14c-.15,0-.27-.05-.36-.14-.1-.09-.14-.22-.14-.36v-.75c0-.15.05-.27.14-.36s.22-.14.36-.14h4.25c1.91,0,3.32.46,4.23,1.39.92.92,1.38,2.27,1.38,4.03v6.64c0,.15-.05.27-.14.36-.1.09-.22.14-.36.14h-.99Zm-8.36,0c-.15,0-.27-.05-.36-.14-.1-.1-.14-.22-.14-.36v-7.35c0-.15.05-.27.14-.36s.22-.14.36-.14h1.01c.15,0,.26.05.35.14.09.1.13.22.13.36v7.35c0,.15-.04.27-.13.36-.09.09-.21.14-.35.14h-1.01Z"/>
          <path class="cls-2" d="m456.1,283.16c-.15,0-.27-.05-.36-.14s-.14-.22-.14-.36v-6.58c0-1.17-.29-2.09-.88-2.74-.59-.65-1.53-.98-2.84-.98h-4.14c-.15,0-.27-.05-.36-.14-.1-.09-.14-.22-.14-.36v-.75c0-.15.05-.27.14-.36s.22-.14.36-.14h4.25c1.91,0,3.32.46,4.23,1.39.92.92,1.38,2.27,1.38,4.03v6.64c0,.15-.05.27-.14.36-.1.09-.22.14-.36.14h-.99Zm-8.36,0c-.15,0-.27-.05-.36-.14-.1-.1-.14-.22-.14-.36v-7.35c0-.15.05-.27.14-.36s.22-.14.36-.14h1.01c.15,0,.26.05.35.14.09.1.13.22.13.36v7.35c0,.15-.04.27-.13.36-.09.09-.21.14-.35.14h-1.01Z"/>
          <path class="cls-2" d="m357.6,309.56c-.15,0-.27-.05-.36-.14-.09-.1-.14-.22-.14-.36v-6.58c0-1.17-.29-2.09-.88-2.74-.59-.65-1.53-.98-2.84-.98h-2.88c-.15,0-.27-.05-.36-.14-.1-.09-.14-.22-.14-.36v-.75c0-.15.05-.27.14-.36.09-.1.22-.14.36-.14h2.99c1.26,0,2.31.2,3.14.59.83.4,1.45.99,1.86,1.79.41.8.62,1.79.62,2.98v6.69c0,.15-.05.27-.14.36-.1.09-.22.14-.36.14h-.99Z"/>
          <path class="cls-2" d="m365.22,297.68h.55c.22,0,.39.05.5.17.11.11.16.25.14.41-.12.62-.22,1.17-.3,1.67-.08.5-.14.99-.17,1.48-.03.49-.04,1.04-.04,1.66l.07,5.98c0,.15-.05.27-.14.36-.1.09-.22.14-.36.14l-3.12-.04c-.15,0-.27-.04-.36-.13-.09-.09-.14-.21-.14-.37v-.7c0-.15.05-.27.14-.36.1-.09.22-.14.36-.14l1.69.02v-4.66c0-.6,0-1.15.02-1.66.01-.51.06-1.01.13-1.53s.19-1.09.35-1.74c.04-.16.11-.29.21-.4.09-.1.25-.15.47-.15Zm-1.98,1.08c-.15,0-.27-.05-.36-.14-.1-.09-.14-.22-.14-.36v-.75c0-.15.05-.27.14-.36s.22-.14.36-.14h4.77c1.26,0,2.31.2,3.14.6.83.4,1.45,1,1.86,1.8.41.8.62,1.79.62,2.96v6.69c0,.15-.05.27-.14.36-.1.09-.22.14-.36.14h-.99c-.16,0-.29-.05-.37-.14-.09-.1-.13-.22-.13-.36v-6.58c0-1.17-.29-2.09-.88-2.74-.59-.65-1.53-.98-2.84-.98h-4.66Z"/>
          <path class="cls-2" d="m377.38,309.56c-.15,0-.27-.05-.36-.14-.1-.1-.14-.22-.14-.36v-11.55c0-.15.05-.27.14-.36s.22-.14.36-.14h1.03c.16,0,.29.05.37.14.09.1.13.22.13.36v11.55c0,.15-.04.27-.13.36-.09.09-.21.14-.37.14h-1.03Z"/>
          <path class="cls-2" d="m382.66,304.46c-.15,0-.27-.05-.36-.14s-.14-.22-.14-.36v-6.45c0-.15.05-.27.14-.36.1-.1.22-.14.36-.14h1.06c.15,0,.26.05.35.14s.13.22.13.36v6.45c0,.15-.04.27-.13.36-.09.1-.21.14-.35.14h-1.06Z"/>
          <path class="cls-2" d="m387.44,309.56c-.15,0-.27-.05-.36-.14-.09-.1-.14-.22-.14-.36v-.75c0-.15.05-.27.14-.36.1-.09.22-.14.36-.14h6.31v-5.32c0-1.17-.29-2.09-.88-2.74-.59-.65-1.53-.98-2.84-.98h-2.38c-.15,0-.27-.05-.36-.14-.1-.09-.14-.22-.14-.36v-.75c0-.15.05-.27.14-.36.09-.1.22-.14.36-.14h2.49c1.26,0,2.31.21,3.15.62.84.41,1.46,1.02,1.88,1.82s.63,1.79.63,2.98v5.39h.81c.15,0,.27.05.36.14.1.1.14.22.14.36v.75c0,.15-.05.27-.14.36-.1.09-.22.14-.36.14h-9.17Z"/>
          <path class="cls-2" d="m413.4,309.56c-.15,0-.27-.05-.36-.14s-.14-.22-.14-.36v-6.58c0-1.17-.29-2.09-.88-2.74-.59-.65-1.53-.98-2.84-.98h-4.14c-.15,0-.27-.05-.36-.14-.1-.09-.14-.22-.14-.36v-.75c0-.15.05-.27.14-.36s.22-.14.36-.14h4.25c1.91,0,3.32.46,4.23,1.39.92.92,1.38,2.27,1.38,4.03v6.64c0,.15-.05.27-.14.36-.1.09-.22.14-.36.14h-.99Zm-8.36,0c-.15,0-.27-.05-.36-.14-.1-.1-.14-.22-.14-.36v-7.35c0-.15.05-.27.14-.36s.22-.14.36-.14h1.01c.15,0,.26.05.35.14.09.1.13.22.13.36v7.35c0,.15-.04.27-.13.36-.09.09-.21.14-.35.14h-1.01Z"/>
          <path class="cls-2" d="m424.77,309.56c-.15,0-.27-.05-.36-.14-.09-.1-.14-.22-.14-.36v-6.58c0-1.17-.29-2.09-.88-2.74-.59-.65-1.53-.98-2.84-.98h-2.88c-.15,0-.27-.05-.36-.14-.1-.09-.14-.22-.14-.36v-.75c0-.15.05-.27.14-.36.09-.1.22-.14.36-.14h2.99c1.26,0,2.31.2,3.14.59.83.4,1.45.99,1.86,1.79.41.8.62,1.79.62,2.98v6.69c0,.15-.05.27-.14.36-.1.09-.22.14-.36.14h-.99Z"/>
          <path class="cls-2" d="m429.87,304.46c-.15,0-.27-.05-.36-.14s-.14-.22-.14-.36v-6.45c0-.15.05-.27.14-.36.1-.1.22-.14.36-.14h1.06c.15,0,.26.05.35.14s.13.22.13.36v6.45c0,.15-.04.27-.13.36-.09.1-.21.14-.35.14h-1.06Z"/>
          <path class="cls-2" d="m434.6,309.56c-.13,0-.24-.05-.33-.15-.09-.1-.12-.23-.11-.37l1.87-10.78c.03-.15.1-.26.2-.34.1-.08.23-.11.37-.08l.88.04c.15.01.26.08.35.19s.12.24.09.38l-1.76,10.58c-.02.15-.08.27-.19.37-.11.1-.24.15-.38.15h-.99Zm5.57-10.76h-5.35c-.16,0-.29-.05-.37-.14-.09-.09-.13-.22-.13-.36v-.79c0-.15.04-.27.13-.36s.21-.14.37-.14h5.59c.91,0,1.72.21,2.43.64.71.43,1.27,1.04,1.67,1.84.4.8.6,1.76.6,2.89v6.69c0,.15-.04.27-.13.36-.09.09-.21.14-.37.14h-5.68c-.15,0-.27-.05-.36-.14-.09-.1-.14-.22-.14-.36v-.75c0-.15.05-.27.14-.36.1-.09.22-.14.36-.14h4.18v-5.3c0-.75-.13-1.4-.38-1.96-.26-.56-.61-.99-1.06-1.29s-.95-.45-1.51-.45Z"/>
          <path class="cls-2" d="m448.88,309.56c-.15,0-.27-.05-.36-.14-.1-.1-.14-.22-.14-.36v-11.55c0-.15.05-.27.14-.36s.22-.14.36-.14h4.29c1.26,0,2.31.2,3.13.6.83.4,1.45,1,1.86,1.8.41.8.62,1.8.62,3v6.64c0,.15-.05.27-.14.36-.1.09-.22.14-.36.14h-.99c-.16,0-.29-.05-.37-.14-.09-.1-.13-.22-.13-.36v-6.58c0-1.17-.29-2.09-.88-2.74-.59-.65-1.53-.98-2.84-.98h-2.68v10.3c0,.15-.04.27-.13.36-.09.09-.21.14-.35.14h-1.01Z"/>
          <path class="cls-2" d="m461.97,309.56c-.13,0-.24-.05-.33-.15-.09-.1-.12-.23-.11-.37l1.87-10.78c.03-.15.1-.26.2-.34.1-.08.23-.11.37-.08l.88.04c.15.01.26.08.35.19s.12.24.09.38l-1.76,10.58c-.02.15-.08.27-.19.37-.11.1-.24.15-.38.15h-.99Zm5.57-10.76h-5.35c-.16,0-.29-.05-.37-.14-.09-.09-.13-.22-.13-.36v-.79c0-.15.04-.27.13-.36s.21-.14.37-.14h5.59c.91,0,1.72.21,2.43.64.71.43,1.27,1.04,1.67,1.84.4.8.6,1.76.6,2.89v6.69c0,.15-.04.27-.13.36-.09.09-.21.14-.37.14h-5.68c-.15,0-.27-.05-.36-.14-.09-.1-.14-.22-.14-.36v-.75c0-.15.05-.27.14-.36.1-.09.22-.14.36-.14h4.18v-5.3c0-.75-.13-1.4-.38-1.96-.26-.56-.61-.99-1.06-1.29s-.95-.45-1.51-.45Z"/>
          <path class="cls-2" d="m484.61,309.56c-.15,0-.27-.05-.36-.14s-.14-.22-.14-.36v-6.58c0-1.17-.29-2.09-.88-2.74-.59-.65-1.53-.98-2.84-.98h-4.14c-.15,0-.27-.05-.36-.14-.1-.09-.14-.22-.14-.36v-.75c0-.15.05-.27.14-.36s.22-.14.36-.14h4.25c1.91,0,3.32.46,4.23,1.39.92.92,1.38,2.27,1.38,4.03v6.64c0,.15-.05.27-.14.36-.1.09-.22.14-.36.14h-.99Zm-8.36,0c-.15,0-.27-.05-.36-.14-.1-.1-.14-.22-.14-.36v-7.35c0-.15.05-.27.14-.36s.22-.14.36-.14h1.01c.15,0,.26.05.35.14.09.1.13.22.13.36v7.35c0,.15-.04.27-.13.36-.09.09-.21.14-.35.14h-1.01Z"/>
        </g>
      </g>
      <g>
        <g>
          <g>
            <g>
              <rect class="cls-1" x="704" y="0" width="133" height="49.5" rx="24.75" ry="24.75"/>
              <g>
                <path class="cls-2" d="m747.52,32.14c-1.28,0-2.35-.2-3.21-.59-.87-.4-1.53-.91-1.99-1.53-.46-.62-.71-1.28-.74-1.97,0-.12.05-.22.14-.32s.21-.14.34-.14h1.12c.18,0,.31.04.4.13s.15.19.18.31c.09.35.27.7.55,1.04.28.34.68.63,1.2.86.52.23,1.19.34,2.01.34,1.26,0,2.19-.22,2.78-.67.59-.45.89-1.04.89-1.79,0-.51-.16-.93-.47-1.24-.32-.31-.8-.6-1.44-.85-.65-.25-1.48-.52-2.51-.81-1.07-.31-1.96-.65-2.66-1.01-.7-.37-1.23-.82-1.57-1.36-.34-.54-.52-1.23-.52-2.07,0-.79.21-1.5.64-2.12.42-.62,1.04-1.12,1.85-1.49.81-.37,1.77-.55,2.9-.55.91,0,1.71.12,2.39.36.68.24,1.25.56,1.71.97.46.4.8.84,1.03,1.3s.36.91.37,1.35c0,.1-.04.2-.11.3s-.19.14-.35.14h-1.17c-.1,0-.21-.03-.32-.09-.11-.06-.19-.17-.25-.33-.09-.6-.42-1.11-1.01-1.52-.59-.41-1.35-.62-2.29-.62s-1.73.18-2.32.55c-.59.37-.89.94-.89,1.72,0,.5.14.91.42,1.24s.72.62,1.32.87c.6.25,1.39.51,2.35.79,1.17.32,2.13.66,2.88,1.02s1.3.81,1.66,1.34.54,1.22.54,2.06c0,.92-.24,1.71-.73,2.37-.48.65-1.16,1.15-2.04,1.5-.87.34-1.9.52-3.09.52Z"/>
                <path class="cls-2" d="m756.5,31.92c-.15,0-.27-.05-.36-.14-.1-.1-.14-.22-.14-.36v-14.61c0-.15.05-.27.14-.36.1-.1.22-.14.36-.14h1.1c.16,0,.29.05.37.14.09.09.13.22.13.36v5.13c.4-.5.88-.9,1.45-1.21.57-.31,1.3-.46,2.18-.46.95,0,1.76.21,2.43.63.67.42,1.17,1,1.52,1.74s.52,1.6.52,2.58v6.2c0,.15-.04.27-.13.36-.09.09-.21.14-.37.14h-1.1c-.15,0-.27-.05-.36-.14-.1-.1-.14-.22-.14-.36v-6.09c0-1.03-.25-1.83-.75-2.41-.5-.58-1.23-.87-2.2-.87-.91,0-1.64.29-2.2.87s-.84,1.38-.84,2.41v6.09c0,.15-.04.27-.13.36-.09.09-.21.14-.37.14h-1.1Z"/>
                <path class="cls-2" d="m772.56,32.14c-.73,0-1.4-.15-2-.44-.6-.29-1.09-.69-1.45-1.19-.37-.5-.55-1.06-.55-1.69,0-1.01.41-1.82,1.23-2.42.82-.6,1.89-1,3.21-1.19l3.28-.46v-.64c0-.7-.2-1.25-.61-1.65-.4-.4-1.06-.59-1.97-.59-.65,0-1.17.13-1.58.4-.41.26-.7.6-.86,1.01-.09.22-.24.33-.46.33h-.99c-.16,0-.28-.05-.36-.14-.08-.1-.12-.21-.12-.34,0-.22.08-.49.25-.81.17-.32.43-.64.78-.95.35-.31.8-.57,1.35-.78.55-.21,1.22-.32,2.01-.32.88,0,1.62.11,2.22.34.6.23,1.07.53,1.42.91.34.38.59.81.75,1.3.15.48.23.98.23,1.47v7.13c0,.15-.05.27-.14.36-.1.09-.22.14-.36.14h-1.01c-.16,0-.29-.05-.37-.14-.09-.1-.13-.22-.13-.36v-.95c-.19.26-.45.52-.77.78-.32.26-.73.47-1.21.64-.48.17-1.08.25-1.78.25Zm.46-1.65c.6,0,1.15-.13,1.65-.39.5-.26.89-.66,1.18-1.2.29-.54.43-1.22.43-2.05v-.62l-2.55.37c-1.04.15-1.83.39-2.35.74-.53.34-.79.78-.79,1.31,0,.41.12.75.36,1.02.24.27.55.47.92.61s.76.2,1.16.2Z"/>
                <path class="cls-2" d="m782.02,31.92c-.15,0-.27-.05-.36-.14s-.14-.22-.14-.36v-10.41c0-.15.05-.27.14-.37.09-.1.22-.15.36-.15h1.01c.15,0,.27.05.37.15s.15.23.15.37v.97c.29-.5.7-.87,1.21-1.12.51-.25,1.14-.37,1.87-.37h.86c.15,0,.27.05.36.14.1.1.14.22.14.36v.9c0,.15-.05.26-.14.35-.09.09-.22.13-.36.13h-1.32c-.79,0-1.42.23-1.87.69-.46.46-.68,1.09-.68,1.88v6.47c0,.15-.05.27-.15.36-.1.09-.23.14-.37.14h-1.08Z"/>
                <path class="cls-2" d="m794.23,32.14c-1.53,0-2.74-.46-3.63-1.4s-1.39-2.2-1.47-3.82c-.01-.19-.02-.44-.02-.74s0-.55.02-.74c.06-1.04.3-1.95.73-2.74.42-.78,1.01-1.39,1.75-1.82.74-.42,1.61-.64,2.61-.64,1.12,0,2.05.24,2.81.7.75.47,1.33,1.14,1.73,2,.4.87.59,1.88.59,3.04v.37c0,.16-.05.29-.14.37-.1.09-.22.13-.36.13h-7.61v.2c.03.6.16,1.16.4,1.68.23.52.58.94,1.02,1.27.45.32.97.48,1.57.48.53,0,.97-.08,1.32-.24.35-.16.64-.34.86-.54.22-.2.37-.36.44-.47.13-.18.23-.28.31-.32.07-.04.19-.05.35-.05h1.08c.13,0,.25.04.34.12.1.08.14.19.12.34-.01.22-.13.49-.35.8-.22.32-.53.63-.94.94s-.9.56-1.5.76-1.26.3-2.01.3Zm-3.01-6.78h6.03v-.07c0-.66-.12-1.25-.36-1.76-.24-.51-.59-.92-1.05-1.22-.45-.3-1-.45-1.63-.45s-1.17.15-1.62.45c-.45.3-.79.71-1.02,1.22s-.35,1.1-.35,1.76v.07Z"/>
              </g>
            </g>
            <g>
              <rect class="cls-1" x="472" y="0" width="133" height="49.5" rx="24.75" ry="24.75"/>
              <g>
                <path class="cls-2" d="m515.52,32.14c-1.28,0-2.35-.2-3.21-.59-.87-.4-1.53-.91-1.99-1.53-.46-.62-.71-1.28-.74-1.97,0-.12.05-.22.14-.32s.21-.14.34-.14h1.12c.18,0,.31.04.4.13s.15.19.18.31c.09.35.27.7.55,1.04.28.34.68.63,1.2.86.52.23,1.19.34,2.01.34,1.26,0,2.19-.22,2.78-.67.59-.45.89-1.04.89-1.79,0-.51-.16-.93-.47-1.24-.32-.31-.8-.6-1.44-.85-.65-.25-1.48-.52-2.51-.81-1.07-.31-1.96-.65-2.66-1.01-.7-.37-1.23-.82-1.57-1.36-.34-.54-.52-1.23-.52-2.07,0-.79.21-1.5.64-2.12.42-.62,1.04-1.12,1.85-1.49.81-.37,1.77-.55,2.9-.55.91,0,1.71.12,2.39.36.68.24,1.25.56,1.71.97.46.4.8.84,1.03,1.3s.36.91.37,1.35c0,.1-.04.2-.11.3s-.19.14-.35.14h-1.17c-.1,0-.21-.03-.32-.09-.11-.06-.19-.17-.25-.33-.09-.6-.42-1.11-1.01-1.52-.59-.41-1.35-.62-2.29-.62s-1.73.18-2.32.55c-.59.37-.89.94-.89,1.72,0,.5.14.91.42,1.24s.72.62,1.32.87c.6.25,1.39.51,2.35.79,1.17.32,2.13.66,2.88,1.02s1.3.81,1.66,1.34.54,1.22.54,2.06c0,.92-.24,1.71-.73,2.37-.48.65-1.16,1.15-2.04,1.5-.87.34-1.9.52-3.09.52Z"/>
                <path class="cls-2" d="m524.5,31.92c-.15,0-.27-.05-.36-.14-.1-.1-.14-.22-.14-.36v-14.61c0-.15.05-.27.14-.36.1-.1.22-.14.36-.14h1.1c.16,0,.29.05.37.14.09.09.13.22.13.36v5.13c.4-.5.88-.9,1.45-1.21.57-.31,1.3-.46,2.18-.46.95,0,1.76.21,2.43.63.67.42,1.17,1,1.52,1.74s.52,1.6.52,2.58v6.2c0,.15-.04.27-.13.36-.09.09-.21.14-.37.14h-1.1c-.15,0-.27-.05-.36-.14-.1-.1-.14-.22-.14-.36v-6.09c0-1.03-.25-1.83-.75-2.41-.5-.58-1.23-.87-2.2-.87-.91,0-1.64.29-2.2.87s-.84,1.38-.84,2.41v6.09c0,.15-.04.27-.13.36-.09.09-.21.14-.37.14h-1.1Z"/>
                <path class="cls-2" d="m540.56,32.14c-.73,0-1.4-.15-2-.44-.6-.29-1.09-.69-1.45-1.19-.37-.5-.55-1.06-.55-1.69,0-1.01.41-1.82,1.23-2.42.82-.6,1.89-1,3.21-1.19l3.28-.46v-.64c0-.7-.2-1.25-.61-1.65-.4-.4-1.06-.59-1.97-.59-.65,0-1.17.13-1.58.4-.41.26-.7.6-.86,1.01-.09.22-.24.33-.46.33h-.99c-.16,0-.28-.05-.36-.14-.08-.1-.12-.21-.12-.34,0-.22.08-.49.25-.81.17-.32.43-.64.78-.95.35-.31.8-.57,1.35-.78.55-.21,1.22-.32,2.01-.32.88,0,1.62.11,2.22.34.6.23,1.07.53,1.42.91.34.38.59.81.75,1.3.15.48.23.98.23,1.47v7.13c0,.15-.05.27-.14.36-.1.09-.22.14-.36.14h-1.01c-.16,0-.29-.05-.37-.14-.09-.1-.13-.22-.13-.36v-.95c-.19.26-.45.52-.77.78-.32.26-.73.47-1.21.64-.48.17-1.08.25-1.78.25Zm.46-1.65c.6,0,1.15-.13,1.65-.39.5-.26.89-.66,1.18-1.2.29-.54.43-1.22.43-2.05v-.62l-2.55.37c-1.04.15-1.83.39-2.35.74-.53.34-.79.78-.79,1.31,0,.41.12.75.36,1.02.24.27.55.47.92.61s.76.2,1.16.2Z"/>
                <path class="cls-2" d="m550.02,31.92c-.15,0-.27-.05-.36-.14s-.14-.22-.14-.36v-10.41c0-.15.05-.27.14-.37.09-.1.22-.15.36-.15h1.01c.15,0,.27.05.37.15s.15.23.15.37v.97c.29-.5.7-.87,1.21-1.12.51-.25,1.14-.37,1.87-.37h.86c.15,0,.27.05.36.14.1.1.14.22.14.36v.9c0,.15-.05.26-.14.35-.09.09-.22.13-.36.13h-1.32c-.79,0-1.42.23-1.87.69-.46.46-.68,1.09-.68,1.88v6.47c0,.15-.05.27-.15.36-.1.09-.23.14-.37.14h-1.08Z"/>
                <path class="cls-2" d="m562.23,32.14c-1.53,0-2.74-.46-3.63-1.4s-1.39-2.2-1.47-3.82c-.01-.19-.02-.44-.02-.74s0-.55.02-.74c.06-1.04.3-1.95.73-2.74.42-.78,1.01-1.39,1.75-1.82.74-.42,1.61-.64,2.61-.64,1.12,0,2.05.24,2.81.7.75.47,1.33,1.14,1.73,2,.4.87.59,1.88.59,3.04v.37c0,.16-.05.29-.14.37-.1.09-.22.13-.36.13h-7.61v.2c.03.6.16,1.16.4,1.68.23.52.58.94,1.02,1.27.45.32.97.48,1.57.48.53,0,.97-.08,1.32-.24.35-.16.64-.34.86-.54.22-.2.37-.36.44-.47.13-.18.23-.28.31-.32.07-.04.19-.05.35-.05h1.08c.13,0,.25.04.34.12.1.08.14.19.12.34-.01.22-.13.49-.35.8-.22.32-.53.63-.94.94s-.9.56-1.5.76-1.26.3-2.01.3Zm-3.01-6.78h6.03v-.07c0-.66-.12-1.25-.36-1.76-.24-.51-.59-.92-1.05-1.22-.45-.3-1-.45-1.63-.45s-1.17.15-1.62.45c-.45.3-.79.71-1.02,1.22s-.35,1.1-.35,1.76v.07Z"/>
              </g>
            </g>
          </g>
          <g>
            <g>
              <rect class="cls-1" x="540.16" y="117.94" width="235" height="81.73" rx="40.13" ry="40.13"/>
              <g>
                <path class="cls-2" d="m585.55,151.34c-1.28,0-2.35-.2-3.21-.59-.87-.4-1.53-.91-1.99-1.53-.46-.62-.71-1.28-.74-1.97,0-.12.05-.22.14-.32s.21-.14.34-.14h1.12c.18,0,.31.04.4.13s.15.19.18.31c.09.35.27.7.55,1.04.28.34.68.63,1.2.86.52.23,1.19.34,2.01.34,1.26,0,2.19-.22,2.78-.67.59-.45.89-1.04.89-1.79,0-.51-.16-.93-.47-1.24-.32-.31-.8-.6-1.44-.85-.65-.25-1.48-.52-2.51-.81-1.07-.31-1.96-.65-2.66-1.01-.7-.37-1.23-.82-1.57-1.36-.34-.54-.52-1.23-.52-2.07,0-.79.21-1.5.64-2.12.42-.62,1.04-1.12,1.85-1.49.81-.37,1.77-.55,2.9-.55.91,0,1.71.12,2.39.36.68.24,1.25.56,1.71.97.46.4.8.84,1.03,1.3s.36.91.37,1.35c0,.1-.04.2-.11.3s-.19.14-.35.14h-1.17c-.1,0-.21-.03-.32-.09-.11-.06-.19-.17-.25-.33-.09-.6-.42-1.11-1.01-1.52-.59-.41-1.35-.62-2.29-.62s-1.73.18-2.32.55c-.59.37-.89.94-.89,1.72,0,.5.14.91.42,1.24s.72.62,1.32.87c.6.25,1.39.51,2.35.79,1.17.32,2.13.66,2.88,1.02s1.3.81,1.66,1.34.54,1.22.54,2.06c0,.92-.24,1.71-.73,2.37-.48.65-1.16,1.15-2.04,1.5-.87.34-1.9.52-3.09.52Z"/>
                <path class="cls-2" d="m594.53,151.12c-.15,0-.27-.05-.36-.14-.1-.1-.14-.22-.14-.36v-14.61c0-.15.05-.27.14-.36.1-.1.22-.14.36-.14h1.1c.16,0,.29.05.37.14.09.09.13.22.13.36v5.13c.4-.5.88-.9,1.45-1.21.57-.31,1.3-.46,2.18-.46.95,0,1.76.21,2.43.63.67.42,1.17,1,1.52,1.74s.52,1.6.52,2.58v6.2c0,.15-.04.27-.13.36-.09.09-.21.14-.37.14h-1.1c-.15,0-.27-.05-.36-.14-.1-.1-.14-.22-.14-.36v-6.09c0-1.03-.25-1.83-.75-2.41-.5-.58-1.23-.87-2.2-.87-.91,0-1.64.29-2.2.87s-.84,1.38-.84,2.41v6.09c0,.15-.04.27-.13.36-.09.09-.21.14-.37.14h-1.1Z"/>
                <path class="cls-2" d="m610.59,151.34c-.73,0-1.4-.15-2-.44-.6-.29-1.09-.69-1.45-1.19-.37-.5-.55-1.06-.55-1.69,0-1.01.41-1.82,1.23-2.42.82-.6,1.89-1,3.21-1.19l3.28-.46v-.64c0-.7-.2-1.25-.61-1.65-.4-.4-1.06-.59-1.97-.59-.65,0-1.17.13-1.58.4-.41.26-.7.6-.86,1.01-.09.22-.24.33-.46.33h-.99c-.16,0-.28-.05-.36-.14-.08-.1-.12-.21-.12-.34,0-.22.08-.49.25-.81.17-.32.43-.64.78-.95.35-.31.8-.57,1.35-.78.55-.21,1.22-.32,2.01-.32.88,0,1.62.11,2.22.34.6.23,1.07.53,1.42.91.34.38.59.81.75,1.3.15.48.23.98.23,1.47v7.13c0,.15-.05.27-.14.36-.1.09-.22.14-.36.14h-1.01c-.16,0-.29-.05-.37-.14-.09-.1-.13-.22-.13-.36v-.95c-.19.26-.45.52-.77.78-.32.26-.73.47-1.21.64-.48.17-1.08.25-1.78.25Zm.46-1.65c.6,0,1.15-.13,1.65-.39.5-.26.89-.66,1.18-1.2.29-.54.43-1.22.43-2.05v-.62l-2.55.37c-1.04.15-1.83.39-2.35.74-.53.34-.79.78-.79,1.31,0,.41.12.75.36,1.02.24.27.55.47.92.61s.76.2,1.16.2Z"/>
                <path class="cls-2" d="m620.05,151.12c-.15,0-.27-.05-.36-.14s-.14-.22-.14-.36v-10.41c0-.15.05-.27.14-.37.09-.1.22-.15.36-.15h1.01c.15,0,.27.05.37.15s.15.23.15.37v.97c.29-.5.7-.87,1.21-1.12.51-.25,1.14-.37,1.87-.37h.86c.15,0,.27.05.36.14.1.1.14.22.14.36v.9c0,.15-.05.26-.14.35-.09.09-.22.13-.36.13h-1.32c-.79,0-1.42.23-1.87.69-.46.46-.68,1.09-.68,1.88v6.47c0,.15-.05.27-.15.36-.1.09-.23.14-.37.14h-1.08Z"/>
                <path class="cls-2" d="m632.26,151.34c-1.53,0-2.74-.46-3.63-1.4s-1.39-2.2-1.47-3.82c-.01-.19-.02-.44-.02-.74s0-.55.02-.74c.06-1.04.3-1.95.73-2.74.42-.78,1.01-1.39,1.75-1.82.74-.42,1.61-.64,2.61-.64,1.12,0,2.05.24,2.81.7.75.47,1.33,1.14,1.73,2,.4.87.59,1.88.59,3.04v.37c0,.16-.05.29-.14.37-.1.09-.22.13-.36.13h-7.61v.2c.03.6.16,1.16.4,1.68.23.52.58.94,1.02,1.27.45.32.97.48,1.57.48.53,0,.97-.08,1.32-.24.35-.16.64-.34.86-.54.22-.2.37-.36.44-.47.13-.18.23-.28.31-.32.07-.04.19-.05.35-.05h1.08c.13,0,.25.04.34.12.1.08.14.19.12.34-.01.22-.13.49-.35.8-.22.32-.53.63-.94.94s-.9.56-1.5.76-1.26.3-2.01.3Zm-3.01-6.78h6.03v-.07c0-.66-.12-1.25-.36-1.76-.24-.51-.59-.92-1.05-1.22-.45-.3-1-.45-1.63-.45s-1.17.15-1.62.45c-.45.3-.79.71-1.02,1.22s-.35,1.1-.35,1.76v.07Z"/>
                <path class="cls-2" d="m640.4,145.44c-.15,0-.27-.05-.36-.14-.1-.09-.14-.22-.14-.36v-.84c0-.15.05-.27.14-.36.09-.1.22-.14.36-.14h6.6c.16,0,.29.05.37.14s.13.22.13.36v.84c0,.15-.04.27-.13.36-.09.1-.21.14-.37.14h-6.6Z"/>
                <path class="cls-2" d="m659.58,151.12c-.15,0-.27-.05-.36-.14s-.14-.22-.14-.36v-6.58c0-1.17-.29-2.09-.88-2.74-.59-.65-1.53-.98-2.84-.98h-4.14c-.15,0-.27-.05-.36-.14-.1-.09-.14-.22-.14-.36v-.75c0-.15.05-.27.14-.36s.22-.14.36-.14h4.25c1.91,0,3.32.46,4.23,1.39.92.92,1.38,2.27,1.38,4.03v6.64c0,.15-.05.27-.14.36-.1.09-.22.14-.36.14h-.99Zm-8.36,0c-.15,0-.27-.05-.36-.14-.1-.1-.14-.22-.14-.36v-7.35c0-.15.05-.27.14-.36s.22-.14.36-.14h1.01c.15,0,.26.05.35.14.09.1.13.22.13.36v7.35c0,.15-.04.27-.13.36-.09.09-.21.14-.35.14h-1.01Z"/>
                <path class="cls-2" d="m672.58,139.24h.55c.22,0,.39.05.5.17.11.11.16.25.14.41-.12.62-.22,1.17-.3,1.67-.08.5-.14.99-.17,1.48-.03.49-.04,1.04-.04,1.66l.07,5.98c0,.15-.05.27-.14.36-.1.09-.22.14-.36.14l-3.12-.04c-.15,0-.27-.04-.36-.13-.09-.09-.14-.21-.14-.37v-.7c0-.15.05-.27.14-.36.1-.09.22-.14.36-.14l1.69.02v-4.66c0-.6,0-1.15.02-1.66.01-.51.06-1.01.13-1.53s.19-1.09.35-1.74c.04-.16.11-.29.21-.4.09-.1.25-.15.47-.15Zm-1.98,1.08c-.15,0-.27-.05-.36-.14-.1-.09-.14-.22-.14-.36v-.75c0-.15.05-.27.14-.36s.22-.14.36-.14h4.77c1.26,0,2.31.2,3.14.6.83.4,1.45,1,1.86,1.8.41.8.62,1.79.62,2.96v6.69c0,.15-.05.27-.14.36-.1.09-.22.14-.36.14h-.99c-.16,0-.29-.05-.37-.14-.09-.1-.13-.22-.13-.36v-6.58c0-1.17-.29-2.09-.88-2.74-.59-.65-1.53-.98-2.84-.98h-4.66Z"/>
                <path class="cls-2" d="m684.22,151.12c-.15,0-.27-.05-.36-.14-.09-.1-.14-.22-.14-.36v-3.3c0-.67.07-1.32.2-1.93.13-.61.39-1.19.78-1.74s.97-1.07,1.75-1.55l1.01,1.47c-.53.34-.92.72-1.19,1.16-.26.43-.44.88-.53,1.34-.09.46-.13.91-.13,1.33v3.21c0,.15-.05.27-.14.36-.1.09-.22.14-.36.14h-.88Zm8.58,0c-.16,0-.29-.04-.37-.13l-.24-.24-8.07-11.33c-.1-.16-.15-.3-.15-.42s.05-.22.14-.31.2-.13.32-.13h1.03c.16,0,.29.04.38.13.09.09.17.17.23.24l8.1,11.33c.06.1.1.18.12.24.02.06.03.12.03.18,0,.12-.04.22-.13.31s-.19.13-.31.13h-1.08Zm-1.76-4.03l-.9-1.52c.72-.34,1.23-.69,1.53-1.06.3-.37.48-.75.54-1.16s.09-.83.09-1.26v-3.04c0-.15.05-.27.14-.36s.22-.14.36-.14h.92c.15,0,.27.05.36.14.09.1.14.22.14.36v3.15c0,.62-.07,1.21-.22,1.78s-.44,1.11-.89,1.62c-.45.51-1.14,1-2.08,1.48Z"/>
                <path class="cls-2" d="m703.43,149.47c.95.02,1.76-.16,2.41-.53.65-.37,1.15-.89,1.5-1.57s.52-1.46.52-2.34v-5.96c0-.15.05-.27.14-.36s.22-.14.36-.14h.92c.15,0,.26.05.35.14.09.1.13.22.13.36v6.12c0,.94-.15,1.79-.44,2.54-.29.76-.71,1.4-1.25,1.94-.54.54-1.18.94-1.92,1.22-.74.28-1.56.4-2.45.37h-1.65c-.95,0-1.81-.22-2.57-.66-.76-.44-1.36-1.06-1.8-1.85-.44-.79-.66-1.71-.66-2.75v-6.93c0-.15.05-.27.14-.36.09-.1.22-.14.36-.14h.92c.15,0,.27.05.36.14.1.1.14.22.14.36l.07,6.49c0,1.26.35,2.23,1.06,2.9s1.6,1.01,2.68,1.01h.68Zm-4.88-2.57l-.04-1.61c1.09-.01,1.91-.18,2.49-.5s.97-.74,1.2-1.26c.23-.53.34-1.11.34-1.74v-2.73c0-.15.04-.27.13-.36s.21-.14.37-.14h.9c.15,0,.27.05.36.14.1.1.14.22.14.36v2.82c0,.95-.21,1.81-.64,2.57-.43.76-1.08,1.36-1.95,1.8-.87.44-1.98.65-3.31.64Z"/>
                <path class="cls-2" d="m719.95,151.12c-.15,0-.27-.05-.36-.14-.09-.1-.14-.22-.14-.36v-6.58c0-1.17-.29-2.09-.88-2.74-.59-.65-1.53-.98-2.84-.98h-2.88c-.15,0-.27-.05-.36-.14-.1-.09-.14-.22-.14-.36v-.75c0-.15.05-.27.14-.36.09-.1.22-.14.36-.14h2.99c1.26,0,2.31.2,3.14.59.83.4,1.45.99,1.86,1.79.41.8.62,1.79.62,2.98v6.69c0,.15-.05.27-.14.36-.1.09-.22.14-.36.14h-.99Z"/>
                <path class="cls-2" d="m733.57,151.12c-.15,0-.27-.05-.36-.14s-.14-.22-.14-.36v-6.58c0-1.17-.29-2.09-.88-2.74-.59-.65-1.53-.98-2.84-.98h-4.14c-.15,0-.27-.05-.36-.14-.1-.09-.14-.22-.14-.36v-.75c0-.15.05-.27.14-.36s.22-.14.36-.14h4.25c1.91,0,3.32.46,4.23,1.39.92.92,1.38,2.27,1.38,4.03v6.64c0,.15-.05.27-.14.36-.1.09-.22.14-.36.14h-.99Zm-8.36,0c-.15,0-.27-.05-.36-.14-.1-.1-.14-.22-.14-.36v-7.35c0-.15.05-.27.14-.36s.22-.14.36-.14h1.01c.15,0,.26.05.35.14.09.1.13.22.13.36v7.35c0,.15-.04.27-.13.36-.09.09-.21.14-.35.14h-1.01Z"/>
                <path class="cls-2" d="m595.73,177.52c-.15,0-.27-.05-.36-.14-.09-.1-.14-.22-.14-.36v-6.58c0-1.17-.29-2.09-.88-2.74-.59-.65-1.53-.98-2.84-.98h-2.88c-.15,0-.27-.05-.36-.14-.1-.09-.14-.22-.14-.36v-.75c0-.15.05-.27.14-.36.09-.1.22-.14.36-.14h2.99c1.26,0,2.31.2,3.14.59.83.4,1.45.99,1.86,1.79.41.8.62,1.79.62,2.98v6.69c0,.15-.05.27-.14.36-.1.09-.22.14-.36.14h-.99Z"/>
                <path class="cls-2" d="m603.34,165.64h.55c.22,0,.39.05.5.17.11.11.16.25.14.41-.12.62-.22,1.17-.3,1.67-.08.5-.14.99-.17,1.48-.03.49-.04,1.04-.04,1.66l.07,5.98c0,.15-.05.27-.14.36-.1.09-.22.14-.36.14l-3.12-.04c-.15,0-.27-.04-.36-.13-.09-.09-.14-.21-.14-.37v-.7c0-.15.05-.27.14-.36.1-.09.22-.14.36-.14l1.69.02v-4.66c0-.6,0-1.15.02-1.66.01-.51.06-1.01.13-1.53s.19-1.09.35-1.74c.04-.16.11-.29.21-.4.09-.1.25-.15.47-.15Zm-1.98,1.08c-.15,0-.27-.05-.36-.14-.1-.09-.14-.22-.14-.36v-.75c0-.15.05-.27.14-.36s.22-.14.36-.14h4.77c1.26,0,2.31.2,3.14.6.83.4,1.45,1,1.86,1.8.41.8.62,1.79.62,2.96v6.69c0,.15-.05.27-.14.36-.1.09-.22.14-.36.14h-.99c-.16,0-.29-.05-.37-.14-.09-.1-.13-.22-.13-.36v-6.58c0-1.17-.29-2.09-.88-2.74-.59-.65-1.53-.98-2.84-.98h-4.66Z"/>
                <path class="cls-2" d="m615.51,177.52c-.15,0-.27-.05-.36-.14-.1-.1-.14-.22-.14-.36v-11.55c0-.15.05-.27.14-.36s.22-.14.36-.14h1.03c.16,0,.29.05.37.14.09.1.13.22.13.36v11.55c0,.15-.04.27-.13.36-.09.09-.21.14-.37.14h-1.03Z"/>
                <path class="cls-2" d="m620.79,172.42c-.15,0-.27-.05-.36-.14s-.14-.22-.14-.36v-6.45c0-.15.05-.27.14-.36.1-.1.22-.14.36-.14h1.06c.15,0,.26.05.35.14s.13.22.13.36v6.45c0,.15-.04.27-.13.36-.09.1-.21.14-.35.14h-1.06Z"/>
                <path class="cls-2" d="m625.56,177.52c-.15,0-.27-.05-.36-.14-.09-.1-.14-.22-.14-.36v-.75c0-.15.05-.27.14-.36.1-.09.22-.14.36-.14h6.31v-5.32c0-1.17-.29-2.09-.88-2.74-.59-.65-1.53-.98-2.84-.98h-2.38c-.15,0-.27-.05-.36-.14-.1-.09-.14-.22-.14-.36v-.75c0-.15.05-.27.14-.36.09-.1.22-.14.36-.14h2.49c1.26,0,2.31.21,3.15.62.84.41,1.46,1.02,1.88,1.82s.63,1.79.63,2.98v5.39h.81c.15,0,.27.05.36.14.1.1.14.22.14.36v.75c0,.15-.05.27-.14.36-.1.09-.22.14-.36.14h-9.17Z"/>
                <path class="cls-2" d="m645.51,165.64h.55c.22,0,.39.05.5.17.11.11.16.25.14.41-.12.62-.22,1.17-.3,1.67-.08.5-.14.99-.17,1.48-.03.49-.04,1.04-.04,1.66l.07,5.98c0,.15-.05.27-.14.36-.1.09-.22.14-.36.14l-3.12-.04c-.15,0-.27-.04-.36-.13-.09-.09-.14-.21-.14-.37v-.7c0-.15.05-.27.14-.36.1-.09.22-.14.36-.14l1.69.02v-4.66c0-.6,0-1.15.02-1.66.01-.51.06-1.01.13-1.53s.19-1.09.35-1.74c.04-.16.11-.29.21-.4.09-.1.25-.15.47-.15Zm-1.98,1.08c-.15,0-.27-.05-.36-.14-.1-.09-.14-.22-.14-.36v-.75c0-.15.05-.27.14-.36s.22-.14.36-.14h4.77c1.26,0,2.31.2,3.14.6.83.4,1.45,1,1.86,1.8.41.8.62,1.79.62,2.96v6.69c0,.15-.05.27-.14.36-.1.09-.22.14-.36.14h-.99c-.16,0-.29-.05-.37-.14-.09-.1-.13-.22-.13-.36v-6.58c0-1.17-.29-2.09-.88-2.74-.59-.65-1.53-.98-2.84-.98h-4.66Z"/>
                <path class="cls-2" d="m657.53,172.42c-.15,0-.27-.05-.36-.14s-.14-.22-.14-.36v-6.45c0-.15.05-.27.14-.36.1-.1.22-.14.36-.14h1.06c.15,0,.26.05.35.14s.13.22.13.36v6.45c0,.15-.04.27-.13.36-.09.1-.21.14-.35.14h-1.06Z"/>
                <path class="cls-2" d="m662.12,177.52c-.15,0-.27-.05-.36-.14-.1-.1-.14-.22-.14-.36v-.75c0-.15.05-.27.14-.36.1-.09.22-.14.36-.14h6.2v1.34c0,.15-.05.25-.14.32-.09.07-.22.1-.36.1h-5.7Zm4.86,0c-.15,0-.26-.05-.34-.14-.08-.1-.14-.22-.17-.36l-.42-6.8c-.03-.72-.08-1.34-.17-1.87-.08-.53-.26-.94-.53-1.23-.27-.29-.72-.44-1.35-.44h-.9c-.15,0-.27-.05-.36-.14-.1-.09-.14-.22-.14-.36v-.75c0-.15.05-.27.14-.36.09-.1.22-.14.36-.14h.92c.84,0,1.51.12,2.02.36.51.24.91.59,1.2,1.06.29.46.49,1.02.62,1.66.12.65.21,1.36.25,2.16l.42,6.86c.01.15-.03.27-.13.36-.1.09-.23.14-.37.14h-1.06Z"/>
                <path class="cls-2" d="m677.9,177.52c-.15,0-.27-.05-.36-.14-.09-.1-.14-.22-.14-.36v-6.58c0-1.17-.29-2.09-.88-2.74-.59-.65-1.53-.98-2.84-.98h-2.88c-.15,0-.27-.05-.36-.14-.1-.09-.14-.22-.14-.36v-.75c0-.15.05-.27.14-.36.09-.1.22-.14.36-.14h2.99c1.26,0,2.31.2,3.14.59.83.4,1.45.99,1.86,1.79.41.8.62,1.79.62,2.98v6.69c0,.15-.05.27-.14.36-.1.09-.22.14-.36.14h-.99Z"/>
                <path class="cls-2" d="m683,172.42c-.15,0-.27-.05-.36-.14s-.14-.22-.14-.36v-6.45c0-.15.05-.27.14-.36.1-.1.22-.14.36-.14h1.06c.15,0,.26.05.35.14s.13.22.13.36v6.45c0,.15-.04.27-.13.36-.09.1-.21.14-.35.14h-1.06Z"/>
                <path class="cls-2" d="m690.57,165.64h.55c.22,0,.39.05.5.17.11.11.16.25.14.41-.12.62-.22,1.17-.3,1.67-.08.5-.14.99-.17,1.48-.03.49-.04,1.04-.04,1.66l.07,5.98c0,.15-.05.27-.14.36-.1.09-.22.14-.36.14l-3.12-.04c-.15,0-.27-.04-.36-.13-.09-.09-.14-.21-.14-.37v-.7c0-.15.05-.27.14-.36.1-.09.22-.14.36-.14l1.69.02v-4.66c0-.6,0-1.15.02-1.66.01-.51.06-1.01.13-1.53s.19-1.09.35-1.74c.04-.16.11-.29.21-.4.09-.1.25-.15.47-.15Zm-1.98,1.08c-.15,0-.27-.05-.36-.14-.1-.09-.14-.22-.14-.36v-.75c0-.15.05-.27.14-.36s.22-.14.36-.14h4.77c1.26,0,2.31.2,3.14.6.83.4,1.45,1,1.86,1.8.41.8.62,1.79.62,2.96v6.69c0,.15-.05.27-.14.36-.1.09-.22.14-.36.14h-.99c-.16,0-.29-.05-.37-.14-.09-.1-.13-.22-.13-.36v-6.58c0-1.17-.29-2.09-.88-2.74-.59-.65-1.53-.98-2.84-.98h-4.66Z"/>
                <path class="cls-2" d="m702.16,177.52c-.13,0-.24-.05-.33-.15-.09-.1-.12-.23-.11-.37l1.87-10.78c.03-.15.1-.26.2-.34.1-.08.23-.11.37-.08l.88.04c.15.01.26.08.35.19s.12.24.09.38l-1.76,10.58c-.02.15-.08.27-.19.37-.11.1-.24.15-.38.15h-.99Zm5.57-10.76h-5.35c-.16,0-.29-.05-.37-.14-.09-.09-.13-.22-.13-.36v-.79c0-.15.04-.27.13-.36s.21-.14.37-.14h5.59c.91,0,1.72.21,2.43.64.71.43,1.27,1.04,1.67,1.84.4.8.6,1.76.6,2.89v6.69c0,.15-.04.27-.13.36-.09.09-.21.14-.37.14h-5.68c-.15,0-.27-.05-.36-.14-.09-.1-.14-.22-.14-.36v-.75c0-.15.05-.27.14-.36.1-.09.22-.14.36-.14h4.18v-5.3c0-.75-.13-1.4-.38-1.96-.26-.56-.61-.99-1.06-1.29s-.95-.45-1.51-.45Z"/>
                <path class="cls-2" d="m724.8,177.52c-.15,0-.27-.05-.36-.14s-.14-.22-.14-.36v-6.58c0-1.17-.29-2.09-.88-2.74-.59-.65-1.53-.98-2.84-.98h-4.14c-.15,0-.27-.05-.36-.14-.1-.09-.14-.22-.14-.36v-.75c0-.15.05-.27.14-.36s.22-.14.36-.14h4.25c1.91,0,3.32.46,4.23,1.39.92.92,1.38,2.27,1.38,4.03v6.64c0,.15-.05.27-.14.36-.1.09-.22.14-.36.14h-.99Zm-8.36,0c-.15,0-.27-.05-.36-.14-.1-.1-.14-.22-.14-.36v-7.35c0-.15.05-.27.14-.36s.22-.14.36-.14h1.01c.15,0,.26.05.35.14.09.1.13.22.13.36v7.35c0,.15-.04.27-.13.36-.09.09-.21.14-.35.14h-1.01Z"/>
              </g>
            </g>
            <g>
              <path class="cls-3" d="m684.16,25.69h-53c-.83,0-1.5-.67-1.5-1.5s.67-1.5,1.5-1.5h53c.83,0,1.5.67,1.5,1.5s-.67,1.5-1.5,1.5Z"/>
              <path class="cls-3" d="m657.66,99.15c-.83,0-1.5-.67-1.5-1.5V24.19c0-.83.67-1.5,1.5-1.5s1.5.67,1.5,1.5v73.46c0,.83-.67,1.5-1.5,1.5Z"/>
            </g>
          </g>
        </g>
        <g>
          <g>
            <g>
              <rect class="cls-1" x="230" y="0" width="133" height="49.5" rx="24.75" ry="24.75"/>
              <g>
                <path class="cls-2" d="m271.72,31.92c-.16,0-.29-.05-.37-.14-.09-.1-.13-.22-.13-.36v-14.37c0-.16.04-.29.13-.38s.21-.14.37-.14h1.01c.18,0,.31.04.4.12.09.08.14.14.15.19l7.3,11.22v-11c0-.16.04-.29.13-.38s.21-.14.37-.14h1.06c.16,0,.29.05.39.14.09.1.14.22.14.38v14.34c0,.15-.05.27-.14.37-.1.1-.22.15-.36.15h-1.06c-.16,0-.28-.04-.36-.13-.08-.09-.14-.15-.17-.18l-7.28-11.11v10.91c0,.15-.05.27-.14.36-.1.09-.22.14-.39.14h-1.06Z"/>
                <path class="cls-2" d="m290.37,31.92c-.15,0-.27-.05-.36-.14-.1-.1-.14-.22-.14-.36v-12.94h-4.22c-.15,0-.27-.05-.36-.14-.1-.1-.14-.22-.14-.36v-.92c0-.16.05-.29.14-.38.09-.1.22-.14.36-.14h10.6c.16,0,.29.05.38.14s.14.22.14.38v.92c0,.15-.05.27-.14.36s-.22.14-.38.14h-4.2v12.94c0,.15-.05.27-.14.36-.1.09-.22.14-.39.14h-1.14Z"/>
                <path class="cls-2" d="m299.75,31.92c-.16,0-.29-.05-.37-.14-.09-.1-.13-.22-.13-.36v-14.37c0-.16.04-.29.13-.38s.21-.14.37-.14h8.98c.16,0,.29.05.38.14.09.1.14.22.14.38v.88c0,.16-.05.29-.14.37-.1.09-.22.13-.38.13h-7.35v5.13h6.91c.16,0,.29.05.38.14s.14.22.14.38v.88c0,.15-.05.27-.14.36s-.22.14-.38.14h-6.91v5.94c0,.15-.05.27-.14.36-.1.09-.22.14-.39.14h-1.1Z"/>
                <path class="cls-2" d="m316.88,32.14c-1.28,0-2.35-.2-3.21-.59-.87-.4-1.53-.91-1.99-1.53-.46-.62-.71-1.28-.74-1.97,0-.12.05-.22.14-.32s.21-.14.34-.14h1.12c.18,0,.31.04.4.13s.15.19.18.31c.09.35.27.7.55,1.04.28.34.68.63,1.2.86.52.23,1.19.34,2.01.34,1.26,0,2.19-.22,2.78-.67.59-.45.89-1.04.89-1.79,0-.51-.16-.93-.47-1.24-.32-.31-.8-.6-1.44-.85-.65-.25-1.48-.52-2.51-.81-1.07-.31-1.96-.65-2.66-1.01-.7-.37-1.23-.82-1.57-1.36-.34-.54-.52-1.23-.52-2.07,0-.79.21-1.5.64-2.12.42-.62,1.04-1.12,1.85-1.49.81-.37,1.77-.55,2.9-.55.91,0,1.71.12,2.39.36.68.24,1.25.56,1.71.97.46.4.8.84,1.03,1.3s.36.91.37,1.35c0,.1-.04.2-.11.3s-.19.14-.35.14h-1.17c-.1,0-.21-.03-.32-.09-.11-.06-.19-.17-.25-.33-.09-.6-.42-1.11-1.01-1.52-.59-.41-1.35-.62-2.29-.62s-1.73.18-2.32.55c-.59.37-.89.94-.89,1.72,0,.5.14.91.42,1.24s.72.62,1.32.87c.6.25,1.39.51,2.35.79,1.17.32,2.13.66,2.88,1.02s1.3.81,1.66,1.34.54,1.22.54,2.06c0,.92-.24,1.71-.73,2.37-.48.65-1.16,1.15-2.04,1.5-.87.34-1.9.52-3.09.52Z"/>
              </g>
            </g>
            <g>
              <rect class="cls-1" x="0" y="0" width="133" height="49.5" rx="24.75" ry="24.75"/>
              <g>
                <path class="cls-2" d="m41.72,31.92c-.16,0-.29-.05-.37-.14-.09-.1-.13-.22-.13-.36v-14.37c0-.16.04-.29.13-.38s.21-.14.37-.14h1.01c.18,0,.31.04.4.12.09.08.14.14.15.19l7.3,11.22v-11c0-.16.04-.29.13-.38s.21-.14.37-.14h1.06c.16,0,.29.05.39.14.09.1.14.22.14.38v14.34c0,.15-.05.27-.14.37-.1.1-.22.15-.36.15h-1.06c-.16,0-.28-.04-.36-.13-.08-.09-.14-.15-.17-.18l-7.28-11.11v10.91c0,.15-.05.27-.14.36-.1.09-.22.14-.39.14h-1.06Z"/>
                <path class="cls-2" d="m60.37,31.92c-.15,0-.27-.05-.36-.14-.1-.1-.14-.22-.14-.36v-12.94h-4.22c-.15,0-.27-.05-.36-.14-.1-.1-.14-.22-.14-.36v-.92c0-.16.05-.29.14-.38.09-.1.22-.14.36-.14h10.6c.16,0,.29.05.38.14s.14.22.14.38v.92c0,.15-.05.27-.14.36s-.22.14-.38.14h-4.2v12.94c0,.15-.05.27-.14.36-.1.09-.22.14-.39.14h-1.14Z"/>
                <path class="cls-2" d="m69.75,31.92c-.16,0-.29-.05-.37-.14-.09-.1-.13-.22-.13-.36v-14.37c0-.16.04-.29.13-.38s.21-.14.37-.14h8.98c.16,0,.29.05.38.14.09.1.14.22.14.38v.88c0,.16-.05.29-.14.37-.1.09-.22.13-.38.13h-7.35v5.13h6.91c.16,0,.29.05.38.14s.14.22.14.38v.88c0,.15-.05.27-.14.36s-.22.14-.38.14h-6.91v5.94c0,.15-.05.27-.14.36-.1.09-.22.14-.39.14h-1.1Z"/>
                <path class="cls-2" d="m86.88,32.14c-1.28,0-2.35-.2-3.21-.59-.87-.4-1.53-.91-1.99-1.53-.46-.62-.71-1.28-.74-1.97,0-.12.05-.22.14-.32s.21-.14.34-.14h1.12c.18,0,.31.04.4.13s.15.19.18.31c.09.35.27.7.55,1.04.28.34.68.63,1.2.86.52.23,1.19.34,2.01.34,1.26,0,2.19-.22,2.78-.67.59-.45.89-1.04.89-1.79,0-.51-.16-.93-.47-1.24-.32-.31-.8-.6-1.44-.85-.65-.25-1.48-.52-2.51-.81-1.07-.31-1.96-.65-2.66-1.01-.7-.37-1.23-.82-1.57-1.36-.34-.54-.52-1.23-.52-2.07,0-.79.21-1.5.64-2.12.42-.62,1.04-1.12,1.85-1.49.81-.37,1.77-.55,2.9-.55.91,0,1.71.12,2.39.36.68.24,1.25.56,1.71.97.46.4.8.84,1.03,1.3s.36.91.37,1.35c0,.1-.04.2-.11.3s-.19.14-.35.14h-1.17c-.1,0-.21-.03-.32-.09-.11-.06-.19-.17-.25-.33-.09-.6-.42-1.11-1.01-1.52-.59-.41-1.35-.62-2.29-.62s-1.73.18-2.32.55c-.59.37-.89.94-.89,1.72,0,.5.14.91.42,1.24s.72.62,1.32.87c.6.25,1.39.51,2.35.79,1.17.32,2.13.66,2.88,1.02s1.3.81,1.66,1.34.54,1.22.54,2.06c0,.92-.24,1.71-.73,2.37-.48.65-1.16,1.15-2.04,1.5-.87.34-1.9.52-3.09.52Z"/>
              </g>
            </g>
          </g>
          <g>
            <g>
              <rect class="cls-1" x="63" y="117.94" width="235" height="81.73" rx="40.13" ry="40.13"/>
              <g>
                <path class="cls-2" d="m106.59,151.12c-.16,0-.29-.05-.37-.14-.09-.1-.13-.22-.13-.36v-14.37c0-.16.04-.29.13-.38s.21-.14.37-.14h1.01c.18,0,.31.04.4.12.09.08.14.14.15.19l7.3,11.22v-11c0-.16.04-.29.13-.38s.21-.14.37-.14h1.06c.16,0,.29.05.39.14.09.1.14.22.14.38v14.34c0,.15-.05.27-.14.37-.1.1-.22.15-.36.15h-1.06c-.16,0-.28-.04-.36-.13-.08-.09-.14-.15-.17-.18l-7.28-11.11v10.91c0,.15-.05.27-.14.36-.1.09-.22.14-.39.14h-1.06Z"/>
                <path class="cls-2" d="m125.25,151.12c-.15,0-.27-.05-.36-.14-.1-.1-.14-.22-.14-.36v-12.94h-4.22c-.15,0-.27-.05-.36-.14-.1-.1-.14-.22-.14-.36v-.92c0-.16.05-.29.14-.38.09-.1.22-.14.36-.14h10.6c.16,0,.29.05.38.14s.14.22.14.38v.92c0,.15-.05.27-.14.36s-.22.14-.38.14h-4.2v12.94c0,.15-.05.27-.14.36-.1.09-.22.14-.39.14h-1.14Z"/>
                <path class="cls-2" d="m134.62,151.12c-.16,0-.29-.05-.37-.14-.09-.1-.13-.22-.13-.36v-14.37c0-.16.04-.29.13-.38s.21-.14.37-.14h8.98c.16,0,.29.05.38.14.09.1.14.22.14.38v.88c0,.16-.05.29-.14.37-.1.09-.22.13-.38.13h-7.35v5.13h6.91c.16,0,.29.05.38.14s.14.22.14.38v.88c0,.15-.05.27-.14.36s-.22.14-.38.14h-6.91v5.94c0,.15-.05.27-.14.36-.1.09-.22.14-.39.14h-1.1Z"/>
                <path class="cls-2" d="m151.76,151.34c-1.28,0-2.35-.2-3.21-.59-.87-.4-1.53-.91-1.99-1.53-.46-.62-.71-1.28-.74-1.97,0-.12.05-.22.14-.32s.21-.14.34-.14h1.12c.18,0,.31.04.4.13s.15.19.18.31c.09.35.27.7.55,1.04.28.34.68.63,1.2.86.52.23,1.19.34,2.01.34,1.26,0,2.19-.22,2.78-.67.59-.45.89-1.04.89-1.79,0-.51-.16-.93-.47-1.24-.32-.31-.8-.6-1.44-.85-.65-.25-1.48-.52-2.51-.81-1.07-.31-1.96-.65-2.66-1.01-.7-.37-1.23-.82-1.57-1.36-.34-.54-.52-1.23-.52-2.07,0-.79.21-1.5.64-2.12.42-.62,1.04-1.12,1.85-1.49.81-.37,1.77-.55,2.9-.55.91,0,1.71.12,2.39.36.68.24,1.25.56,1.71.97.46.4.8.84,1.03,1.3s.36.91.37,1.35c0,.1-.04.2-.11.3s-.19.14-.35.14h-1.17c-.1,0-.21-.03-.32-.09-.11-.06-.19-.17-.25-.33-.09-.6-.42-1.11-1.01-1.52-.59-.41-1.35-.62-2.29-.62s-1.73.18-2.32.55c-.59.37-.89.94-.89,1.72,0,.5.14.91.42,1.24s.72.62,1.32.87c.6.25,1.39.51,2.35.79,1.17.32,2.13.66,2.88,1.02s1.3.81,1.66,1.34.54,1.22.54,2.06c0,.92-.24,1.71-.73,2.37-.48.65-1.16,1.15-2.04,1.5-.87.34-1.9.52-3.09.52Z"/>
                <path class="cls-2" d="m160.6,145.44c-.15,0-.27-.05-.36-.14-.1-.09-.14-.22-.14-.36v-.84c0-.15.05-.27.14-.36.09-.1.22-.14.36-.14h6.6c.16,0,.29.05.37.14s.13.22.13.36v.84c0,.15-.04.27-.13.36-.09.1-.21.14-.37.14h-6.6Z"/>
                <path class="cls-2" d="m179.79,151.12c-.15,0-.27-.05-.36-.14s-.14-.22-.14-.36v-6.58c0-1.17-.29-2.09-.88-2.74-.59-.65-1.53-.98-2.84-.98h-4.14c-.15,0-.27-.05-.36-.14-.1-.09-.14-.22-.14-.36v-.75c0-.15.05-.27.14-.36s.22-.14.36-.14h4.25c1.91,0,3.32.46,4.23,1.39.92.92,1.38,2.27,1.38,4.03v6.64c0,.15-.05.27-.14.36-.1.09-.22.14-.36.14h-.99Zm-8.36,0c-.15,0-.27-.05-.36-.14-.1-.1-.14-.22-.14-.36v-7.35c0-.15.05-.27.14-.36s.22-.14.36-.14h1.01c.15,0,.26.05.35.14.09.1.13.22.13.36v7.35c0,.15-.04.27-.13.36-.09.09-.21.14-.35.14h-1.01Z"/>
                <path class="cls-2" d="m192.79,139.24h.55c.22,0,.39.05.5.17.11.11.16.25.14.41-.12.62-.22,1.17-.3,1.67-.08.5-.14.99-.17,1.48-.03.49-.04,1.04-.04,1.66l.07,5.98c0,.15-.05.27-.14.36-.1.09-.22.14-.36.14l-3.12-.04c-.15,0-.27-.04-.36-.13-.09-.09-.14-.21-.14-.37v-.7c0-.15.05-.27.14-.36.1-.09.22-.14.36-.14l1.69.02v-4.66c0-.6,0-1.15.02-1.66.01-.51.06-1.01.13-1.53s.19-1.09.35-1.74c.04-.16.11-.29.21-.4.09-.1.25-.15.47-.15Zm-1.98,1.08c-.15,0-.27-.05-.36-.14-.1-.09-.14-.22-.14-.36v-.75c0-.15.05-.27.14-.36s.22-.14.36-.14h4.77c1.26,0,2.31.2,3.14.6.83.4,1.45,1,1.86,1.8.41.8.62,1.79.62,2.96v6.69c0,.15-.05.27-.14.36-.1.09-.22.14-.36.14h-.99c-.16,0-.29-.05-.37-.14-.09-.1-.13-.22-.13-.36v-6.58c0-1.17-.29-2.09-.88-2.74-.59-.65-1.53-.98-2.84-.98h-4.66Z"/>
                <path class="cls-2" d="m204.43,151.12c-.15,0-.27-.05-.36-.14-.09-.1-.14-.22-.14-.36v-3.3c0-.67.07-1.32.2-1.93.13-.61.39-1.19.78-1.74s.97-1.07,1.75-1.55l1.01,1.47c-.53.34-.92.72-1.19,1.16-.26.43-.44.88-.53,1.34-.09.46-.13.91-.13,1.33v3.21c0,.15-.05.27-.14.36-.1.09-.22.14-.36.14h-.88Zm8.58,0c-.16,0-.29-.04-.37-.13l-.24-.24-8.07-11.33c-.1-.16-.15-.3-.15-.42s.05-.22.14-.31.2-.13.32-.13h1.03c.16,0,.29.04.38.13.09.09.17.17.23.24l8.1,11.33c.06.1.1.18.12.24.02.06.03.12.03.18,0,.12-.04.22-.13.31s-.19.13-.31.13h-1.08Zm-1.76-4.03l-.9-1.52c.72-.34,1.23-.69,1.53-1.06.3-.37.48-.75.54-1.16s.09-.83.09-1.26v-3.04c0-.15.05-.27.14-.36s.22-.14.36-.14h.92c.15,0,.27.05.36.14.09.1.14.22.14.36v3.15c0,.62-.07,1.21-.22,1.78s-.44,1.11-.89,1.62c-.45.51-1.14,1-2.08,1.48Z"/>
                <path class="cls-2" d="m223.63,149.47c.95.02,1.76-.16,2.41-.53.65-.37,1.15-.89,1.5-1.57s.52-1.46.52-2.34v-5.96c0-.15.05-.27.14-.36s.22-.14.36-.14h.92c.15,0,.26.05.35.14.09.1.13.22.13.36v6.12c0,.94-.15,1.79-.44,2.54-.29.76-.71,1.4-1.25,1.94-.54.54-1.18.94-1.92,1.22-.74.28-1.56.4-2.45.37h-1.65c-.95,0-1.81-.22-2.57-.66-.76-.44-1.36-1.06-1.8-1.85-.44-.79-.66-1.71-.66-2.75v-6.93c0-.15.05-.27.14-.36.09-.1.22-.14.36-.14h.92c.15,0,.27.05.36.14.1.1.14.22.14.36l.07,6.49c0,1.26.35,2.23,1.06,2.9s1.6,1.01,2.68,1.01h.68Zm-4.88-2.57l-.04-1.61c1.09-.01,1.91-.18,2.49-.5s.97-.74,1.2-1.26c.23-.53.34-1.11.34-1.74v-2.73c0-.15.04-.27.13-.36s.21-.14.37-.14h.9c.15,0,.27.05.36.14.1.1.14.22.14.36v2.82c0,.95-.21,1.81-.64,2.57-.43.76-1.08,1.36-1.95,1.8-.87.44-1.98.65-3.31.64Z"/>
                <path class="cls-2" d="m240.16,151.12c-.15,0-.27-.05-.36-.14-.09-.1-.14-.22-.14-.36v-6.58c0-1.17-.29-2.09-.88-2.74-.59-.65-1.53-.98-2.84-.98h-2.88c-.15,0-.27-.05-.36-.14-.1-.09-.14-.22-.14-.36v-.75c0-.15.05-.27.14-.36.09-.1.22-.14.36-.14h2.99c1.26,0,2.31.2,3.14.59.83.4,1.45.99,1.86,1.79.41.8.62,1.79.62,2.98v6.69c0,.15-.05.27-.14.36-.1.09-.22.14-.36.14h-.99Z"/>
                <path class="cls-2" d="m253.77,151.12c-.15,0-.27-.05-.36-.14s-.14-.22-.14-.36v-6.58c0-1.17-.29-2.09-.88-2.74-.59-.65-1.53-.98-2.84-.98h-4.14c-.15,0-.27-.05-.36-.14-.1-.09-.14-.22-.14-.36v-.75c0-.15.05-.27.14-.36s.22-.14.36-.14h4.25c1.91,0,3.32.46,4.23,1.39.92.92,1.38,2.27,1.38,4.03v6.64c0,.15-.05.27-.14.36-.1.09-.22.14-.36.14h-.99Zm-8.36,0c-.15,0-.27-.05-.36-.14-.1-.1-.14-.22-.14-.36v-7.35c0-.15.05-.27.14-.36s.22-.14.36-.14h1.01c.15,0,.26.05.35.14.09.1.13.22.13.36v7.35c0,.15-.04.27-.13.36-.09.09-.21.14-.35.14h-1.01Z"/>
                <path class="cls-2" d="m118.57,177.52c-.15,0-.27-.05-.36-.14-.09-.1-.14-.22-.14-.36v-6.58c0-1.17-.29-2.09-.88-2.74-.59-.65-1.53-.98-2.84-.98h-2.88c-.15,0-.27-.05-.36-.14-.1-.09-.14-.22-.14-.36v-.75c0-.15.05-.27.14-.36.09-.1.22-.14.36-.14h2.99c1.26,0,2.31.2,3.14.59.83.4,1.45.99,1.86,1.79.41.8.62,1.79.62,2.98v6.69c0,.15-.05.27-.14.36-.1.09-.22.14-.36.14h-.99Z"/>
                <path class="cls-2" d="m126.18,165.64h.55c.22,0,.39.05.5.17.11.11.16.25.14.41-.12.62-.22,1.17-.3,1.67-.08.5-.14.99-.17,1.48-.03.49-.04,1.04-.04,1.66l.07,5.98c0,.15-.05.27-.14.36-.1.09-.22.14-.36.14l-3.12-.04c-.15,0-.27-.04-.36-.13-.09-.09-.14-.21-.14-.37v-.7c0-.15.05-.27.14-.36.1-.09.22-.14.36-.14l1.69.02v-4.66c0-.6,0-1.15.02-1.66.01-.51.06-1.01.13-1.53s.19-1.09.35-1.74c.04-.16.11-.29.21-.4.09-.1.25-.15.47-.15Zm-1.98,1.08c-.15,0-.27-.05-.36-.14-.1-.09-.14-.22-.14-.36v-.75c0-.15.05-.27.14-.36s.22-.14.36-.14h4.77c1.26,0,2.31.2,3.14.6.83.4,1.45,1,1.86,1.8.41.8.62,1.79.62,2.96v6.69c0,.15-.05.27-.14.36-.1.09-.22.14-.36.14h-.99c-.16,0-.29-.05-.37-.14-.09-.1-.13-.22-.13-.36v-6.58c0-1.17-.29-2.09-.88-2.74-.59-.65-1.53-.98-2.84-.98h-4.66Z"/>
                <path class="cls-2" d="m138.35,177.52c-.15,0-.27-.05-.36-.14-.1-.1-.14-.22-.14-.36v-11.55c0-.15.05-.27.14-.36s.22-.14.36-.14h1.03c.16,0,.29.05.37.14.09.1.13.22.13.36v11.55c0,.15-.04.27-.13.36-.09.09-.21.14-.37.14h-1.03Z"/>
                <path class="cls-2" d="m143.63,172.42c-.15,0-.27-.05-.36-.14s-.14-.22-.14-.36v-6.45c0-.15.05-.27.14-.36.1-.1.22-.14.36-.14h1.06c.15,0,.26.05.35.14s.13.22.13.36v6.45c0,.15-.04.27-.13.36-.09.1-.21.14-.35.14h-1.06Z"/>
                <path class="cls-2" d="m148.4,177.52c-.15,0-.27-.05-.36-.14-.09-.1-.14-.22-.14-.36v-.75c0-.15.05-.27.14-.36.1-.09.22-.14.36-.14h6.31v-5.32c0-1.17-.29-2.09-.88-2.74-.59-.65-1.53-.98-2.84-.98h-2.38c-.15,0-.27-.05-.36-.14-.1-.09-.14-.22-.14-.36v-.75c0-.15.05-.27.14-.36.09-.1.22-.14.36-.14h2.49c1.26,0,2.31.21,3.15.62.84.41,1.46,1.02,1.88,1.82s.63,1.79.63,2.98v5.39h.81c.15,0,.27.05.36.14.1.1.14.22.14.36v.75c0,.15-.05.27-.14.36-.1.09-.22.14-.36.14h-9.17Z"/>
                <path class="cls-2" d="m168.36,165.64h.55c.22,0,.39.05.5.17.11.11.16.25.14.41-.12.62-.22,1.17-.3,1.67-.08.5-.14.99-.17,1.48-.03.49-.04,1.04-.04,1.66l.07,5.98c0,.15-.05.27-.14.36-.1.09-.22.14-.36.14l-3.12-.04c-.15,0-.27-.04-.36-.13-.09-.09-.14-.21-.14-.37v-.7c0-.15.05-.27.14-.36.1-.09.22-.14.36-.14l1.69.02v-4.66c0-.6,0-1.15.02-1.66.01-.51.06-1.01.13-1.53s.19-1.09.35-1.74c.04-.16.11-.29.21-.4.09-.1.25-.15.47-.15Zm-1.98,1.08c-.15,0-.27-.05-.36-.14-.1-.09-.14-.22-.14-.36v-.75c0-.15.05-.27.14-.36s.22-.14.36-.14h4.77c1.26,0,2.31.2,3.14.6.83.4,1.45,1,1.86,1.8.41.8.62,1.79.62,2.96v6.69c0,.15-.05.27-.14.36-.1.09-.22.14-.36.14h-.99c-.16,0-.29-.05-.37-.14-.09-.1-.13-.22-.13-.36v-6.58c0-1.17-.29-2.09-.88-2.74-.59-.65-1.53-.98-2.84-.98h-4.66Z"/>
                <path class="cls-2" d="m180.37,172.42c-.15,0-.27-.05-.36-.14s-.14-.22-.14-.36v-6.45c0-.15.05-.27.14-.36.1-.1.22-.14.36-.14h1.06c.15,0,.26.05.35.14s.13.22.13.36v6.45c0,.15-.04.27-.13.36-.09.1-.21.14-.35.14h-1.06Z"/>
                <path class="cls-2" d="m184.97,177.52c-.15,0-.27-.05-.36-.14-.1-.1-.14-.22-.14-.36v-.75c0-.15.05-.27.14-.36.1-.09.22-.14.36-.14h6.2v1.34c0,.15-.05.25-.14.32-.09.07-.22.1-.36.1h-5.7Zm4.86,0c-.15,0-.26-.05-.34-.14-.08-.1-.14-.22-.17-.36l-.42-6.8c-.03-.72-.08-1.34-.17-1.87-.08-.53-.26-.94-.53-1.23-.27-.29-.72-.44-1.35-.44h-.9c-.15,0-.27-.05-.36-.14-.1-.09-.14-.22-.14-.36v-.75c0-.15.05-.27.14-.36.09-.1.22-.14.36-.14h.92c.84,0,1.51.12,2.02.36.51.24.91.59,1.2,1.06.29.46.49,1.02.62,1.66.12.65.21,1.36.25,2.16l.42,6.86c.01.15-.03.27-.13.36-.1.09-.23.14-.37.14h-1.06Z"/>
                <path class="cls-2" d="m200.74,177.52c-.15,0-.27-.05-.36-.14-.09-.1-.14-.22-.14-.36v-6.58c0-1.17-.29-2.09-.88-2.74-.59-.65-1.53-.98-2.84-.98h-2.88c-.15,0-.27-.05-.36-.14-.1-.09-.14-.22-.14-.36v-.75c0-.15.05-.27.14-.36.09-.1.22-.14.36-.14h2.99c1.26,0,2.31.2,3.14.59.83.4,1.45.99,1.86,1.79.41.8.62,1.79.62,2.98v6.69c0,.15-.05.27-.14.36-.1.09-.22.14-.36.14h-.99Z"/>
                <path class="cls-2" d="m205.85,172.42c-.15,0-.27-.05-.36-.14s-.14-.22-.14-.36v-6.45c0-.15.05-.27.14-.36.1-.1.22-.14.36-.14h1.06c.15,0,.26.05.35.14s.13.22.13.36v6.45c0,.15-.04.27-.13.36-.09.1-.21.14-.35.14h-1.06Z"/>
                <path class="cls-2" d="m213.41,165.64h.55c.22,0,.39.05.5.17.11.11.16.25.14.41-.12.62-.22,1.17-.3,1.67-.08.5-.14.99-.17,1.48-.03.49-.04,1.04-.04,1.66l.07,5.98c0,.15-.05.27-.14.36-.1.09-.22.14-.36.14l-3.12-.04c-.15,0-.27-.04-.36-.13-.09-.09-.14-.21-.14-.37v-.7c0-.15.05-.27.14-.36.1-.09.22-.14.36-.14l1.69.02v-4.66c0-.6,0-1.15.02-1.66.01-.51.06-1.01.13-1.53s.19-1.09.35-1.74c.04-.16.11-.29.21-.4.09-.1.25-.15.47-.15Zm-1.98,1.08c-.15,0-.27-.05-.36-.14-.1-.09-.14-.22-.14-.36v-.75c0-.15.05-.27.14-.36s.22-.14.36-.14h4.77c1.26,0,2.31.2,3.14.6.83.4,1.45,1,1.86,1.8.41.8.62,1.79.62,2.96v6.69c0,.15-.05.27-.14.36-.1.09-.22.14-.36.14h-.99c-.16,0-.29-.05-.37-.14-.09-.1-.13-.22-.13-.36v-6.58c0-1.17-.29-2.09-.88-2.74-.59-.65-1.53-.98-2.84-.98h-4.66Z"/>
                <path class="cls-2" d="m225.01,177.52c-.13,0-.24-.05-.33-.15-.09-.1-.12-.23-.11-.37l1.87-10.78c.03-.15.1-.26.2-.34.1-.08.23-.11.37-.08l.88.04c.15.01.26.08.35.19s.12.24.09.38l-1.76,10.58c-.02.15-.08.27-.19.37-.11.1-.24.15-.38.15h-.99Zm5.57-10.76h-5.35c-.16,0-.29-.05-.37-.14-.09-.09-.13-.22-.13-.36v-.79c0-.15.04-.27.13-.36s.21-.14.37-.14h5.59c.91,0,1.72.21,2.43.64.71.43,1.27,1.04,1.67,1.84.4.8.6,1.76.6,2.89v6.69c0,.15-.04.27-.13.36-.09.09-.21.14-.37.14h-5.68c-.15,0-.27-.05-.36-.14-.09-.1-.14-.22-.14-.36v-.75c0-.15.05-.27.14-.36.1-.09.22-.14.36-.14h4.18v-5.3c0-.75-.13-1.4-.38-1.96-.26-.56-.61-.99-1.06-1.29s-.95-.45-1.51-.45Z"/>
                <path class="cls-2" d="m247.65,177.52c-.15,0-.27-.05-.36-.14s-.14-.22-.14-.36v-6.58c0-1.17-.29-2.09-.88-2.74-.59-.65-1.53-.98-2.84-.98h-4.14c-.15,0-.27-.05-.36-.14-.1-.09-.14-.22-.14-.36v-.75c0-.15.05-.27.14-.36s.22-.14.36-.14h4.25c1.91,0,3.32.46,4.23,1.39.92.92,1.38,2.27,1.38,4.03v6.64c0,.15-.05.27-.14.36-.1.09-.22.14-.36.14h-.99Zm-8.36,0c-.15,0-.27-.05-.36-.14-.1-.1-.14-.22-.14-.36v-7.35c0-.15.05-.27.14-.36s.22-.14.36-.14h1.01c.15,0,.26.05.35.14.09.1.13.22.13.36v7.35c0,.15-.04.27-.13.36-.09.09-.21.14-.35.14h-1.01Z"/>
              </g>
            </g>
            <g>
              <path class="cls-3" d="m207,25.69h-53c-.83,0-1.5-.67-1.5-1.5s.67-1.5,1.5-1.5h53c.83,0,1.5.67,1.5,1.5s-.67,1.5-1.5,1.5Z"/>
              <path class="cls-3" d="m180.5,99.15c-.83,0-1.5-.67-1.5-1.5V24.19c0-.83.67-1.5,1.5-1.5s1.5.67,1.5,1.5v73.46c0,.83-.67,1.5-1.5,1.5Z"/>
            </g>
          </g>
        </g>
      </g>
      <g>
        <path class="cls-3" d="m511,155.19h-185c-.83,0-1.5-.67-1.5-1.5s.67-1.5,1.5-1.5h185c.83,0,1.5.67,1.5,1.5s-.67,1.5-1.5,1.5Z"/>
        <path class="cls-3" d="m418.5,228.65c-.83,0-1.5-.67-1.5-1.5v-73.46c0-.83.67-1.5,1.5-1.5s1.5.67,1.5,1.5v73.46c0,.83-.67,1.5-1.5,1.5Z"/>
      </g>
    </g>
  </g>
</svg>