<?xml version="1.0" encoding="UTF-8"?>
<svg id="Layer_2" data-name="Layer 2" xmlns="http://www.w3.org/2000/svg" viewBox="0 0 970.95 445.75">
  <defs>
    <style>
      .cls-1 {
        fill: #e9e8ef;
      }

      .cls-1, .cls-2 {
        stroke-width: 0px;
      }

      .cls-2 {
        fill: #9390ad;
      }
    </style>
  </defs>
  <g id="arrows">
    <g>
      <g>
        <rect class="cls-2" y="91.9" width="970.95" height="3"/>
        <rect class="cls-2" x="321.98" y="0" width="3" height="445.75"/>
      </g>
      <g>
        <g>
          <path class="cls-1" d="m388.12,161.46c-.15,0-.27-.05-.36-.14-.1-.1-.14-.22-.14-.36v-11.55c0-.15.05-.27.14-.36s.22-.14.36-.14h4.2c1.26,0,2.3.2,3.12.6.82.4,1.43,1,1.84,1.79.4.79.6,1.78.6,2.97v6.69c0,.15-.04.27-.13.36-.09.09-.21.14-.37.14h-9.26Zm1.39-1.76h6.42v-5.32c0-1.17-.29-2.09-.88-2.74-.59-.65-1.53-.98-2.84-.98h-2.71v9.04Z"/>
          <path class="cls-1" d="m401.51,156.36c-.15,0-.27-.05-.36-.14s-.14-.22-.14-.36v-6.45c0-.15.05-.27.14-.36.1-.1.22-.14.36-.14h1.06c.15,0,.26.05.35.14s.13.22.13.36v6.45c0,.15-.04.27-.13.36-.09.1-.21.14-.35.14h-1.06Z"/>
          <path class="cls-1" d="m406.35,161.46c-.15,0-.27-.05-.36-.14-.1-.1-.14-.22-.14-.36v-.77c0-.15.05-.27.14-.36s.22-.14.36-.14h5.96l-6.89-9.92c-.04-.09-.08-.17-.11-.23-.03-.07-.04-.13-.04-.19,0-.12.05-.22.14-.31s.2-.13.32-.13h1.06c.16,0,.29.04.37.12.09.08.16.17.22.25l7.17,10.27c.07.1.13.21.19.32.05.11.08.23.08.36v.73c0,.15-.05.27-.14.36-.1.09-.22.14-.36.14h-7.96Zm5.57-5.02l-.97-1.43c.78-.28,1.33-.74,1.67-1.38.34-.64.51-1.42.51-2.34v-1.89c0-.15.05-.27.14-.36.09-.1.22-.14.36-.14h.92c.15,0,.26.05.35.14s.13.22.13.36v2.16c0,1.19-.26,2.2-.79,3.04-.53.84-1.31,1.45-2.33,1.85Z"/>
          <path class="cls-1" d="m418.01,161.46c-.15,0-.27-.05-.36-.14-.09-.1-.14-.22-.14-.36v-.75c0-.15.05-.27.14-.36.1-.09.22-.14.36-.14h6.31v-5.32c0-1.17-.29-2.09-.88-2.74-.59-.65-1.53-.98-2.84-.98h-2.38c-.15,0-.27-.05-.36-.14-.1-.09-.14-.22-.14-.36v-.75c0-.15.05-.27.14-.36.09-.1.22-.14.36-.14h2.49c1.26,0,2.31.21,3.15.62.84.41,1.46,1.02,1.88,1.82s.63,1.79.63,2.98v5.39h.81c.15,0,.27.05.36.14.1.1.14.22.14.36v.75c0,.15-.05.27-.14.36-.1.09-.22.14-.36.14h-9.17Z"/>
          <path class="cls-1" d="m434.76,161.66c-.13.04-.25.03-.36-.06-.11-.08-.16-.19-.16-.34v-1.01c0-.13.04-.25.12-.35.08-.1.2-.18.36-.24l.84-.33c.59-.25,1.12-.55,1.59-.9.48-.35.85-.84,1.12-1.45.27-.62.41-1.42.41-2.42s-.12-1.71-.35-2.28c-.24-.56-.62-.97-1.16-1.21-.54-.24-1.26-.36-2.17-.36h-4.47c-.15,0-.27-.05-.36-.14-.1-.09-.14-.22-.14-.36v-.79c0-.15.05-.27.14-.36s.22-.14.36-.14h4.75c1.35,0,2.42.19,3.2.57.78.38,1.35.99,1.69,1.84.34.84.52,1.95.52,3.31,0,1.03-.14,1.91-.42,2.66-.28.75-.66,1.39-1.13,1.91-.48.53-1.01.96-1.61,1.31s-1.21.63-1.86.85l-.92.31Zm-4.22,4c-.15,0-.27-.05-.36-.14-.1-.09-.14-.22-.14-.36v-11.55c0-.15.05-.27.14-.36s.22-.14.36-.14h.97c.16,0,.29.05.37.14s.13.22.13.36v11.55c0,.15-.04.27-.13.36-.09.1-.21.14-.37.14h-.97Z"/>
          <path class="cls-1" d="m444.3,161.46c-.15,0-.27-.05-.36-.14-.1-.1-.14-.22-.14-.36v-11.55c0-.15.05-.27.14-.36s.22-.14.36-.14h1.03c.16,0,.29.05.37.14.09.1.13.22.13.36v11.55c0,.15-.04.27-.13.36-.09.09-.21.14-.37.14h-1.03Z"/>
          <path class="cls-1" d="m457.48,149.58h.55c.22,0,.39.05.5.17.11.11.16.25.14.41-.12.62-.22,1.17-.3,1.67-.08.5-.14.99-.17,1.48-.03.49-.04,1.04-.04,1.66l.07,5.98c0,.15-.05.27-.14.36-.1.09-.22.14-.36.14l-3.12-.04c-.15,0-.27-.04-.36-.13-.09-.09-.14-.21-.14-.37v-.7c0-.15.05-.27.14-.36.1-.09.22-.14.36-.14l1.69.02v-4.66c0-.6,0-1.15.02-1.66.01-.51.06-1.01.13-1.53s.19-1.09.35-1.74c.04-.16.11-.29.21-.4.09-.1.25-.15.47-.15Zm-1.98,1.08c-.15,0-.27-.05-.36-.14-.1-.09-.14-.22-.14-.36v-.75c0-.15.05-.27.14-.36s.22-.14.36-.14h4.77c1.26,0,2.31.2,3.14.6.83.4,1.45,1,1.86,1.8.41.8.62,1.79.62,2.96v6.69c0,.15-.05.27-.14.36-.1.09-.22.14-.36.14h-.99c-.16,0-.29-.05-.37-.14-.09-.1-.13-.22-.13-.36v-6.58c0-1.17-.29-2.09-.88-2.74-.59-.65-1.53-.98-2.84-.98h-4.66Z"/>
          <path class="cls-1" d="m469.65,161.46c-.15,0-.27-.05-.36-.14-.1-.1-.14-.22-.14-.36v-11.55c0-.15.05-.27.14-.36s.22-.14.36-.14h1.03c.16,0,.29.05.37.14.09.1.13.22.13.36v11.55c0,.15-.04.27-.13.36-.09.09-.21.14-.37.14h-1.03Z"/>
          <path class="cls-1" d="m479.88,161.68c-1.83,0-3.2-.48-4.09-1.44-.9-.96-1.34-2.31-1.34-4.06v-6.78c0-.15.05-.27.14-.36.09-.1.22-.14.36-.14h5.3c1.3,0,2.35.2,3.12.59.78.4,1.35.98,1.71,1.75.36.77.56,1.72.6,2.85.01.15.02.38.02.7v.97c0,.32,0,.56-.02.7-.03,1.12-.24,2.06-.64,2.85-.4.78-1.02,1.38-1.86,1.77-.84.4-1.95.59-3.31.59Zm0-1.8c1.39,0,2.38-.29,2.95-.87.57-.58.87-1.46.9-2.65.01-.15.02-.37.02-.66v-.86c0-.28,0-.49-.02-.64-.03-1.17-.36-2.06-1-2.65-.64-.59-1.5-.89-2.58-.89h-3.76v5.52c0,1.17.29,2.08.87,2.73.58.65,1.46.97,2.63.97Z"/>
          <path class="cls-1" d="m490.37,150.71v1.72c.01.53.08.97.21,1.32.12.35.35.57.67.66l.81.22c.12.03.21.11.28.23.07.12.1.28.1.45v.55c0,.16-.08.28-.24.35s-.34.1-.53.07l-.86-.18c-.47-.12-.87-.33-1.21-.63-.34-.3-.59-.71-.76-1.23-.17-.52-.25-1.15-.25-1.88v-2.95c0-.15.04-.27.13-.36s.21-.14.37-.14h4.07c1.1,0,2.02.22,2.75.65s1.29,1.06,1.67,1.87c.38.81.59,1.79.62,2.94.01.22.02.5.02.83s0,.61-.02.83c-.03,1.13-.23,2.1-.62,2.93-.38.82-.94,1.45-1.67,1.88-.73.43-1.65.65-2.75.65h-3.81c-.15,0-.27-.05-.36-.14-.09-.1-.14-.22-.14-.36v-.79c0-.15.05-.27.14-.36.1-.09.22-.14.36-.14h3.7c1.01,0,1.79-.33,2.34-.98.55-.65.85-1.57.91-2.74.01-.22.02-.47.02-.76s0-.54-.02-.76c-.03-1.17-.33-2.09-.89-2.74-.57-.65-1.35-.98-2.37-.98h-2.68Z"/>
          <path class="cls-1" d="m500.51,150.66c-.15,0-.27-.05-.36-.14-.1-.09-.14-.22-.14-.36v-.75c0-.15.05-.27.14-.36.09-.1.22-.14.36-.14h9.44c.15,0,.27.05.36.14.09.1.14.22.14.36v.75c0,.15-.05.27-.14.36s-.22.14-.36.14h-9.44Zm5.94,10.8c-.32,0-.48-.16-.48-.48v-7.85c0-.87.1-1.54.31-2.02.21-.48.46-.73.77-.73h2.16c-.37,0-.66.28-.89.84s-.34,1.25-.34,2.07v7.7c0,.15-.05.26-.15.35s-.23.13-.37.13h-.99Z"/>
          <path class="cls-1" d="m513.08,161.46c-.13,0-.24-.05-.33-.15-.09-.1-.12-.23-.11-.37l1.87-10.78c.03-.15.1-.26.2-.34.1-.08.23-.11.37-.08l.88.04c.15.01.26.08.35.19s.12.24.09.38l-1.76,10.58c-.02.15-.08.27-.19.37-.11.1-.24.15-.38.15h-.99Zm5.57-10.76h-5.35c-.16,0-.29-.05-.37-.14-.09-.09-.13-.22-.13-.36v-.79c0-.15.04-.27.13-.36s.21-.14.37-.14h5.59c.91,0,1.72.21,2.43.64.71.43,1.27,1.04,1.67,1.84.4.8.6,1.76.6,2.89v6.69c0,.15-.04.27-.13.36-.09.09-.21.14-.37.14h-5.68c-.15,0-.27-.05-.36-.14-.09-.1-.14-.22-.14-.36v-.75c0-.15.05-.27.14-.36.1-.09.22-.14.36-.14h4.18v-5.3c0-.75-.13-1.4-.38-1.96-.26-.56-.61-.99-1.06-1.29s-.95-.45-1.51-.45Z"/>
          <path class="cls-1" d="m535.1,149.58h.55c.22,0,.39.05.5.17.11.11.16.25.14.41-.12.62-.22,1.17-.3,1.67-.08.5-.14.99-.17,1.48-.03.49-.04,1.04-.04,1.66l.07,5.98c0,.15-.05.27-.14.36-.1.09-.22.14-.36.14l-3.12-.04c-.15,0-.27-.04-.36-.13-.09-.09-.14-.21-.14-.37v-.7c0-.15.05-.27.14-.36.1-.09.22-.14.36-.14l1.69.02v-4.66c0-.6,0-1.15.02-1.66.01-.51.06-1.01.13-1.53s.19-1.09.35-1.74c.04-.16.11-.29.21-.4.09-.1.25-.15.47-.15Zm-1.98,1.08c-.15,0-.27-.05-.36-.14-.1-.09-.14-.22-.14-.36v-.75c0-.15.05-.27.14-.36s.22-.14.36-.14h4.77c1.26,0,2.31.2,3.14.6.83.4,1.45,1,1.86,1.8.41.8.62,1.79.62,2.96v6.69c0,.15-.05.27-.14.36-.1.09-.22.14-.36.14h-.99c-.16,0-.29-.05-.37-.14-.09-.1-.13-.22-.13-.36v-6.58c0-1.17-.29-2.09-.88-2.74-.59-.65-1.53-.98-2.84-.98h-4.66Z"/>
          <path class="cls-1" d="m547.26,161.46c-.15,0-.27-.05-.36-.14-.1-.1-.14-.22-.14-.36v-11.55c0-.15.05-.27.14-.36s.22-.14.36-.14h1.03c.16,0,.29.05.37.14.09.1.13.22.13.36v11.55c0,.15-.04.27-.13.36-.09.09-.21.14-.37.14h-1.03Z"/>
          <path class="cls-1" d="m552.54,156.36c-.15,0-.27-.05-.36-.14s-.14-.22-.14-.36v-6.45c0-.15.05-.27.14-.36.1-.1.22-.14.36-.14h1.06c.15,0,.26.05.35.14s.13.22.13.36v6.45c0,.15-.04.27-.13.36-.09.1-.21.14-.35.14h-1.06Z"/>
          <path class="cls-1" d="m564.45,161.46c-.15,0-.27-.05-.36-.14-.09-.1-.14-.22-.14-.36v-6.58c0-1.17-.29-2.09-.88-2.74-.59-.65-1.53-.98-2.84-.98h-2.88c-.15,0-.27-.05-.36-.14-.1-.09-.14-.22-.14-.36v-.75c0-.15.05-.27.14-.36.09-.1.22-.14.36-.14h2.99c1.26,0,2.31.2,3.14.59.83.4,1.45.99,1.86,1.79.41.8.62,1.79.62,2.98v6.69c0,.15-.05.27-.14.36-.1.09-.22.14-.36.14h-.99Z"/>
          <path class="cls-1" d="m570.98,150.71v1.72c.01.53.08.97.21,1.32.12.35.35.57.67.66l.81.22c.12.03.21.11.28.23.07.12.1.28.1.45v.55c0,.16-.08.28-.24.35s-.34.1-.53.07l-.86-.18c-.47-.12-.87-.33-1.21-.63-.34-.3-.59-.71-.76-1.23-.17-.52-.25-1.15-.25-1.88v-2.95c0-.15.04-.27.13-.36s.21-.14.37-.14h4.07c1.1,0,2.02.22,2.75.65s1.29,1.06,1.67,1.87c.38.81.59,1.79.62,2.94.01.22.02.5.02.83s0,.61-.02.83c-.03,1.13-.23,2.1-.62,2.93-.38.82-.94,1.45-1.67,1.88-.73.43-1.65.65-2.75.65h-3.81c-.15,0-.27-.05-.36-.14-.09-.1-.14-.22-.14-.36v-.79c0-.15.05-.27.14-.36.1-.09.22-.14.36-.14h3.7c1.01,0,1.79-.33,2.34-.98.55-.65.85-1.57.91-2.74.01-.22.02-.47.02-.76s0-.54-.02-.76c-.03-1.17-.33-2.09-.89-2.74-.57-.65-1.35-.98-2.37-.98h-2.68Z"/>
          <path class="cls-1" d="m587.02,161.68c-1.83,0-3.2-.48-4.09-1.44-.9-.96-1.34-2.31-1.34-4.06v-6.78c0-.15.05-.27.14-.36.09-.1.22-.14.36-.14h5.3c1.3,0,2.35.2,3.12.59.78.4,1.35.98,1.71,1.75.36.77.56,1.72.6,2.85.01.15.02.38.02.7v.97c0,.32,0,.56-.02.7-.03,1.12-.24,2.06-.64,2.85-.4.78-1.02,1.38-1.86,1.77-.84.4-1.95.59-3.31.59Zm0-1.8c1.39,0,2.38-.29,2.95-.87.57-.58.87-1.46.9-2.65.01-.15.02-.37.02-.66v-.86c0-.28,0-.49-.02-.64-.03-1.17-.36-2.06-1-2.65-.64-.59-1.5-.89-2.58-.89h-3.76v5.52c0,1.17.29,2.08.87,2.73.58.65,1.46.97,2.63.97Z"/>
        </g>
        <g>
          <path class="cls-1" d="m452.17,268.16c-.15,0-.27-.05-.36-.14-.09-.1-.14-.22-.14-.36v-6.58c0-1.17-.29-2.09-.88-2.74-.59-.65-1.53-.98-2.84-.98h-2.88c-.15,0-.27-.05-.36-.14-.1-.09-.14-.22-.14-.36v-.75c0-.15.05-.27.14-.36.09-.1.22-.14.36-.14h2.99c1.26,0,2.31.2,3.14.59.83.4,1.45.99,1.86,1.79.41.8.62,1.79.62,2.98v6.69c0,.15-.05.27-.14.36-.1.09-.22.14-.36.14h-.99Z"/>
          <path class="cls-1" d="m457.43,268.16c-.15,0-.27-.05-.36-.14-.1-.1-.14-.22-.14-.36v-11.55c0-.15.05-.27.14-.36s.22-.14.36-.14h1.03c.16,0,.29.05.37.14.09.1.13.22.13.36v11.55c0,.15-.04.27-.13.36-.09.09-.21.14-.37.14h-1.03Z"/>
          <path class="cls-1" d="m462.4,268.16c-.15,0-.27-.05-.36-.14-.1-.1-.14-.22-.14-.36v-.77c0-.15.05-.27.14-.36s.22-.14.36-.14h5.96l-6.89-9.92c-.04-.09-.08-.17-.11-.23-.03-.07-.04-.13-.04-.19,0-.12.05-.22.14-.31s.2-.13.32-.13h1.06c.16,0,.29.04.37.12.09.08.16.17.22.25l7.17,10.27c.07.1.13.21.19.32.05.11.08.23.08.36v.73c0,.15-.05.27-.14.36-.1.09-.22.14-.36.14h-7.96Zm5.57-5.02l-.97-1.43c.78-.28,1.33-.74,1.67-1.38.34-.64.51-1.42.51-2.34v-1.89c0-.15.05-.27.14-.36.09-.1.22-.14.36-.14h.92c.15,0,.26.05.35.14s.13.22.13.36v2.16c0,1.19-.26,2.2-.79,3.04-.53.84-1.31,1.45-2.33,1.85Z"/>
          <path class="cls-1" d="m473.97,269.37c-.15.06-.29.05-.42-.03-.13-.08-.2-.19-.2-.34v-.75c0-.13.03-.26.09-.37.06-.12.15-.2.29-.24l4.64-1.52c.84-.28,1.48-.64,1.94-1.08.45-.44.77-.95.96-1.54.18-.59.28-1.22.28-1.91v-5.48c0-.15.05-.27.14-.36s.22-.14.36-.14h.99c.16,0,.29.05.37.14.09.1.13.22.13.36v6.09c0,.85-.19,1.65-.57,2.41-.38.75-.93,1.42-1.64,1.98-.71.57-1.55.99-2.52,1.29l-4.84,1.5Zm2.88-1.74l-3.1-11.15c-.03-.12-.06-.21-.08-.26-.02-.06-.03-.12-.03-.18,0-.12.04-.22.13-.31s.19-.13.31-.13h1.08c.28,0,.45.11.51.33l3.06,11.2-1.87.51Z"/>
          <path class="cls-1" d="m489.55,257.4l-2.62-.02c-.15,0-.27-.04-.36-.13s-.14-.21-.14-.35v-3.85c0-.15.05-.27.14-.36.1-.1.22-.14.36-.14h.92c.16,0,.29.05.37.14.09.09.13.22.13.36v2.55h1.23l-.04,1.8Zm-.04,10.96c-.13.04-.26.03-.37-.06-.12-.08-.18-.19-.18-.34v-1.01c0-.13.04-.25.12-.35.08-.1.2-.18.36-.24l.86-.33c.57-.25,1.1-.55,1.57-.9.48-.35.85-.84,1.12-1.45.27-.62.41-1.42.41-2.42s-.11-1.71-.34-2.28-.61-.97-1.14-1.21c-.54-.24-1.26-.36-2.19-.36h-.66c-.15,0-.27-.05-.36-.14-.1-.09-.14-.22-.14-.36v-.79c0-.15.05-.27.14-.36s.22-.14.36-.14h.97c1.33,0,2.4.19,3.19.57.79.38,1.36.99,1.71,1.84.34.84.52,1.95.52,3.31,0,1.03-.14,1.91-.42,2.66s-.66,1.39-1.13,1.91c-.48.53-1.02.96-1.62,1.31s-1.22.63-1.87.85l-.9.31Z"/>
          <path class="cls-1" d="m504.22,270.89c-.15,0-.27-.05-.36-.14s-.14-.22-.14-.36v-14.28c0-.15.05-.27.14-.36s.22-.14.36-.14h1.01c.15,0,.26.05.35.14.09.1.13.22.13.36v14.28c0,.15-.04.27-.13.36-.09.1-.21.14-.35.14h-1.01Z"/>
          <path class="cls-1" d="m511.99,256.28h.55c.22,0,.39.05.5.17.11.11.16.25.14.41-.12.62-.22,1.17-.3,1.67-.08.5-.14.99-.17,1.48-.03.49-.04,1.04-.04,1.66l.07,5.98c0,.15-.05.27-.14.36-.1.09-.22.14-.36.14l-3.12-.04c-.15,0-.27-.04-.36-.13-.09-.09-.14-.21-.14-.37v-.7c0-.15.05-.27.14-.36.1-.09.22-.14.36-.14l1.69.02v-4.66c0-.6,0-1.15.02-1.66.01-.51.06-1.01.13-1.53s.19-1.09.35-1.74c.04-.16.11-.29.21-.4.09-.1.25-.15.47-.15Zm-1.98,1.08c-.15,0-.27-.05-.36-.14-.1-.09-.14-.22-.14-.36v-.75c0-.15.05-.27.14-.36s.22-.14.36-.14h4.77c1.26,0,2.31.2,3.14.6.83.4,1.45,1,1.86,1.8.41.8.62,1.79.62,2.96v6.69c0,.15-.05.27-.14.36-.1.09-.22.14-.36.14h-.99c-.16,0-.29-.05-.37-.14-.09-.1-.13-.22-.13-.36v-6.58c0-1.17-.29-2.09-.88-2.74-.59-.65-1.53-.98-2.84-.98h-4.66Z"/>
          <path class="cls-1" d="m524,263.06c-.15,0-.27-.05-.36-.14s-.14-.22-.14-.36v-6.45c0-.15.05-.27.14-.36.1-.1.22-.14.36-.14h1.06c.15,0,.26.05.35.14s.13.22.13.36v6.45c0,.15-.04.27-.13.36-.09.1-.21.14-.35.14h-1.06Z"/>
          <path class="cls-1" d="m528.6,268.16c-.15,0-.27-.05-.36-.14-.1-.1-.14-.22-.14-.36v-.75c0-.15.05-.27.14-.36.1-.09.22-.14.36-.14h6.2v1.34c0,.15-.05.25-.14.32-.09.07-.22.1-.36.1h-5.7Zm4.86,0c-.15,0-.26-.05-.34-.14-.08-.1-.14-.22-.17-.36l-.42-6.8c-.03-.72-.08-1.34-.17-1.87-.08-.53-.26-.94-.53-1.23-.27-.29-.72-.44-1.35-.44h-.9c-.15,0-.27-.05-.36-.14-.1-.09-.14-.22-.14-.36v-.75c0-.15.05-.27.14-.36.09-.1.22-.14.36-.14h.92c.84,0,1.51.12,2.02.36.51.24.91.59,1.2,1.06.29.46.49,1.02.62,1.66.12.65.21,1.36.25,2.16l.42,6.86c.01.15-.03.27-.13.36-.1.09-.23.14-.37.14h-1.06Z"/>
        </g>
        <g>
          <path class="cls-1" d="m409.38,372.28h.55c.22,0,.39.05.5.17.11.11.16.25.14.41-.12.62-.22,1.17-.3,1.67-.08.5-.14.99-.17,1.48-.03.49-.04,1.04-.04,1.66l.07,5.98c0,.15-.05.27-.14.36-.1.09-.22.14-.36.14l-3.12-.04c-.15,0-.27-.04-.36-.13-.09-.09-.14-.21-.14-.37v-.7c0-.15.05-.27.14-.36.1-.09.22-.14.36-.14l1.69.02v-4.66c0-.6,0-1.15.02-1.66.01-.51.06-1.01.13-1.53s.19-1.09.35-1.74c.04-.16.11-.29.21-.4.09-.1.25-.15.47-.15Zm-1.98,1.08c-.15,0-.27-.05-.36-.14-.1-.09-.14-.22-.14-.36v-.75c0-.15.05-.27.14-.36s.22-.14.36-.14h4.77c1.26,0,2.31.2,3.14.6.83.4,1.45,1,1.86,1.8.41.8.62,1.79.62,2.96v6.69c0,.15-.05.27-.14.36-.1.09-.22.14-.36.14h-.99c-.16,0-.29-.05-.37-.14-.09-.1-.13-.22-.13-.36v-6.58c0-1.17-.29-2.09-.88-2.74-.59-.65-1.53-.98-2.84-.98h-4.66Z"/>
          <path class="cls-1" d="m427.29,382.51c.95.02,1.76-.16,2.41-.53.65-.37,1.15-.89,1.5-1.57s.52-1.46.52-2.34v-5.96c0-.15.05-.27.14-.36s.22-.14.36-.14h.92c.15,0,.26.05.35.14.09.1.13.22.13.36v6.12c0,.94-.15,1.79-.44,2.54-.29.76-.71,1.4-1.25,1.94-.54.54-1.18.94-1.92,1.22-.74.28-1.56.4-2.45.37h-1.65c-.95,0-1.81-.22-2.57-.66-.76-.44-1.36-1.06-1.8-1.85-.44-.79-.66-1.71-.66-2.75v-6.93c0-.15.05-.27.14-.36.09-.1.22-.14.36-.14h.92c.15,0,.27.05.36.14.1.1.14.22.14.36l.07,6.49c0,1.26.35,2.23,1.06,2.9s1.6,1.01,2.68,1.01h.68Zm-4.88-2.57l-.04-1.61c1.09-.01,1.91-.18,2.49-.5s.97-.74,1.2-1.26c.23-.53.34-1.11.34-1.74v-2.73c0-.15.04-.27.13-.36s.21-.14.37-.14h.9c.15,0,.27.05.36.14.1.1.14.22.14.36v2.82c0,.95-.21,1.81-.64,2.57-.43.76-1.08,1.36-1.95,1.8-.87.44-1.98.65-3.31.64Z"/>
          <path class="cls-1" d="m443.81,384.16c-.15,0-.27-.05-.36-.14-.09-.1-.14-.22-.14-.36v-6.58c0-1.17-.29-2.09-.88-2.74-.59-.65-1.53-.98-2.84-.98h-2.88c-.15,0-.27-.05-.36-.14-.1-.09-.14-.22-.14-.36v-.75c0-.15.05-.27.14-.36.09-.1.22-.14.36-.14h2.99c1.26,0,2.31.2,3.14.59.83.4,1.45.99,1.86,1.79.41.8.62,1.79.62,2.98v6.69c0,.15-.05.27-.14.36-.1.09-.22.14-.36.14h-.99Z"/>
          <path class="cls-1" d="m448.54,384.16c-.15,0-.27-.05-.36-.14-.09-.1-.14-.22-.14-.36v-.75c0-.15.05-.27.14-.36.1-.09.22-.14.36-.14h6.31v-5.32c0-1.17-.29-2.09-.88-2.74-.59-.65-1.53-.98-2.84-.98h-2.38c-.15,0-.27-.05-.36-.14-.1-.09-.14-.22-.14-.36v-.75c0-.15.05-.27.14-.36.09-.1.22-.14.36-.14h2.49c1.26,0,2.31.21,3.15.62.84.41,1.46,1.02,1.88,1.82s.63,1.79.63,2.98v5.39h.81c.15,0,.27.05.36.14.1.1.14.22.14.36v.75c0,.15-.05.27-.14.36-.1.09-.22.14-.36.14h-9.17Z"/>
          <path class="cls-1" d="m461.06,384.16c-.15,0-.27-.05-.36-.14-.1-.1-.14-.22-.14-.36v-11.55c0-.15.05-.27.14-.36s.22-.14.36-.14h1.03c.16,0,.29.05.37.14.09.1.13.22.13.36v11.55c0,.15-.04.27-.13.36-.09.09-.21.14-.37.14h-1.03Z"/>
          <path class="cls-1" d="m471.73,379.06c-.15,0-.27-.05-.36-.14s-.14-.22-.14-.36v-6.45c0-.15.05-.27.14-.36.1-.1.22-.14.36-.14h1.06c.15,0,.26.05.35.14s.13.22.13.36v6.45c0,.15-.04.27-.13.36-.09.1-.21.14-.35.14h-1.06Z"/>
          <path class="cls-1" d="m476.46,384.16c-.13,0-.24-.05-.33-.15-.09-.1-.12-.23-.11-.37l1.87-10.78c.03-.15.1-.26.2-.34.1-.08.23-.11.37-.08l.88.04c.15.01.26.08.35.19s.12.24.09.38l-1.76,10.58c-.02.15-.08.27-.19.37-.11.1-.24.15-.38.15h-.99Zm5.57-10.76h-5.35c-.16,0-.29-.05-.37-.14-.09-.09-.13-.22-.13-.36v-.79c0-.15.04-.27.13-.36s.21-.14.37-.14h5.59c.91,0,1.72.21,2.43.64.71.43,1.27,1.04,1.67,1.84.4.8.6,1.76.6,2.89v6.69c0,.15-.04.27-.13.36-.09.09-.21.14-.37.14h-5.68c-.15,0-.27-.05-.36-.14-.09-.1-.14-.22-.14-.36v-.75c0-.15.05-.27.14-.36.1-.09.22-.14.36-.14h4.18v-5.3c0-.75-.13-1.4-.38-1.96-.26-.56-.61-.99-1.06-1.29s-.95-.45-1.51-.45Z"/>
          <path class="cls-1" d="m490.74,384.16c-.15,0-.27-.05-.36-.14-.1-.1-.14-.22-.14-.36v-11.55c0-.15.05-.27.14-.36s.22-.14.36-.14h1.03c.16,0,.29.05.37.14.09.1.13.22.13.36v11.55c0,.15-.04.27-.13.36-.09.09-.21.14-.37.14h-1.03Z"/>
          <path class="cls-1" d="m500.39,384.36c-.13.04-.25.03-.36-.06-.11-.08-.16-.19-.16-.34v-1.01c0-.13.04-.25.12-.35.08-.1.2-.18.36-.24l.84-.33c.59-.25,1.12-.55,1.59-.9.48-.35.85-.84,1.12-1.45.27-.62.41-1.42.41-2.42s-.12-1.71-.35-2.28c-.24-.56-.62-.97-1.16-1.21-.54-.24-1.26-.36-2.17-.36h-4.47c-.15,0-.27-.05-.36-.14-.1-.09-.14-.22-.14-.36v-.79c0-.15.05-.27.14-.36s.22-.14.36-.14h4.75c1.35,0,2.42.19,3.2.57.78.38,1.35.99,1.69,1.84.34.84.52,1.95.52,3.31,0,1.03-.14,1.91-.42,2.66-.28.75-.66,1.39-1.13,1.91-.48.53-1.01.96-1.61,1.31s-1.21.63-1.86.85l-.92.31Zm-4.22,4c-.15,0-.27-.05-.36-.14-.1-.09-.14-.22-.14-.36v-11.55c0-.15.05-.27.14-.36s.22-.14.36-.14h.97c.16,0,.29.05.37.14s.13.22.13.36v11.55c0,.15-.04.27-.13.36-.09.1-.21.14-.37.14h-.97Z"/>
          <path class="cls-1" d="m509.37,384.16c-.13,0-.24-.05-.33-.15-.09-.1-.12-.23-.11-.37l1.87-10.78c.03-.15.1-.26.2-.34.1-.08.23-.11.37-.08l.88.04c.15.01.26.08.35.19s.12.24.09.38l-1.76,10.58c-.02.15-.08.27-.19.37-.11.1-.24.15-.38.15h-.99Zm5.57-10.76h-5.35c-.16,0-.29-.05-.37-.14-.09-.09-.13-.22-.13-.36v-.79c0-.15.04-.27.13-.36s.21-.14.37-.14h5.59c.91,0,1.72.21,2.43.64.71.43,1.27,1.04,1.67,1.84.4.8.6,1.76.6,2.89v6.69c0,.15-.04.27-.13.36-.09.09-.21.14-.37.14h-5.68c-.15,0-.27-.05-.36-.14-.09-.1-.14-.22-.14-.36v-.75c0-.15.05-.27.14-.36.1-.09.22-.14.36-.14h4.18v-5.3c0-.75-.13-1.4-.38-1.96-.26-.56-.61-.99-1.06-1.29s-.95-.45-1.51-.45Z"/>
          <path class="cls-1" d="m529.04,386.89c-.15,0-.27-.05-.36-.14s-.14-.22-.14-.36v-14.28c0-.15.05-.27.14-.36s.22-.14.36-.14h1.01c.15,0,.26.05.35.14.09.1.13.22.13.36v14.28c0,.15-.04.27-.13.36-.09.1-.21.14-.35.14h-1.01Z"/>
          <path class="cls-1" d="m535.73,373.4v1.72c.01.53.08.97.21,1.32.12.35.35.57.67.66l.81.22c.12.03.21.11.28.23.07.12.1.28.1.45v.55c0,.16-.08.28-.24.35s-.34.1-.53.07l-.86-.18c-.47-.12-.87-.33-1.21-.63-.34-.3-.59-.71-.76-1.23-.17-.52-.25-1.15-.25-1.88v-2.95c0-.15.04-.27.13-.36s.21-.14.37-.14h4.07c1.1,0,2.02.22,2.75.65s1.29,1.06,1.67,1.87c.38.81.59,1.79.62,2.94.01.22.02.5.02.83s0,.61-.02.83c-.03,1.13-.23,2.1-.62,2.93-.38.82-.94,1.45-1.67,1.88-.73.43-1.65.65-2.75.65h-3.81c-.15,0-.27-.05-.36-.14-.09-.1-.14-.22-.14-.36v-.79c0-.15.05-.27.14-.36.1-.09.22-.14.36-.14h3.7c1.01,0,1.79-.33,2.34-.98.55-.65.85-1.57.91-2.74.01-.22.02-.47.02-.76s0-.54-.02-.76c-.03-1.17-.33-2.09-.89-2.74-.57-.65-1.35-.98-2.37-.98h-2.68Z"/>
          <path class="cls-1" d="m546.97,384.16c-.15,0-.27-.05-.36-.14-.1-.1-.14-.22-.14-.36v-11.55c0-.15.05-.27.14-.36s.22-.14.36-.14h1.03c.16,0,.29.05.37.14.09.1.13.22.13.36v11.55c0,.15-.04.27-.13.36-.09.09-.21.14-.37.14h-1.03Z"/>
          <path class="cls-1" d="m551.87,384.16c-.15,0-.27-.05-.36-.14-.09-.1-.14-.22-.14-.36v-3.3c0-.67.07-1.32.2-1.93.13-.61.39-1.19.78-1.74s.97-1.07,1.75-1.55l1.01,1.47c-.53.34-.92.72-1.19,1.16-.26.43-.44.88-.53,1.34-.09.46-.13.91-.13,1.33v3.21c0,.15-.05.27-.14.36-.1.09-.22.14-.36.14h-.88Zm8.58,0c-.16,0-.29-.04-.37-.13l-.24-.24-8.07-11.33c-.1-.16-.15-.3-.15-.42s.05-.22.14-.31.2-.13.32-.13h1.03c.16,0,.29.04.38.13.09.09.17.17.23.24l8.1,11.33c.06.1.1.18.12.24.02.06.03.12.03.18,0,.12-.04.22-.13.31s-.19.13-.31.13h-1.08Zm-1.76-4.03l-.9-1.52c.72-.34,1.23-.69,1.53-1.06.3-.37.48-.75.54-1.16s.09-.83.09-1.26v-3.04c0-.15.05-.27.14-.36s.22-.14.36-.14h.92c.15,0,.27.05.36.14.09.1.14.22.14.36v3.15c0,.62-.07,1.21-.22,1.78s-.44,1.11-.89,1.62c-.45.51-1.14,1-2.08,1.48Z"/>
          <path class="cls-1" d="m564.81,384.16c-.15,0-.27-.05-.36-.14-.09-.1-.14-.22-.14-.36v-.75c0-.15.05-.27.14-.36.1-.09.22-.14.36-.14h6.31v-5.32c0-1.17-.29-2.09-.88-2.74-.59-.65-1.53-.98-2.84-.98h-2.38c-.15,0-.27-.05-.36-.14-.1-.09-.14-.22-.14-.36v-.75c0-.15.05-.27.14-.36.09-.1.22-.14.36-.14h2.49c1.26,0,2.31.21,3.15.62.84.41,1.46,1.02,1.88,1.82s.63,1.79.63,2.98v5.39h.81c.15,0,.27.05.36.14.1.1.14.22.14.36v.75c0,.15-.05.27-.14.36-.1.09-.22.14-.36.14h-9.17Z"/>
        </g>
        <g>
          <path class="cls-1" d="m88.34,372.28h.55c.22,0,.39.05.5.17.11.11.16.25.14.41-.12.62-.22,1.17-.3,1.67-.08.5-.14.99-.17,1.48-.03.49-.04,1.04-.04,1.66l.07,5.98c0,.15-.05.27-.14.36-.1.09-.22.14-.36.14l-3.12-.04c-.15,0-.27-.04-.36-.13-.09-.09-.14-.21-.14-.37v-.7c0-.15.05-.27.14-.36.1-.09.22-.14.36-.14l1.69.02v-4.66c0-.6,0-1.15.02-1.66.01-.51.06-1.01.13-1.53s.19-1.09.35-1.74c.04-.16.11-.29.21-.4.09-.1.25-.15.47-.15Zm-1.98,1.08c-.15,0-.27-.05-.36-.14-.1-.09-.14-.22-.14-.36v-.75c0-.15.05-.27.14-.36s.22-.14.36-.14h4.77c1.26,0,2.31.2,3.14.6.83.4,1.45,1,1.86,1.8.41.8.62,1.79.62,2.96v6.69c0,.15-.05.27-.14.36-.1.09-.22.14-.36.14h-.99c-.16,0-.29-.05-.37-.14-.09-.1-.13-.22-.13-.36v-6.58c0-1.17-.29-2.09-.88-2.74-.59-.65-1.53-.98-2.84-.98h-4.66Z"/>
          <path class="cls-1" d="m106.25,382.51c.95.02,1.76-.16,2.41-.53.65-.37,1.15-.89,1.5-1.57s.52-1.46.52-2.34v-5.96c0-.15.05-.27.14-.36s.22-.14.36-.14h.92c.15,0,.26.05.35.14.09.1.13.22.13.36v6.12c0,.94-.15,1.79-.44,2.54-.29.76-.71,1.4-1.25,1.94-.54.54-1.18.94-1.92,1.22-.74.28-1.56.4-2.45.37h-1.65c-.95,0-1.81-.22-2.57-.66-.76-.44-1.36-1.06-1.8-1.85-.44-.79-.66-1.71-.66-2.75v-6.93c0-.15.05-.27.14-.36.09-.1.22-.14.36-.14h.92c.15,0,.27.05.36.14.1.1.14.22.14.36l.07,6.49c0,1.26.35,2.23,1.06,2.9s1.6,1.01,2.68,1.01h.68Zm-4.88-2.57l-.04-1.61c1.09-.01,1.91-.18,2.49-.5s.97-.74,1.2-1.26c.23-.53.34-1.11.34-1.74v-2.73c0-.15.04-.27.13-.36s.21-.14.37-.14h.9c.15,0,.27.05.36.14.1.1.14.22.14.36v2.82c0,.95-.21,1.81-.64,2.57-.43.76-1.08,1.36-1.95,1.8-.87.44-1.98.65-3.31.64Z"/>
          <path class="cls-1" d="m122.77,384.16c-.15,0-.27-.05-.36-.14-.09-.1-.14-.22-.14-.36v-6.58c0-1.17-.29-2.09-.88-2.74-.59-.65-1.53-.98-2.84-.98h-2.88c-.15,0-.27-.05-.36-.14-.1-.09-.14-.22-.14-.36v-.75c0-.15.05-.27.14-.36.09-.1.22-.14.36-.14h2.99c1.26,0,2.31.2,3.14.59.83.4,1.45.99,1.86,1.79.41.8.62,1.79.62,2.98v6.69c0,.15-.05.27-.14.36-.1.09-.22.14-.36.14h-.99Z"/>
          <path class="cls-1" d="m136.39,384.16c-.15,0-.27-.05-.36-.14s-.14-.22-.14-.36v-6.58c0-1.17-.29-2.09-.88-2.74-.59-.65-1.53-.98-2.84-.98h-4.14c-.15,0-.27-.05-.36-.14-.1-.09-.14-.22-.14-.36v-.75c0-.15.05-.27.14-.36s.22-.14.36-.14h4.25c1.91,0,3.32.46,4.23,1.39.92.92,1.38,2.27,1.38,4.03v6.64c0,.15-.05.27-.14.36-.1.09-.22.14-.36.14h-.99Zm-8.36,0c-.15,0-.27-.05-.36-.14-.1-.1-.14-.22-.14-.36v-7.35c0-.15.05-.27.14-.36s.22-.14.36-.14h1.01c.15,0,.26.05.35.14.09.1.13.22.13.36v7.35c0,.15-.04.27-.13.36-.09.09-.21.14-.35.14h-1.01Z"/>
          <path class="cls-1" d="m153.17,377.08c0-1.17-.3-2.09-.89-2.74-.59-.65-1.54-.98-2.85-.98h-3.23c-.15,0-.27-.05-.36-.14-.1-.09-.14-.22-.14-.36v-.75c0-.15.05-.27.14-.36.09-.1.22-.14.36-.14h3.34c1.28,0,2.33.19,3.16.58.83.39,1.45.97,1.86,1.76.41.78.62,1.79.62,3.02v9.42c0,.15-.05.27-.14.36-.09.1-.22.14-.36.14h-.99c-.16,0-.29-.05-.37-.14s-.13-.22-.13-.36v-9.31Z"/>
          <path class="cls-1" d="m165.54,384.16c-.15,0-.27-.05-.36-.14-.09-.1-.14-.22-.14-.36v-6.58c0-1.17-.29-2.09-.88-2.74-.59-.65-1.53-.98-2.84-.98h-2.88c-.15,0-.27-.05-.36-.14-.1-.09-.14-.22-.14-.36v-.75c0-.15.05-.27.14-.36.09-.1.22-.14.36-.14h2.99c1.26,0,2.31.2,3.14.59.83.4,1.45.99,1.86,1.79.41.8.62,1.79.62,2.98v6.69c0,.15-.05.27-.14.36-.1.09-.22.14-.36.14h-.99Z"/>
          <path class="cls-1" d="m169.43,373.36c-.15,0-.27-.05-.36-.14-.1-.09-.14-.22-.14-.36v-.75c0-.15.05-.27.14-.36.09-.1.22-.14.36-.14h9.44c.15,0,.27.05.36.14.09.1.14.22.14.36v.75c0,.15-.05.27-.14.36s-.22.14-.36.14h-9.44Zm5.94,10.8c-.32,0-.48-.16-.48-.48v-7.85c0-.87.1-1.54.31-2.02.21-.48.46-.73.77-.73h2.16c-.37,0-.66.28-.89.84s-.34,1.25-.34,2.07v7.7c0,.15-.05.26-.15.35s-.23.13-.37.13h-.99Z"/>
          <path class="cls-1" d="m191.76,384.36c-.13.04-.25.03-.36-.06-.11-.08-.16-.19-.16-.34v-1.01c0-.13.04-.25.12-.35.08-.1.2-.18.36-.24l.84-.33c.59-.25,1.12-.55,1.59-.9.48-.35.85-.84,1.12-1.45.27-.62.41-1.42.41-2.42s-.12-1.71-.35-2.28c-.24-.56-.62-.97-1.16-1.21-.54-.24-1.26-.36-2.17-.36h-4.47c-.15,0-.27-.05-.36-.14-.1-.09-.14-.22-.14-.36v-.79c0-.15.05-.27.14-.36s.22-.14.36-.14h4.75c1.35,0,2.42.19,3.2.57.78.38,1.35.99,1.69,1.84.34.84.52,1.95.52,3.31,0,1.03-.14,1.91-.42,2.66-.28.75-.66,1.39-1.13,1.91-.48.53-1.01.96-1.61,1.31s-1.21.63-1.86.85l-.92.31Zm-4.22,4c-.15,0-.27-.05-.36-.14-.1-.09-.14-.22-.14-.36v-11.55c0-.15.05-.27.14-.36s.22-.14.36-.14h.97c.16,0,.29.05.37.14s.13.22.13.36v11.55c0,.15-.04.27-.13.36-.09.1-.21.14-.37.14h-.97Z"/>
          <path class="cls-1" d="m207.91,384.16c-.15,0-.27-.05-.36-.14-.09-.1-.14-.22-.14-.36v-6.58c0-1.17-.29-2.09-.88-2.74-.59-.65-1.53-.98-2.84-.98h-2.88c-.15,0-.27-.05-.36-.14-.1-.09-.14-.22-.14-.36v-.75c0-.15.05-.27.14-.36.09-.1.22-.14.36-.14h2.99c1.26,0,2.31.2,3.14.59.83.4,1.45.99,1.86,1.79.41.8.62,1.79.62,2.98v6.69c0,.15-.05.27-.14.36-.1.09-.22.14-.36.14h-.99Z"/>
        </g>
        <g>
          <path class="cls-1" d="m63.27,271.66c-.95,0-1.76-.2-2.42-.61-.66-.4-1.19-1.02-1.58-1.86-.4-.84-.69-1.9-.87-3.2-.18-1.3-.28-2.84-.28-4.63s.09-3.34.28-4.64c.18-1.3.47-2.37.87-3.2.4-.83.92-1.44,1.58-1.84.66-.4,1.47-.59,2.42-.59.15,0,.27.05.36.15.1.1.14.22.14.35v.77c0,.13-.05.25-.14.35-.09.1-.19.15-.3.15-.62.01-1.13.17-1.55.47-.42.3-.76.78-1.01,1.44-.26.66-.44,1.53-.55,2.61-.11,1.08-.17,2.4-.17,3.97s.05,2.89.17,3.97c.11,1.08.29,1.95.55,2.61.26.66.59,1.14,1.01,1.45.42.31.93.47,1.55.48.1,0,.2.05.3.14.1.09.14.22.14.36v.77c0,.13-.05.25-.14.35-.09.1-.22.15-.36.15Z"/>
          <path class="cls-1" d="m73.13,268.16c-.15,0-.27-.05-.36-.14-.09-.1-.14-.22-.14-.36v-6.58c0-1.17-.29-2.09-.88-2.74-.59-.65-1.53-.98-2.84-.98h-2.88c-.15,0-.27-.05-.36-.14-.1-.09-.14-.22-.14-.36v-.75c0-.15.05-.27.14-.36.09-.1.22-.14.36-.14h2.99c1.26,0,2.31.2,3.14.59.83.4,1.45.99,1.86,1.79.41.8.62,1.79.62,2.98v6.69c0,.15-.05.27-.14.36-.1.09-.22.14-.36.14h-.99Z"/>
          <path class="cls-1" d="m78.39,268.16c-.15,0-.27-.05-.36-.14-.1-.1-.14-.22-.14-.36v-11.55c0-.15.05-.27.14-.36s.22-.14.36-.14h1.03c.16,0,.29.05.37.14.09.1.13.22.13.36v11.55c0,.15-.04.27-.13.36-.09.09-.21.14-.37.14h-1.03Z"/>
          <path class="cls-1" d="m83.36,268.16c-.15,0-.27-.05-.36-.14-.1-.1-.14-.22-.14-.36v-.77c0-.15.05-.27.14-.36s.22-.14.36-.14h5.96l-6.89-9.92c-.04-.09-.08-.17-.11-.23-.03-.07-.04-.13-.04-.19,0-.12.05-.22.14-.31s.2-.13.32-.13h1.06c.16,0,.29.04.37.12.09.08.16.17.22.25l7.17,10.27c.07.1.13.21.19.32.05.11.08.23.08.36v.73c0,.15-.05.27-.14.36-.1.09-.22.14-.36.14h-7.96Zm5.57-5.02l-.97-1.43c.78-.28,1.33-.74,1.67-1.38.34-.64.51-1.42.51-2.34v-1.89c0-.15.05-.27.14-.36.09-.1.22-.14.36-.14h.92c.15,0,.26.05.35.14s.13.22.13.36v2.16c0,1.19-.26,2.2-.79,3.04-.53.84-1.31,1.45-2.33,1.85Z"/>
          <path class="cls-1" d="m94.93,269.37c-.15.06-.29.05-.42-.03-.13-.08-.2-.19-.2-.34v-.75c0-.13.03-.26.09-.37.06-.12.15-.2.29-.24l4.64-1.52c.84-.28,1.48-.64,1.94-1.08.45-.44.77-.95.96-1.54.18-.59.28-1.22.28-1.91v-5.48c0-.15.05-.27.14-.36s.22-.14.36-.14h.99c.16,0,.29.05.37.14.09.1.13.22.13.36v6.09c0,.85-.19,1.65-.57,2.41-.38.75-.93,1.42-1.64,1.98-.71.57-1.55.99-2.52,1.29l-4.84,1.5Zm2.88-1.74l-3.1-11.15c-.03-.12-.06-.21-.08-.26-.02-.06-.03-.12-.03-.18,0-.12.04-.22.13-.31s.19-.13.31-.13h1.08c.28,0,.45.11.51.33l3.06,11.2-1.87.51Z"/>
          <path class="cls-1" d="m110.51,257.4l-2.62-.02c-.15,0-.27-.04-.36-.13s-.14-.21-.14-.35v-3.85c0-.15.05-.27.14-.36.1-.1.22-.14.36-.14h.92c.16,0,.29.05.37.14.09.09.13.22.13.36v2.55h1.23l-.04,1.8Zm-.04,10.96c-.13.04-.26.03-.37-.06-.12-.08-.18-.19-.18-.34v-1.01c0-.13.04-.25.12-.35.08-.1.2-.18.36-.24l.86-.33c.57-.25,1.1-.55,1.57-.9.48-.35.85-.84,1.12-1.45.27-.62.41-1.42.41-2.42s-.11-1.71-.34-2.28-.61-.97-1.14-1.21c-.54-.24-1.26-.36-2.19-.36h-.66c-.15,0-.27-.05-.36-.14-.1-.09-.14-.22-.14-.36v-.79c0-.15.05-.27.14-.36s.22-.14.36-.14h.97c1.33,0,2.4.19,3.19.57.79.38,1.36.99,1.71,1.84.34.84.52,1.95.52,3.31,0,1.03-.14,1.91-.42,2.66s-.66,1.39-1.13,1.91c-.48.53-1.02.96-1.62,1.31s-1.22.63-1.87.85l-.9.31Z"/>
          <path class="cls-1" d="m125.18,270.89c-.15,0-.27-.05-.36-.14s-.14-.22-.14-.36v-14.28c0-.15.05-.27.14-.36s.22-.14.36-.14h1.01c.15,0,.26.05.35.14.09.1.13.22.13.36v14.28c0,.15-.04.27-.13.36-.09.1-.21.14-.35.14h-1.01Z"/>
          <path class="cls-1" d="m132.94,256.28h.55c.22,0,.39.05.5.17.11.11.16.25.14.41-.12.62-.22,1.17-.3,1.67-.08.5-.14.99-.17,1.48-.03.49-.04,1.04-.04,1.66l.07,5.98c0,.15-.05.27-.14.36-.1.09-.22.14-.36.14l-3.12-.04c-.15,0-.27-.04-.36-.13-.09-.09-.14-.21-.14-.37v-.7c0-.15.05-.27.14-.36.1-.09.22-.14.36-.14l1.69.02v-4.66c0-.6,0-1.15.02-1.66.01-.51.06-1.01.13-1.53s.19-1.09.35-1.74c.04-.16.11-.29.21-.4.09-.1.25-.15.47-.15Zm-1.98,1.08c-.15,0-.27-.05-.36-.14-.1-.09-.14-.22-.14-.36v-.75c0-.15.05-.27.14-.36s.22-.14.36-.14h4.77c1.26,0,2.31.2,3.14.6.83.4,1.45,1,1.86,1.8.41.8.62,1.79.62,2.96v6.69c0,.15-.05.27-.14.36-.1.09-.22.14-.36.14h-.99c-.16,0-.29-.05-.37-.14-.09-.1-.13-.22-.13-.36v-6.58c0-1.17-.29-2.09-.88-2.74-.59-.65-1.53-.98-2.84-.98h-4.66Z"/>
          <path class="cls-1" d="m144.96,263.06c-.15,0-.27-.05-.36-.14s-.14-.22-.14-.36v-6.45c0-.15.05-.27.14-.36.1-.1.22-.14.36-.14h1.06c.15,0,.26.05.35.14s.13.22.13.36v6.45c0,.15-.04.27-.13.36-.09.1-.21.14-.35.14h-1.06Z"/>
          <path class="cls-1" d="m149.56,268.16c-.15,0-.27-.05-.36-.14-.1-.1-.14-.22-.14-.36v-.75c0-.15.05-.27.14-.36.1-.09.22-.14.36-.14h6.2v1.34c0,.15-.05.25-.14.32-.09.07-.22.1-.36.1h-5.7Zm4.86,0c-.15,0-.26-.05-.34-.14-.08-.1-.14-.22-.17-.36l-.42-6.8c-.03-.72-.08-1.34-.17-1.87-.08-.53-.26-.94-.53-1.23-.27-.29-.72-.44-1.35-.44h-.9c-.15,0-.27-.05-.36-.14-.1-.09-.14-.22-.14-.36v-.75c0-.15.05-.27.14-.36.09-.1.22-.14.36-.14h.92c.84,0,1.51.12,2.02.36.51.24.91.59,1.2,1.06.29.46.49,1.02.62,1.66.12.65.21,1.36.25,2.16l.42,6.86c.01.15-.03.27-.13.36-.1.09-.23.14-.37.14h-1.06Z"/>
          <path class="cls-1" d="m164.07,268.16c-.15,0-.27-.05-.36-.14-.09-.1-.14-.22-.14-.36v-3.3c0-.67.07-1.32.2-1.93.13-.61.39-1.19.78-1.74s.97-1.07,1.75-1.55l1.01,1.47c-.53.34-.92.72-1.19,1.16-.26.43-.44.88-.53,1.34-.09.46-.13.91-.13,1.33v3.21c0,.15-.05.27-.14.36-.1.09-.22.14-.36.14h-.88Zm8.58,0c-.16,0-.29-.04-.37-.13l-.24-.24-8.07-11.33c-.1-.16-.15-.3-.15-.42s.05-.22.14-.31.2-.13.32-.13h1.03c.16,0,.29.04.38.13.09.09.17.17.23.24l8.1,11.33c.06.1.1.18.12.24.02.06.03.12.03.18,0,.12-.04.22-.13.31s-.19.13-.31.13h-1.08Zm-1.76-4.03l-.9-1.52c.72-.34,1.23-.69,1.53-1.06.3-.37.48-.75.54-1.16s.09-.83.09-1.26v-3.04c0-.15.05-.27.14-.36s.22-.14.36-.14h.92c.15,0,.27.05.36.14.09.1.14.22.14.36v3.15c0,.62-.07,1.21-.22,1.78s-.44,1.11-.89,1.62c-.45.51-1.14,1-2.08,1.48Z"/>
          <path class="cls-1" d="m179.78,257.4l-2.62-.02c-.15,0-.27-.04-.36-.13s-.14-.21-.14-.35v-3.85c0-.15.05-.27.14-.36.1-.1.22-.14.36-.14h.92c.16,0,.29.05.37.14.09.09.13.22.13.36v2.55h1.23l-.04,1.8Zm-.04,10.96c-.13.04-.26.03-.37-.06-.12-.08-.18-.19-.18-.34v-1.01c0-.13.04-.25.12-.35.08-.1.2-.18.36-.24l.86-.33c.57-.25,1.1-.55,1.57-.9.48-.35.85-.84,1.12-1.45.27-.62.41-1.42.41-2.42s-.11-1.71-.34-2.28-.61-.97-1.14-1.21c-.54-.24-1.26-.36-2.19-.36h-.66c-.15,0-.27-.05-.36-.14-.1-.09-.14-.22-.14-.36v-.79c0-.15.05-.27.14-.36s.22-.14.36-.14h.97c1.33,0,2.4.19,3.19.57.79.38,1.36.99,1.71,1.84.34.84.52,1.95.52,3.31,0,1.03-.14,1.91-.42,2.66s-.66,1.39-1.13,1.91c-.48.53-1.02.96-1.62,1.31s-1.22.63-1.87.85l-.9.31Z"/>
          <path class="cls-1" d="m187.9,271.66c-.13,0-.25-.05-.35-.15s-.15-.22-.15-.35v-.77c0-.15.05-.27.14-.36.1-.1.2-.14.32-.14.62-.01,1.13-.18,1.55-.48.42-.31.75-.79,1-1.45.25-.66.43-1.53.55-2.61s.18-2.4.18-3.97-.06-2.89-.18-3.97c-.12-1.08-.3-1.95-.55-2.61-.25-.66-.58-1.14-1-1.44-.42-.3-.93-.46-1.55-.47-.12,0-.22-.05-.32-.15-.1-.1-.14-.22-.14-.35v-.77c0-.13.05-.25.15-.35s.22-.15.35-.15c.95,0,1.76.2,2.42.59.66.4,1.19,1.01,1.59,1.84.4.83.69,1.9.87,3.2.18,1.31.26,2.85.26,4.64s-.09,3.33-.26,4.63-.47,2.37-.87,3.2-.93,1.46-1.59,1.86-1.47.61-2.42.61Z"/>
          <path class="cls-1" d="m201.39,268.16c-.15,0-.27-.05-.36-.14-.09-.1-.14-.22-.14-.36v-3.3c0-.67.07-1.32.2-1.93.13-.61.39-1.19.78-1.74s.97-1.07,1.75-1.55l1.01,1.47c-.53.34-.92.72-1.19,1.16-.26.43-.44.88-.53,1.34-.09.46-.13.91-.13,1.33v3.21c0,.15-.05.27-.14.36-.1.09-.22.14-.36.14h-.88Zm8.58,0c-.16,0-.29-.04-.37-.13l-.24-.24-8.07-11.33c-.1-.16-.15-.3-.15-.42s.05-.22.14-.31.2-.13.32-.13h1.03c.16,0,.29.04.38.13.09.09.17.17.23.24l8.1,11.33c.06.1.1.18.12.24.02.06.03.12.03.18,0,.12-.04.22-.13.31s-.19.13-.31.13h-1.08Zm-1.76-4.03l-.9-1.52c.72-.34,1.23-.69,1.53-1.06.3-.37.48-.75.54-1.16s.09-.83.09-1.26v-3.04c0-.15.05-.27.14-.36s.22-.14.36-.14h.92c.15,0,.27.05.36.14.09.1.14.22.14.36v3.15c0,.62-.07,1.21-.22,1.78s-.44,1.11-.89,1.62c-.45.51-1.14,1-2.08,1.48Z"/>
          <path class="cls-1" d="m217.1,257.4l-2.62-.02c-.15,0-.27-.04-.36-.13s-.14-.21-.14-.35v-3.85c0-.15.05-.27.14-.36.1-.1.22-.14.36-.14h.92c.16,0,.29.05.37.14.09.09.13.22.13.36v2.55h1.23l-.04,1.8Zm-.04,10.96c-.13.04-.26.03-.37-.06-.12-.08-.18-.19-.18-.34v-1.01c0-.13.04-.25.12-.35.08-.1.2-.18.36-.24l.86-.33c.57-.25,1.1-.55,1.57-.9.48-.35.85-.84,1.12-1.45.27-.62.41-1.42.41-2.42s-.11-1.71-.34-2.28-.61-.97-1.14-1.21c-.54-.24-1.26-.36-2.19-.36h-.66c-.15,0-.27-.05-.36-.14-.1-.09-.14-.22-.14-.36v-.79c0-.15.05-.27.14-.36s.22-.14.36-.14h.97c1.33,0,2.4.19,3.19.57.79.38,1.36.99,1.71,1.84.34.84.52,1.95.52,3.31,0,1.03-.14,1.91-.42,2.66s-.66,1.39-1.13,1.91c-.48.53-1.02.96-1.62,1.31s-1.22.63-1.87.85l-.9.31Z"/>
          <path class="cls-1" d="m225.81,268.16c-.13,0-.24-.05-.33-.15-.09-.1-.12-.23-.11-.37l1.87-10.78c.03-.15.1-.26.2-.34.1-.08.23-.11.37-.08l.88.04c.15.01.26.08.35.19s.12.24.09.38l-1.76,10.58c-.02.15-.08.27-.19.37-.11.1-.24.15-.38.15h-.99Zm5.57-10.76h-5.35c-.16,0-.29-.05-.37-.14-.09-.09-.13-.22-.13-.36v-.79c0-.15.04-.27.13-.36s.21-.14.37-.14h5.59c.91,0,1.72.21,2.43.64.71.43,1.27,1.04,1.67,1.84.4.8.6,1.76.6,2.89v6.69c0,.15-.04.27-.13.36-.09.09-.21.14-.37.14h-5.68c-.15,0-.27-.05-.36-.14-.09-.1-.14-.22-.14-.36v-.75c0-.15.05-.27.14-.36.1-.09.22-.14.36-.14h4.18v-5.3c0-.75-.13-1.4-.38-1.96-.26-.56-.61-.99-1.06-1.29s-.95-.45-1.51-.45Z"/>
        </g>
        <g>
          <path class="cls-1" d="m78.66,149.58h.55c.22,0,.39.05.5.17.11.11.16.25.14.41-.12.62-.22,1.17-.3,1.67-.08.5-.14.99-.17,1.48-.03.49-.04,1.04-.04,1.66l.07,5.98c0,.15-.05.27-.14.36-.1.09-.22.14-.36.14l-3.12-.04c-.15,0-.27-.04-.36-.13-.09-.09-.14-.21-.14-.37v-.7c0-.15.05-.27.14-.36.1-.09.22-.14.36-.14l1.69.02v-4.66c0-.6,0-1.15.02-1.66.01-.51.06-1.01.13-1.53s.19-1.09.35-1.74c.04-.16.11-.29.21-.4.09-.1.25-.15.47-.15Zm-1.98,1.08c-.15,0-.27-.05-.36-.14-.1-.09-.14-.22-.14-.36v-.75c0-.15.05-.27.14-.36s.22-.14.36-.14h4.77c1.26,0,2.31.2,3.14.6.83.4,1.45,1,1.86,1.8.41.8.62,1.79.62,2.96v6.69c0,.15-.05.27-.14.36-.1.09-.22.14-.36.14h-.99c-.16,0-.29-.05-.37-.14-.09-.1-.13-.22-.13-.36v-6.58c0-1.17-.29-2.09-.88-2.74-.59-.65-1.53-.98-2.84-.98h-4.66Z"/>
          <path class="cls-1" d="m90.83,161.46c-.15,0-.27-.05-.36-.14-.1-.1-.14-.22-.14-.36v-11.55c0-.15.05-.27.14-.36s.22-.14.36-.14h1.03c.16,0,.29.05.37.14.09.1.13.22.13.36v11.55c0,.15-.04.27-.13.36-.09.09-.21.14-.37.14h-1.03Z"/>
          <path class="cls-1" d="m101.06,161.68c-1.83,0-3.2-.48-4.09-1.44-.9-.96-1.34-2.31-1.34-4.06v-6.78c0-.15.05-.27.14-.36.09-.1.22-.14.36-.14h5.3c1.3,0,2.35.2,3.12.59.78.4,1.35.98,1.71,1.75.36.77.56,1.72.6,2.85.01.15.02.38.02.7v.97c0,.32,0,.56-.02.7-.03,1.12-.24,2.06-.64,2.85-.4.78-1.02,1.38-1.86,1.77-.84.4-1.95.59-3.31.59Zm0-1.8c1.39,0,2.38-.29,2.95-.87.57-.58.87-1.46.9-2.65.01-.15.02-.37.02-.66v-.86c0-.28,0-.49-.02-.64-.03-1.17-.36-2.06-1-2.65-.64-.59-1.5-.89-2.58-.89h-3.76v5.52c0,1.17.29,2.08.87,2.73.58.65,1.46.97,2.63.97Z"/>
          <path class="cls-1" d="m111.55,150.71v1.72c.01.53.08.97.21,1.32.12.35.35.57.67.66l.81.22c.12.03.21.11.28.23.07.12.1.28.1.45v.55c0,.16-.08.28-.24.35s-.34.1-.53.07l-.86-.18c-.47-.12-.87-.33-1.21-.63-.34-.3-.59-.71-.76-1.23-.17-.52-.25-1.15-.25-1.88v-2.95c0-.15.04-.27.13-.36s.21-.14.37-.14h4.07c1.1,0,2.02.22,2.75.65s1.29,1.06,1.67,1.87c.38.81.59,1.79.62,2.94.01.22.02.5.02.83s0,.61-.02.83c-.03,1.13-.23,2.1-.62,2.93-.38.82-.94,1.45-1.67,1.88-.73.43-1.65.65-2.75.65h-3.81c-.15,0-.27-.05-.36-.14-.09-.1-.14-.22-.14-.36v-.79c0-.15.05-.27.14-.36.1-.09.22-.14.36-.14h3.7c1.01,0,1.79-.33,2.34-.98.55-.65.85-1.57.91-2.74.01-.22.02-.47.02-.76s0-.54-.02-.76c-.03-1.17-.33-2.09-.89-2.74-.57-.65-1.35-.98-2.37-.98h-2.68Z"/>
          <path class="cls-1" d="m121.69,150.66c-.15,0-.27-.05-.36-.14-.1-.09-.14-.22-.14-.36v-.75c0-.15.05-.27.14-.36.09-.1.22-.14.36-.14h9.44c.15,0,.27.05.36.14.09.1.14.22.14.36v.75c0,.15-.05.27-.14.36s-.22.14-.36.14h-9.44Zm5.94,10.8c-.32,0-.48-.16-.48-.48v-7.85c0-.87.1-1.54.31-2.02.21-.48.46-.73.77-.73h2.16c-.37,0-.66.28-.89.84s-.34,1.25-.34,2.07v7.7c0,.15-.05.26-.15.35s-.23.13-.37.13h-.99Z"/>
          <path class="cls-1" d="m134.25,161.46c-.13,0-.24-.05-.33-.15-.09-.1-.12-.23-.11-.37l1.87-10.78c.03-.15.1-.26.2-.34.1-.08.23-.11.37-.08l.88.04c.15.01.26.08.35.19s.12.24.09.38l-1.76,10.58c-.02.15-.08.27-.19.37-.11.1-.24.15-.38.15h-.99Zm5.57-10.76h-5.35c-.16,0-.29-.05-.37-.14-.09-.09-.13-.22-.13-.36v-.79c0-.15.04-.27.13-.36s.21-.14.37-.14h5.59c.91,0,1.72.21,2.43.64.71.43,1.27,1.04,1.67,1.84.4.8.6,1.76.6,2.89v6.69c0,.15-.04.27-.13.36-.09.09-.21.14-.37.14h-5.68c-.15,0-.27-.05-.36-.14-.09-.1-.14-.22-.14-.36v-.75c0-.15.05-.27.14-.36.1-.09.22-.14.36-.14h4.18v-5.3c0-.75-.13-1.4-.38-1.96-.26-.56-.61-.99-1.06-1.29s-.95-.45-1.51-.45Z"/>
          <path class="cls-1" d="m148.53,161.46c-.15,0-.27-.05-.36-.14-.1-.1-.14-.22-.14-.36v-11.55c0-.15.05-.27.14-.36s.22-.14.36-.14h1.03c.16,0,.29.05.37.14.09.1.13.22.13.36v11.55c0,.15-.04.27-.13.36-.09.09-.21.14-.37.14h-1.03Z"/>
          <path class="cls-1" d="m161.71,149.58h.55c.22,0,.39.05.5.17.11.11.16.25.14.41-.12.62-.22,1.17-.3,1.67-.08.5-.14.99-.17,1.48-.03.49-.04,1.04-.04,1.66l.07,5.98c0,.15-.05.27-.14.36-.1.09-.22.14-.36.14l-3.12-.04c-.15,0-.27-.04-.36-.13-.09-.09-.14-.21-.14-.37v-.7c0-.15.05-.27.14-.36.1-.09.22-.14.36-.14l1.69.02v-4.66c0-.6,0-1.15.02-1.66.01-.51.06-1.01.13-1.53s.19-1.09.35-1.74c.04-.16.11-.29.21-.4.09-.1.25-.15.47-.15Zm-1.98,1.08c-.15,0-.27-.05-.36-.14-.1-.09-.14-.22-.14-.36v-.75c0-.15.05-.27.14-.36s.22-.14.36-.14h4.77c1.26,0,2.31.2,3.14.6.83.4,1.45,1,1.86,1.8.41.8.62,1.79.62,2.96v6.69c0,.15-.05.27-.14.36-.1.09-.22.14-.36.14h-.99c-.16,0-.29-.05-.37-.14-.09-.1-.13-.22-.13-.36v-6.58c0-1.17-.29-2.09-.88-2.74-.59-.65-1.53-.98-2.84-.98h-4.66Z"/>
          <path class="cls-1" d="m173.88,161.46c-.15,0-.27-.05-.36-.14-.1-.1-.14-.22-.14-.36v-11.55c0-.15.05-.27.14-.36s.22-.14.36-.14h1.03c.16,0,.29.05.37.14.09.1.13.22.13.36v11.55c0,.15-.04.27-.13.36-.09.09-.21.14-.37.14h-1.03Z"/>
          <path class="cls-1" d="m179.16,156.36c-.15,0-.27-.05-.36-.14s-.14-.22-.14-.36v-6.45c0-.15.05-.27.14-.36.1-.1.22-.14.36-.14h1.06c.15,0,.26.05.35.14s.13.22.13.36v6.45c0,.15-.04.27-.13.36-.09.1-.21.14-.35.14h-1.06Z"/>
          <path class="cls-1" d="m191.06,161.46c-.15,0-.27-.05-.36-.14-.09-.1-.14-.22-.14-.36v-6.58c0-1.17-.29-2.09-.88-2.74-.59-.65-1.53-.98-2.84-.98h-2.88c-.15,0-.27-.05-.36-.14-.1-.09-.14-.22-.14-.36v-.75c0-.15.05-.27.14-.36.09-.1.22-.14.36-.14h2.99c1.26,0,2.31.2,3.14.59.83.4,1.45.99,1.86,1.79.41.8.62,1.79.62,2.98v6.69c0,.15-.05.27-.14.36-.1.09-.22.14-.36.14h-.99Z"/>
          <path class="cls-1" d="m197.59,150.71v1.72c.01.53.08.97.21,1.32.12.35.35.57.67.66l.81.22c.12.03.21.11.28.23.07.12.1.28.1.45v.55c0,.16-.08.28-.24.35s-.34.1-.53.07l-.86-.18c-.47-.12-.87-.33-1.21-.63-.34-.3-.59-.71-.76-1.23-.17-.52-.25-1.15-.25-1.88v-2.95c0-.15.04-.27.13-.36s.21-.14.37-.14h4.07c1.1,0,2.02.22,2.75.65s1.29,1.06,1.67,1.87c.38.81.59,1.79.62,2.94.01.22.02.5.02.83s0,.61-.02.83c-.03,1.13-.23,2.1-.62,2.93-.38.82-.94,1.45-1.67,1.88-.73.43-1.65.65-2.75.65h-3.81c-.15,0-.27-.05-.36-.14-.09-.1-.14-.22-.14-.36v-.79c0-.15.05-.27.14-.36.1-.09.22-.14.36-.14h3.7c1.01,0,1.79-.33,2.34-.98.55-.65.85-1.57.91-2.74.01-.22.02-.47.02-.76s0-.54-.02-.76c-.03-1.17-.33-2.09-.89-2.74-.57-.65-1.35-.98-2.37-.98h-2.68Z"/>
          <path class="cls-1" d="m213.63,161.68c-1.83,0-3.2-.48-4.09-1.44-.9-.96-1.34-2.31-1.34-4.06v-6.78c0-.15.05-.27.14-.36.09-.1.22-.14.36-.14h5.3c1.3,0,2.35.2,3.12.59.78.4,1.35.98,1.71,1.75.36.77.56,1.72.6,2.85.01.15.02.38.02.7v.97c0,.32,0,.56-.02.7-.03,1.12-.24,2.06-.64,2.85-.4.78-1.02,1.38-1.86,1.77-.84.4-1.95.59-3.31.59Zm0-1.8c1.39,0,2.38-.29,2.95-.87.57-.58.87-1.46.9-2.65.01-.15.02-.37.02-.66v-.86c0-.28,0-.49-.02-.64-.03-1.17-.36-2.06-1-2.65-.64-.59-1.5-.89-2.58-.89h-3.76v5.52c0,1.17.29,2.08.87,2.73.58.65,1.46.97,2.63.97Z"/>
        </g>
      </g>
      <g>
        <g>
          <path class="cls-1" d="m410.12,56c-.19,0-.35-.06-.47-.18-.12-.12-.18-.28-.18-.47v-16.9c0-.19.06-.35.18-.47.12-.12.28-.18.47-.18h2.37c.26,0,.45.06.57.18s.2.22.23.29l6.94,10.84v-10.66c0-.19.06-.35.18-.47.12-.12.27-.18.44-.18h2.65c.19,0,.35.06.47.18s.18.28.18.47v16.9c0,.17-.06.33-.18.46s-.28.2-.47.2h-2.39c-.26,0-.45-.07-.56-.2-.11-.13-.19-.22-.25-.27l-6.92-10.5v10.32c0,.19-.06.35-.18.47s-.28.18-.47.18h-2.63Z"/>
          <path class="cls-1" d="m432.66,56c-.19,0-.35-.06-.47-.18-.12-.12-.18-.28-.18-.47v-13.94h-4.73c-.17,0-.32-.06-.44-.18s-.18-.27-.18-.44v-2.34c0-.19.06-.35.18-.47s.27-.18.44-.18h13.62c.19,0,.35.06.47.18s.18.28.18.47v2.34c0,.17-.06.32-.18.44s-.28.18-.47.18h-4.71v13.94c0,.19-.06.35-.18.47s-.28.18-.47.18h-2.89Z"/>
          <path class="cls-1" d="m444.7,56c-.19,0-.35-.06-.47-.18-.12-.12-.18-.28-.18-.47v-16.9c0-.19.06-.35.18-.47.12-.12.28-.18.47-.18h11.6c.19,0,.35.06.47.18s.18.28.18.47v2.21c0,.19-.06.35-.18.47s-.28.18-.47.18h-8.19v4.39h7.67c.19,0,.35.06.47.18.12.12.18.28.18.47v2.21c0,.17-.06.32-.18.44s-.28.18-.47.18h-7.67v6.16c0,.19-.06.35-.18.47s-.28.18-.47.18h-2.76Z"/>
          <path class="cls-1" d="m466.33,56.26c-1.66,0-3.05-.24-4.17-.73-1.12-.49-1.96-1.12-2.54-1.9-.57-.78-.88-1.61-.91-2.5,0-.14.05-.26.16-.38.1-.11.23-.17.39-.17h2.78c.23,0,.4.05.52.14.12.09.23.21.34.35.12.29.32.58.58.86s.64.51,1.11.69c.47.18,1.05.27,1.74.27,1.13,0,1.97-.18,2.54-.55.56-.36.85-.86.85-1.48,0-.45-.15-.81-.46-1.09-.3-.28-.78-.53-1.43-.75-.65-.23-1.51-.47-2.59-.73-1.3-.28-2.41-.64-3.31-1.08-.91-.44-1.6-1.01-2.05-1.72s-.69-1.57-.69-2.61.29-1.96.86-2.77c.57-.81,1.38-1.44,2.42-1.9,1.04-.46,2.28-.69,3.72-.69,1.16,0,2.19.16,3.08.47.89.31,1.64.72,2.24,1.22.6.5,1.05,1.04,1.37,1.61.31.57.48,1.13.49,1.66,0,.14-.05.26-.16.38-.1.11-.23.17-.39.17h-2.91c-.17,0-.33-.03-.47-.1-.14-.07-.25-.19-.34-.36-.1-.45-.41-.84-.92-1.18-.51-.34-1.17-.51-1.99-.51s-1.52.16-2.02.47c-.49.31-.74.79-.74,1.43,0,.42.12.77.38,1.05.25.29.68.54,1.27.75.6.22,1.39.46,2.38.72,1.53.31,2.76.68,3.72,1.12.95.43,1.66.99,2.11,1.68.45.68.68,1.55.68,2.59,0,1.16-.33,2.16-.97,2.99-.65.83-1.54,1.47-2.68,1.91-1.14.44-2.46.66-3.97.66Z"/>
          <path class="cls-1" d="m486.37,42.56h1.04c.42,0,.71.09.87.26.16.17.22.36.17.57-.16.59-.29,1.15-.39,1.68-.1.53-.17,1.06-.21,1.59-.03.53-.05,1.13-.05,1.81l.16,6.89c0,.19-.06.35-.18.47s-.28.18-.47.18l-4.94-.03c-.17,0-.32-.06-.44-.18s-.18-.28-.18-.47v-1.64c0-.19.06-.35.18-.47.12-.12.27-.18.44-.18l2.08.03v-4.55c0-.61.01-1.18.04-1.72.03-.54.09-1.08.18-1.64.09-.55.24-1.14.43-1.77.09-.22.22-.42.39-.58.17-.16.47-.25.88-.25Zm-2.99,1.66c-.19,0-.35-.06-.47-.18-.12-.12-.18-.28-.18-.47v-1.77c0-.19.06-.35.18-.47.12-.12.28-.18.47-.18h6.73c1.54,0,2.83.23,3.87.68,1.04.45,1.82,1.14,2.34,2.08.52.94.78,2.14.78,3.61v7.83c0,.19-.06.35-.18.47s-.27.18-.44.18h-2.47c-.19,0-.35-.06-.47-.18s-.18-.27-.18-.44v-7.72c0-1.11-.27-1.96-.81-2.55-.54-.59-1.4-.88-2.6-.88h-6.58Z"/>
          <path class="cls-1" d="m500.99,56c-.19,0-.35-.06-.47-.18s-.18-.28-.18-.47v-13.55c0-.19.06-.35.18-.47s.28-.18.47-.18h2.6c.17,0,.32.06.44.18s.18.28.18.47v13.55c0,.19-.06.35-.18.47s-.27.18-.44.18h-2.6Z"/>
          <path class="cls-1" d="m507.8,56c-.17,0-.32-.07-.44-.2s-.18-.29-.18-.48v-3.43c0-.92.08-1.75.25-2.48.16-.74.47-1.42.92-2.04.45-.62,1.11-1.22,1.98-1.79l1.82,2.63c-.49.33-.85.71-1.08,1.14-.23.43-.39.87-.46,1.31-.07.44-.1.85-.1,1.23v3.43c0,.21-.06.37-.18.49s-.27.18-.44.18h-2.08Zm9.93,0c-.26,0-.46-.07-.58-.2s-.23-.23-.3-.3l-9.39-13.42c-.09-.12-.13-.25-.13-.39s.05-.26.16-.38c.1-.11.23-.17.39-.17h2.47c.26,0,.45.06.57.19s.22.24.29.33l9.49,13.39c.07.09.11.16.13.22s.03.12.03.17c0,.14-.06.26-.17.38s-.24.17-.38.17h-2.57Zm-.7-4.97l-1.77-2.6c.64-.31,1.09-.65,1.35-1.01s.42-.74.48-1.13c.06-.39.09-.78.09-1.16v-3.3c0-.21.06-.37.18-.49s.27-.18.44-.18h2.21c.17,0,.32.06.44.19s.18.29.18.48v3.41c0,.71-.09,1.4-.27,2.08-.18.68-.53,1.33-1.04,1.95-.51.62-1.28,1.21-2.3,1.77Z"/>
          <path class="cls-1" d="m531.85,53.14c.97,0,1.82-.19,2.55-.58.73-.39,1.29-.93,1.68-1.62.39-.69.58-1.47.58-2.34v-6.81c0-.17.07-.32.2-.44s.28-.18.46-.18h2.21c.17,0,.32.06.44.18s.18.28.18.47v6.94c0,1.14-.19,2.18-.57,3.11-.38.93-.92,1.72-1.62,2.37-.7.65-1.51,1.15-2.43,1.5-.92.35-1.92.51-3.02.49h-2.31c-1.33,0-2.49-.27-3.47-.82s-1.74-1.28-2.27-2.2c-.54-.92-.81-1.95-.81-3.09v-8.29c0-.19.06-.35.18-.47.12-.12.28-.18.47-.18h2.18c.19,0,.35.06.47.18.12.12.18.27.18.44l.05,6.79c0,1.47.38,2.6,1.14,3.39.76.79,1.72,1.18,2.86,1.18h.68Zm-5.15-2.11l-.03-2.63c.94-.02,1.66-.19,2.17-.51.51-.32.87-.78,1.08-1.37s.31-1.27.31-2.05v-2.65c0-.21.06-.37.18-.49s.27-.18.44-.18h2.18c.19,0,.35.06.47.19.12.13.18.29.18.48v2.73c0,1.33-.27,2.49-.81,3.46-.54.97-1.33,1.72-2.37,2.25-1.04.53-2.31.79-3.82.77Z"/>
          <path class="cls-1" d="m551.17,56c-.19,0-.35-.06-.47-.18-.12-.12-.18-.27-.18-.44v-7.72c0-1.11-.27-1.96-.82-2.55-.55-.59-1.41-.88-2.59-.88h-3.77c-.17,0-.32-.06-.44-.18s-.18-.28-.18-.47v-1.77c0-.19.06-.35.18-.47s.27-.18.44-.18h3.93c1.54,0,2.83.22,3.87.65,1.04.43,1.82,1.11,2.34,2.04.52.93.78,2.15.78,3.65v7.85c0,.19-.06.35-.18.47-.12.12-.27.18-.44.18h-2.47Z"/>
          <path class="cls-1" d="m567.75,56c-.17,0-.32-.06-.44-.18s-.18-.27-.18-.44v-7.72c0-1.11-.27-1.96-.82-2.55-.55-.59-1.41-.88-2.59-.88h-5.59c-.19,0-.35-.06-.47-.18s-.18-.28-.18-.47v-1.77c0-.19.06-.35.18-.47s.28-.18.47-.18h5.72c2.31,0,4.05.53,5.24,1.59s1.78,2.69,1.78,4.89v7.72c0,.19-.06.35-.18.47-.12.12-.28.18-.47.18h-2.47Zm-9.62,0c-.19,0-.35-.06-.47-.18s-.18-.28-.18-.47v-7.93c0-.17.06-.33.18-.46s.28-.2.47-.2h2.47c.17,0,.32.07.44.2s.18.28.18.46v7.93c0,.19-.06.35-.18.47s-.27.18-.44.18h-2.47Z"/>
        </g>
        <g>
          <path class="cls-1" d="m718.22,155.21c-.19,0-.35-.06-.47-.18-.12-.12-.18-.28-.18-.47v-2.78c0-.19.06-.35.18-.47.12-.12.28-.18.47-.18h2.91c.19,0,.35.06.47.18s.18.28.18.47v2.78c0,.19-.06.35-.18.47-.12.12-.28.18-.47.18h-2.91Zm0,9.1c-.19,0-.35-.06-.47-.18-.12-.12-.18-.28-.18-.47v-2.78c0-.19.06-.35.18-.47s.28-.18.47-.18h2.91c.19,0,.35.06.47.18.12.12.18.28.18.47v2.78c0,.19-.06.35-.18.47s-.28.18-.47.18h-2.91Z"/>
          <path class="cls-1" d="m728.75,152.66h-4.06c-.19,0-.35-.06-.47-.18-.12-.12-.18-.27-.18-.44v-5.54c0-.19.06-.35.18-.47s.28-.18.47-.18h2.26c.17,0,.32.06.44.18.12.12.18.28.18.47v2.96h1.2l-.03,3.2Zm-.7,11.96c-.17.04-.33-.02-.47-.16-.14-.14-.21-.29-.21-.47v-2.18c0-.16.06-.31.17-.46.11-.15.26-.25.46-.33l.88-.36c.54-.23,1.03-.51,1.47-.86.44-.35.8-.81,1.07-1.4.27-.59.4-1.35.4-2.29,0-.83-.1-1.5-.3-2.01-.2-.51-.53-.88-1-1.1-.47-.23-1.12-.34-1.95-.34h-.65c-.17,0-.33-.06-.46-.18s-.19-.27-.19-.44v-1.95c0-.17.06-.32.19-.44s.28-.18.46-.18h1.38c1.56,0,2.8.24,3.73.73.93.49,1.6,1.22,2.01,2.2s.62,2.21.62,3.68c0,1.18-.18,2.23-.55,3.15s-.86,1.71-1.48,2.38-1.32,1.22-2.09,1.66c-.77.44-1.58.78-2.43,1.03l-1.07.34Z"/>
          <path class="cls-1" d="m738.42,165.76c-.19.03-.36,0-.51-.12-.15-.11-.22-.26-.22-.43v-1.82c0-.17.05-.33.14-.46.09-.13.23-.22.4-.27l5.64-1.51c.97-.26,1.72-.6,2.24-1.03.52-.42.88-.94,1.07-1.55.19-.61.29-1.3.29-2.08v-6.42c0-.17.06-.32.18-.44.12-.12.27-.18.44-.18h2.47c.19,0,.35.06.47.18.12.12.18.28.18.47v7.54c0,1.09-.26,2.08-.77,2.98-.51.89-1.25,1.65-2.21,2.26s-2.12,1.06-3.47,1.34l-6.34,1.53Zm3.35-2.08l-3.67-13.18c-.04-.14-.07-.24-.09-.31-.03-.07-.04-.14-.04-.21,0-.14.05-.26.16-.36.1-.1.23-.16.36-.16h2.73c.33,0,.53.13.6.39l3.33,13.23-3.38.6Z"/>
          <path class="cls-1" d="m764.31,150.86h1.04c.42,0,.71.09.87.26.16.17.22.36.17.57-.16.59-.29,1.15-.39,1.68-.1.53-.17,1.06-.21,1.59-.03.53-.05,1.13-.05,1.81l.16,6.89c0,.19-.06.35-.18.47s-.28.18-.47.18l-4.94-.03c-.17,0-.32-.06-.44-.18s-.18-.28-.18-.47v-1.64c0-.19.06-.35.18-.47.12-.12.27-.18.44-.18l2.08.03v-4.55c0-.61.01-1.18.04-1.72.03-.54.09-1.08.18-1.64.09-.55.24-1.14.43-1.77.09-.22.22-.42.39-.58.17-.16.47-.25.88-.25Zm-2.99,1.66c-.19,0-.35-.06-.47-.18-.12-.12-.18-.28-.18-.47v-1.77c0-.19.06-.35.18-.47.12-.12.28-.18.47-.18h6.73c1.54,0,2.83.23,3.87.68,1.04.45,1.82,1.14,2.34,2.08.52.94.78,2.14.78,3.61v7.83c0,.19-.06.35-.18.47s-.27.18-.44.18h-2.47c-.19,0-.35-.06-.47-.18s-.18-.27-.18-.44v-7.72c0-1.11-.27-1.96-.81-2.55-.54-.59-1.4-.88-2.6-.88h-6.58Z"/>
          <path class="cls-1" d="m778.93,164.3c-.19,0-.35-.06-.47-.18s-.18-.28-.18-.47v-13.55c0-.19.06-.35.18-.47s.28-.18.47-.18h2.6c.17,0,.32.06.44.18s.18.28.18.47v13.55c0,.19-.06.35-.18.47s-.27.18-.44.18h-2.6Z"/>
          <path class="cls-1" d="m785.74,164.3c-.17,0-.32-.07-.44-.2s-.18-.29-.18-.48v-3.43c0-.92.08-1.75.25-2.48.16-.74.47-1.42.92-2.04.45-.62,1.11-1.22,1.98-1.79l1.82,2.63c-.49.33-.85.71-1.08,1.14-.23.43-.39.87-.46,1.31-.07.44-.1.85-.1,1.23v3.43c0,.21-.06.37-.18.49s-.27.18-.44.18h-2.08Zm9.93,0c-.26,0-.46-.07-.58-.2s-.23-.23-.3-.3l-9.39-13.42c-.09-.12-.13-.25-.13-.39s.05-.26.16-.38c.1-.11.23-.17.39-.17h2.47c.26,0,.45.06.57.19s.22.24.29.33l9.49,13.39c.07.09.11.16.13.22s.03.12.03.17c0,.14-.06.26-.17.38s-.24.17-.38.17h-2.57Zm-.7-4.97l-1.77-2.6c.64-.31,1.09-.65,1.35-1.01s.42-.74.48-1.13c.06-.39.09-.78.09-1.16v-3.3c0-.21.06-.37.18-.49s.27-.18.44-.18h2.21c.17,0,.32.06.44.19s.18.29.18.48v3.41c0,.71-.09,1.4-.27,2.08-.18.68-.53,1.33-1.04,1.95-.51.62-1.28,1.21-2.3,1.77Z"/>
          <path class="cls-1" d="m809.79,161.44c.97,0,1.82-.19,2.55-.58.73-.39,1.29-.93,1.68-1.62.39-.69.58-1.47.58-2.34v-6.81c0-.17.07-.32.2-.44s.28-.18.46-.18h2.21c.17,0,.32.06.44.18s.18.28.18.47v6.94c0,1.14-.19,2.18-.57,3.11-.38.93-.92,1.72-1.62,2.37-.7.65-1.51,1.15-2.43,1.5-.92.35-1.92.51-3.02.49h-2.31c-1.33,0-2.49-.27-3.47-.82s-1.74-1.28-2.27-2.2c-.54-.92-.81-1.95-.81-3.09v-8.29c0-.19.06-.35.18-.47.12-.12.28-.18.47-.18h2.18c.19,0,.35.06.47.18.12.12.18.27.18.44l.05,6.79c0,1.47.38,2.6,1.14,3.39.76.79,1.72,1.18,2.86,1.18h.68Zm-5.15-2.11l-.03-2.63c.94-.02,1.66-.19,2.17-.51.51-.32.87-.78,1.08-1.37s.31-1.27.31-2.05v-2.65c0-.21.06-.37.18-.49s.27-.18.44-.18h2.18c.19,0,.35.06.47.19.12.13.18.29.18.48v2.73c0,1.33-.27,2.49-.81,3.46-.54.97-1.33,1.72-2.37,2.25-1.04.53-2.31.79-3.82.77Z"/>
          <path class="cls-1" d="m829.11,164.3c-.19,0-.35-.06-.47-.18-.12-.12-.18-.27-.18-.44v-7.72c0-1.11-.27-1.96-.82-2.55-.55-.59-1.41-.88-2.59-.88h-3.77c-.17,0-.32-.06-.44-.18s-.18-.28-.18-.47v-1.77c0-.19.06-.35.18-.47s.27-.18.44-.18h3.93c1.54,0,2.83.22,3.87.65,1.04.43,1.82,1.11,2.34,2.04.52.93.78,2.15.78,3.65v7.85c0,.19-.06.35-.18.47-.12.12-.27.18-.44.18h-2.47Z"/>
          <path class="cls-1" d="m845.69,164.3c-.17,0-.32-.06-.44-.18s-.18-.27-.18-.44v-7.72c0-1.11-.27-1.96-.82-2.55-.55-.59-1.41-.88-2.59-.88h-5.59c-.19,0-.35-.06-.47-.18s-.18-.28-.18-.47v-1.77c0-.19.06-.35.18-.47s.28-.18.47-.18h5.72c2.31,0,4.05.53,5.24,1.59s1.78,2.69,1.78,4.89v7.72c0,.19-.06.35-.18.47-.12.12-.28.18-.47.18h-2.47Zm-9.62,0c-.19,0-.35-.06-.47-.18s-.18-.28-.18-.47v-7.93c0-.17.06-.33.18-.46s.28-.2.47-.2h2.47c.17,0,.32.07.44.2s.18.28.18.46v7.93c0,.19-.06.35-.18.47s-.27.18-.44.18h-2.47Z"/>
          <path class="cls-1" d="m861.92,150.86h1.04c.42,0,.71.09.87.26.16.17.22.36.17.57-.16.59-.29,1.15-.39,1.68-.1.53-.17,1.06-.21,1.59-.03.53-.05,1.13-.05,1.81l.16,6.89c0,.19-.06.35-.18.47s-.28.18-.47.18l-4.94-.03c-.17,0-.32-.06-.44-.18s-.18-.28-.18-.47v-1.64c0-.19.06-.35.18-.47.12-.12.27-.18.44-.18l2.08.03v-4.55c0-.61.01-1.18.04-1.72.03-.54.09-1.08.18-1.64.09-.55.24-1.14.43-1.77.09-.22.22-.42.39-.58.17-.16.47-.25.88-.25Zm-2.99,1.66c-.19,0-.35-.06-.47-.18-.12-.12-.18-.28-.18-.47v-1.77c0-.19.06-.35.18-.47.12-.12.28-.18.47-.18h6.73c1.54,0,2.83.23,3.87.68,1.04.45,1.82,1.14,2.34,2.08.52.94.78,2.14.78,3.61v7.83c0,.19-.06.35-.18.47s-.27.18-.44.18h-2.47c-.19,0-.35-.06-.47-.18s-.18-.27-.18-.44v-7.72c0-1.11-.27-1.96-.81-2.55-.54-.59-1.4-.88-2.6-.88h-6.58Z"/>
          <path class="cls-1" d="m880.01,150.86h1.04c.42,0,.71.09.87.26.16.17.22.36.17.57-.16.59-.29,1.15-.39,1.68-.1.53-.17,1.06-.21,1.59-.03.53-.05,1.13-.05,1.81l.16,6.89c0,.19-.06.35-.18.47s-.28.18-.47.18l-4.94-.03c-.17,0-.32-.06-.44-.18s-.18-.28-.18-.47v-1.64c0-.19.06-.35.18-.47.12-.12.27-.18.44-.18l2.08.03v-4.55c0-.61.01-1.18.04-1.72.03-.54.09-1.08.18-1.64.09-.55.24-1.14.43-1.77.09-.22.22-.42.39-.58.17-.16.47-.25.88-.25Zm-2.99,1.66c-.19,0-.35-.06-.47-.18-.12-.12-.18-.28-.18-.47v-1.77c0-.19.06-.35.18-.47.12-.12.28-.18.47-.18h6.73c1.54,0,2.83.23,3.87.68,1.04.45,1.82,1.14,2.34,2.08.52.94.78,2.14.78,3.61v7.83c0,.19-.06.35-.18.47s-.27.18-.44.18h-2.47c-.19,0-.35-.06-.47-.18s-.18-.27-.18-.44v-7.72c0-1.11-.27-1.96-.81-2.55-.54-.59-1.4-.88-2.6-.88h-6.58Z"/>
          <path class="cls-1" d="m897.72,152.66h-4.06c-.19,0-.35-.06-.47-.18-.12-.12-.18-.27-.18-.44v-5.54c0-.19.06-.35.18-.47s.28-.18.47-.18h2.26c.17,0,.32.06.44.18.12.12.18.28.18.47v2.96h1.2l-.03,3.2Zm-.7,11.96c-.17.04-.33-.02-.47-.16-.14-.14-.21-.29-.21-.47v-2.18c0-.16.06-.31.17-.46.11-.15.26-.25.46-.33l.88-.36c.54-.23,1.03-.51,1.47-.86.44-.35.8-.81,1.07-1.4.27-.59.4-1.35.4-2.29,0-.83-.1-1.5-.3-2.01-.2-.51-.53-.88-1-1.1-.47-.23-1.12-.34-1.95-.34h-.65c-.17,0-.33-.06-.46-.18s-.19-.27-.19-.44v-1.95c0-.17.06-.32.19-.44s.28-.18.46-.18h1.38c1.56,0,2.8.24,3.73.73.93.49,1.6,1.22,2.01,2.2s.62,2.21.62,3.68c0,1.18-.18,2.23-.55,3.15s-.86,1.71-1.48,2.38-1.32,1.22-2.09,1.66c-.77.44-1.58.78-2.43,1.03l-1.07.34Z"/>
          <path class="cls-1" d="m913.84,167.53c-.19,0-.35-.06-.47-.18s-.18-.28-.18-.47v-16.77c0-.19.06-.35.18-.47s.28-.18.47-.18h2.47c.17,0,.32.06.44.18s.18.28.18.47v16.77c0,.19-.06.35-.18.47s-.27.18-.44.18h-2.47Z"/>
          <path class="cls-1" d="m924.45,150.86h1.04c.42,0,.71.09.87.26.16.17.22.36.17.57-.16.59-.29,1.15-.39,1.68-.1.53-.17,1.06-.21,1.59-.03.53-.05,1.13-.05,1.81l.16,6.89c0,.19-.06.35-.18.47s-.28.18-.47.18l-4.94-.03c-.17,0-.32-.06-.44-.18s-.18-.28-.18-.47v-1.64c0-.19.06-.35.18-.47.12-.12.27-.18.44-.18l2.08.03v-4.55c0-.61.01-1.18.04-1.72.03-.54.09-1.08.18-1.64.09-.55.24-1.14.43-1.77.09-.22.22-.42.39-.58.17-.16.47-.25.88-.25Zm-2.99,1.66c-.19,0-.35-.06-.47-.18-.12-.12-.18-.28-.18-.47v-1.77c0-.19.06-.35.18-.47.12-.12.28-.18.47-.18h6.73c1.54,0,2.83.23,3.87.68,1.04.45,1.82,1.14,2.34,2.08.52.94.78,2.14.78,3.61v7.83c0,.19-.06.35-.18.47s-.27.18-.44.18h-2.47c-.19,0-.35-.06-.47-.18s-.18-.27-.18-.44v-7.72c0-1.11-.27-1.96-.81-2.55-.54-.59-1.4-.88-2.6-.88h-6.58Z"/>
          <path class="cls-1" d="m938.93,158.19c-.19,0-.35-.06-.47-.18-.12-.12-.18-.28-.18-.47v-7.44c0-.19.06-.35.18-.47.12-.12.28-.18.47-.18h2.6c.17,0,.32.06.44.18s.18.28.18.47v7.44c0,.19-.06.35-.18.47s-.27.18-.44.18h-2.6Z"/>
          <path class="cls-1" d="m945.38,164.3c-.17,0-.32-.06-.44-.18s-.18-.28-.18-.47v-1.77c0-.19.06-.35.18-.47s.27-.18.44-.18h8.09v2.5c0,.17-.06.31-.18.42-.12.1-.27.16-.44.16h-7.46Zm5.33,0c-.19,0-.34-.06-.46-.18-.11-.12-.18-.28-.2-.47l-.39-8.01c-.04-.69-.11-1.28-.22-1.77-.11-.49-.32-.86-.62-1.12-.3-.26-.77-.39-1.39-.39h-1.25c-.17,0-.32-.06-.44-.18-.12-.12-.18-.28-.18-.47v-1.77c0-.17.06-.32.18-.44.12-.12.27-.18.44-.18h1.33c1.09,0,2.01.13,2.77.39.75.26,1.36.66,1.82,1.2s.8,1.2,1.03,1.99c.22.79.36,1.71.42,2.77l.39,7.98c.02.19-.04.35-.17.47s-.28.18-.46.18h-2.6Z"/>
        </g>
        <g>
          <path class="cls-1" d="m751.5,261.9c-.19,0-.35-.06-.47-.18-.12-.12-.18-.28-.18-.47v-2.78c0-.19.06-.35.18-.47.12-.12.28-.18.47-.18h2.91c.19,0,.35.06.47.18s.18.28.18.47v2.78c0,.19-.06.35-.18.47-.12.12-.28.18-.47.18h-2.91Zm0,9.1c-.19,0-.35-.06-.47-.18-.12-.12-.18-.28-.18-.47v-2.78c0-.19.06-.35.18-.47s.28-.18.47-.18h2.91c.19,0,.35.06.47.18.12.12.18.28.18.47v2.78c0,.19-.06.35-.18.47s-.28.18-.47.18h-2.91Z"/>
          <path class="cls-1" d="m762.47,257.56h1.04c.42,0,.71.09.87.26.16.17.22.36.17.57-.16.59-.29,1.15-.39,1.68-.1.53-.17,1.06-.21,1.59-.03.53-.05,1.13-.05,1.81l.16,6.89c0,.19-.06.35-.18.47s-.28.18-.47.18l-4.94-.03c-.17,0-.32-.06-.44-.18s-.18-.28-.18-.47v-1.64c0-.19.06-.35.18-.47.12-.12.27-.18.44-.18l2.08.03v-4.55c0-.61.01-1.18.04-1.72.03-.54.09-1.08.18-1.64.09-.55.24-1.14.43-1.77.09-.22.22-.42.39-.58.17-.16.47-.25.88-.25Zm-2.99,1.66c-.19,0-.35-.06-.47-.18-.12-.12-.18-.28-.18-.47v-1.77c0-.19.06-.35.18-.47.12-.12.28-.18.47-.18h6.73c1.54,0,2.83.23,3.87.68,1.04.45,1.82,1.14,2.34,2.08.52.94.78,2.14.78,3.61v7.83c0,.19-.06.35-.18.47s-.27.18-.44.18h-2.47c-.19,0-.35-.06-.47-.18s-.18-.27-.18-.44v-7.72c0-1.11-.27-1.96-.81-2.55-.54-.59-1.4-.88-2.6-.88h-6.58Z"/>
          <path class="cls-1" d="m777.08,271c-.19,0-.35-.06-.47-.18s-.18-.28-.18-.47v-13.55c0-.19.06-.35.18-.47s.28-.18.47-.18h2.6c.17,0,.32.06.44.18s.18.28.18.47v13.55c0,.19-.06.35-.18.47s-.27.18-.44.18h-2.6Z"/>
          <path class="cls-1" d="m783.89,271c-.17,0-.32-.07-.44-.2s-.18-.29-.18-.48v-3.43c0-.92.08-1.75.25-2.48.16-.74.47-1.42.92-2.04.45-.62,1.11-1.22,1.98-1.79l1.82,2.63c-.49.33-.85.71-1.08,1.14-.23.43-.39.87-.46,1.31-.07.44-.1.85-.1,1.23v3.43c0,.21-.06.37-.18.49s-.27.18-.44.18h-2.08Zm9.93,0c-.26,0-.46-.07-.58-.2s-.23-.23-.3-.3l-9.39-13.42c-.09-.12-.13-.25-.13-.39s.05-.26.16-.38c.1-.11.23-.17.39-.17h2.47c.26,0,.45.06.57.19s.22.24.29.33l9.49,13.39c.07.09.11.16.13.22s.03.12.03.17c0,.14-.06.26-.17.38s-.24.17-.38.17h-2.57Zm-.7-4.97l-1.77-2.6c.64-.31,1.09-.65,1.35-1.01s.42-.74.48-1.13c.06-.39.09-.78.09-1.16v-3.3c0-.21.06-.37.18-.49s.27-.18.44-.18h2.21c.17,0,.32.06.44.19s.18.29.18.48v3.41c0,.71-.09,1.4-.27,2.08-.18.68-.53,1.33-1.04,1.95-.51.62-1.28,1.21-2.3,1.77Z"/>
          <path class="cls-1" d="m807.94,268.14c.97,0,1.82-.19,2.55-.58.73-.39,1.29-.93,1.68-1.62.39-.69.58-1.47.58-2.34v-6.81c0-.17.07-.32.2-.44s.28-.18.46-.18h2.21c.17,0,.32.06.44.18s.18.28.18.47v6.94c0,1.14-.19,2.18-.57,3.11-.38.93-.92,1.72-1.62,2.37-.7.65-1.51,1.15-2.43,1.5-.92.35-1.92.51-3.02.49h-2.31c-1.33,0-2.49-.27-3.47-.82s-1.74-1.28-2.27-2.2c-.54-.92-.81-1.95-.81-3.09v-8.29c0-.19.06-.35.18-.47.12-.12.28-.18.47-.18h2.18c.19,0,.35.06.47.18.12.12.18.27.18.44l.05,6.79c0,1.47.38,2.6,1.14,3.39.76.79,1.72,1.18,2.86,1.18h.68Zm-5.15-2.11l-.03-2.63c.94-.02,1.66-.19,2.17-.51.51-.32.87-.78,1.08-1.37s.31-1.27.31-2.05v-2.65c0-.21.06-.37.18-.49s.27-.18.44-.18h2.18c.19,0,.35.06.47.19.12.13.18.29.18.48v2.73c0,1.33-.27,2.49-.81,3.46-.54.97-1.33,1.72-2.37,2.25-1.04.53-2.31.79-3.82.77Z"/>
          <path class="cls-1" d="m827.26,271c-.19,0-.35-.06-.47-.18-.12-.12-.18-.27-.18-.44v-7.72c0-1.11-.27-1.96-.82-2.55-.55-.59-1.41-.88-2.59-.88h-3.77c-.17,0-.32-.06-.44-.18s-.18-.28-.18-.47v-1.77c0-.19.06-.35.18-.47s.27-.18.44-.18h3.93c1.54,0,2.83.22,3.87.65,1.04.43,1.82,1.11,2.34,2.04.52.93.78,2.15.78,3.65v7.85c0,.19-.06.35-.18.47-.12.12-.27.18-.44.18h-2.47Z"/>
          <path class="cls-1" d="m843.85,271c-.17,0-.32-.06-.44-.18s-.18-.27-.18-.44v-7.72c0-1.11-.27-1.96-.82-2.55-.55-.59-1.41-.88-2.59-.88h-5.59c-.19,0-.35-.06-.47-.18s-.18-.28-.18-.47v-1.77c0-.19.06-.35.18-.47s.28-.18.47-.18h5.72c2.31,0,4.05.53,5.24,1.59s1.78,2.69,1.78,4.89v7.72c0,.19-.06.35-.18.47-.12.12-.28.18-.47.18h-2.47Zm-9.62,0c-.19,0-.35-.06-.47-.18s-.18-.28-.18-.47v-7.93c0-.17.06-.33.18-.46s.28-.2.47-.2h2.47c.17,0,.32.07.44.2s.18.28.18.46v7.93c0,.19-.06.35-.18.47s-.27.18-.44.18h-2.47Z"/>
          <path class="cls-1" d="m859.53,259.35h-4.06c-.19,0-.35-.06-.47-.18-.12-.12-.18-.27-.18-.44v-5.54c0-.19.06-.35.18-.47s.28-.18.47-.18h2.26c.17,0,.32.06.44.18.12.12.18.28.18.47v2.96h1.2l-.03,3.2Zm-.7,11.96c-.17.04-.33-.02-.47-.16-.14-.14-.21-.29-.21-.47v-2.18c0-.16.06-.31.17-.46.11-.15.26-.25.46-.33l.88-.36c.54-.23,1.03-.51,1.47-.86.44-.35.8-.81,1.07-1.4.27-.59.4-1.35.4-2.29,0-.83-.1-1.5-.3-2.01-.2-.51-.53-.88-1-1.1-.47-.23-1.12-.34-1.95-.34h-.65c-.17,0-.33-.06-.46-.18s-.19-.27-.19-.44v-1.95c0-.17.06-.32.19-.44s.28-.18.46-.18h1.38c1.56,0,2.8.24,3.73.73.93.49,1.6,1.22,2.01,2.2s.62,2.21.62,3.68c0,1.18-.18,2.23-.55,3.15s-.86,1.71-1.48,2.38-1.32,1.22-2.09,1.66c-.77.44-1.58.78-2.43,1.03l-1.07.34Z"/>
          <path class="cls-1" d="m869.9,271c-.19,0-.35-.06-.47-.18s-.18-.28-.18-.47v-13.55c0-.19.06-.35.18-.47s.28-.18.47-.18h2.6c.17,0,.32.06.44.18s.18.28.18.47v13.55c0,.19-.06.35-.18.47s-.27.18-.44.18h-2.6Z"/>
          <path class="cls-1" d="m877.15,271c-.19,0-.35-.06-.47-.18s-.18-.28-.18-.47v-13.55c0-.19.06-.35.18-.47s.28-.18.47-.18h5.8c1.56,0,2.86.22,3.9.66,1.04.44,1.82,1.14,2.34,2.09.52.95.78,2.19.78,3.72v7.72c0,.19-.06.35-.18.47s-.28.18-.47.18h-2.47c-.17,0-.32-.06-.44-.18s-.18-.27-.18-.44v-7.72c0-1.11-.27-1.96-.82-2.55-.55-.59-1.41-.88-2.59-.88h-2.57v11.13c0,.19-.06.35-.18.47s-.27.18-.44.18h-2.47Z"/>
          <path class="cls-1" d="m896.94,259.35h-4.06c-.19,0-.35-.06-.47-.18-.12-.12-.18-.27-.18-.44v-5.54c0-.19.06-.35.18-.47s.28-.18.47-.18h2.26c.17,0,.32.06.44.18.12.12.18.28.18.47v2.96h1.2l-.03,3.2Zm-.7,11.96c-.17.04-.33-.02-.47-.16-.14-.14-.21-.29-.21-.47v-2.18c0-.16.06-.31.17-.46.11-.15.26-.25.46-.33l.88-.36c.54-.23,1.03-.51,1.47-.86.44-.35.8-.81,1.07-1.4.27-.59.4-1.35.4-2.29,0-.83-.1-1.5-.3-2.01-.2-.51-.53-.88-1-1.1-.47-.23-1.12-.34-1.95-.34h-.65c-.17,0-.33-.06-.46-.18s-.19-.27-.19-.44v-1.95c0-.17.06-.32.19-.44s.28-.18.46-.18h1.38c1.56,0,2.8.24,3.73.73.93.49,1.6,1.22,2.01,2.2s.62,2.21.62,3.68c0,1.18-.18,2.23-.55,3.15s-.86,1.71-1.48,2.38-1.32,1.22-2.09,1.66c-.77.44-1.58.78-2.43,1.03l-1.07.34Z"/>
          <path class="cls-1" d="m907.31,271c-.19,0-.35-.06-.47-.18s-.18-.28-.18-.47v-13.55c0-.19.06-.35.18-.47s.28-.18.47-.18h5.8c1.56,0,2.86.22,3.9.66,1.04.44,1.82,1.14,2.34,2.09.52.95.78,2.19.78,3.72v7.72c0,.19-.06.35-.18.47s-.28.18-.47.18h-2.47c-.17,0-.32-.06-.44-.18s-.18-.27-.18-.44v-7.72c0-1.11-.27-1.96-.82-2.55-.55-.59-1.41-.88-2.59-.88h-2.57v11.13c0,.19-.06.35-.18.47s-.27.18-.44.18h-2.47Z"/>
        </g>
        <g>
          <path class="cls-1" d="m748.96,377.9c-.19,0-.35-.06-.47-.18-.12-.12-.18-.28-.18-.47v-2.78c0-.19.06-.35.18-.47.12-.12.28-.18.47-.18h2.91c.19,0,.35.06.47.18s.18.28.18.47v2.78c0,.19-.06.35-.18.47-.12.12-.28.18-.47.18h-2.91Zm0,9.1c-.19,0-.35-.06-.47-.18-.12-.12-.18-.28-.18-.47v-2.78c0-.19.06-.35.18-.47s.28-.18.47-.18h2.91c.19,0,.35.06.47.18.12.12.18.28.18.47v2.78c0,.19-.06.35-.18.47s-.28.18-.47.18h-2.91Z"/>
          <path class="cls-1" d="m759.93,373.56h1.04c.42,0,.71.09.87.26.16.17.22.36.17.57-.16.59-.29,1.15-.39,1.68-.1.53-.17,1.06-.21,1.59-.03.53-.05,1.13-.05,1.81l.16,6.89c0,.19-.06.35-.18.47s-.28.18-.47.18l-4.94-.03c-.17,0-.32-.06-.44-.18s-.18-.28-.18-.47v-1.64c0-.19.06-.35.18-.47.12-.12.27-.18.44-.18l2.08.03v-4.55c0-.61.01-1.18.04-1.72.03-.54.09-1.08.18-1.64.09-.55.24-1.14.43-1.77.09-.22.22-.42.39-.58.17-.16.47-.25.88-.25Zm-2.99,1.66c-.19,0-.35-.06-.47-.18-.12-.12-.18-.28-.18-.47v-1.77c0-.19.06-.35.18-.47.12-.12.28-.18.47-.18h6.73c1.54,0,2.83.23,3.87.68,1.04.45,1.82,1.14,2.34,2.08.52.94.78,2.14.78,3.61v7.83c0,.19-.06.35-.18.47s-.27.18-.44.18h-2.47c-.19,0-.35-.06-.47-.18s-.18-.27-.18-.44v-7.72c0-1.11-.27-1.96-.81-2.55-.54-.59-1.4-.88-2.6-.88h-6.58Z"/>
          <path class="cls-1" d="m774.55,387c-.19,0-.35-.06-.47-.18s-.18-.28-.18-.47v-13.55c0-.19.06-.35.18-.47s.28-.18.47-.18h2.6c.17,0,.32.06.44.18s.18.28.18.47v13.55c0,.19-.06.35-.18.47s-.27.18-.44.18h-2.6Z"/>
          <path class="cls-1" d="m785.26,375.35h-4.06c-.19,0-.35-.06-.47-.18-.12-.12-.18-.27-.18-.44v-5.54c0-.19.06-.35.18-.47s.28-.18.47-.18h2.26c.17,0,.32.06.44.18.12.12.18.28.18.47v2.96h1.2l-.03,3.2Zm-.7,11.96c-.17.04-.33-.02-.47-.16-.14-.14-.21-.29-.21-.47v-2.18c0-.16.06-.31.17-.46.11-.15.26-.25.46-.33l.88-.36c.54-.23,1.03-.51,1.47-.86.44-.35.8-.81,1.07-1.4.27-.59.4-1.35.4-2.29,0-.83-.1-1.5-.3-2.01-.2-.51-.53-.88-1-1.1-.47-.23-1.12-.34-1.95-.34h-.65c-.17,0-.33-.06-.46-.18s-.19-.27-.19-.44v-1.95c0-.17.06-.32.19-.44s.28-.18.46-.18h1.38c1.56,0,2.8.24,3.73.73.93.49,1.6,1.22,2.01,2.2s.62,2.21.62,3.68c0,1.18-.18,2.23-.55,3.15s-.86,1.71-1.48,2.38-1.32,1.22-2.09,1.66c-.77.44-1.58.78-2.43,1.03l-1.07.34Z"/>
          <path class="cls-1" d="m795.63,387c-.19,0-.35-.06-.47-.18s-.18-.28-.18-.47v-13.55c0-.19.06-.35.18-.47s.28-.18.47-.18h5.8c1.56,0,2.86.22,3.9.66,1.04.44,1.82,1.14,2.34,2.09.52.95.78,2.19.78,3.72v7.72c0,.19-.06.35-.18.47s-.28.18-.47.18h-2.47c-.17,0-.32-.06-.44-.18s-.18-.27-.18-.44v-7.72c0-1.11-.27-1.96-.82-2.55-.55-.59-1.41-.88-2.59-.88h-2.57v11.13c0,.19-.06.35-.18.47s-.27.18-.44.18h-2.47Z"/>
          <path class="cls-1" d="m821.55,373.56h1.04c.42,0,.71.09.87.26.16.17.22.36.17.57-.16.59-.29,1.15-.39,1.68-.1.53-.17,1.06-.21,1.59-.03.53-.05,1.13-.05,1.81l.16,6.89c0,.19-.06.35-.18.47s-.28.18-.47.18l-4.94-.03c-.17,0-.32-.06-.44-.18s-.18-.28-.18-.47v-1.64c0-.19.06-.35.18-.47.12-.12.27-.18.44-.18l2.08.03v-4.55c0-.61.01-1.18.04-1.72.03-.54.09-1.08.18-1.64.09-.55.24-1.14.43-1.77.09-.22.22-.42.39-.58.17-.16.47-.25.88-.25Zm-2.99,1.66c-.19,0-.35-.06-.47-.18-.12-.12-.18-.28-.18-.47v-1.77c0-.19.06-.35.18-.47.12-.12.28-.18.47-.18h6.73c1.54,0,2.83.23,3.87.68,1.04.45,1.82,1.14,2.34,2.08.52.94.78,2.14.78,3.61v7.83c0,.19-.06.35-.18.47s-.27.18-.44.18h-2.47c-.19,0-.35-.06-.47-.18s-.18-.27-.18-.44v-7.72c0-1.11-.27-1.96-.81-2.55-.54-.59-1.4-.88-2.6-.88h-6.58Z"/>
          <path class="cls-1" d="m836.17,387c-.19,0-.35-.06-.47-.18s-.18-.28-.18-.47v-13.55c0-.19.06-.35.18-.47s.28-.18.47-.18h2.6c.17,0,.32.06.44.18s.18.28.18.47v13.55c0,.19-.06.35-.18.47s-.27.18-.44.18h-2.6Z"/>
          <path class="cls-1" d="m842.98,387c-.17,0-.32-.07-.44-.2s-.18-.29-.18-.48v-3.43c0-.92.08-1.75.25-2.48.16-.74.47-1.42.92-2.04.45-.62,1.11-1.22,1.98-1.79l1.82,2.63c-.49.33-.85.71-1.08,1.14-.23.43-.39.87-.46,1.31-.07.44-.1.85-.1,1.23v3.43c0,.21-.06.37-.18.49s-.27.18-.44.18h-2.08Zm9.93,0c-.26,0-.46-.07-.58-.2s-.23-.23-.3-.3l-9.39-13.42c-.09-.12-.13-.25-.13-.39s.05-.26.16-.38c.1-.11.23-.17.39-.17h2.47c.26,0,.45.06.57.19s.22.24.29.33l9.49,13.39c.07.09.11.16.13.22s.03.12.03.17c0,.14-.06.26-.17.38s-.24.17-.38.17h-2.57Zm-.7-4.97l-1.77-2.6c.64-.31,1.09-.65,1.35-1.01s.42-.74.48-1.13c.06-.39.09-.78.09-1.16v-3.3c0-.21.06-.37.18-.49s.27-.18.44-.18h2.21c.17,0,.32.06.44.19s.18.29.18.48v3.41c0,.71-.09,1.4-.27,2.08-.18.68-.53,1.33-1.04,1.95-.51.62-1.28,1.21-2.3,1.77Z"/>
          <path class="cls-1" d="m867.03,384.14c.97,0,1.82-.19,2.55-.58.73-.39,1.29-.93,1.68-1.62.39-.69.58-1.47.58-2.34v-6.81c0-.17.07-.32.2-.44s.28-.18.46-.18h2.21c.17,0,.32.06.44.18s.18.28.18.47v6.94c0,1.14-.19,2.18-.57,3.11-.38.93-.92,1.72-1.62,2.37-.7.65-1.51,1.15-2.43,1.5-.92.35-1.92.51-3.02.49h-2.31c-1.33,0-2.49-.27-3.47-.82s-1.74-1.28-2.27-2.2c-.54-.92-.81-1.95-.81-3.09v-8.29c0-.19.06-.35.18-.47.12-.12.28-.18.47-.18h2.18c.19,0,.35.06.47.18.12.12.18.27.18.44l.05,6.79c0,1.47.38,2.6,1.14,3.39.76.79,1.72,1.18,2.86,1.18h.68Zm-5.15-2.11l-.03-2.63c.94-.02,1.66-.19,2.17-.51.51-.32.87-.78,1.08-1.37s.31-1.27.31-2.05v-2.65c0-.21.06-.37.18-.49s.27-.18.44-.18h2.18c.19,0,.35.06.47.19.12.13.18.29.18.48v2.73c0,1.33-.27,2.49-.81,3.46-.54.97-1.33,1.72-2.37,2.25-1.04.53-2.31.79-3.82.77Z"/>
          <path class="cls-1" d="m886.35,387c-.19,0-.35-.06-.47-.18-.12-.12-.18-.27-.18-.44v-7.72c0-1.11-.27-1.96-.82-2.55-.55-.59-1.41-.88-2.59-.88h-3.77c-.17,0-.32-.06-.44-.18s-.18-.28-.18-.47v-1.77c0-.19.06-.35.18-.47s.27-.18.44-.18h3.93c1.54,0,2.83.22,3.87.65,1.04.43,1.82,1.11,2.34,2.04.52.93.78,2.15.78,3.65v7.85c0,.19-.06.35-.18.47-.12.12-.27.18-.44.18h-2.47Z"/>
          <path class="cls-1" d="m902.93,387c-.17,0-.32-.06-.44-.18s-.18-.27-.18-.44v-7.72c0-1.11-.27-1.96-.82-2.55-.55-.59-1.41-.88-2.59-.88h-5.59c-.19,0-.35-.06-.47-.18s-.18-.28-.18-.47v-1.77c0-.19.06-.35.18-.47s.28-.18.47-.18h5.72c2.31,0,4.05.53,5.24,1.59s1.78,2.69,1.78,4.89v7.72c0,.19-.06.35-.18.47-.12.12-.28.18-.47.18h-2.47Zm-9.62,0c-.19,0-.35-.06-.47-.18s-.18-.28-.18-.47v-7.93c0-.17.06-.33.18-.46s.28-.2.47-.2h2.47c.17,0,.32.07.44.2s.18.28.18.46v7.93c0,.19-.06.35-.18.47s-.27.18-.44.18h-2.47Z"/>
          <path class="cls-1" d="m919.55,387c-.17,0-.32-.06-.44-.18s-.18-.27-.18-.44v-7.72c0-1.11-.27-1.96-.82-2.55-.55-.59-1.41-.88-2.59-.88h-5.59c-.19,0-.35-.06-.47-.18s-.18-.28-.18-.47v-1.77c0-.19.06-.35.18-.47s.28-.18.47-.18h5.72c2.31,0,4.05.53,5.24,1.59s1.78,2.69,1.78,4.89v7.72c0,.19-.06.35-.18.47-.12.12-.28.18-.47.18h-2.47Zm-9.62,0c-.19,0-.35-.06-.47-.18s-.18-.28-.18-.47v-7.93c0-.17.06-.33.18-.46s.28-.2.47-.2h2.47c.17,0,.32.07.44.2s.18.28.18.46v7.93c0,.19-.06.35-.18.47s-.27.18-.44.18h-2.47Z"/>
        </g>
        <g>
          <path class="cls-1" d="m62.79,56.26c-1.66,0-3.05-.24-4.17-.73-1.12-.49-1.96-1.12-2.54-1.9-.57-.78-.88-1.61-.91-2.5,0-.14.05-.26.16-.38.1-.11.23-.17.39-.17h2.78c.23,0,.4.05.52.14.12.09.23.21.34.35.12.29.32.58.58.86s.64.51,1.11.69c.47.18,1.05.27,1.74.27,1.13,0,1.97-.18,2.54-.55.56-.36.85-.86.85-1.48,0-.45-.15-.81-.46-1.09-.3-.28-.78-.53-1.43-.75-.65-.23-1.51-.47-2.59-.73-1.3-.28-2.41-.64-3.31-1.08-.91-.44-1.6-1.01-2.05-1.72s-.69-1.57-.69-2.61.29-1.96.86-2.77c.57-.81,1.38-1.44,2.42-1.9,1.04-.46,2.28-.69,3.72-.69,1.16,0,2.19.16,3.08.47.89.31,1.64.72,2.24,1.22.6.5,1.05,1.04,1.37,1.61.31.57.48,1.13.49,1.66,0,.14-.05.26-.16.38-.1.11-.23.17-.39.17h-2.91c-.17,0-.33-.03-.47-.1-.14-.07-.25-.19-.34-.36-.1-.45-.41-.84-.92-1.18-.51-.34-1.17-.51-1.99-.51s-1.52.16-2.02.47c-.49.31-.74.79-.74,1.43,0,.42.12.77.38,1.05.25.29.68.54,1.27.75.6.22,1.39.46,2.38.72,1.53.31,2.76.68,3.72,1.12.95.43,1.66.99,2.11,1.68.45.68.68,1.55.68,2.59,0,1.16-.33,2.16-.97,2.99-.65.83-1.54,1.47-2.68,1.91-1.14.44-2.46.66-3.97.66Z"/>
          <path class="cls-1" d="m73.84,56c-.19,0-.35-.06-.47-.18-.12-.12-.18-.28-.18-.47v-16.9c0-.19.06-.35.18-.47.12-.12.28-.18.47-.18h2.83c.19,0,.35.06.47.18s.18.28.18.47v6.5h7.05v-6.5c0-.19.06-.35.18-.47.12-.12.28-.18.47-.18h2.83c.19,0,.35.06.47.18s.18.28.18.47v16.9c0,.19-.06.35-.18.47s-.28.18-.47.18h-2.83c-.19,0-.35-.06-.47-.18-.12-.12-.18-.28-.18-.47v-6.71h-7.05v6.71c0,.19-.06.35-.18.47s-.28.18-.47.18h-2.83Z"/>
          <path class="cls-1" d="m91.28,56c-.16,0-.29-.06-.39-.17-.1-.11-.16-.24-.16-.38,0-.09,0-.17.03-.23l6.19-16.72c.05-.19.16-.36.31-.49s.37-.21.65-.21h3.33c.28,0,.49.07.65.21s.26.3.31.49l6.19,16.72c.02.07.03.15.03.23,0,.14-.05.26-.16.38-.1.11-.23.17-.39.17h-2.7c-.26,0-.45-.06-.57-.18s-.2-.23-.23-.34l-1.12-2.91h-7.33l-1.12,2.91c-.04.1-.11.22-.23.34s-.31.18-.57.18h-2.7Zm5.59-6.79h5.38l-2.68-7.49-2.7,7.49Z"/>
          <path class="cls-1" d="m111.3,56c-.19,0-.35-.06-.47-.18-.12-.12-.18-.28-.18-.47v-16.9c0-.19.06-.35.18-.47.12-.12.28-.18.47-.18h6.89c2.17,0,3.87.5,5.12,1.5,1.25,1,1.87,2.43,1.87,4.3,0,1.27-.3,2.32-.91,3.17-.61.85-1.42,1.48-2.44,1.9l3.67,6.5c.05.1.08.2.08.29,0,.14-.05.26-.16.38-.1.11-.23.17-.39.17h-2.89c-.31,0-.55-.08-.7-.25-.16-.16-.27-.32-.34-.46l-3.17-5.95h-3.15v6.01c0,.19-.06.35-.18.47s-.28.18-.47.18h-2.83Zm3.48-9.96h3.33c.95,0,1.66-.22,2.12-.65.46-.43.69-1.04.69-1.82s-.23-1.4-.68-1.85-1.16-.68-2.13-.68h-3.33v4.99Z"/>
          <path class="cls-1" d="m129.03,56c-.19,0-.35-.06-.47-.18-.12-.12-.18-.28-.18-.47v-16.9c0-.19.06-.35.18-.47.12-.12.28-.18.47-.18h11.78c.19,0,.35.06.47.18.12.12.18.28.18.47v2.08c0,.17-.06.32-.18.44s-.28.18-.47.18h-8.42v4.08h7.85c.19,0,.35.06.47.18s.18.28.18.47v1.92c0,.17-.06.32-.18.44s-.28.18-.47.18h-7.85v4.21h8.63c.19,0,.35.06.47.18.12.12.18.28.18.47v2.05c0,.19-.06.35-.18.47-.12.12-.28.18-.47.18h-11.99Z"/>
          <path class="cls-1" d="m154.41,42.56h1.04c.42,0,.71.09.87.26.16.17.22.36.17.57-.16.59-.29,1.15-.39,1.68-.1.53-.17,1.06-.21,1.59-.03.53-.05,1.13-.05,1.81l.16,6.89c0,.19-.06.35-.18.47s-.28.18-.47.18l-4.94-.03c-.17,0-.32-.06-.44-.18s-.18-.28-.18-.47v-1.64c0-.19.06-.35.18-.47.12-.12.27-.18.44-.18l2.08.03v-4.55c0-.61.01-1.18.04-1.72.03-.54.09-1.08.18-1.64.09-.55.24-1.14.43-1.77.09-.22.22-.42.39-.58.17-.16.47-.25.88-.25Zm-2.99,1.66c-.19,0-.35-.06-.47-.18-.12-.12-.18-.28-.18-.47v-1.77c0-.19.06-.35.18-.47.12-.12.28-.18.47-.18h6.73c1.54,0,2.83.23,3.87.68,1.04.45,1.82,1.14,2.34,2.08.52.94.78,2.14.78,3.61v7.83c0,.19-.06.35-.18.47s-.27.18-.44.18h-2.47c-.19,0-.35-.06-.47-.18s-.18-.27-.18-.44v-7.72c0-1.11-.27-1.96-.81-2.55-.54-.59-1.4-.88-2.6-.88h-6.58Z"/>
          <path class="cls-1" d="m169.02,56c-.19,0-.35-.06-.47-.18s-.18-.28-.18-.47v-13.55c0-.19.06-.35.18-.47s.28-.18.47-.18h2.6c.17,0,.32.06.44.18s.18.28.18.47v13.55c0,.19-.06.35-.18.47s-.27.18-.44.18h-2.6Z"/>
          <path class="cls-1" d="m175.83,56c-.17,0-.32-.07-.44-.2s-.18-.29-.18-.48v-3.43c0-.92.08-1.75.25-2.48.16-.74.47-1.42.92-2.04.45-.62,1.11-1.22,1.98-1.79l1.82,2.63c-.49.33-.85.71-1.08,1.14-.23.43-.39.87-.46,1.31-.07.44-.1.85-.1,1.23v3.43c0,.21-.06.37-.18.49s-.27.18-.44.18h-2.08Zm9.93,0c-.26,0-.46-.07-.58-.2s-.23-.23-.3-.3l-9.39-13.42c-.09-.12-.13-.25-.13-.39s.05-.26.16-.38c.1-.11.23-.17.39-.17h2.47c.26,0,.45.06.57.19s.22.24.29.33l9.49,13.39c.07.09.11.16.13.22s.03.12.03.17c0,.14-.06.26-.17.38s-.24.17-.38.17h-2.57Zm-.7-4.97l-1.77-2.6c.64-.31,1.09-.65,1.35-1.01s.42-.74.48-1.13c.06-.39.09-.78.09-1.16v-3.3c0-.21.06-.37.18-.49s.27-.18.44-.18h2.21c.17,0,.32.06.44.19s.18.29.18.48v3.41c0,.71-.09,1.4-.27,2.08-.18.68-.53,1.33-1.04,1.95-.51.62-1.28,1.21-2.3,1.77Z"/>
          <path class="cls-1" d="m199.88,53.14c.97,0,1.82-.19,2.55-.58.73-.39,1.29-.93,1.68-1.62.39-.69.58-1.47.58-2.34v-6.81c0-.17.07-.32.2-.44s.28-.18.46-.18h2.21c.17,0,.32.06.44.18s.18.28.18.47v6.94c0,1.14-.19,2.18-.57,3.11-.38.93-.92,1.72-1.62,2.37-.7.65-1.51,1.15-2.43,1.5-.92.35-1.92.51-3.02.49h-2.31c-1.33,0-2.49-.27-3.47-.82s-1.74-1.28-2.27-2.2c-.54-.92-.81-1.95-.81-3.09v-8.29c0-.19.06-.35.18-.47.12-.12.28-.18.47-.18h2.18c.19,0,.35.06.47.18.12.12.18.27.18.44l.05,6.79c0,1.47.38,2.6,1.14,3.39.76.79,1.72,1.18,2.86,1.18h.68Zm-5.15-2.11l-.03-2.63c.94-.02,1.66-.19,2.17-.51.51-.32.87-.78,1.08-1.37s.31-1.27.31-2.05v-2.65c0-.21.06-.37.18-.49s.27-.18.44-.18h2.18c.19,0,.35.06.47.19.12.13.18.29.18.48v2.73c0,1.33-.27,2.49-.81,3.46-.54.97-1.33,1.72-2.37,2.25-1.04.53-2.31.79-3.82.77Z"/>
          <path class="cls-1" d="m219.2,56c-.19,0-.35-.06-.47-.18-.12-.12-.18-.27-.18-.44v-7.72c0-1.11-.27-1.96-.82-2.55-.55-.59-1.41-.88-2.59-.88h-3.77c-.17,0-.32-.06-.44-.18s-.18-.28-.18-.47v-1.77c0-.19.06-.35.18-.47s.27-.18.44-.18h3.93c1.54,0,2.83.22,3.87.65,1.04.43,1.82,1.11,2.34,2.04.52.93.78,2.15.78,3.65v7.85c0,.19-.06.35-.18.47-.12.12-.27.18-.44.18h-2.47Z"/>
          <path class="cls-1" d="m235.79,56c-.17,0-.32-.06-.44-.18s-.18-.27-.18-.44v-7.72c0-1.11-.27-1.96-.82-2.55-.55-.59-1.41-.88-2.59-.88h-5.59c-.19,0-.35-.06-.47-.18s-.18-.28-.18-.47v-1.77c0-.19.06-.35.18-.47s.28-.18.47-.18h5.72c2.31,0,4.05.53,5.24,1.59s1.78,2.69,1.78,4.89v7.72c0,.19-.06.35-.18.47-.12.12-.28.18-.47.18h-2.47Zm-9.62,0c-.19,0-.35-.06-.47-.18s-.18-.28-.18-.47v-7.93c0-.17.06-.33.18-.46s.28-.2.47-.2h2.47c.17,0,.32.07.44.2s.18.28.18.46v7.93c0,.19-.06.35-.18.47s-.27.18-.44.18h-2.47Z"/>
        </g>
      </g>
    </g>
  </g>
</svg>