<?xml version="1.0" encoding="UTF-8"?>
<svg id="Layer_2" data-name="Layer 2" xmlns="http://www.w3.org/2000/svg" viewBox="0 0 297.36 81.92">
  <defs>
    <style>
      .cls-1 {
        fill: #e9e8ef;
      }

      .cls-1, .cls-2 {
        stroke-width: 0px;
      }

      .cls-2 {
        fill: #bf936b;
      }
    </style>
  </defs>
  <g id="text">
    <g>
      <polygon class="cls-2" points="297.36 40.96 273.52 20.48 249.68 0 249.68 0 47.68 0 47.68 0 23.84 20.48 0 40.96 23.84 61.44 47.68 81.92 47.68 81.92 47.68 81.92 47.68 81.92 47.68 81.92 249.68 81.92 249.68 81.92 249.68 81.92 249.68 81.92 249.68 81.92 273.52 61.44 297.36 40.96"/>
      <g>
        <path class="cls-1" d="m67.46,31.64h1.6c.64,0,1.09.13,1.34.4.25.27.34.56.26.88-.24.91-.44,1.77-.6,2.58-.16.81-.27,1.63-.32,2.44-.05.81-.08,1.74-.08,2.78l.24,10.6c0,.29-.09.53-.28.72-.19.19-.43.28-.72.28l-7.6-.04c-.27,0-.49-.09-.68-.28-.19-.19-.28-.43-.28-.72v-2.52c0-.29.09-.53.28-.72.19-.19.41-.28.68-.28l3.2.04v-7c0-.93.02-1.81.06-2.64.04-.83.13-1.67.28-2.52s.37-1.76.66-2.72c.13-.35.33-.65.6-.9.27-.25.72-.38,1.36-.38Zm-4.6,2.56c-.29,0-.53-.09-.72-.28-.19-.19-.28-.43-.28-.72v-2.72c0-.29.09-.53.28-.72s.43-.28.72-.28h10.36c2.37,0,4.36.35,5.96,1.04,1.6.69,2.8,1.76,3.6,3.2.8,1.44,1.2,3.29,1.2,5.56v12.04c0,.29-.09.53-.28.72-.19.19-.41.28-.68.28h-3.8c-.29,0-.53-.09-.72-.28-.19-.19-.28-.41-.28-.68v-11.88c0-1.71-.41-3.01-1.24-3.92-.83-.91-2.16-1.36-4-1.36h-10.12Z"/>
        <path class="cls-1" d="m89.94,52.31c-.29,0-.53-.09-.72-.28-.19-.19-.28-.43-.28-.72v-20.84c0-.29.09-.53.28-.72s.43-.28.72-.28h4c.27,0,.49.09.68.28.19.19.28.43.28.72v20.84c0,.29-.09.53-.28.72s-.41.28-.68.28h-4Z"/>
        <path class="cls-1" d="m100.9,42.91c-.29,0-.53-.09-.72-.28s-.28-.43-.28-.72v-11.44c0-.29.09-.53.28-.72s.43-.28.72-.28h4c.27,0,.49.09.68.28s.28.43.28.72v11.44c0,.29-.09.53-.28.72s-.41.28-.68.28h-4Z"/>
        <path class="cls-1" d="m111.86,52.31c-.29,0-.53-.09-.72-.28-.19-.19-.28-.43-.28-.72v-20.84c0-.29.09-.53.28-.72s.43-.28.72-.28h4c.27,0,.49.09.68.28.19.19.28.43.28.72v20.84c0,.29-.09.53-.28.72s-.41.28-.68.28h-4Z"/>
        <path class="cls-1" d="m134.46,47.91c1.49,0,2.8-.3,3.92-.9,1.12-.6,1.98-1.43,2.58-2.5s.9-2.27.9-3.6v-10.48c0-.27.1-.49.3-.68s.43-.28.7-.28h3.4c.27,0,.49.09.68.28s.28.43.28.72v10.68c0,1.76-.29,3.35-.88,4.78-.59,1.43-1.42,2.64-2.5,3.64s-2.33,1.77-3.74,2.3c-1.41.53-2.96.79-4.64.76h-3.56c-2.05,0-3.83-.42-5.34-1.26-1.51-.84-2.67-1.97-3.5-3.38-.83-1.41-1.24-3-1.24-4.76v-12.76c0-.29.09-.53.28-.72s.43-.28.72-.28h3.36c.29,0,.53.09.72.28.19.19.28.41.28.68l.08,10.44c0,2.27.59,4.01,1.76,5.22s2.64,1.82,4.4,1.82h1.04Zm-7.92-3.24l-.04-4.04c1.44-.03,2.55-.29,3.34-.78.79-.49,1.34-1.19,1.66-2.1s.48-1.96.48-3.16v-4.08c0-.32.09-.57.28-.76s.41-.28.68-.28h3.36c.29,0,.53.1.72.3s.28.45.28.74v4.2c0,2.05-.41,3.83-1.24,5.32-.83,1.49-2.04,2.65-3.64,3.46-1.6.81-3.56,1.21-5.88,1.18Z"/>
        <path class="cls-1" d="m157.7,50.31c-1.04.64-2,1.14-2.88,1.5-.88.36-1.79.63-2.72.82-.27.03-.49,0-.68-.08-.19-.08-.28-.25-.28-.52v-3.6c0-.45.28-.79.84-1,.19-.08.54-.2,1.06-.36.52-.16,1.09-.35,1.7-.56.61-.21,1.13-.43,1.56-.64.61-.35,1.21-.79,1.78-1.34.57-.55,1.07-1.14,1.48-1.78.41-.64.69-1.25.82-1.84l2.32-.04c-.11,1.49-.37,2.85-.8,4.06-.43,1.21-1,2.27-1.72,3.18-.72.91-1.55,1.64-2.48,2.2Zm4.32,2c-.29,0-.53-.09-.7-.28-.17-.19-.27-.43-.3-.72l-2.4-12.04c-.24-1.15-.51-2.09-.8-2.84-.29-.75-.69-1.31-1.2-1.68-.51-.37-1.21-.56-2.12-.56h-1.4c-.29,0-.53-.09-.72-.28-.19-.19-.28-.43-.28-.72v-2.96c0-.27.09-.49.28-.68s.43-.28.72-.28h1.52c2.11,0,3.81.34,5.1,1.02,1.29.68,2.31,1.74,3.06,3.18.75,1.44,1.35,3.29,1.8,5.56l2.4,12.28c.05.29-.03.53-.24.72-.21.19-.45.28-.72.28h-4Z"/>
        <path class="cls-1" d="m170.74,52.31c-.27,0-.49-.09-.68-.28-.19-.19-.28-.43-.28-.72v-2.72c0-.29.09-.53.28-.72.19-.19.41-.28.68-.28h12.44v3.84c0,.27-.09.48-.28.64s-.41.24-.68.24h-11.48Zm8.2,0c-.29,0-.53-.09-.7-.28-.17-.19-.27-.43-.3-.72l-.6-12.32c-.05-1.07-.17-1.97-.34-2.72-.17-.75-.49-1.32-.96-1.72-.47-.4-1.18-.6-2.14-.6h-1.92c-.27,0-.49-.09-.68-.28s-.28-.43-.28-.72v-2.72c0-.27.09-.49.28-.68s.41-.28.68-.28h2.04c1.68,0,3.1.2,4.26.6,1.16.4,2.09,1.01,2.8,1.84.71.83,1.23,1.85,1.58,3.06.35,1.21.56,2.63.64,4.26l.6,12.28c.03.29-.06.53-.26.72-.2.19-.43.28-.7.28h-4Z"/>
        <path class="cls-1" d="m194.42,31.64h1.6c.64,0,1.09.13,1.34.4.25.27.34.56.26.88-.24.91-.44,1.77-.6,2.58-.16.81-.27,1.63-.32,2.44-.05.81-.08,1.74-.08,2.78l.24,10.6c0,.29-.09.53-.28.72-.19.19-.43.28-.72.28l-7.6-.04c-.27,0-.49-.09-.68-.28-.19-.19-.28-.43-.28-.72v-2.52c0-.29.09-.53.28-.72.19-.19.41-.28.68-.28l3.2.04v-7c0-.93.02-1.81.06-2.64.04-.83.13-1.67.28-2.52s.37-1.76.66-2.72c.13-.35.33-.65.6-.9.27-.25.72-.38,1.36-.38Zm-4.6,2.56c-.29,0-.53-.09-.72-.28-.19-.19-.28-.43-.28-.72v-2.72c0-.29.09-.53.28-.72s.43-.28.72-.28h10.36c2.37,0,4.36.35,5.96,1.04,1.6.69,2.8,1.76,3.6,3.2.8,1.44,1.2,3.29,1.2,5.56v12.04c0,.29-.09.53-.28.72-.19.19-.41.28-.68.28h-3.8c-.29,0-.53-.09-.72-.28-.19-.19-.28-.41-.28-.68v-11.88c0-1.71-.41-3.01-1.24-3.92-.83-.91-2.16-1.36-4-1.36h-10.12Z"/>
        <path class="cls-1" d="m231.7,52.31c-.27,0-.49-.09-.68-.28-.19-.19-.28-.41-.28-.68v-11.88c0-1.71-.42-3.01-1.26-3.92s-2.17-1.36-3.98-1.36h-8.6c-.29,0-.53-.09-.72-.28-.19-.19-.28-.43-.28-.72v-2.72c0-.29.09-.53.28-.72s.43-.28.72-.28h8.8c3.55,0,6.23.81,8.06,2.44,1.83,1.63,2.74,4.13,2.74,7.52v11.88c0,.29-.09.53-.28.72-.19.19-.43.28-.72.28h-3.8Zm-14.8,0c-.29,0-.53-.09-.72-.28-.19-.19-.28-.43-.28-.72v-12.2c0-.27.09-.5.28-.7.19-.2.43-.3.72-.3h3.8c.27,0,.49.1.68.3.19.2.28.43.28.7v12.2c0,.29-.09.53-.28.72-.19.19-.41.28-.68.28h-3.8Z"/>
      </g>
    </g>
  </g>
</svg>