<?xml version="1.0" encoding="UTF-8"?>
<svg id="Layer_2" data-name="Layer 2" xmlns="http://www.w3.org/2000/svg" viewBox="0 0 122.38 42.92">
  <defs>
    <style>
      .cls-1 {
        fill: #e9e8ee;
      }

      .cls-1, .cls-2 {
        stroke-width: 0px;
      }

      .cls-2 {
        fill: #bf936b;
      }
    </style>
  </defs>
  <g id="text">
    <g>
      <g>
        <polyline class="cls-2" points="101.9 0 112.14 7.1 122.38 14.19 113.82 23.25 105.26 32.3"/>
        <polyline class="cls-2" points="105.26 32.3 3.37 42.92 0 10.62 101.9 0"/>
      </g>
      <g>
        <path class="cls-1" d="m38.24,28.87c-.16.02-.3-.02-.42-.11-.12-.09-.19-.22-.2-.38l-.61-6.46c-.08-.84-.35-1.47-.79-1.87-.45-.4-1.12-.57-2-.48l-4.91.47c-.16.02-.29-.02-.41-.12-.11-.09-.17-.22-.19-.38l-.17-1.77c-.02-.16.02-.3.11-.41.09-.11.22-.17.38-.19l5.02-.48c1.95-.18,3.48.11,4.58.89,1.11.78,1.75,2.11,1.93,4l.61,6.46c.01.15-.03.28-.13.4-.1.12-.22.19-.37.2l-2.44.23Zm-8.03.76c-.16.02-.29-.03-.41-.13-.11-.1-.17-.22-.19-.37l-.61-6.46c-.01-.15.02-.28.12-.4.09-.12.22-.19.38-.2l2.44-.23c.16-.02.3.03.41.13.11.1.18.22.19.37l.61,6.46c.01.15-.02.28-.12.4-.09.12-.22.19-.38.2l-2.44.23Z"/>
        <path class="cls-1" d="m49.47,18.26l-6.35.6c-.16.02-.3-.02-.41-.12-.11-.09-.17-.22-.19-.38l-.18-1.9c-.01-.16.02-.3.12-.41.09-.11.22-.17.38-.19l6.89-.65c.96-.09,1.84.02,2.64.32.8.31,1.46.83,1.97,1.57.52.74.84,1.73.95,2.95l.62,6.59c.01.15-.03.28-.13.4-.1.12-.23.19-.39.2l-5.91.56c-.14.01-.28-.03-.4-.13-.12-.1-.19-.22-.2-.37l-.17-1.77c-.02-.16.03-.3.13-.41.1-.11.22-.18.37-.19l2.92-.28-.39-4.1c-.05-.54-.18-.99-.39-1.35-.21-.36-.48-.62-.8-.78-.32-.16-.69-.22-1.09-.18Zm-5.63,10.08c-.14.01-.28-.03-.41-.13-.13-.1-.18-.23-.17-.39l1.39-9.93c.02-.15.07-.28.16-.39.09-.11.21-.17.36-.17l2.05-.17c.16-.02.3.04.43.16.13.12.18.26.15.43l-1.08,9.74c0,.16-.05.3-.15.42-.1.12-.22.19-.37.2l-2.38.23Z"/>
        <path class="cls-1" d="m57.12,17.4c-.16.02-.3-.02-.42-.11-.12-.09-.19-.22-.2-.38l-.17-1.77c-.02-.16.03-.3.12-.41.1-.11.23-.18.39-.19l9.71-.92c.15-.01.28.03.4.12.12.09.19.22.2.38l.17,1.77c.01.15-.02.28-.11.4-.08.12-.21.19-.39.2l-9.71.92Zm5.99,9.12c-.32.03-.5-.11-.53-.43l-.63-6.7c-.09-.93-.06-1.65.09-2.17.15-.51.44-.79.88-.83l3.49-.33c-.36.03-.63.36-.8.99-.17.62-.21,1.37-.13,2.25l.61,6.46c.01.15-.04.27-.16.37-.12.1-.26.16-.4.17l-2.42.23Z"/>
        <path class="cls-1" d="m76.07,25.55c-.13.06-.26.02-.39-.09s-.21-.25-.22-.4l-.2-2.12c-.01-.13.03-.27.12-.41.09-.14.21-.25.37-.32l.67-.35c.39-.21.75-.47,1.06-.77.32-.3.55-.69.71-1.17.16-.48.21-1.07.14-1.79-.06-.62-.18-1.12-.36-1.48-.18-.36-.45-.62-.82-.76-.37-.14-.85-.18-1.46-.13l-5.69.54c-.14.01-.28-.02-.4-.12-.12-.09-.19-.22-.2-.38l-.18-1.92c-.01-.15.03-.27.13-.39s.22-.18.37-.19l6.41-.61c1.31-.12,2.37-.02,3.19.33.82.34,1.44.91,1.86,1.69.42.79.69,1.78.8,2.97.09.99.02,1.88-.22,2.68-.24.8-.6,1.51-1.08,2.14-.48.63-1.04,1.16-1.68,1.6-.63.44-1.31.8-2.03,1.07l-.87.35Zm-4.8,4.39c-.16.02-.3-.03-.41-.13-.11-.1-.18-.22-.19-.37l-1.01-10.62c-.01-.15.02-.28.12-.4.09-.12.22-.19.38-.2l2.36-.22c.16-.02.3.03.41.13.11.1.18.22.19.37l1.01,10.62c.01.15-.03.28-.12.4-.09.12-.22.19-.38.2l-2.36.22Z"/>
        <path class="cls-1" d="m93.38,23.65c-.16.02-.3-.02-.42-.11-.12-.09-.19-.22-.2-.38l-.61-6.46c-.08-.84-.35-1.47-.79-1.87-.45-.4-1.12-.57-2-.48l-4.91.46c-.16.02-.3-.02-.41-.12-.11-.09-.17-.22-.19-.38l-.17-1.77c-.01-.16.02-.3.12-.41.09-.11.22-.17.38-.19l5.02-.48c1.95-.19,3.48.11,4.58.89,1.11.78,1.75,2.11,1.93,4l.61,6.46c.01.15-.03.28-.13.4-.1.12-.22.19-.37.2l-2.44.23Zm-8.03.76c-.16.02-.3-.03-.41-.13-.11-.1-.17-.22-.19-.37l-.61-6.46c-.01-.15.02-.28.12-.4.09-.12.22-.19.38-.2l2.44-.23c.16-.02.3.03.41.13.11.1.17.22.19.37l.61,6.46c.01.15-.02.28-.12.4-.09.12-.22.19-.38.2l-2.44.23Z"/>
      </g>
    </g>
  </g>
</svg>