<?xml version="1.0" encoding="UTF-8"?>
<svg id="Layer_2" data-name="Layer 2" xmlns="http://www.w3.org/2000/svg" viewBox="0 0 308.8 112.69">
  <defs>
    <style>
      .cls-1 {
        fill: #e9e8ef;
      }

      .cls-1, .cls-2 {
        stroke-width: 0px;
      }

      .cls-2 {
        fill: #bf936b;
      }
    </style>
  </defs>
  <g id="text">
    <g>
      <polygon class="cls-2" points="282.65 17.43 256.5 0 256.5 0 0 31.37 9.95 112.69 266.45 81.31 257.08 4.69 261.48 40.66 266.45 81.31 287.62 58.09 308.8 34.87 282.65 17.43"/>
      <g>
        <path class="cls-1" d="m107.49,67.28c1.53,5.58-5.61,11.42-14.19,12.47l-.19.02c-6.32.77-13.71-.22-16.11-4.25-3.87-6.47,12.73-9.94,12.45-2.11-.19,4.87,5.84,3.8,6.45.78,1.55-7.65-18.58-5.72-20.24-14.48-1.25-6.46,5.49-11.35,14.26-12.42l.19-.02c5.1-.62,10.88.63,13.34,4.66,3.53,5.86-9.11,8.51-11.35,1.98-1.9-5.34-5.94-3.6-4.93.34,1.62,6.28,18.17,5.63,20.32,13.03Z"/>
        <path class="cls-1" d="m141.89,47.16c-1.56,2.81-.56,17.36,2.1,19.85.82.82,1.83,2.13,1.97,3.29.31,2.52-3.25,3.41-7.19,3.89l-.52.06c-4,.49-7.67.48-7.98-2.04-.14-1.16.52-2.68,1.19-3.68,1.26-1.99.62-8.85-.6-14.01-.98,2.15-2.49,3.78-3.88,5.25-2.49,2.66-5.78,7.39-3.18,11.46.33.55.6,1.17.66,1.69.31,2.52-3.25,3.41-7.19,3.89l-.58.07c-3.94.48-7.6.47-7.91-2.04-.14-1.16.52-2.68,1.12-3.67,1.98-3.06-.56-17.42-2.68-19.78-.67-.7-1.55-1.97-1.68-3-.3-2.45,3.25-3.41,7.19-3.89l.58-.07c3.94-.48,7.61-.41,7.91,2.05.13,1.03-.42,2.47-.9,3.32-1.01,1.89-.86,9.01.11,14.26.98-2.74,2.71-4.65,4.33-6.36,2.26-2.37,5.24-6.99,3.41-9.59-.48-.73-1.05-1.58-1.14-2.35-.3-2.45,3.25-3.41,7.25-3.9l.52-.06c3.94-.48,7.61-.41,7.91,2.04.13,1.03-.42,2.47-.84,3.31Z"/>
        <path class="cls-1" d="m187.54,65.94c.82,1.86-4.76,2.87-7.27,3.18s-8.94.77-10.21-1.04c-.7-.9.48-1.43.54-2.55.03-.85-.35-2.31-1.09-4.06-.3-.82-1.82-2.59-4.15-2.31l-6.19.76c-3.55.43-2.96,3.11-2.58,4.05,1.1,3.14,4.56,3.57,3.94,5.41-.46,1.56-4.71,2.74-7.09,3.03-2.84.35-6.98.2-6.69-1.67.27-2.06,3.73-2.16,5.77-9.02l4.76-17.8c.64-2.24,2.25-5.12,4.97-5.45l2.45-.3c2.97-.36,5.05,1.68,6.43,4.39,2.53,5.13,7.04,13.68,11.1,19.01,1.79,2.27,4.73,2.83,5.32,4.39Zm-22.39-13.31c-1.29-2.53-2.8-4.7-3.75-6.02-.47-.66-1.25-.57-1.53.38,0,0-1.47,5.09-1.79,6.77-.48,2.48-.13,3.23,2.13,2.95l3.03-.37c2.52-.31,3.11-1.36,1.91-3.7Z"/>
        <path class="cls-1" d="m220.32,61.93c-.02,1.97-3.72,2.75-6.24,3.05-2.52.31-8.19-.04-8.84-5.34l-.24-1.94c-.28-2.26-1.22-3.58-2.71-3.4l-2.71.33c.54,2.82,1.14,4.51,1.96,5.33.88.81,1.9,2.13,2.04,3.29.31,2.52-3.25,3.41-7.19,3.89l-.58.07c-3.94.48-7.6.47-7.91-2.04-.14-1.16.52-2.68,1.12-3.67,1.98-3.06-.56-17.42-2.68-19.78-.67-.7-1.55-1.97-1.68-3-.3-2.45,3.25-3.41,7.19-3.89l8.9-1.09c7.03-.86,13.42,3.21,14.09,8.69.39,3.23-1.24,6.44-4.11,8.69,3.25.32,5.74,1.92,6.3,6.56l.06.52c.33,2.71,3.27,2.09,3.21,3.73Zm-18.66-10.1c2.52-.31,4.38-4.86,3.97-8.28-.43-3.48-3.21-7.47-5.85-7.14-3.48.43-1.6,15.85,1.89,15.42Z"/>
        <path class="cls-1" d="m231.34,43.42l1.81-.22c4.39-.54,3.98-3.89,5.5-4.28,1.21-.28,2.46,2.45,2.75,4.77.29,2.39-.26,5.34-1.51,5.29-1.57,0-1.97-3.29-6.36-2.76l-1.94.24c.8,6.52,3.41,12.88,7.02,12.43,2.26-.28,4.36-1.84,5.27-5.1.99-3.72,8.04-3.34,8.43-.12.41,3.36-3.53,7.04-7.2,7.5l-16.45,2.01c-3.94.48-7.61.47-7.91-2.04-.14-1.16.52-2.68,1.12-3.67,1.98-3.06-.56-17.42-2.68-19.78-.68-.7-1.55-1.97-1.68-3-.3-2.45,3.25-3.41,7.19-3.89l16.45-2.01c3.68-.45,8.39,2.18,8.81,5.6.39,3.16-6.36,5.3-8.21,1.92-1.67-2.94-4.08-3.95-6.34-3.68-3.03.37-4.2,5.29-4.05,10.78Z"/>
      </g>
    </g>
  </g>
</svg>