<?xml version="1.0" encoding="UTF-8"?>
<svg id="Layer_2" data-name="Layer 2" xmlns="http://www.w3.org/2000/svg" viewBox="0 0 288.67 141.96">
  <defs>
    <style>
      .cls-1 {
        fill: none;
        stroke: #fff;
        stroke-miterlimit: 10;
        stroke-width: 2px;
      }
    </style>
  </defs>
  <g id="bg_elements" data-name="bg elements">
    <path class="cls-1" d="m237,33.82c-1.84,0-3.66.09-5.45.25-6.19-18-25.6-31.14-48.6-31.14-16.38,0-30.94,6.67-40.2,17.01C133.61,8.5,118.28,1,100.9,1c-22.08,0-40.84,12.1-47.79,28.99-.48-.01-.95-.03-1.43-.03C23.69,29.96,1,49.4,1,73.39s22.69,43.44,50.67,43.44c2.76,0,5.46-.2,8.09-.56,9.26,10.31,23.81,16.97,40.17,16.97,14.4,0,27.39-5.16,36.62-13.43,8.85,12.67,25.02,21.15,43.5,21.15s35.13-8.75,43.89-21.73c4.17.95,8.54,1.46,13.06,1.46,27.99,0,50.67-19.45,50.67-43.44s-22.69-43.44-50.67-43.44Z"/>
  </g>
</svg>