<?xml version="1.0" encoding="UTF-8"?>
<svg id="Layer_2" data-name="Layer 2" xmlns="http://www.w3.org/2000/svg" viewBox="0 0 660.55 752.78">
  <defs>
    <style>
      .cls-1 {
        stroke-width: 3px;
      }

      .cls-1, .cls-2 {
        fill: none;
        stroke: #e9e8ef;
        stroke-miterlimit: 10;
      }

      .cls-3 {
        fill: #e9e8ef;
        stroke-width: 0px;
      }
    </style>
  </defs>
  <g id="stand">
    <g>
      <g>
        <path class="cls-3" d="m330.55,15.31c42.47,0,83.68,8.32,122.46,24.72,37.46,15.85,71.11,38.53,100.01,67.43,28.9,28.89,51.58,62.54,67.43,100.01,16.41,38.79,24.72,79.99,24.72,122.46s-8.32,83.68-24.72,122.46c-15.85,37.46-38.53,71.11-67.43,100.01-28.89,28.9-62.54,51.58-100.01,67.43-38.79,16.41-79.99,24.72-122.46,24.72s-83.68-8.32-122.46-24.72c-37.46-15.85-71.11-38.53-100.01-67.43-28.9-28.89-51.58-62.54-67.43-100.01-16.41-38.79-24.72-79.99-24.72-122.46s8.32-83.68,24.72-122.46c15.85-37.46,38.53-71.11,67.43-100.01,28.89-28.9,62.54-51.58,100.01-67.43,38.79-16.41,79.99-24.72,122.46-24.72m0-1C156.23,14.31,14.92,155.62,14.92,329.94s141.31,315.62,315.62,315.62,315.62-141.31,315.62-315.62S504.86,14.31,330.55,14.31h0Z"/>
        <g>
          <line class="cls-2" x1="330.55" y1="14.92" x2="330.55" y2="644.95"/>
          <line class="cls-2" x1="107.8" y1="107.19" x2="553.29" y2="552.68"/>
          <line class="cls-2" x1="107.8" y1="552.68" x2="553.29" y2="107.19"/>
          <line class="cls-2" x1="15.53" y1="329.94" x2="645.56" y2="329.94"/>
          <line class="cls-2" x1="35.51" y1="219.55" x2="625.58" y2="440.32"/>
          <line class="cls-2" x1="43.87" y1="460.5" x2="617.22" y2="199.37"/>
          <line class="cls-2" x1="461.11" y1="616.61" x2="199.98" y2="43.26"/>
          <line class="cls-2" x1="220.16" y1="624.97" x2="440.93" y2="34.9"/>
        </g>
        <g>
          <rect class="cls-3" x="543.02" y="94.6" width="29.3" height="15.87" transform="translate(879.51 569.38) rotate(-135)"/>
          <rect class="cls-3" x="429.47" y="20.12" width="29.3" height="15.87" transform="translate(843.55 224.26) rotate(-157.45)"/>
          <rect class="cls-3" x="202.37" y="624.5" width="29.3" height="15.87" transform="translate(174.97 1299.76) rotate(-157.45)"/>
          <rect class="cls-3" x="449.01" y="615.96" width="29.3" height="15.87" transform="translate(1130.46 1023.39) rotate(157.55)"/>
          <rect class="cls-3" x="182.83" y="28.67" width="29.3" height="15.87" transform="translate(393.98 -5) rotate(157.55)"/>
          <rect class="cls-3" x="87.6" y="93.38" width="29.3" height="15.87" transform="translate(246.19 100.65) rotate(135)"/>
          <rect class="cls-3" x="544.24" y="550.02" width="29.3" height="15.87" transform="translate(1348.63 557.3) rotate(135)"/>
          <rect class="cls-3" x="87.6" y="550.02" width="29.3" height="15.87" transform="translate(-219.99 1024.8) rotate(-135)"/>
          <rect class="cls-3" x="13.12" y="209.37" width="29.3" height="15.87" transform="translate(241.3 266.29) rotate(110.2)"/>
          <rect class="cls-3" x="618.72" y="435.25" width="29.3" height="15.87" transform="translate(1268.03 1.83) rotate(110.2)"/>
          <rect class="cls-3" x="610.18" y="188.61" width="29.3" height="15.87" transform="translate(593.51 -457.71) rotate(69.8)"/>
          <rect class="cls-3" x="21.67" y="456.01" width="29.3" height="15.87" transform="translate(459.18 269.64) rotate(69.8)"/>
          <rect class="cls-3" x="316.23" y="0" width="29.3" height="15.87" transform="translate(661.77 15.87) rotate(180)"/>
          <rect class="cls-3" x="316.23" y="644.68" width="29.3" height="15.87" transform="translate(661.77 1305.22) rotate(180)"/>
          <rect class="cls-3" x="637.96" y="321.73" width="29.3" height="15.87" transform="translate(982.28 -322.95) rotate(90)"/>
          <rect class="cls-3" x="-6.72" y="321.73" width="29.3" height="15.87" transform="translate(337.6 321.73) rotate(90)"/>
        </g>
        <g>
          <g>
            <line class="cls-1" x1="284.62" y1="586.16" x2="203.43" y2="752.12"/>
            <line class="cls-1" x1="384.47" y1="584.8" x2="465.67" y2="750.76"/>
          </g>
          <rect class="cls-3" x="186.81" y="728.39" width="295.48" height="23.74" transform="translate(669.1 1480.51) rotate(180)"/>
        </g>
      </g>
      <g>
        <path class="cls-3" d="m330.55,70.6c35.01,0,68.97,6.86,100.95,20.38,30.88,13.06,58.62,31.76,82.43,55.58,23.82,23.82,42.52,51.55,55.58,82.43,13.52,31.97,20.38,65.94,20.38,100.95s-6.86,68.97-20.38,100.95c-13.06,30.88-31.76,58.62-55.58,82.43-23.82,23.82-51.55,42.52-82.43,55.58-31.97,13.52-65.94,20.38-100.95,20.38s-68.97-6.86-100.95-20.38c-30.88-13.06-58.62-31.76-82.43-55.58-23.82-23.82-42.52-51.55-55.58-82.43-13.52-31.97-20.38-65.94-20.38-100.95s6.86-68.97,20.38-100.95c13.06-30.88,31.76-58.62,55.58-82.43,23.82-23.82,51.55-42.52,82.43-55.58,31.97-13.52,65.94-20.38,100.95-20.38m0-1c-143.78,0-260.34,116.56-260.34,260.34s116.56,260.34,260.34,260.34,260.34-116.56,260.34-260.34S474.33,69.6,330.55,69.6h0Z"/>
        <path class="cls-3" d="m330.55,82.74c33.37,0,65.74,6.54,96.22,19.43,29.44,12.45,55.87,30.27,78.57,52.98,22.7,22.7,40.53,49.14,52.98,78.57,12.89,30.48,19.43,62.85,19.43,96.22s-6.54,65.74-19.43,96.22c-12.45,29.44-30.27,55.87-52.98,78.57-22.7,22.7-49.14,40.53-78.57,52.98-30.48,12.89-62.85,19.43-96.22,19.43s-65.74-6.54-96.22-19.43c-29.44-12.45-55.87-30.27-78.57-52.98-22.7-22.7-40.53-49.14-52.98-78.57-12.89-30.47-19.43-62.85-19.43-96.22s6.54-65.74,19.43-96.22c12.45-29.44,30.27-55.87,52.98-78.57,22.7-22.7,49.14-40.53,78.57-52.98,30.48-12.89,62.85-19.43,96.22-19.43m0-1c-137.07,0-248.19,111.12-248.19,248.19s111.12,248.19,248.19,248.19,248.19-111.12,248.19-248.19-111.12-248.19-248.19-248.19h0Z"/>
      </g>
    </g>
  </g>
</svg>