<?xml version="1.0" encoding="utf-8"?>
<!-- Generator: Adobe Illustrator 28.3.0, SVG Export Plug-In . SVG Version: 6.00 Build 0)  -->
<svg version="1.1" id="Layer_2_00000086687779879827515030000011460578816840258721_"
	 xmlns="http://www.w3.org/2000/svg" xmlns:xlink="http://www.w3.org/1999/xlink" x="0px" y="0px" viewBox="0 0 660.5 752.8"
	 style="enable-background:new 0 0 660.5 752.8;" xml:space="preserve">
<style type="text/css">
	.st0{fill:none;stroke:#3C153B;stroke-width:3;stroke-miterlimit:10;}
	.st1{fill:#3C153B;}
</style>
<g id="stand">
	<g>
		<g>
			<path class="st0" d="M330.5,15.3c42.5,0,83.7,8.3,122.5,24.7c37.5,15.8,71.1,38.5,100,67.4c28.9,28.9,51.6,62.5,67.4,100
				c16.4,38.8,24.7,80,24.7,122.5s-8.3,83.7-24.7,122.5c-15.8,37.5-38.5,71.1-67.4,100c-28.9,28.9-62.5,51.6-100,67.4
				c-38.8,16.4-80,24.7-122.5,24.7s-83.7-8.3-122.5-24.7c-37.5-15.8-71.1-38.5-100-67.4c-28.9-28.9-51.6-62.5-67.4-100
				c-16.4-38.8-24.7-80-24.7-122.5s8.3-83.7,24.7-122.5c15.8-37.5,38.5-71.1,67.4-100c28.9-28.9,62.5-51.6,100-67.4
				C246.9,23.6,288.1,15.3,330.5,15.3 M330.5,14.3c-174.3,0-315.6,141.3-315.6,315.6s141.3,315.6,315.6,315.6
				s315.6-141.3,315.6-315.6S504.9,14.3,330.5,14.3L330.5,14.3L330.5,14.3z"/>
			<g>
				<line class="st0" x1="330.5" y1="14.9" x2="330.5" y2="645"/>
				<line class="st0" x1="107.8" y1="107.2" x2="553.3" y2="552.7"/>
				<line class="st0" x1="107.8" y1="552.7" x2="553.3" y2="107.2"/>
				<line class="st0" x1="15.5" y1="329.9" x2="645.6" y2="329.9"/>
				<line class="st0" x1="35.5" y1="219.6" x2="625.6" y2="440.3"/>
				<line class="st0" x1="43.9" y1="460.5" x2="617.2" y2="199.4"/>
				<line class="st0" x1="461.1" y1="616.6" x2="200" y2="43.3"/>
				<line class="st0" x1="220.2" y1="625" x2="440.9" y2="34.9"/>
			</g>
			<g>
				
					<rect x="549.7" y="87.9" transform="matrix(0.7071 -0.7071 0.7071 0.7071 90.831 424.3746)" class="st1" width="15.9" height="29.3"/>
				
					<rect x="436.2" y="13.4" transform="matrix(0.3835 -0.9235 0.9235 0.3835 247.9282 427.4706)" class="st1" width="15.9" height="29.3"/>
				
					<rect x="209.1" y="617.8" transform="matrix(0.3835 -0.9235 0.9235 0.3835 -450.2701 590.3918)" class="st1" width="15.9" height="29.3"/>
				
					<rect x="449" y="615.9" transform="matrix(0.9242 -0.3819 0.3819 0.9242 -203.0883 224.3506)" class="st1" width="29.3" height="15.9"/>
				
					<rect x="182.8" y="28.6" transform="matrix(0.9242 -0.3819 0.3819 0.9242 0.9971 78.1885)" class="st1" width="29.3" height="15.9"/>
				
					<rect x="87.6" y="93.4" transform="matrix(0.7071 -0.7071 0.7071 0.7071 -41.6901 101.9735)" class="st1" width="29.3" height="15.9"/>
				
					<rect x="544.3" y="550" transform="matrix(0.7071 -0.7071 0.7071 0.7071 -230.8397 558.626)" class="st1" width="29.3" height="15.9"/>
				
					<rect x="94.3" y="543.3" transform="matrix(0.7071 -0.7071 0.7071 0.7071 -364.5945 235.7201)" class="st1" width="15.9" height="29.3"/>
				
					<rect x="13.1" y="209.4" transform="matrix(0.3453 -0.9385 0.9385 0.3453 -185.7682 168.3415)" class="st1" width="29.3" height="15.9"/>
				
					<rect x="618.8" y="435.3" transform="matrix(0.3453 -0.9385 0.9385 0.3453 -1.2619 884.6158)" class="st1" width="29.3" height="15.9"/>
				
					<rect x="616.9" y="181.9" transform="matrix(0.9385 -0.3453 0.3453 0.9385 -29.4402 227.8341)" class="st1" width="15.9" height="29.3"/>
				
					<rect x="28.4" y="449.3" transform="matrix(0.9385 -0.3453 0.3453 0.9385 -157.9592 41.0731)" class="st1" width="15.9" height="29.3"/>
				<rect x="316.2" class="st1" width="29.3" height="15.9"/>
				<rect x="316.2" y="644.7" class="st1" width="29.3" height="15.9"/>
				<rect x="644.7" y="315" class="st1" width="15.9" height="29.3"/>
				<rect y="315" class="st1" width="15.9" height="29.3"/>
			</g>
			<g>
				<g>
					<line class="st0" x1="284.6" y1="586.2" x2="203.4" y2="752.1"/>
					<line class="st0" x1="384.5" y1="584.8" x2="465.7" y2="750.8"/>
				</g>
				<rect x="186.8" y="728.4" class="st1" width="295.5" height="23.7"/>
			</g>
		</g>
		<g>
			<path class="st0" d="M330.5,70.6c35,0,69,6.9,101,20.4c30.9,13.1,58.6,31.8,82.4,55.6c23.8,23.8,42.5,51.6,55.6,82.4
				c13.5,32,20.4,65.9,20.4,101s-6.9,69-20.4,101c-13.1,30.9-31.8,58.6-55.6,82.4c-23.8,23.8-51.5,42.5-82.4,55.6
				c-32,13.5-65.9,20.4-101,20.4s-69-6.9-100.9-20.4c-30.9-13.1-58.6-31.8-82.4-55.6c-23.8-23.8-42.5-51.5-55.6-82.4
				c-13.5-32-20.4-65.9-20.4-101s6.9-69,20.4-100.9c13.1-30.9,31.8-58.6,55.6-82.4C171,122.7,198.7,104,229.6,91
				C261.6,77.5,295.5,70.6,330.5,70.6 M330.5,69.6c-143.8,0-260.3,116.6-260.3,260.3s116.6,260.3,260.3,260.3
				s260.3-116.6,260.3-260.3S474.3,69.6,330.5,69.6L330.5,69.6z"/>
			<path class="st0" d="M330.5,82.7c33.4,0,65.7,6.5,96.2,19.4c29.4,12.4,55.9,30.3,78.6,53c22.7,22.7,40.5,49.1,53,78.6
				c12.9,30.5,19.4,62.9,19.4,96.2s-6.5,65.7-19.4,96.2c-12.5,29.4-30.3,55.9-53,78.6c-22.7,22.7-49.1,40.5-78.6,53
				c-30.5,12.9-62.9,19.4-96.2,19.4s-65.7-6.5-96.2-19.4c-29.4-12.5-55.9-30.3-78.6-53c-22.7-22.7-40.5-49.1-53-78.6
				c-12.9-30.5-19.4-62.9-19.4-96.2s6.5-65.7,19.4-96.2c12.4-29.4,30.3-55.9,53-78.6c22.7-22.7,49.1-40.5,78.6-53
				C264.8,89.3,297.2,82.7,330.5,82.7 M330.5,81.7c-137.1,0-248.2,111.1-248.2,248.2s111.1,248.2,248.2,248.2S578.7,467,578.7,329.9
				S467.6,81.7,330.5,81.7C330.5,81.7,330.5,81.7,330.5,81.7z"/>
		</g>
	</g>
</g>
</svg>
