<?xml version="1.0" encoding="UTF-8"?>
<svg id="Layer_2" data-name="Layer 2" xmlns="http://www.w3.org/2000/svg" viewBox="0 0 160.85 202.35">
  <defs>
    <style>
      .cls-1 {
        stroke-miterlimit: 10;
      }

      .cls-1, .cls-2, .cls-3 {
        fill: none;
        stroke: #e9e8ef;
        stroke-width: 2px;
      }

      .cls-2 {
        stroke-linecap: round;
      }

      .cls-2, .cls-3 {
        stroke-linejoin: round;
      }

      .cls-4 {
        fill: #e9e8ef;
        stroke-width: 0px;
      }
    </style>
  </defs>
  <g id="bg_elements" data-name="bg elements">
    <g>
      <path class="cls-4" d="m80.21,179.48c8.76-.11,17.4-1.32,24.01-3.1-.15.15-.3.35-.44.58-.59,1.01-.98,2.72-1.33,4.77-.01.05-.02.1-.03.15h0c-.38,2.28-.72,4.98-1.23,7.6h0s0,.06-.01.09h0c-.35,1.81-.78,3.58-1.37,5.17,0,.02-.01.04-.02.06-.64,1.73-1.47,3.24-2.56,4.33-.03.03-.06.06-.1.09h0c-.33.32-.77.6-1.29.85h0c-1.22.6-2.9,1.06-4.84,1.4-.02,0-.03.01-.06.01h0c-1.05.19-2.17.34-3.35.46-.01,0-.03,0-.05,0-.96.1-1.94.17-2.95.24-.01,0-.03,0-.04,0-.91.05-1.84.09-2.77.12h-.04c-.9.02-1.79.03-2.68.03h-.04c-.9,0-1.78-.01-2.65-.03-.94-.03-1.85-.06-2.72-.12h-.06c-.97-.06-1.88-.12-2.72-.21h-.06c-1.09-.11-2.06-.24-2.85-.38-.01,0-.03,0-.04,0h0c-1.17-.21-1.96-.45-2.22-.72-2.92-2.93-7.28-17.05-8.47-22.49-.17-.82-.74-2.03-.74-2.06,5.99,1.96,13.49,3.01,20.61,3.12,1.03.03,2.06.03,3.1,0Z"/>
      <g>
        <g>
          <path class="cls-1" d="m56.79,153.34c-5.53-3.35-11.75-8.44-17.97-14.74-.18-.18-.35-.36-.53-.54-.68-.7-1.36-1.41-2.04-2.14-11.64-12.42-22.97-28.83-29.5-45.71,0,0,0-.01,0-.02h0c-.16-.4-.31-.79-.45-1.19-.97-2.6-1.83-5.19-2.56-7.8-.02-.07-.04-.14-.06-.22-.2-.72-.39-1.42-.56-2.14-.03-.1-.06-.2-.08-.31h0c-1.63-6.67-2.35-13.28-1.9-19.62,0-.1,0-.19.02-.28.36-4.8,1.4-9.44,3.23-13.83.7-1.68,1.46-3.31,2.28-4.89.05-.09.09-.18.14-.27,4.17-7.97,9.81-14.74,16.59-20.26,2.09-1.7,4.29-3.29,6.59-4.76,1.77-1.13,3.6-2.19,5.49-3.18,5.36-2.83,11.16-5.08,17.31-6.76.06-.02.12-.03.17-.05,1.38-.37,2.78-.72,4.2-1.04,1.49-.34,3.01-.64,4.55-.91.32-.06.64-.11.96-.17.04,0,.08-.01.13-.02,2.56-.42,5.15-.76,7.8-1,.03,0,.07-.01.11-.01,1.83-.17,3.68-.29,5.55-.37.48-.02.96-.04,1.44-.06.03,0,.06,0,.1,0h0c1.23-.03,2.46-.06,3.7-.06.98,0,1.95,0,2.92.02h.1c2.06.03,4.09.1,6.1.19.15,0,.31.01.46.02,2.19.12,4.35.28,6.47.51.1,0,.2.01.3.03h.05c2.39.25,4.73.57,7.03.97t.01,0h0c1.9.33,3.77.72,5.61,1.17.7.17,1.4.35,2.09.54h0s.08.02.12.03c3.32.91,6.52,2.04,9.6,3.43h0c.06.02.11.04.17.08,3.03,1.36,5.94,2.97,8.72,4.87,9.42,6.39,17.44,15.99,23.83,30.19,3.15,6.99,4.76,14.19,4.78,21.67v.46c-.03,5.12-.79,10.37-2.33,15.8-.01.08-.03.15-.06.22-4.58,16.06-15.79,33.55-34.08,53.23-5.69,6.12-12.06,12.45-19.13,19.01"/>
          <path class="cls-3" d="m56.79,153.34c-5.53-3.35-11.75-8.44-17.97-14.74-.18-.18-.35-.36-.53-.54-.68-.7-1.36-1.41-2.04-2.14-19.33-41.51-30.44-83.87,1.51-125.54,1.77-1.13-4.18,2.06-2.29,1.07,5.36-2.83,11.16-5.08,17.31-6.76.06-.02.12-.03.17-.05,1.38-.37,7.7-1.58,9.12-1.9,1.49-.34-1.9.22-.37-.05l35.83-.94c.1,0,.2.01.3.03h.05c2.39.25,4.73.57,7.03.97t.01,0h0c1.9.33,7.01,1.52,7.7,1.71h0s.08.02.12.03c3.32.91,6.52,2.04,9.6,3.43h0c.06.02-1.27-.83,1.51,1.06,20.83,30.56,28.47,65.28-.48,125.44-5.69,6.12-12.06,12.45-19.13,19.01"/>
          <path class="cls-2" d="m104.42,153.43c-6.43,1.82-15.58,3.02-24.17,3.13-1,.02-2,.02-2.99,0-7.1-.12-14.15-1.08-20.06-3.17l-.35-.19C28.03,68.71,40.53,46.49,62.06,2.74c1.81-.41-1.27.1.59-.22.04,0,.08-.01.13-.02,2.56-.42,5.15-.76,7.8-1,.03,0,.07-.01.11-.01,1.83-.17,3.68-.29,5.55-.37h1.88s9.15.08,9.15.08l3.33.02c.15,0,.31.01.46.02,2.29.12,4.56.3,6.77.53h.05c2.39.25,4.73.57,7.03.97t.01,0s36.31,52.12-.49,150.68Z"/>
          <path class="cls-2" d="m83.59,156.21c-1,.02-5.95.03-6.94,0-20.14-76.39-14.58-102.08,1.47-155.07l9.15.06c17.16,57.79,10.91,69.6-3.67,155.01Z"/>
        </g>
        <g>
          <line class="cls-2" x1="46.09" y1="145.79" x2="60.14" y2="177.49"/>
          <line class="cls-3" x1="62.76" y1="154.82" x2="70.37" y2="179.68"/>
          <line class="cls-3" x1="97.48" y1="154.82" x2="89.38" y2="179.68"/>
          <line class="cls-3" x1="80.12" y1="156.55" x2="80.12" y2="179.47"/>
          <line class="cls-2" x1="114.14" y1="143.71" x2="100.34" y2="177.49"/>
        </g>
      </g>
    </g>
  </g>
</svg>