<?xml version="1.0" encoding="UTF-8"?>
<svg id="Layer_2" data-name="Layer 2" xmlns="http://www.w3.org/2000/svg" viewBox="0 0 1947.7 566.76">
  <defs>
    <style>
      .cls-1 {
        stroke: #e9e8ef;
      }

      .cls-1, .cls-2 {
        fill: none;
        stroke-linecap: round;
        stroke-linejoin: round;
        stroke-width: 2px;
      }

      .cls-2 {
        stroke: #e9e8ee;
      }
    </style>
  </defs>
  <g id="Layer_2-2" data-name="Layer 2">
    <g>
      <path class="cls-2" d="m1946.65,256c-5.91-4.93-16.24-13.51-29.37-24.41-3.9-3.24-8.05-6.68-12.4-10.29-11.5-9.54-24.42-20.25-37.98-31.48-1.26-1.05-2.53-2.1-3.8-3.15-13.63-11.3-27.82-23.05-41.78-34.61-1.63-1.34-3.25-2.68-4.86-4.02-12.78-10.58-25.29-20.93-36.92-30.54-4.68-3.88-9.22-7.63-13.57-11.23-10.7-8.85-20.3-16.78-28.2-23.3-12.45-10.28-20.7-17.07-22.45-18.47-.07-.06-.14-.11-.19-.15-6.33-4.97-12.71-9.7-19.14-14.18-.88-.61-1.77-1.22-2.65-1.83-8.09-5.54-16.24-10.67-24.43-15.34-4.89-2.79-9.79-5.41-14.7-7.87-.77-.39-1.55-.77-2.33-1.15-.86-.42-1.72-.84-2.58-1.25-12.24-5.83-24.55-10.6-36.87-14.16l-2.01-.57c-11.41-3.19-22.82-5.34-34.2-6.34l-5.56-.38-1.69-.11c-4.35-.2-8.69-.23-13.02-.08-3.15.11-6.27.3-9.37.57-5.99.51-11.89,1.32-17.7,2.42-.46.08-.91.16-1.36.25-13.97,2.73-27.43,7.07-40.42,12.83-.34.14-.69.3-1.03.45-3.57,1.6-7.11,3.31-10.61,5.12-6.04,3.12-11.99,6.56-17.85,10.27-4.14,2.62-8.23,5.38-12.28,8.29l-.72.51c-9.47,6.82-18.69,14.37-27.69,22.55-.05.05-.11.1-.16.15-4.45,4.05-8.85,8.25-13.21,12.6l-.4.4c-5.81,5.82-11.52,11.89-17.16,18.19-3.1,3.46-6.18,6.99-9.23,10.58-5.06,5.96-10.06,12.09-14.99,18.37-.02.03-.05.06-.07.09-.6.77-1.2,1.53-1.8,2.3-5.32,6.84-10.58,13.85-15.77,21.01-2.48,3.41-4.94,6.85-7.39,10.33-5.56,7.9-11.05,15.95-16.49,24.12-.09.13-.17.26-.26.39-1.5,2.27-3.01,4.55-4.5,6.83-.02.04-.05.07-.07.11-6.73,10.26-13.37,20.71-19.94,31.24-2.18,3.5-4.35,7.01-6.51,10.53-3.41,5.54-6.8,11.09-10.17,16.66-.19.32-.39.64-.58.96-.64,1.07-1.28,2.13-1.93,3.19-4.21,6.98-8.4,13.97-12.57,20.96-2.07,3.46-4.13,6.92-6.19,10.38-6.26,10.51-12.47,20.98-18.66,31.35-.01,0-.02.03-.02.04-.51.83-1.01,1.67-1.51,2.5l-.9,1.5c-5.5,9.2-10.99,18.31-16.47,27.3-2.15,3.51-4.29,7-6.44,10.47-4.36,7.06-8.73,14.02-13.1,20.87-1.51,2.37-3.03,4.72-4.54,7.06-.41.64-.82,1.27-1.23,1.9-2.62,4.03-5.25,8.02-7.87,11.95-2.36,3.52-4.71,7-7.07,10.44-7.5,10.92-15.04,21.4-22.67,31.33h0c-.86,1.14-1.74,2.26-2.61,3.38-.51.66-1.02,1.31-1.54,1.96-7.25,9.22-14.58,17.92-22.01,26.01-3.3,3.6-6.62,7.08-9.97,10.42-2.63,2.63-5.27,5.18-7.93,7.65-.62.58-1.25,1.15-1.87,1.72-4.51,4.1-9.06,7.96-13.66,11.55-8.47,6.63-17.1,12.36-25.92,17.06-.73.39-1.47.77-2.2,1.15-1.81.92-3.62,1.81-5.44,2.64-10.4,4.79-21.08,8.14-32.07,9.86-.58.09-1.17.18-1.75.27-.85.12-1.68.24-2.52.34-.05.01-.11.01-.16.02-13.14,1.71-25.99,1.84-38.77.58-.95-.09-1.89-.19-2.84-.3-.76-.09-1.53-.18-2.29-.28-12.08-1.52-24.14-4.26-36.33-8.03-1.05-.32-2.11-.66-3.16-1-1.48-.47-2.95-.96-4.43-1.46-11.1-3.79-22.34-8.4-33.86-13.68-1.16-.53-2.33-1.07-3.49-1.62-3.8-1.78-7.63-3.63-11.49-5.55-8.65-4.29-17.47-8.92-26.53-13.84-1.25-.68-2.5-1.37-3.76-2.06-3-1.64-6.02-3.31-9.07-5.02-6.08-3.39-12.28-6.89-18.6-10.49-3.31-1.88-6.65-3.8-10.02-5.73-1.35-.78-2.71-1.56-4.08-2.34-11.97-6.88-24.4-14.05-37.38-21.42-1.04-.6-2.09-1.19-3.14-1.79-.04-.02-.07-.04-.11-.06-.38-.22-.77-.43-1.15-.65-11.87-6.72-24.21-13.61-37.05-20.58-1.57-.85-3.15-1.7-4.73-2.56-4.67-2.51-9.39-5.03-14.2-7.55-6.55-3.45-13.23-6.91-20.05-10.37-.82-.42-1.65-.84-2.48-1.26-1.67-.84-3.35-1.69-5.04-2.53-11.46-5.73-23.31-11.47-35.58-17.18-.28-.13-.55-.26-.83-.38-1.78-.83-3.57-1.65-5.37-2.48-11.64-5.34-23.65-10.65-36.08-15.89-1.63-.69-3.28-1.38-4.93-2.06-.25-.11-.51-.22-.77-.32-8.27-3.44-16.72-6.85-25.35-10.21-3.44-1.34-6.91-2.68-10.41-4.01-2-.76-4-1.51-6.02-2.27-9.21-3.44-18.63-6.84-28.26-10.19-2.38-.82-4.77-1.61-7.17-2.36-2.1-.67-4.22-1.3-6.34-1.91-11.45-3.31-23.17-5.85-35.12-7.66-2.21-.34-4.43-.65-6.66-.94-6.53-.85-13.13-1.49-19.79-1.9-.57-.04-1.13-.08-1.7-.11-4.41-.25-8.84-.41-13.3-.48-2.32-.04-4.65-.05-6.99-.03-5.68.02-11.41.2-17.15.51-.61.03-1.21.07-1.82.11-5.14.31-10.3.72-15.49,1.27-2.43.25-4.87.53-7.32.84-11.28,1.37-22.67,3.28-34.13,5.71-2.54.53-5.09,1.1-7.64,1.69-11.22,2.57-22.5,5.63-33.82,9.17-2.65.83-5.3,1.68-7.96,2.56-9.16,3.03-18.35,6.36-27.53,10-1.99.77-3.98,1.58-5.97,2.39-2.76,1.13-5.52,2.28-8.28,3.47-3.54,1.51-7.07,3.06-10.61,4.67-7.53,3.4-15.05,7-22.56,10.8-2.87,1.45-5.73,2.92-8.6,4.43-3.47,1.81-6.94,3.67-10.4,5.58-7.5,4.11-14.99,8.42-22.45,12.91-2.98,1.79-5.96,3.61-8.93,5.47-1.38.85-2.76,1.72-4.13,2.59-5.31,3.36-10.61,6.82-15.89,10.37-4.18,2.81-8.35,5.67-12.5,8.6-3.09,2.18-6.18,4.38-9.26,6.62-7.17,5.21-14.29,10.58-21.37,16.12-.03.02-.05.04-.08.06-3.59,2.82-7.18,5.68-10.75,8.58-3.2,2.6-6.4,5.24-9.58,7.91-5.75,4.82-11.46,9.76-17.12,14.79-3.87,3.45-7.73,6.95-11.57,10.49-1.06.98-2.13,1.97-3.19,2.96-3.31,3.1-6.61,6.23-9.89,9.4-2.9,2.81-5.79,5.64-8.67,8.5-6.85,6.81-13.62,13.78-20.29,20.91-.88.92-1.74,1.84-2.6,2.77-2.36,2.53-4.71,5.09-7.05,7.66-1.06,1.17-2.12,2.34-3.17,3.52-8.11,9.04-16.08,18.32-23.9,27.82"/>
      <line class="cls-1" x1="1946.7" y1="565.76" x2="1" y2="565.76"/>
      <polyline class="cls-1" points="1213.53 356.9 1236.44 356.9 1278.22 356.9 1319.99 356.9 1361.77 356.9 1403.55 356.9 1445.33 356.9 1487.1 356.9 1528.88 356.9 1570.66 356.9 1612.43 356.9 1654.21 356.9 1695.99 356.9 1737.77 356.9 1779.54 356.9 1821.32 356.9 1863.1 356.9 1904.88 356.9 1946.65 356.9"/>
      <polyline class="cls-1" points="264.95 356.9 275.56 356.9 317.34 356.9 359.12 356.9 400.89 356.9 442.67 356.9 484.45 356.9 526.23 356.9 568 356.9 609.78 356.9 610.55 356.9"/>
      <polyline class="cls-1" points="1157.05 440.45 1194.66 440.45 1236.44 440.45 1278.22 440.45 1319.99 440.45 1361.77 440.45 1403.55 440.45 1445.33 440.45 1487.1 440.45 1528.88 440.45 1570.66 440.45 1612.43 440.45 1654.21 440.45 1695.99 440.45 1737.77 440.45 1779.54 440.45 1821.32 440.45 1863.1 440.45 1904.88 440.45 1946.65 440.45"/>
      <polyline class="cls-1" points="128.78 440.45 150.23 440.45 192.01 440.45 233.79 440.45 275.56 440.45 317.34 440.45 359.12 440.45 400.89 440.45 442.67 440.45 484.45 440.45 526.23 440.45 568 440.45 609.78 440.45 651.56 440.45 693.34 440.45 735.11 440.45 776.89 440.45 778.15 440.45"/>
      <polyline class="cls-1" points="1946.65 398.68 1904.88 398.68 1863.1 398.68 1821.32 398.68 1779.54 398.68 1737.77 398.68 1695.99 398.68 1654.21 398.68 1612.43 398.68 1570.66 398.68 1528.88 398.68 1487.1 398.68 1445.33 398.68 1403.55 398.68 1361.77 398.68 1319.99 398.68 1278.22 398.68 1236.44 398.68 1194.66 398.68 1186.79 398.68"/>
      <polyline class="cls-1" points="700.86 398.68 693.34 398.68 651.56 398.68 609.78 398.68 568 398.68 526.23 398.68 484.45 398.68 442.67 398.68 400.89 398.68 359.12 398.68 317.34 398.68 275.56 398.68 233.79 398.68 192.01 398.68 187.88 398.68"/>
      <polyline class="cls-1" points="1946.65 482.22 1904.88 482.22 1863.1 482.22 1821.32 482.22 1779.54 482.22 1737.77 482.22 1695.99 482.22 1654.21 482.22 1612.43 482.22 1570.66 482.22 1528.88 482.22 1487.1 482.22 1445.33 482.22 1403.55 482.22 1361.77 482.22 1319.99 482.22 1278.22 482.22 1236.44 482.22 1194.66 482.22 1152.89 482.22 1120.91 482.22"/>
      <polyline class="cls-1" points="79.76 482.22 108.45 482.22 150.23 482.22 192.01 482.22 233.79 482.22 275.56 482.22 317.34 482.22 359.12 482.22 400.89 482.22 442.67 482.22 484.45 482.22 526.23 482.22 568 482.22 609.78 482.22 651.56 482.22 693.34 482.22 735.11 482.22 776.89 482.22 818.67 482.22 851.37 482.22"/>
      <polyline class="cls-1" points="1917.28 231.59 1904.88 231.59 1863.1 231.59 1821.32 231.59 1779.54 231.59 1737.77 231.59 1695.99 231.59 1654.21 231.59 1612.43 231.59 1570.66 231.59 1528.88 231.59 1487.1 231.59 1445.33 231.59 1403.55 231.59 1361.77 231.59 1319.99 231.59 1288.97 231.59"/>
      <polyline class="cls-1" points="1315.42 189.82 1319.99 189.82 1361.77 189.82 1403.55 189.82 1445.33 189.82 1487.1 189.82 1528.88 189.82 1570.66 189.82 1612.43 189.82 1654.21 189.82 1695.99 189.82 1737.77 189.82 1779.54 189.82 1821.32 189.82 1863.1 189.82 1866.9 189.82"/>
      <polyline class="cls-1" points="1263.72 273.36 1278.22 273.36 1319.99 273.36 1361.77 273.36 1403.55 273.36 1445.33 273.36 1487.1 273.36 1528.88 273.36 1570.66 273.36 1612.43 273.36 1654.21 273.36 1695.99 273.36 1737.77 273.36 1779.54 273.36 1821.32 273.36 1863.1 273.36 1904.88 273.36 1946.65 273.36"/>
      <polyline class="cls-1" points="1946.65 315.13 1904.88 315.13 1863.1 315.13 1821.32 315.13 1779.54 315.13 1737.77 315.13 1695.99 315.13 1654.21 315.13 1612.43 315.13 1570.66 315.13 1528.88 315.13 1487.1 315.13 1445.33 315.13 1403.55 315.13 1361.77 315.13 1319.99 315.13 1278.22 315.13 1238.85 315.13"/>
      <polyline class="cls-1" points="423.7 315.13 442.67 315.13 464.66 315.13"/>
      <polyline class="cls-1" points="1765.97 106.27 1737.77 106.27 1695.99 106.27 1654.21 106.27 1612.43 106.27 1570.66 106.27 1528.88 106.27 1487.1 106.27 1445.33 106.27 1403.55 106.27 1376.76 106.27"/>
      <polyline class="cls-1" points="1715.32 64.5 1695.99 64.5 1654.21 64.5 1612.43 64.5 1570.66 64.5 1528.88 64.5 1487.1 64.5 1445.33 64.5 1416.76 64.5"/>
      <polyline class="cls-1" points="1816.46 148.04 1779.54 148.04 1737.77 148.04 1695.99 148.04 1654.21 148.04 1612.43 148.04 1570.66 148.04 1528.88 148.04 1487.1 148.04 1445.33 148.04 1403.55 148.04 1361.77 148.04 1344.13 148.04"/>
      <polyline class="cls-1" points="1649.3 22.73 1612.43 22.73 1570.66 22.73 1528.88 22.73 1487.1 22.73 1475.46 22.73"/>
      <polyline class="cls-1" points="37.72 523.99 66.68 523.99 108.45 523.99 150.23 523.99 192.01 523.99 233.79 523.99 275.56 523.99 317.34 523.99 359.12 523.99 400.89 523.99 442.67 523.99 484.45 523.99 526.23 523.99 568 523.99 609.78 523.99 651.56 523.99 693.34 523.99 735.11 523.99 776.89 523.99 818.67 523.99 860.44 523.99 902.22 523.99 939.57 523.99"/>
      <polyline class="cls-1" points="1946.65 523.99 1904.88 523.99 1863.1 523.99 1821.32 523.99 1779.54 523.99 1737.77 523.99 1695.99 523.99 1654.21 523.99 1612.43 523.99 1570.66 523.99 1528.88 523.99 1487.1 523.99 1445.33 523.99 1403.55 523.99 1361.77 523.99 1319.99 523.99 1278.22 523.99 1236.44 523.99 1194.66 523.99 1152.89 523.99 1111.11 523.99 1069.33 523.99 1063.89 523.99"/>
      <polyline class="cls-1" points="192.01 565.26 192.01 523.99 192.01 482.22 192.01 440.45 192.01 398.68 192.01 396.09"/>
      <polyline class="cls-1" points="108.45 565.26 108.45 523.99 108.45 482.22 108.45 456.94"/>
      <polyline class="cls-1" points="150.23 424.27 150.23 440.45 150.23 482.22 150.23 523.99 150.23 565.26"/>
      <polyline class="cls-1" points="66.68 494.58 66.68 523.99 66.68 565.26"/>
      <polyline class="cls-1" points="317.34 565.26 317.34 523.99 317.34 482.22 317.34 440.45 317.34 398.68 317.34 356.9 317.34 336.37"/>
      <polyline class="cls-1" points="359.12 324.64 359.12 356.9 359.12 398.68 359.12 440.45 359.12 482.22 359.12 523.99 359.12 565.26"/>
      <polyline class="cls-1" points="275.56 565.26 275.56 523.99 275.56 482.22 275.56 440.45 275.56 398.68 275.56 356.9 275.56 352.23"/>
      <polyline class="cls-1" points="233.79 372.13 233.79 398.68 233.79 440.45 233.79 482.22 233.79 523.99 233.79 565.26"/>
      <polyline class="cls-1" points="442.67 314.51 442.67 315.13 442.67 356.9 442.67 398.68 442.67 440.45 442.67 482.22 442.67 523.99 442.67 565.26"/>
      <polyline class="cls-1" points="484.45 565.26 484.45 523.99 484.45 482.22 484.45 440.45 484.45 398.68 484.45 356.9 484.45 317.03"/>
      <polyline class="cls-1" points="400.89 565.26 400.89 523.99 400.89 482.22 400.89 440.45 400.89 398.68 400.89 356.9 400.89 317.24"/>
      <polyline class="cls-1" points="526.23 325.63 526.23 356.9 526.23 398.68 526.23 440.45 526.23 482.22 526.23 523.99 526.23 565.26"/>
      <polyline class="cls-1" points="568 340.09 568 356.9 568 398.68 568 440.45 568 482.22 568 523.99 568 565.26"/>
      <line class="cls-1" x1="24.9" y1="565.26" x2="24.9" y2="537.94"/>
      <polyline class="cls-1" points="609.78 356.58 609.78 356.9 609.78 398.68 609.78 440.45 609.78 482.22 609.78 523.99 609.78 565.26"/>
      <polyline class="cls-1" points="818.67 565.26 818.67 523.99 818.67 482.22 818.67 463.66"/>
      <polyline class="cls-1" points="735.11 565.26 735.11 523.99 735.11 482.22 735.11 440.45 735.11 416.6"/>
      <polyline class="cls-1" points="776.89 565.26 776.89 523.99 776.89 482.22 776.89 440.45 776.89 439.74"/>
      <polyline class="cls-1" points="693.34 565.26 693.34 523.99 693.34 482.22 693.34 440.45 693.34 398.68 693.34 394.89"/>
      <line class="cls-1" x1="944" y1="565.26" x2="944" y2="525.45"/>
      <line class="cls-1" x1="985.78" y1="565.26" x2="985.78" y2="534.76"/>
      <polyline class="cls-1" points="902.22 508.69 902.22 523.99 902.22 565.26"/>
      <polyline class="cls-1" points="860.44 565.26 860.44 523.99 860.44 487.24"/>
      <polyline class="cls-1" points="1069.33 521.35 1069.33 523.99 1069.33 565.26"/>
      <polyline class="cls-1" points="1111.11 565.26 1111.11 523.99 1111.11 491.59"/>
      <line class="cls-1" x1="1027.55" y1="565.26" x2="1027.55" y2="534.46"/>
      <polyline class="cls-1" points="1152.89 565.26 1152.89 523.99 1152.89 482.22 1152.89 445.79"/>
      <polyline class="cls-1" points="1194.66 565.26 1194.66 523.99 1194.66 482.22 1194.66 440.45 1194.66 398.68 1194.66 386.73"/>
      <polyline class="cls-1" points="651.56 565.26 651.56 523.99 651.56 482.22 651.56 440.45 651.56 398.68 651.56 374.85"/>
      <polyline class="cls-1" points="1236.44 565.26 1236.44 523.99 1236.44 482.22 1236.44 440.45 1236.44 398.68 1236.44 356.9 1236.44 319.13"/>
      <polyline class="cls-1" points="1445.33 565.26 1445.33 523.99 1445.33 482.22 1445.33 440.45 1445.33 398.68 1445.33 356.9 1445.33 315.13 1445.33 273.36 1445.33 231.59 1445.33 189.82 1445.33 148.04 1445.33 106.27 1445.33 64.5 1445.33 41.29"/>
      <polyline class="cls-1" points="1361.77 124.64 1361.77 148.04 1361.77 189.82 1361.77 231.59 1361.77 273.36 1361.77 315.13 1361.77 356.9 1361.77 398.68 1361.77 440.45 1361.77 482.22 1361.77 523.99 1361.77 565.26"/>
      <polyline class="cls-1" points="1403.55 565.26 1403.55 523.99 1403.55 482.22 1403.55 440.45 1403.55 398.68 1403.55 356.9 1403.55 315.13 1403.55 273.36 1403.55 231.59 1403.55 189.82 1403.55 148.04 1403.55 106.27 1403.55 77.1"/>
      <polyline class="cls-1" points="1319.99 182.88 1319.99 189.82 1319.99 231.59 1319.99 273.36 1319.99 315.13 1319.99 356.9 1319.99 398.68 1319.99 440.45 1319.99 482.22 1319.99 523.99 1319.99 565.26"/>
      <polyline class="cls-1" points="1570.66 565.26 1570.66 523.99 1570.66 482.22 1570.66 440.45 1570.66 398.68 1570.66 356.9 1570.66 315.13 1570.66 273.36 1570.66 231.59 1570.66 189.82 1570.66 148.04 1570.66 106.27 1570.66 64.5 1570.66 22.73 1570.66 1.28"/>
      <polyline class="cls-1" points="1612.43 565.26 1612.43 523.99 1612.43 482.22 1612.43 440.45 1612.43 398.68 1612.43 356.9 1612.43 315.13 1612.43 273.36 1612.43 231.59 1612.43 189.82 1612.43 148.04 1612.43 106.27 1612.43 64.5 1612.43 22.73 1612.43 8.57"/>
      <polyline class="cls-1" points="1528.88 565.26 1528.88 523.99 1528.88 482.22 1528.88 440.45 1528.88 398.68 1528.88 356.9 1528.88 315.13 1528.88 273.36 1528.88 231.59 1528.88 189.82 1528.88 148.04 1528.88 106.27 1528.88 64.5 1528.88 22.73 1528.88 4.08"/>
      <polyline class="cls-1" points="1487.1 565.26 1487.1 523.99 1487.1 482.22 1487.1 440.45 1487.1 398.68 1487.1 356.9 1487.1 315.13 1487.1 273.36 1487.1 231.59 1487.1 189.82 1487.1 148.04 1487.1 106.27 1487.1 64.5 1487.1 22.73 1487.1 17.16"/>
      <polyline class="cls-1" points="1695.99 50.17 1695.99 64.5 1695.99 106.27 1695.99 148.04 1695.99 189.82 1695.99 231.59 1695.99 273.36 1695.99 315.13 1695.99 356.9 1695.99 398.68 1695.99 440.45 1695.99 482.22 1695.99 523.99 1695.99 565.26"/>
      <polyline class="cls-1" points="1737.77 82.97 1737.77 106.27 1737.77 148.04 1737.77 189.82 1737.77 231.59 1737.77 273.36 1737.77 315.13 1737.77 356.9 1737.77 398.68 1737.77 440.45 1737.77 482.22 1737.77 523.99 1737.77 565.26"/>
      <polyline class="cls-1" points="1654.21 25.13 1654.21 64.5 1654.21 106.27 1654.21 148.04 1654.21 189.82 1654.21 231.59 1654.21 273.36 1654.21 315.13 1654.21 356.9 1654.21 398.68 1654.21 440.45 1654.21 482.22 1654.21 523.99 1654.21 565.26"/>
      <polyline class="cls-1" points="1779.54 117.5 1779.54 148.04 1779.54 189.82 1779.54 231.59 1779.54 273.36 1779.54 315.13 1779.54 356.9 1779.54 398.68 1779.54 440.45 1779.54 482.22 1779.54 523.99 1779.54 565.26"/>
      <polyline class="cls-1" points="1821.32 565.26 1821.32 523.99 1821.32 482.22 1821.32 440.45 1821.32 398.68 1821.32 356.9 1821.32 315.13 1821.32 273.36 1821.32 231.59 1821.32 189.82 1821.32 152.06"/>
      <polyline class="cls-1" points="1863.1 565.26 1863.1 523.99 1863.1 482.22 1863.1 440.45 1863.1 398.68 1863.1 356.9 1863.1 315.13 1863.1 273.36 1863.1 231.59 1863.1 189.82 1863.1 186.67"/>
      <polyline class="cls-1" points="1904.88 221.3 1904.88 231.59 1904.88 273.36 1904.88 315.13 1904.88 356.9 1904.88 398.68 1904.88 440.45 1904.88 482.22 1904.88 523.99 1904.88 565.26"/>
      <polyline class="cls-1" points="1946.65 256 1946.65 273.36 1946.65 315.13 1946.65 356.9 1946.65 398.68 1946.65 440.45 1946.65 482.22 1946.65 523.99 1946.65 565.26"/>
      <polyline class="cls-1" points="1278.22 565.26 1278.22 523.99 1278.22 482.22 1278.22 440.45 1278.22 398.68 1278.22 356.9 1278.22 315.13 1278.22 273.36 1278.22 249.21"/>
    </g>
  </g>
</svg>