<?xml version="1.0" encoding="UTF-8"?>
<svg id="Layer_2" data-name="Layer 2" xmlns="http://www.w3.org/2000/svg" viewBox="0 0 861.45 586.5">
  <defs>
    <style>
      .cls-1 {
        opacity: .6;
      }

      .cls-2 {
        fill: #e9e8ef;
        stroke-width: 0px;
      }
    </style>
  </defs>
  <g id="arrows">
    <g class="cls-1">
      <path class="cls-2" d="m860.95,585.83H.5c-.28,0-.5-.22-.5-.5v-244.98c0-.28.22-.5.5-.5h860.45c.28,0,.5.22.5.5v244.98c0,.28-.22.5-.5.5Zm-859.95-1h859.45v-243.98H1v243.98Z"/>
      <g>
        <path class="cls-2" d="m860.41,340.82H1.04c-.21,0-.4-.13-.47-.34-.07-.2,0-.42.16-.56L430.42.11c.18-.14.44-.14.62,0l429.69,339.82c.17.13.23.36.16.56-.07.2-.26.34-.47.34Zm-857.94-1h856.5L430.73,1.14,2.48,339.82Z"/>
        <polyline class="cls-2" points="191.11 586.5 191.11 341.52 430.19 .93 429.11 .5 95.27 340.32 95.27 585.3"/>
        <polyline class="cls-2" points="382.8 586.5 382.8 341.52 430.19 .93 286.96 340.32 286.96 585.3"/>
        <polyline class="cls-2" points="573.42 585.3 573.42 340.32 430.19 .93 477.57 341.52 477.57 586.5"/>
        <polyline class="cls-2" points="765.11 585.3 765.11 340.32 431.26 .5 430.19 .93 669.26 341.52 669.26 586.5"/>
      </g>
      <g>
        <path class="cls-2" d="m573.86,340.48h95.84v46.33c0,26.45-21.47,47.92-47.92,47.92h0c-26.45,0-47.92-21.47-47.92-47.92v-46.33h0Z"/>
        <path class="cls-2" d="m478.24,340.48h95.84v46.33c0,26.45-21.47,47.92-47.92,47.92h0c-26.45,0-47.92-21.47-47.92-47.92v-46.33h0Z"/>
        <path class="cls-2" d="m382.62,340.48h95.84v46.33c0,26.45-21.47,47.92-47.92,47.92h0c-26.45,0-47.92-21.47-47.92-47.92v-46.33h0Z"/>
        <path class="cls-2" d="m287,340.48h95.84v46.33c0,26.45-21.47,47.92-47.92,47.92h0c-26.45,0-47.92-21.47-47.92-47.92v-46.33h0Z"/>
        <path class="cls-2" d="m191.38,340.48h95.84v46.33c0,26.45-21.47,47.92-47.92,47.92h0c-26.45,0-47.92-21.47-47.92-47.92v-46.33h0Z"/>
        <path class="cls-2" d="m.14,340.48h95.84v46.33c0,26.45-21.47,47.92-47.92,47.92h0c-26.45,0-47.92-21.47-47.92-47.92v-46.33H.14Z"/>
        <path class="cls-2" d="m669.48,340.48h95.84v46.33c0,26.45-21.47,47.92-47.92,47.92h0c-26.45,0-47.92-21.47-47.92-47.92v-46.33h0Z"/>
        <path class="cls-2" d="m765.11,340.48h95.84v46.33c0,26.45-21.47,47.92-47.92,47.92h0c-26.45,0-47.92-21.47-47.92-47.92v-46.33h0Z"/>
        <path class="cls-2" d="m95.76,340.48h95.84v46.33c0,26.45-21.47,47.92-47.92,47.92h0c-26.45,0-47.92-21.47-47.92-47.92v-46.33h0Z"/>
      </g>
    </g>
  </g>
</svg>