<?xml version="1.0" encoding="UTF-8"?>
<svg id="Layer_2" data-name="Layer 2" xmlns="http://www.w3.org/2000/svg" viewBox="0 0 1363.99 166.24">
  <defs>
    <style>
      .cls-1 {
        fill: #ea526f;
      }

      .cls-1, .cls-2, .cls-3, .cls-4 {
        stroke-width: 0px;
      }

      .cls-2 {
        fill: #e9e8ef;
      }

      .cls-3 {
        fill: #bc4259;
      }

      .cls-4 {
        fill: #bcbcc1;
      }
    </style>
  </defs>
  <g id="stand">
    <g>
      <g>
        <path class="cls-4" d="m20,97.7h50.88c11.04,0,20,8.96,20,20v48.54H0v-48.54C0,106.67,8.96,97.7,20,97.7Z" transform="translate(90.88 263.95) rotate(180)"/>
        <polygon class="cls-2" points="90.88 97.7 .01 97.7 28.31 1 119.18 1 90.88 97.7"/>
      </g>
      <g>
        <path class="cls-3" d="m111.13,97.7h50.88c11.04,0,20,8.96,20,20v48.54h-90.88v-48.54c0-11.04,8.96-20,20-20Z" transform="translate(273.14 263.95) rotate(180)"/>
        <polygon class="cls-1" points="182.01 97.7 91.14 97.7 119.45 1 210.31 1 182.01 97.7"/>
      </g>
      <g>
        <path class="cls-4" d="m202.27,97.7h50.88c11.04,0,20,8.96,20,20v48.54h-90.88v-48.54c0-11.04,8.96-20,20-20Z" transform="translate(455.41 263.95) rotate(180)"/>
        <polygon class="cls-2" points="273.14 97.7 182.28 97.7 210.58 1 301.45 1 273.14 97.7"/>
      </g>
      <g>
        <path class="cls-3" d="m293.4,97.7h50.88c11.04,0,20,8.96,20,20v48.54h-90.88v-48.54c0-11.04,8.96-20,20-20Z" transform="translate(637.67 263.95) rotate(180)"/>
        <polygon class="cls-1" points="364.28 97.7 273.41 97.7 301.71 1 392.58 1 364.28 97.7"/>
      </g>
      <g>
        <path class="cls-4" d="m383.53,97.7h50.88c11.04,0,20,8.96,20,20v48.54h-90.88v-48.54c0-11.04,8.96-20,20-20Z" transform="translate(817.94 263.95) rotate(180)"/>
        <polygon class="cls-2" points="454.41 97.7 363.54 97.7 391.84 1 482.71 1 454.41 97.7"/>
      </g>
      <g>
        <path class="cls-3" d="m474.66,97.7h50.88c11.04,0,20,8.96,20,20v48.54h-90.88v-48.54c0-11.04,8.96-20,20-20Z" transform="translate(1000.2 263.95) rotate(180)"/>
        <polygon class="cls-1" points="545.54 97.7 454.67 97.7 482.98 1 573.84 1 545.54 97.7"/>
      </g>
      <g>
        <path class="cls-4" d="m565.79,97.7h50.88c11.04,0,20,8.96,20,20v48.54h-90.88v-48.54c0-11.04,8.96-20,20-20Z" transform="translate(1182.47 263.95) rotate(180)"/>
        <polygon class="cls-2" points="636.67 97.7 545.81 97.7 574.11 1 664.98 1 636.67 97.7"/>
      </g>
      <g>
        <path class="cls-4" d="m1273.11,96.7h90.88v48.54c0,11.04-8.96,20-20,20h-50.88c-11.04,0-20-8.96-20-20v-48.54h0Z"/>
        <polygon class="cls-2" points="1273.11 96.7 1363.98 96.7 1335.68 0 1244.81 0 1273.11 96.7"/>
      </g>
      <g>
        <path class="cls-3" d="m1181.98,96.7h90.88v48.54c0,11.04-8.96,20-20,20h-50.88c-11.04,0-20-8.96-20-20v-48.54h0Z"/>
        <polygon class="cls-1" points="1181.98 96.7 1272.85 96.7 1244.55 0 1153.68 0 1181.98 96.7"/>
      </g>
      <g>
        <path class="cls-4" d="m1090.85,96.7h90.88v48.54c0,11.04-8.96,20-20,20h-50.88c-11.04,0-20-8.96-20-20v-48.54h0Z"/>
        <polygon class="cls-2" points="1090.85 96.7 1181.72 96.7 1153.41 0 1062.55 0 1090.85 96.7"/>
      </g>
      <g>
        <path class="cls-3" d="m999.72,96.7h90.88v48.54c0,11.04-8.96,20-20,20h-50.88c-11.04,0-20-8.96-20-20v-48.54h0Z"/>
        <polygon class="cls-1" points="999.72 96.7 1090.58 96.7 1062.28 0 971.41 0 999.72 96.7"/>
      </g>
      <g>
        <path class="cls-4" d="m908.58,96.7h90.88v48.54c0,11.04-8.96,20-20,20h-50.88c-11.04,0-20-8.96-20-20v-48.54h0Z"/>
        <polygon class="cls-2" points="908.58 96.7 999.45 96.7 971.15 0 880.28 0 908.58 96.7"/>
      </g>
      <g>
        <path class="cls-4" d="m726.32,96.7h90.88v48.54c0,11.04-8.96,20-20,20h-50.88c-11.04,0-20-8.96-20-20v-48.54h0Z"/>
        <polygon class="cls-2" points="726.32 96.7 817.19 96.7 788.88 0 698.02 0 726.32 96.7"/>
      </g>
      <g>
        <path class="cls-3" d="m817.45,96.7h90.88v48.54c0,11.04-8.96,20-20,20h-50.88c-11.04,0-20-8.96-20-20v-48.54h0Z"/>
        <polygon class="cls-1" points="817.45 96.7 908.32 96.7 880.01 0 789.15 0 817.45 96.7"/>
      </g>
      <g>
        <path class="cls-3" d="m636.19,97.7h90.88v48.54c0,11.04-8.96,20-20,20h-50.88c-11.04,0-20-8.96-20-20v-48.54h0Z"/>
        <polygon class="cls-1" points="636.19 97.7 727.05 97.7 715.05 0 647.95 0 636.19 97.7"/>
      </g>
    </g>
  </g>
</svg>