<?xml version="1.0" encoding="UTF-8"?>
<svg id="Layer_2" data-name="Layer 2" xmlns="http://www.w3.org/2000/svg" viewBox="0 0 1293 318.67">
  <defs>
    <style>
      .cls-1 {
        fill: #592059;
      }

      .cls-1, .cls-2 {
        stroke-width: 0px;
      }

      .cls-2 {
        fill: #d0d0f4;
      }
    </style>
  </defs>
  <g id="arrows">
    <path class="cls-2" d="m1293,0v1.84c-119.01,80.44-258.23,126.66-407.01,126.66h-477.98C258.82,128.5,119.23,82.02,0,1.16V0h1293Z"/>
    <path class="cls-2" d="m364.47,204.4s164.68,33.74,308.79,0c157.27-36.82,290.42,0,290.42,0v98.82s-121.05-26.4-266.32,0c-191.29,34.76-331.32,0-331.32,0l-1.57-98.82Z"/>
    <rect class="cls-2" x="365.08" y="97.28" width="5" height="127.5"/>
    <rect class="cls-2" x="958.19" y="95.28" width="5" height="129.5"/>
    <g>
      <path class="cls-1" d="m509.86,254.6l1.65.32c.66.13,1.09.35,1.3.67.21.32.24.63.1.94-.43.86-.8,1.69-1.12,2.47-.32.79-.59,1.58-.81,2.39-.21.81-.42,1.73-.63,2.78l-1.83,10.71c-.06.3-.2.52-.43.67-.23.15-.49.2-.8.14l-7.82-1.56c-.28-.05-.49-.19-.65-.42-.16-.22-.21-.48-.15-.78l.49-2.54c.06-.29.2-.52.43-.67.23-.15.48-.2.75-.15l3.29.68,1.37-7.04c.18-.94.38-1.82.58-2.64.2-.82.46-1.65.78-2.48.32-.83.72-1.7,1.21-2.61.2-.32.47-.58.79-.79s.82-.24,1.48-.11Zm-5.24,1.66c-.3-.06-.53-.2-.69-.43-.16-.22-.2-.48-.15-.78l.53-2.74c.06-.29.2-.52.43-.67.23-.15.49-.2.8-.14l10.67,2.07c2.44.48,4.42,1.22,5.93,2.24,1.51,1.02,2.54,2.33,3.08,3.94.54,1.61.59,3.55.15,5.83l-2.35,12.11c-.06.3-.2.52-.43.67-.23.15-.48.2-.75.15l-3.91-.76c-.3-.06-.53-.2-.69-.43-.16-.22-.21-.47-.16-.74l2.32-11.95c.33-1.72.16-3.11-.51-4.19-.67-1.08-1.96-1.8-3.85-2.17l-10.42-2.03Z"/>
      <path class="cls-1" d="m529.95,279.64c-.3-.04-.54-.17-.71-.39-.17-.22-.23-.47-.19-.77l2.97-21.15c.04-.3.17-.53.39-.69.22-.16.48-.22.79-.18l4.15.58c.28.04.5.17.67.38.17.22.23.47.19.77l-2.97,21.15c-.04.3-.17.53-.39.69-.22.16-.47.22-.75.18l-4.16-.58Z"/>
      <path class="cls-1" d="m541.76,281.31c-.28-.02-.51-.15-.68-.37-.18-.22-.25-.48-.23-.78l.47-5.39c.13-1.44.37-2.73.74-3.87.37-1.13.95-2.16,1.76-3.08.81-.92,1.95-1.76,3.42-2.54l2.57,4.38c-.83.45-1.46,1-1.89,1.65-.44.65-.74,1.31-.91,2-.17.68-.28,1.33-.34,1.92l-.47,5.39c-.03.33-.15.58-.36.75-.21.17-.46.25-.74.22l-3.34-.29Zm15.97,1.39c-.42-.04-.72-.17-.91-.39-.19-.22-.34-.39-.44-.51l-13.25-22.39c-.12-.2-.17-.41-.16-.63.02-.22.12-.41.3-.57.18-.16.4-.23.65-.21l3.97.35c.42.04.72.17.89.39.18.22.32.41.42.55l13.42,22.37c.1.15.16.27.18.37.02.1.03.19.02.27-.02.22-.13.41-.32.57-.2.16-.41.23-.63.21l-4.14-.36Zm-.45-7.9l-2.49-4.33c1.07-.4,1.85-.87,2.31-1.4.47-.54.78-1.11.93-1.71.15-.6.25-1.21.3-1.8l.45-5.19c.03-.33.15-.58.36-.75.21-.17.46-.25.74-.22l3.55.31c.28.02.51.15.68.37.18.22.25.48.23.78l-.47,5.35c-.1,1.12-.34,2.19-.72,3.23-.39,1.04-1.03,2.01-1.94,2.92-.91.91-2.22,1.73-3.94,2.45Z"/>
      <path class="cls-1" d="m582.01,279.02c1.57,0,2.94-.31,4.11-.92,1.18-.61,2.08-1.47,2.71-2.56.63-1.09.95-2.32.95-3.69v-10.74c0-.27.11-.51.32-.7.21-.19.45-.29.73-.29h3.57c.28,0,.52.1.71.29.2.19.29.44.29.74v10.95c0,1.8-.32,3.44-.93,4.9-.62,1.46-1.49,2.71-2.62,3.73-1.13,1.02-2.44,1.81-3.92,2.36-1.48.55-3.11.8-4.87.78h-3.73c-2.15,0-4.02-.43-5.6-1.3-1.58-.86-2.8-2.02-3.67-3.47-.87-1.45-1.3-3.08-1.3-4.88v-13.08c0-.3.11-.55.3-.74.2-.19.45-.29.76-.29h3.52c.31,0,.56.1.76.29.2.19.29.42.29.7l.08,10.7c0,2.32.61,4.11,1.84,5.35,1.23,1.25,2.77,1.87,4.61,1.87h1.09Zm-8.31-3.33l-.04-4.14c1.51-.03,2.68-.29,3.5-.8.83-.5,1.41-1.22,1.74-2.15.34-.93.5-2.01.51-3.24v-4.18c0-.33.1-.59.3-.78.2-.19.43-.29.71-.29h3.52c.31,0,.56.11.76.31.19.21.29.46.29.76v4.31c0,2.11-.44,3.92-1.31,5.45-.87,1.53-2.14,2.71-3.82,3.54-1.68.83-3.73,1.23-6.17,1.21Z"/>
      <path class="cls-1" d="m614.73,281.91c-.31.03-.57-.04-.78-.22-.21-.17-.33-.39-.35-.67l-1.08-12.13c-.15-1.74-.71-3.04-1.67-3.88-.96-.85-2.39-1.19-4.28-1.02l-6.06.54c-.28.02-.52-.05-.74-.22-.21-.17-.33-.41-.36-.71l-.25-2.78c-.03-.3.05-.55.23-.76.18-.21.41-.32.69-.35l6.31-.56c2.48-.22,4.59-.07,6.32.47,1.73.53,3.08,1.49,4.05,2.87.97,1.38,1.55,3.26,1.76,5.63l1.1,12.33c.03.3-.05.55-.23.76-.18.21-.41.33-.69.35l-3.97.35Z"/>
      <path class="cls-1" d="m642.7,277.79c-.28.05-.53,0-.75-.16s-.36-.37-.41-.64l-2.12-11.99c-.3-1.72-.97-2.96-2-3.73s-2.48-.98-4.35-.65l-8.88,1.57c-.3.05-.57,0-.79-.15-.23-.15-.37-.38-.42-.67l-.48-2.75c-.05-.3,0-.55.16-.78.16-.22.39-.36.69-.41l9.09-1.61c3.66-.65,6.58-.32,8.76.99,2.18,1.31,3.57,3.67,4.17,7.09l2.12,11.99c.05.3,0,.56-.16.78-.16.22-.39.36-.69.41l-3.93.69Zm-15.29,2.7c-.3.05-.57,0-.79-.15-.23-.15-.37-.38-.42-.67l-2.17-12.32c-.05-.27,0-.52.16-.76.16-.24.39-.38.69-.43l3.92-.69c.28-.05.53.01.76.18.23.17.37.39.41.65l2.17,12.31c.05.3,0,.56-.16.78-.16.22-.38.36-.65.41l-3.93.69Z"/>
      <path class="cls-1" d="m660.16,254.67c-.3.09-.56.06-.81-.07-.24-.13-.4-.34-.49-.63l-.78-2.68c-.08-.29-.06-.55.08-.79.13-.24.35-.4.65-.49l10.44-3.02c2.39-.69,4.49-.93,6.3-.71,1.81.22,3.32.92,4.54,2.1,1.22,1.18,2.15,2.89,2.79,5.12l3.43,11.85c.08.29.06.55-.08.79s-.34.4-.6.47l-3.83,1.11c-.3.09-.56.06-.81-.06-.24-.13-.4-.33-.48-.59l-3.39-11.69c-.49-1.68-1.28-2.85-2.37-3.5-1.09-.65-2.56-.71-4.42-.17l-10.2,2.95Zm3.9-3.86l1.61-.47c.64-.19,1.13-.19,1.46,0s.5.45.51.79c.02.96.06,1.87.13,2.72.07.85.19,1.68.37,2.5.18.82.42,1.74.71,2.76l3.26,10.37c.08.29.06.55-.08.79-.14.24-.35.4-.65.49l-7.67,2.18c-.27.08-.52.05-.77-.08-.24-.13-.4-.34-.49-.63l-.72-2.48c-.08-.29-.06-.55.08-.79.13-.24.34-.4.6-.47l3.24-.89-2-6.89c-.27-.92-.5-1.79-.69-2.62-.2-.83-.34-1.68-.44-2.56-.1-.88-.13-1.84-.11-2.87.04-.38.15-.73.35-1.06.2-.33.62-.58,1.26-.77Z"/>
      <path class="cls-1" d="m692.5,264.49c-.3.09-.56.07-.81-.06-.24-.13-.41-.33-.49-.62l-6.13-20.46c-.09-.29-.06-.55.07-.79.13-.24.35-.4.64-.49l4.02-1.21c.27-.08.52-.06.77.07.24.13.41.34.49.62l6.13,20.46c.09.29.06.55-.07.79-.13.24-.33.4-.6.48l-4.02,1.21Z"/>
      <path class="cls-1" d="m713.93,253.7c1.52-.39,2.77-1.03,3.75-1.92.98-.89,1.64-1.94,1.98-3.16.34-1.22.34-2.49,0-3.81l-2.68-10.4c-.07-.26-.02-.52.13-.75.16-.24.37-.39.64-.46l3.45-.89c.27-.07.52-.03.76.1.24.14.39.35.47.64l2.73,10.6c.45,1.75.56,3.41.33,4.97-.23,1.57-.77,2.99-1.61,4.27-.84,1.28-1.91,2.36-3.21,3.26-1.3.9-2.81,1.55-4.52,1.97l-3.62.93c-2.09.54-4,.59-5.75.15-1.75-.44-3.22-1.25-4.42-2.44-1.2-1.19-2.03-2.65-2.48-4.4l-3.26-12.67c-.07-.29-.04-.55.1-.79.14-.23.36-.39.66-.47l3.41-.88c.3-.08.57-.05.8.09.24.14.39.34.46.6l2.75,10.34c.58,2.25,1.62,3.82,3.12,4.72,1.5.9,3.15,1.12,4.94.66l1.06-.27Zm-8.87-1.14l-1.07-4c1.46-.4,2.52-.95,3.19-1.65.67-.69,1.06-1.54,1.15-2.52.09-.98-.01-2.07-.32-3.26l-1.04-4.05c-.08-.32-.05-.59.09-.83.14-.23.35-.39.62-.46l3.41-.88c.3-.08.57-.04.81.11s.4.37.47.66l1.07,4.17c.53,2.04.56,3.91.1,5.61-.46,1.7-1.4,3.16-2.81,4.39-1.42,1.23-3.31,2.13-5.67,2.71Z"/>
      <path class="cls-1" d="m742.7,252.42c-.3.05-.56,0-.77-.17-.21-.16-.35-.39-.43-.68l-4.42-11.79c-.43-1.12-.86-2.04-1.29-2.74-.42-.71-.93-1.21-1.51-1.5-.58-.29-1.35-.37-2.29-.22l-1.45.23c-.3.05-.57,0-.79-.16-.22-.16-.36-.39-.41-.68l-.48-3c-.04-.27.02-.51.18-.73.16-.22.4-.35.7-.4l1.58-.25c2.18-.35,4-.28,5.45.19,1.45.48,2.68,1.38,3.68,2.72,1,1.33,1.92,3.11,2.76,5.33l4.46,12.04c.1.29.06.54-.13.77-.19.22-.43.36-.7.4l-4.14.66Zm-4.8-1.32c-.98.82-1.89,1.48-2.74,1.99-.85.51-1.75.93-2.69,1.28-.27.07-.51.08-.72.03-.21-.05-.33-.21-.37-.48l-.58-3.64c-.07-.46.16-.84.71-1.15.18-.11.53-.29,1.04-.54.51-.25,1.07-.53,1.67-.85.6-.32,1.11-.62,1.51-.9.58-.45,1.12-1,1.63-1.65.51-.65.92-1.33,1.25-2.04.33-.72.51-1.38.55-2l2.4-.42c.13,1.53.07,2.94-.18,4.24-.25,1.3-.67,2.47-1.27,3.5-.6,1.04-1.34,1.91-2.22,2.63Z"/>
      <path class="cls-1" d="m759.78,250.68c-.31.02-.56-.05-.75-.23-.2-.18-.32-.42-.37-.71l-1.55-12.55c-.14-1.09-.32-2-.56-2.75-.24-.75-.62-1.31-1.13-1.68-.52-.37-1.28-.52-2.28-.45l-2.01.15c-.28.02-.52-.06-.73-.23-.21-.18-.32-.41-.35-.71l-.2-2.78c-.02-.27.06-.51.24-.72.18-.21.41-.32.69-.34l2.13-.16c1.76-.13,3.26-.03,4.5.29,1.24.32,2.27.88,3.07,1.67.8.79,1.43,1.79,1.88,3.01.45,1.21.78,2.65.99,4.31l1.55,12.51c.05.3-.02.55-.22.76-.2.21-.43.32-.71.34l-4.18.31Zm-8.58.63c-.28.02-.52-.06-.73-.23-.21-.18-.32-.41-.35-.71l-.2-2.78c-.02-.3.06-.55.24-.76.18-.2.41-.32.69-.34l13.01-.96.29,3.92c.02.27-.06.5-.24.68-.18.18-.41.28-.69.3l-12.01.88Z"/>
      <path class="cls-1" d="m775.87,229l1.68.04c.67.02,1.14.17,1.39.45.26.28.34.58.25.91-.28.92-.51,1.8-.7,2.63-.19.83-.32,1.66-.4,2.49-.08.83-.13,1.78-.16,2.85l-.03,10.87c0,.3-.11.54-.31.73-.2.19-.46.28-.76.27l-7.97-.25c-.28,0-.51-.11-.71-.31-.19-.2-.28-.45-.27-.75l.07-2.58c0-.3.11-.55.31-.73s.44-.28.72-.27l3.35.13.18-7.17c.02-.96.07-1.86.13-2.7.06-.85.18-1.7.36-2.58.18-.87.43-1.79.76-2.77.15-.35.37-.65.65-.91.29-.25.76-.37,1.44-.35Zm-4.89,2.5c-.31,0-.56-.11-.75-.31-.19-.2-.28-.45-.27-.75l.07-2.79c0-.3.11-.54.31-.73.2-.19.45-.28.76-.27l10.86.28c2.49.06,4.56.47,6.22,1.23,1.66.75,2.89,1.88,3.69,3.38.8,1.5,1.17,3.41,1.11,5.73l-.32,12.34c0,.3-.11.54-.31.73-.2.19-.44.27-.72.27l-3.99-.1c-.31,0-.56-.11-.75-.31-.19-.2-.28-.43-.28-.7l.31-12.17c.04-1.75-.35-3.1-1.2-4.05-.84-.95-2.23-1.45-4.16-1.5l-10.61-.27Z"/>
      <path class="cls-1" d="m798.13,251.22c-.31-.04-.54-.17-.71-.39-.17-.22-.23-.47-.19-.77l1.68-12.39c.04-.27.17-.49.39-.67.22-.18.48-.24.79-.2l3.95.54c.28.04.5.17.67.4.17.23.23.48.2.75l-1.68,12.39c-.04.3-.17.53-.39.69s-.47.23-.74.19l-3.95-.53Zm15.38,2.08c-.28-.04-.5-.16-.67-.38-.17-.22-.23-.46-.2-.73l1.63-12.07c.23-1.73-.02-3.12-.77-4.16-.75-1.04-2.07-1.69-3.95-1.94l-8.94-1.21c-.31-.04-.54-.17-.71-.39-.17-.21-.23-.47-.19-.77l.37-2.76c.04-.3.17-.53.39-.69.22-.16.48-.22.79-.18l9.15,1.24c3.69.5,6.37,1.7,8.04,3.61,1.67,1.91,2.28,4.58,1.81,8.02l-1.63,12.07c-.04.3-.17.53-.39.69-.22.16-.48.22-.79.18l-3.95-.54Z"/>
    </g>
  </g>
</svg>