<?xml version="1.0" encoding="UTF-8"?>
<svg id="Layer_2" data-name="Layer 2" xmlns="http://www.w3.org/2000/svg" viewBox="0 0 128 122.5">
  <defs>
    <style>
      .cls-1 {
        fill: #592059;
      }

      .cls-1, .cls-2 {
        stroke-width: 0px;
      }

      .cls-2 {
        fill: #d0d0f4;
      }
    </style>
  </defs>
  <g id="arrows">
    <g>
      <rect class="cls-2" x="59.08" width="5" height="83"/>
      <g>
        <rect class="cls-2" y="70.5" width="128" height="52" rx="12" ry="12"/>
        <g>
          <path class="cls-1" d="m31.29,105.96c-.17,0-.33-.06-.46-.2-.13-.13-.2-.28-.2-.46v-16.9c0-.19.06-.35.2-.47.13-.12.28-.18.46-.18h2.81c.29,0,.51.07.65.22.14.15.22.26.26.35l4.58,8.19,4.58-8.19c.05-.09.14-.2.27-.35.13-.15.34-.22.64-.22h2.78c.19,0,.35.06.48.18.13.12.19.28.19.47v16.9c0,.17-.06.33-.19.46-.13.13-.29.2-.48.2h-3.09c-.19,0-.35-.06-.48-.2-.13-.13-.19-.28-.19-.46v-9.75l-2.91,5.44c-.09.16-.2.29-.34.42-.14.12-.33.18-.57.18h-1.35c-.24,0-.43-.06-.57-.18-.14-.12-.25-.26-.34-.42l-2.94-5.44v9.75c0,.17-.06.33-.18.46-.12.13-.28.2-.47.2h-3.12Z"/>
          <path class="cls-1" d="m58.12,106.22c-2.05,0-3.67-.55-4.89-1.66-1.21-1.11-1.85-2.76-1.9-4.94v-.91c.05-1.37.36-2.54.92-3.52.56-.98,1.34-1.72,2.34-2.23,1-.51,2.16-.77,3.5-.77,1.52,0,2.79.3,3.78.91s1.75,1.43,2.25,2.47c.5,1.04.75,2.23.75,3.56v.62c0,.19-.06.35-.18.47-.12.12-.28.18-.47.18h-8.32v.18c.02.5.11.96.27,1.38.16.42.41.75.73.99s.71.36,1.18.36c.35,0,.64-.05.87-.17.23-.11.43-.24.58-.39.16-.15.28-.27.36-.38.16-.19.28-.31.38-.35.1-.04.25-.06.46-.06h3.22c.17,0,.32.05.43.16.11.1.16.24.14.42-.02.29-.16.65-.44,1.07s-.68.83-1.21,1.23c-.53.41-1.19.74-1.99,1-.8.26-1.73.39-2.78.39Zm-2.21-8.4h4.39v-.05c0-.57-.08-1.06-.25-1.47-.17-.41-.42-.72-.75-.95s-.74-.34-1.21-.34-.84.11-1.17.34c-.33.22-.58.54-.75.95-.17.41-.26.9-.26,1.47v.05Z"/>
          <path class="cls-1" d="m67.98,105.96c-.19,0-.35-.06-.47-.2-.12-.13-.18-.28-.18-.46v-12.22c0-.19.06-.35.18-.47s.28-.18.47-.18h2.99c.19,0,.35.06.48.18.13.12.2.28.2.47v.99c.43-.54,1.01-.99,1.74-1.35.73-.36,1.59-.54,2.57-.54s1.89.22,2.67.68c.77.45,1.38,1.11,1.82,1.98s.66,1.94.66,3.22v7.25c0,.17-.06.33-.18.46-.12.13-.28.2-.47.2h-3.28c-.17,0-.33-.06-.46-.2-.13-.13-.2-.28-.2-.46v-7.1c0-.81-.19-1.44-.58-1.88-.39-.44-.97-.66-1.73-.66-.71,0-1.28.22-1.7.66-.43.44-.64,1.07-.64,1.88v7.1c0,.17-.06.33-.19.46-.13.13-.28.2-.46.2h-3.25Z"/>
          <path class="cls-1" d="m89.01,106.22c-.99,0-1.87-.22-2.64-.68-.77-.45-1.37-1.11-1.81-1.99-.43-.88-.65-1.95-.65-3.21v-7.25c0-.19.06-.35.18-.47.12-.12.28-.18.47-.18h3.25c.19,0,.35.06.48.18.13.12.19.28.19.47v7.1c0,1.7.75,2.55,2.26,2.55.71,0,1.28-.22,1.7-.66s.64-1.07.64-1.88v-7.1c0-.19.06-.35.18-.47.12-.12.28-.18.47-.18h3.25c.19,0,.35.06.47.18.12.12.18.28.18.47v12.22c0,.17-.06.33-.18.46-.12.13-.28.2-.47.2h-3.02c-.17,0-.32-.06-.45-.2-.13-.13-.2-.28-.2-.46v-.99c-.45.62-1.04,1.1-1.75,1.42-.72.32-1.57.48-2.56.48Z"/>
        </g>
      </g>
    </g>
  </g>
</svg>