<?xml version="1.0" encoding="UTF-8"?>
<svg id="Layer_2" data-name="Layer 2" xmlns="http://www.w3.org/2000/svg" viewBox="0 0 134.05 65.45">
  <defs>
    <style>
      .cls-1 {
        fill: #592059;
        font-family: Rubik-Bold, Rubik;
        font-size: 22.68px;
        font-weight: 700;
      }

      .cls-2 {
        fill: #fff;
        opacity: .75;
        stroke-width: 0px;
      }
    </style>
  </defs>
  <g id="bg_elements" data-name="bg elements">
    <g>
      <path class="cls-2" d="m110.35,15.35c-.86,0-1.71.04-2.55.12-2.89-8.42-11.97-14.56-22.73-14.56-7.66,0-14.47,3.12-18.8,7.95C62.01,3.51,54.84,0,46.71,0c-10.32,0-19.1,5.66-22.35,13.55-.22,0-.45-.01-.67-.01C10.61,13.54,0,22.63,0,33.85s10.61,20.31,23.7,20.31c1.29,0,2.55-.09,3.78-.26,4.33,4.82,11.13,7.93,18.78,7.93,6.73,0,12.81-2.41,17.12-6.28,4.14,5.92,11.7,9.89,20.34,9.89s16.43-4.09,20.52-10.16c1.95.44,3.99.68,6.11.68,13.09,0,23.7-9.09,23.7-20.31s-10.61-20.31-23.7-20.31Z"/>
      <text class="cls-1" transform="translate(36.34 42.32)"><tspan x="0" y="0">Menu</tspan></text>
    </g>
  </g>
</svg>