<?xml version="1.0" encoding="UTF-8"?>
<svg id="Layer_2" data-name="Layer 2" xmlns="http://www.w3.org/2000/svg" viewBox="0 0 1293.44 306.73">
  <defs>
    <style>
      .cls-1 {
        fill: #e9e8ee;
      }

      .cls-1, .cls-2 {
        stroke-width: 0px;
      }

      .cls-2 {
        fill: #77c688;
      }
    </style>
  </defs>
  <g id="arrows">
    <g>
      <path class="cls-2" d="m0,162.85v-2c215.07,0,344.78-43.69,415.73-80.35C492.56,40.8,518.9.6,519.16.19l1.68,1.08c-.26.41-26.79,40.97-104.01,80.91-45.29,23.43-98.94,42.09-159.45,55.47-75.6,16.72-162.2,25.2-257.39,25.2Z"/>
      <path class="cls-2" d="m1264.48,251.49c-102.57,0-203.38-11.7-300.12-34.86-84.67-20.27-166.41-49.31-242.96-86.31C591.04,67.3,520.02,2.12,519.32,1.47l1.36-1.47c.7.65,71.55,65.66,201.67,128.55,120.08,58.04,316.63,126.08,571.05,120.63l.04,2c-9.66.21-19.33.31-28.97.31Z"/>
      <polygon class="cls-2" points="87.28 217.58 117.48 157.43 37.61 161.56 87.28 217.58"/>
      <polygon class="cls-1" points="216.19 204.87 229.77 142.88 151.93 153.64 216.19 204.87"/>
      <polygon class="cls-2" points="345.22 177.95 332.74 115.89 261.45 136.32 345.22 177.95"/>
      <polygon class="cls-1" points="455.47 138.21 420.69 78.83 358.3 106.83 455.47 138.21"/>
      <polygon class="cls-2" points="552.64 82.21 493.44 29.13 444.82 64.57 552.64 82.21"/>
      <polygon class="cls-1" points="958.42 276.68 956.65 214.24 1032.02 229.48 958.42 276.68"/>
      <polygon class="cls-2" points="1077.2 296.55 1059.17 234.92 1137.72 243.94 1077.2 296.55"/>
      <polygon class="cls-1" points="1199.17 306.73 1165.43 247.17 1245.49 249.84 1199.17 306.73"/>
      <polygon class="cls-2" points="843.62 247.44 858.36 185.53 928.89 206.75 843.62 247.44"/>
      <polygon class="cls-1" points="728.96 206.51 758.25 146.22 823.14 172.42 728.96 206.51"/>
      <polygon class="cls-2" points="633.62 162.82 674.69 104.69 733.98 134.7 633.62 162.82"/>
      <polygon class="cls-1" points="539.14 109.51 592.75 54.62 644.96 88.45 539.14 109.51"/>
    </g>
  </g>
</svg>