<?xml version="1.0" encoding="UTF-8"?>
<svg id="Layer_2" data-name="Layer 2" xmlns="http://www.w3.org/2000/svg" viewBox="0 0 569.6 232.48">
  <defs>
    <style>
      .cls-1 {
        stroke-width: 0px;
      }

      .cls-1, .cls-2, .cls-3, .cls-4, .cls-5 {
        fill: #e9e8ee;
      }

      .cls-2, .cls-6 {
        stroke-width: 4px;
      }

      .cls-2, .cls-6, .cls-3, .cls-4, .cls-5 {
        stroke: #e9e8ee;
        stroke-miterlimit: 10;
      }

      .cls-6 {
        fill: none;
      }

      .cls-3 {
        stroke-width: 2px;
      }

      .cls-5 {
        stroke-width: .25px;
      }
    </style>
  </defs>
  <g id="logo">
    <g>
      <g>
        <path class="cls-4" d="m26.27,216.36c0,3.79,2.13,6.85,4.76,6.85h42.18c2.63,0,4.76-3.06,4.76-6.85v-57.58c0-3.02-2.04-5.47-4.56-5.47H30.83c-2.52,0-4.56,2.45-4.56,5.47v57.58Z"/>
        <circle class="cls-4" cx="52.12" cy="121.51" r="20.73"/>
        <path class="cls-4" d="m73.21,9.26H5.26c-2.63,0-4.76,3.07-4.76,6.86v49.27c0,3.74,2.08,6.78,4.67,6.85l16.42.37c2.6.06,4.68,3.11,4.68,6.85v4.77c0,3.02,2.04,5.47,4.55,5.47h42.6c2.51,0,4.55-2.45,4.55-5.47V16.12c0-3.79-2.13-6.86-4.76-6.86Z"/>
      </g>
      <path class="cls-6" d="m318.16,111.08c-.45-9.76-2.19-19.19-5.05-28.12-1.03-3.24-2.21-6.4-3.53-9.5-4.85-11.39-11.59-21.79-19.82-30.8-2.28-2.5-4.67-4.89-7.18-7.16-7.11-6.48-15.08-12.02-23.72-16.46-3-1.54-6.07-2.94-9.23-4.2-11.07-4.43-23.05-7.1-35.57-7.65-1.64-.08-3.29-.12-4.95-.12s-3.46.04-5.19.12c-9.87.46-19.39,2.23-28.4,5.14-3.24,1.04-6.4,2.23-9.5,3.57-11.23,4.83-21.49,11.48-30.4,19.6-2.5,2.27-4.9,4.66-7.18,7.16-7.17,7.85-13.21,16.75-17.85,26.46h0c-1.02,2.15-1.98,4.32-2.87,6.54-4.41,11.03-7.09,22.95-7.66,35.42-.08,1.71-.12,3.44-.12,5.16s.03,3.33.12,4.97c.44,9.9,2.2,19.45,5.12,28.5.95,2.97,2.03,5.89,3.23,8.75l.02.04c4.85,11.55,11.63,22.08,19.94,31.21,2.28,2.5,4.67,4.89,7.16,7.18,7.15,6.54,15.18,12.13,23.9,16.59,3,1.54,6.08,2.93,9.23,4.19,10.99,4.39,22.86,7.04,35.27,7.62,1.72.08,3.45.12,5.19.12s3.31-.03,4.95-.12c10.43-.46,20.47-2.38,29.93-5.57h.03c2.74-.94,5.43-1.97,8.06-3.11,11.31-4.84,21.63-11.55,30.59-19.73h0c2.49-2.28,4.88-4.67,7.16-7.17,7.27-7.98,13.38-17.06,18.04-26.94v-.02c.9-1.88,1.74-3.79,2.52-5.74,4.49-11.14,7.2-23.2,7.75-35.81.08-1.65.12-3.31.12-4.97s-.04-3.45-.12-5.16Z"/>
      <g>
        <g>
          <polyline class="cls-3" points="209.02 150.44 209.02 201.97 209.02 206.17 209.02 224.99 209.02 225.08"/>
          <polyline class="cls-3" points="209.02 79.96 209.02 30.27 209.02 26.07 209.02 7.49 209.02 7.16"/>
          <polyline class="cls-3" points="286.07 39.07 272.7 52.45 269.72 55.42 230.91 94.23"/>
          <polyline class="cls-3" points="185.02 140.12 148.32 176.83 145.34 179.79 132.03 193.1 131.98 193.17"/>
          <polyline class="cls-3" points="131.98 39.07 132.36 39.45 145.34 52.45 148.32 55.42 185.02 92.12"/>
          <polyline class="cls-3" points="286.07 193.17 286 193.1 272.7 179.79 269.72 176.83 229.8 136.9"/>
          <polyline class="cls-3" points="100.06 116.12 100.37 116.12 118.97 116.12 123.17 116.12 185.02 116.12"/>
          <polyline class="cls-3" points="255.14 116.12 294.87 116.12 299.07 116.12 317.87 116.12 317.98 116.12"/>
          <polyline class="cls-3" points="106.97 154.3 124.66 147.68 128.6 146.21 185.02 125.1"/>
          <polyline class="cls-3" points="244.27 102.94 289.45 86.03 293.39 84.56 311.08 77.94"/>
          <polyline class="cls-3" points="109.86 70.96 127.05 78.79 130.88 80.53 185.02 105.19"/>
          <polyline class="cls-3" points="308.18 161.28 291 153.45 287.17 151.71 240.02 130.24"/>
          <polyline class="cls-3" points="254.18 16.96 254.06 17.22 246.35 34.15 244.61 37.98 221.72 88.23"/>
          <polyline class="cls-3" points="163.86 215.28 163.9 215.21 171.69 198.09 173.43 194.27 190.36 157.09"/>
          <polyline class="cls-3" points="170.84 14.07 170.89 14.2 177.46 31.76 178.93 35.7 192.71 72.52"/>
          <polyline class="cls-3" points="247.21 218.17 240.59 200.48 239.11 196.54 219.34 143.72"/>
        </g>
        <g>
          <rect class="cls-2" x="125.39" y="34.72" width="10.14" height="5.49" transform="translate(11.72 103.22) rotate(-45)"/>
          <rect class="cls-2" x="164.67" y="8.96" width="10.14" height="5.49" transform="translate(8.48 65.98) rotate(-22.55)"/>
          <rect class="cls-2" x="243.22" y="218.01" width="10.14" height="5.49" transform="translate(-65.67 112.07) rotate(-22.55)"/>
          <rect class="cls-2" x="157.91" y="215.05" width="10.14" height="5.49" transform="translate(95.54 -45.74) rotate(22.45)"/>
          <rect class="cls-2" x="249.98" y="11.92" width="10.14" height="5.49" transform="translate(24.94 -96.3) rotate(22.45)"/>
          <rect class="cls-2" x="282.92" y="34.3" width="10.14" height="5.49" transform="translate(110.54 -192.79) rotate(45)"/>
          <rect class="cls-2" x="124.97" y="192.25" width="10.14" height="5.49" transform="translate(175.97 -34.84) rotate(45)"/>
          <rect class="cls-2" x="282.92" y="192.25" width="10.14" height="5.49" transform="translate(-53.53 260.75) rotate(-45)"/>
          <rect class="cls-2" x="308.68" y="74.42" width="10.14" height="5.49" transform="translate(277.82 -243.93) rotate(69.8)"/>
          <rect class="cls-2" x="99.21" y="152.55" width="10.14" height="5.49" transform="translate(214.01 3.8) rotate(69.8)"/>
          <rect class="cls-2" x="102.16" y="67.24" width="10.14" height="5.49" transform="translate(209.94 -6.48) rotate(110.2)"/>
          <rect class="cls-2" x="305.72" y="159.73" width="10.14" height="5.49" transform="translate(570.6 -73.09) rotate(110.2)"/>
          <rect class="cls-2" x="203.84" y="2" width="10.14" height="5.49"/>
          <rect class="cls-2" x="203.84" y="224.99" width="10.14" height="5.49"/>
          <rect class="cls-2" x="92.55" y="113.28" width="10.14" height="5.49" transform="translate(213.65 18.41) rotate(90)"/>
          <rect class="cls-2" x="315.54" y="113.28" width="10.14" height="5.49" transform="translate(436.64 -204.58) rotate(90)"/>
        </g>
        <path class="cls-5" d="m229.8,136.9l-10.45,6.82-10.32,6.73-9.3,6.07c-3.03,1.98-6.53,1.96-9.36.58-3.06-1.5-5.34-4.61-5.34-8.54v-66.7c0-4.88,3.51-8.5,7.69-9.33,2.29-.46,4.78-.08,7.01,1.37l9.3,6.07,12.7,8.28,9.19,5.99,13.35,8.71,6.6,4.3c3.17,2.07,4.59,5.55,4.27,8.88-.26,2.73-1.68,5.36-4.27,7.04l-10.85,7.08-10.22,6.66Z"/>
      </g>
      <path class="cls-6" d="m562.41,111.08c-.45-9.76-2.19-19.19-5.05-28.12-1.03-3.24-2.21-6.4-3.53-9.5-4.85-11.39-11.59-21.79-19.82-30.8-2.28-2.5-4.67-4.89-7.18-7.16-7.11-6.48-15.08-12.02-23.72-16.46-3-1.54-6.07-2.94-9.23-4.2-11.07-4.43-23.05-7.1-35.57-7.65-1.64-.08-3.29-.12-4.95-.12s-3.46.04-5.19.12c-9.87.46-19.39,2.23-28.4,5.14-3.24,1.04-6.4,2.23-9.5,3.57-11.23,4.83-21.49,11.48-30.4,19.6-2.5,2.27-4.9,4.66-7.18,7.16-7.17,7.85-13.21,16.75-17.85,26.46h0c-1.02,2.15-1.98,4.32-2.87,6.54-4.41,11.03-7.09,22.95-7.66,35.42-.08,1.71-.12,3.44-.12,5.16s.03,3.33.12,4.97c.44,9.9,2.2,19.45,5.12,28.5.95,2.97,2.03,5.89,3.23,8.75l.02.04c4.85,11.55,11.63,22.08,19.94,31.21,2.28,2.5,4.67,4.89,7.16,7.18,7.15,6.54,15.18,12.13,23.9,16.59,3,1.54,6.08,2.93,9.23,4.19,10.99,4.39,22.86,7.04,35.27,7.62,1.72.08,3.45.12,5.19.12s3.31-.03,4.95-.12c10.43-.46,20.47-2.38,29.93-5.57h.03c2.74-.94,5.43-1.97,8.06-3.11,11.31-4.84,21.63-11.55,30.59-19.73h0c2.49-2.28,4.88-4.67,7.16-7.17,7.27-7.98,13.38-17.06,18.04-26.94v-.02c.9-1.88,1.74-3.79,2.52-5.74,4.49-11.14,7.2-23.2,7.75-35.81.08-1.65.12-3.31.12-4.97s-.04-3.45-.12-5.16Z"/>
      <g>
        <g>
          <polyline class="cls-3" points="453.27 118.64 453.27 201.97 453.27 206.17 453.27 224.99 453.27 225.08"/>
          <polyline class="cls-3" points="453.27 82.7 453.27 30.27 453.27 26.07 453.27 7.49 453.27 7.16"/>
          <polyline class="cls-3" points="450.72 118.68 392.57 176.83 389.59 179.79 376.28 193.1 376.23 193.17"/>
          <polyline class="cls-3" points="486.68 82.7 513.97 55.42 516.95 52.45 530.32 39.07"/>
          <polyline class="cls-3" points="376.23 39.07 376.61 39.45 389.59 52.45 392.57 55.42 419.86 82.7"/>
          <polyline class="cls-3" points="530.32 193.17 530.25 193.1 516.95 179.79 513.97 176.83 455.99 118.84"/>
          <polyline class="cls-3" points="344.31 116.12 344.62 116.12 363.22 116.12 367.42 116.12 393.74 116.12"/>
          <polyline class="cls-3" points="562.23 116.12 562.12 116.12 543.32 116.12 539.12 116.12 511.22 116.12"/>
          <polyline class="cls-3" points="351.22 154.3 368.91 147.68 372.85 146.21 398.04 136.78"/>
          <polyline class="cls-3" points="555.33 77.94 537.64 84.56 533.7 86.03 508.73 95.37"/>
          <polyline class="cls-3" points="354.11 70.96 371.3 78.79 375.13 80.53 398.73 91.28"/>
          <polyline class="cls-3" points="552.43 161.28 535.25 153.45 531.42 151.71 504.71 139.54"/>
          <polyline class="cls-3" points="498.43 16.96 498.31 17.22 490.6 34.15 488.86 37.98 468.49 82.7"/>
          <polyline class="cls-3" points="408.11 215.28 408.15 215.21 415.94 198.09 417.68 194.27 452.13 118.62"/>
          <polyline class="cls-3" points="415.09 14.07 415.14 14.2 421.71 31.76 423.18 35.7 440.77 82.7"/>
          <polyline class="cls-3" points="491.46 218.17 484.84 200.48 483.36 196.54 454.23 118.68"/>
        </g>
        <g>
          <rect class="cls-2" x="369.64" y="34.72" width="10.14" height="5.49" transform="translate(83.26 275.93) rotate(-45)"/>
          <rect class="cls-2" x="408.92" y="8.96" width="10.14" height="5.49" transform="translate(27.15 159.63) rotate(-22.55)"/>
          <rect class="cls-2" x="487.47" y="218.01" width="10.14" height="5.49" transform="translate(-47 205.72) rotate(-22.55)"/>
          <rect class="cls-2" x="402.16" y="215.05" width="10.14" height="5.49" transform="translate(114.06 -139.03) rotate(22.45)"/>
          <rect class="cls-2" x="494.23" y="11.92" width="10.14" height="5.49" transform="translate(43.45 -189.59) rotate(22.45)"/>
          <rect class="cls-2" x="527.17" y="34.3" width="10.14" height="5.49" transform="translate(182.08 -365.5) rotate(45)"/>
          <rect class="cls-2" x="369.22" y="192.25" width="10.14" height="5.49" transform="translate(247.51 -207.55) rotate(45)"/>
          <rect class="cls-2" x="527.17" y="192.25" width="10.14" height="5.49" transform="translate(18.01 433.46) rotate(-45)"/>
          <rect class="cls-2" x="552.93" y="74.42" width="10.14" height="5.49" transform="translate(437.72 -473.15) rotate(69.8)"/>
          <rect class="cls-2" x="343.46" y="152.55" width="10.14" height="5.49" transform="translate(373.91 -225.42) rotate(69.8)"/>
          <rect class="cls-2" x="346.41" y="67.24" width="10.14" height="5.49" transform="translate(538.54 -235.71) rotate(110.2)"/>
          <rect class="cls-2" x="549.98" y="159.73" width="10.14" height="5.49" transform="translate(899.2 -302.31) rotate(110.2)"/>
          <rect class="cls-2" x="448.09" y="2" width="10.14" height="5.49"/>
          <rect class="cls-2" x="448.09" y="224.99" width="10.14" height="5.49"/>
          <rect class="cls-2" x="336.8" y="113.28" width="10.14" height="5.49" transform="translate(457.9 -225.85) rotate(90)"/>
          <rect class="cls-2" x="559.79" y="113.28" width="10.14" height="5.49" transform="translate(680.89 -448.83) rotate(90)"/>
        </g>
        <path class="cls-1" d="m508.71,95.83c-.09-.2-.18-.39-.28-.58-3.61-7.43-10.8-12.52-19.03-12.52h-73.77c-6.64,0-12.59,3.31-16.55,8.47-.13.17-.25.34-.38.51-2.87,3.97-4.58,8.96-4.58,14.37v16.18c0,5.21,1.59,10.03,4.27,13.92.63.91,1.31,1.76,2.04,2.56,3.9,4.24,9.28,6.86,15.2,6.86,3.59,0,6.82-2.38,8.12-6.02,4.27-11.94,14.67-20.55,27.01-21.29.46-.04.93-.06,1.4-.06.12,0,.23,0,.35,0,.27,0,.53,0,.79.02.32,0,.63.02.95.05.59.02,1.17.08,1.74.15,11.57,1.41,21.21,9.77,25.27,21.14,1.3,3.64,4.53,6.02,8.13,6.02h0c5.83,0,11.15-2.55,15.03-6.69,3.99-4.24,6.47-10.15,6.47-16.65v-16.18c0-3.67-.79-7.16-2.19-10.25Zm-84.88,13.59c0,.28-.22.51-.5.51h-6.88v6.88c0,.28-.23.5-.51.5h-3.61c-.27,0-.5-.22-.5-.5v-6.88h-6.88c-.28,0-.5-.23-.5-.51v-3.61c0-.27.22-.5.5-.5h6.88v-6.88c0-.28.23-.5.5-.5h3.61c.28,0,.51.22.51.5v6.88h6.88c.28,0,.5.23.5.5v3.61Zm62.25-.22c0,.27-.23.5-.51.5h-3.61c-.27,0-.5-.23-.5-.5v-3.61c0-.28.23-.5.5-.5h3.61c.28,0,.51.22.51.5v3.61Zm7.38,7.38c0,.28-.23.5-.5.5h-3.61c-.28,0-.51-.22-.51-.5v-3.61c0-.27.23-.5.51-.5h3.61c.27,0,.5.23.5.5v3.61Zm0-14.77c0,.28-.23.51-.5.51h-3.61c-.28,0-.51-.23-.51-.51v-3.61c0-.27.23-.5.51-.5h3.61c.27,0,.5.23.5.5v3.61Zm7.38,7.39c0,.27-.22.5-.5.5h-3.61c-.28,0-.5-.23-.5-.5v-3.61c0-.28.22-.5.5-.5h3.61c.28,0,.5.22.5.5v3.61Z"/>
      </g>
    </g>
  </g>
</svg>