<?xml version="1.0" encoding="UTF-8"?>
<svg id="Layer_2" data-name="Layer 2" xmlns="http://www.w3.org/2000/svg" viewBox="0 0 308.78 935">
  <defs>
    <style>
      .cls-1 {
        fill: #e9e8ef;
      }

      .cls-1, .cls-2 {
        stroke-width: 0px;
      }

      .cls-2 {
        fill: #bf936b;
      }
    </style>
  </defs>
  <g id="text">
    <g>
      <path class="cls-2" d="m308.78,44.11l-40.32-4.93v-19.18c0-11.05-8.95-20-20-20h-7c-11.05,0-20,8.95-20,20v13.43L52.29,12.74l.02-.19-26.16,17.42L0,47.39l21.17,23.23,21.17,23.23,4.99-40.65.39-3.2-5.39,44.05,179.13,21.91v819.04h47V121.71l30.38,3.72,9.95-81.31Z"/>
      <g>
        <path class="cls-1" d="m92.57,64.83c.11,5.78-8.26,9.69-16.83,8.59l-.19-.03c-6.32-.81-13.23-3.6-14.56-8.09-2.15-7.22,14.79-6.49,12.58,1.02-1.39,4.67,4.72,5.13,6.06,2.35,3.39-7.04-16.59-10.12-16.04-19.03.38-6.57,8.12-9.64,16.89-8.52l.19.02c5.09.65,10.39,3.3,11.78,7.8,1.98,6.54-10.93,6-11.49-.88-.52-5.64-4.87-4.95-4.87-.89.02,6.49,16.22,9.95,16.48,17.65Z"/>
        <path class="cls-1" d="m130.88,53.82c-2.2,2.34-4.83,16.68-2.86,19.75.59.99,1.25,2.52,1.1,3.68-.32,2.51-3.99,2.5-7.92,2l-.52-.07c-4-.51-7.55-1.43-7.23-3.94.15-1.16,1.17-2.47,2.06-3.27,1.71-1.62,2.78-8.42,2.87-13.72-1.48,1.84-3.34,3.04-5.05,4.13-3.07,1.97-7.42,5.73-5.91,10.32.18.61.29,1.28.23,1.8-.32,2.52-3.99,2.5-7.92,2l-.58-.07c-3.93-.5-7.49-1.42-7.16-3.93.15-1.16,1.17-2.47,1.99-3.28,2.68-2.48,3.76-17.02,2.28-19.83-.48-.85-1.02-2.29-.88-3.32.31-2.45,3.99-2.5,7.92-2l.58.07c3.93.5,7.48,1.48,7.16,3.93-.13,1.03-1.02,2.29-1.7,2.99-1.45,1.58-3.06,8.52-3.42,13.85,1.62-2.41,3.77-3.84,5.77-5.09,2.78-1.74,6.8-5.49,5.67-8.45-.29-.82-.62-1.78-.52-2.56.31-2.45,3.99-2.5,7.99-1.99l.52.07c3.93.5,7.48,1.48,7.16,3.93-.13,1.03-1.02,2.29-1.63,3Z"/>
        <path class="cls-1" d="m170.48,83.28c.33,2.01-5.32,1.61-7.83,1.29-2.51-.32-8.85-1.46-9.64-3.53-.46-1.04.82-1.27,1.15-2.34.24-.82.23-2.33-.05-4.2-.09-.86-1.13-2.96-3.45-3.26l-6.19-.79c-3.55-.46-3.64,2.29-3.5,3.29.3,3.31,3.54,4.58,2.48,6.22-.83,1.4-5.24,1.49-7.62,1.18-2.84-.36-6.82-1.53-6.07-3.27.77-1.93,4.15-1.17,7.82-7.32l9.01-16.08c1.18-2.01,3.45-4.41,6.16-4.06l2.45.31c2.97.38,4.48,2.87,5.15,5.84,1.18,5.59,3.45,14.99,6.07,21.16,1.17,2.64,3.89,3.91,4.07,5.57Zm-18.41-18.42c-.63-2.77-1.55-5.25-2.15-6.76-.3-.76-1.07-.86-1.57,0,0,0-2.68,4.57-3.41,6.12-1.08,2.29-.92,3.09,1.33,3.38l3.03.39c2.51.32,3.35-.55,2.76-3.12Z"/>
        <path class="cls-1" d="m203.23,87.48c-.51,1.9-4.29,1.74-6.8,1.42-2.51-.32-7.93-2.07-7.25-7.35l.25-1.93c.29-2.26-.3-3.77-1.79-3.96l-2.71-.35c-.17,2.86,0,4.65.59,5.65.66,1,1.31,2.53,1.16,3.69-.32,2.51-3.99,2.5-7.92,2l-.58-.07c-3.93-.5-7.49-1.42-7.16-3.93.15-1.16,1.17-2.47,1.99-3.28,2.68-2.47,3.76-17.02,2.28-19.83-.48-.85-1.02-2.29-.88-3.32.31-2.45,3.99-2.5,7.92-2l8.9,1.14c7.03.9,12.22,6.42,11.51,11.9-.41,3.22-2.79,5.93-6.13,7.41,3.07,1.11,5.08,3.27,4.49,7.92l-.07.51c-.35,2.71,2.65,2.83,2.19,4.41Zm-15.59-14.39c2.51.32,5.45-3.63,5.88-7.04.45-3.48-1.26-8.03-3.91-8.37-3.48-.45-5.46,14.96-1.98,15.41Z"/>
        <path class="cls-1" d="m218.49,72.27l1.8.23c4.38.56,4.82-2.79,6.39-2.79,1.24.03,1.78,2.98,1.48,5.3-.31,2.39-1.57,5.11-2.77,4.75-1.52-.39-1.1-3.68-5.49-4.24l-1.93-.25c-.84,6.51.13,13.32,3.74,13.78,2.26.29,4.68-.71,6.36-3.64,1.87-3.37,8.62-1.25,8.2,1.97-.43,3.35-5.16,5.96-8.83,5.49l-16.44-2.11c-3.93-.5-7.49-1.42-7.16-3.93.15-1.16,1.17-2.47,1.99-3.28,2.68-2.47,3.76-17.02,2.28-19.83-.48-.85-1.02-2.29-.88-3.32.31-2.45,3.99-2.5,7.92-2l16.44,2.11c3.67.47,7.59,4.19,7.15,7.6-.41,3.16-7.47,3.56-8.43-.16-.89-3.26-2.98-4.84-5.24-5.13-3.03-.39-5.38,4.1-6.59,9.44Z"/>
      </g>
    </g>
  </g>
</svg>